<?xml version="1.0" standalone="no"?>
<!DOCTYPE svg PUBLIC "-//W3C//DTD SVG 1.1//EN" "http://www.w3.org/Graphics/SVG/1.1/DTD/svg11.dtd" >
<svg xmlns="http://www.w3.org/2000/svg" xmlns:xlink="http://www.w3.org/1999/xlink" version="1.1">
<metadata>
Created by FontForge 20170731 at Tue Jul 25 16:01:43 2023
 By Aleksey,,,
Copyright (c) 2014 by Jonathan Hill. All rights reserved.
</metadata>
<defs>
<font id="LoewNextArabic-Black" horiz-adv-x="0" >
  <font-face 
    font-family="Loew Next Arabic Black"
    font-weight="900"
    font-stretch="normal"
    units-per-em="2048"
    panose-1="2 11 9 4 3 3 2 2 2 4"
    ascent="1536"
    descent="-512"
    x-height="1024"
    cap-height="1434"
    bbox="-469 -1063 3150 2171"
    underline-thickness="102"
    underline-position="-307"
    unicode-range="U+0020-FEFC"
  />
<missing-glyph horiz-adv-x="1024" 
d="M102 61v1229h820v-1229h-820zM246 205h532v942h-532v-942z" />
    <glyph glyph-name="fi" unicode="fi" horiz-adv-x="1480" 
d="M858 1403l-51 -254q-74 27 -133 27q-96 0 -96 -89v-63h794v-1024h-416v709h-378v-709h-418v709h-119v315h119v76q0 183 102 268.5t283 85.5q145 0 313 -51zM1380 1272q0 -75 -63 -127.5t-154 -52.5q-90 0 -152.5 52.5t-62.5 127.5t63.5 128.5t151.5 53.5
q90 0 153.5 -53.5t63.5 -128.5z" />
    <glyph glyph-name="fl" unicode="fl" horiz-adv-x="1466" 
d="M735 1434h629v-1434h-416v1149h-141q-74 27 -133 27q-96 0 -96 -89v-63h231v-315h-231v-709h-418v709h-119v315h119v76q0 183 102 268.5t283 85.5q93 0 190 -20z" />
    <glyph glyph-name="uniFDF2" unicode="&#x627;&#xfedf;&#xfee0;&#xfeea;" horiz-adv-x="3307" arabic-form="isolated" 
d="M1718 2099v-352h-141v352h141zM1362 1444v192h135v-151q0 -18 12 -28.5t31 -10.5q18 0 31.5 10.5t13.5 28.5v184h121v-139q0 -20 14 -32.5t33 -12.5t31 12.5t12 32.5v182h135v-227q0 -69 -45 -102t-117 -33q-60 0 -102 28q-40 -69 -143 -69q-72 0 -117 33t-45 102z
M2714 1495h389v-1495h-389v1495zM2099 449v923h389v-1143q-74 -111 -192 -170t-271 -59q-209 0 -346 98q-162 -98 -573 -98h-256q-307 0 -476 143.5t-169 372.5q0 238 150.5 383t426.5 145q245 0 478 -104v-520h63q110 0 162 41v686h389v-698q17 -25 42 -35.5t69 -10.5
q93 0 114 46zM874 420v237q-58 25 -114 25q-162 0 -162 -139q0 -123 164 -123h112z" />
    <glyph glyph-name="uniFEF5" unicode="&#xfedf;&#xfe82;" horiz-adv-x="1560" arabic-form="isolated" 
d="M1049 1495h389v-1204q-81 -123 -248 -207q-170 -84 -373 -84h-735v420h326l-193 829h387l199 -829h24q145 0 224 29v1046zM594 1606l106 -21q0 -115 -43 -168t-151 -49l-201 8q-50 1 -74 -8.5t-38 -36.5l-107 21q0 116 44.5 169.5t160.5 47.5l190 -8q49 -1 72 8.5
t41 36.5z" />
    <glyph glyph-name="uniFEF6" unicode="&#xfee0;&#xfe82;" horiz-adv-x="1660" arabic-form="final" 
d="M1661 420h33v-416q0 -4 -33 -4h-2q-229 0 -418 113q-186 -113 -424 -113h-735v420h326l-193 829h387l199 -829h24q145 0 224 29v1046h389v-1046q79 -29 223 -29zM594 1606l106 -21q0 -115 -43 -168t-151 -49l-201 8q-50 1 -74 -8.5t-38 -36.5l-107 21q0 116 44.5 169.5
t160.5 47.5l190 -8q49 -1 72 8.5t41 36.5z" />
    <glyph glyph-name="uniFEF7" unicode="&#xfedf;&#xfe84;" horiz-adv-x="1560" arabic-form="isolated" 
d="M1049 1495h389v-1204q-81 -123 -248 -207q-170 -84 -373 -84h-735v420h326l-193 829h387l199 -829h24q145 0 224 29v1046zM453 1577h137v-205h-461v205h98q-43 46 -43 117q0 81 56 135.5t145 54.5q55 0 106.5 -23.5t83.5 -60.5l-114 -114q-28 22 -58 22
q-26 0 -42.5 -16.5t-16.5 -42.5q0 -33 28 -52.5t81 -19.5z" />
    <glyph glyph-name="uniFEF8" unicode="&#xfee0;&#xfe84;" horiz-adv-x="1660" arabic-form="final" 
d="M590 1577v-205h-461v205h98q-43 46 -43 117q0 81 56 135.5t145 54.5q55 0 106.5 -23.5t83.5 -60.5l-114 -114q-28 22 -58 22q-26 0 -42.5 -16.5t-16.5 -42.5q0 -33 28 -52.5t81 -19.5h137zM1661 420h33v-416q0 -4 -33 -4h-2q-229 0 -418 113q-186 -113 -424 -113h-735
v420h326l-193 829h387l199 -829h24q145 0 224 29v1046h389v-1046q79 -29 223 -29z" />
    <glyph glyph-name="uniFEF9" unicode="&#xfedf;&#xfe88;" horiz-adv-x="1560" arabic-form="isolated" 
d="M1049 1495h389v-1204q-81 -123 -248 -207q-170 -84 -373 -84h-735v420h326l-193 829h387l199 -829h24q145 0 224 29v1046zM514 -410h137v-204h-461v204h99q-43 46 -43 117q0 81 55.5 136t144.5 55q55 0 107 -23.5t84 -60.5l-115 -115q-28 22 -57 22q-26 0 -42.5 -16.5
t-16.5 -42.5q0 -33 27.5 -52.5t80.5 -19.5z" />
    <glyph glyph-name="uniFEFA" unicode="&#xfee0;&#xfe88;" horiz-adv-x="1660" arabic-form="final" 
d="M1661 420h33v-416q0 -4 -33 -4h-2q-229 0 -418 113q-186 -113 -424 -113h-735v420h326l-193 829h387l199 -829h24q145 0 224 29v1046h389v-1046q79 -29 223 -29zM514 -410h137v-204h-461v204h99q-43 46 -43 117q0 81 55.5 136t144.5 55q55 0 107 -23.5t84 -60.5
l-115 -115q-28 22 -57 22q-26 0 -42.5 -16.5t-16.5 -42.5q0 -33 27.5 -52.5t80.5 -19.5z" />
    <glyph glyph-name="uniFEFB" unicode="&#xfedf;&#xfe8e;" horiz-adv-x="1560" arabic-form="isolated" 
d="M1049 1495h389v-1204q-81 -123 -248 -207q-170 -84 -373 -84h-735v420h326l-193 829h387l199 -829h24q145 0 224 29v1046z" />
    <glyph glyph-name="uniFEFC" unicode="&#xfee0;&#xfe8e;" horiz-adv-x="1660" arabic-form="final" 
d="M1661 420h33v-416q0 -4 -33 -4h-2q-229 0 -418 113q-186 -113 -424 -113h-735v420h326l-193 829h387l199 -829h24q145 0 224 29v1046h389v-1046q79 -29 223 -29z" />
    <glyph glyph-name="f_f" unicode="ff" horiz-adv-x="1671" 
d="M858 1403l-51 -254q-74 27 -133 27q-96 0 -96 -89v-63h417v76q0 183 102 268.5t283 85.5q146 0 314 -51l-52 -254q-73 27 -133 27q-96 0 -96 -89v-63h232v-315h-232v-709h-418v709h-417v-709h-418v709h-119v315h119v76q0 183 102 268.5t283 85.5q145 0 313 -51z" />
    <glyph glyph-name="f_f_i" unicode="ffi" horiz-adv-x="2316" 
d="M858 1403l-51 -254q-74 27 -133 27q-96 0 -96 -89v-63h417v76q0 183 102 268.5t283 85.5q146 0 314 -51l-52 -254q-73 27 -133 27q-96 0 -96 -89v-63h795v-1024h-416v709h-379v-709h-418v709h-417v-709h-418v709h-119v315h119v76q0 183 102 268.5t283 85.5q145 0 313 -51
zM2216 1272q0 -75 -63 -127.5t-154 -52.5q-90 0 -152.5 52.5t-62.5 127.5t63.5 128.5t151.5 53.5q90 0 153.5 -53.5t63.5 -128.5z" />
    <glyph glyph-name="f_f_l" unicode="ffl" horiz-adv-x="2301" 
d="M858 1403l-51 -254q-74 27 -133 27q-96 0 -96 -89v-63h417v76q0 183 102 268.5t283 85.5q94 0 191 -20h629v-1434h-416v1149h-142q-73 27 -133 27q-96 0 -96 -89v-63h232v-315h-232v-709h-418v709h-417v-709h-418v709h-119v315h119v76q0 183 102 268.5t283 85.5
q145 0 313 -51z" />
    <glyph glyph-name="uni06440671" unicode="&#xfedf;&#xfb51;" horiz-adv-x="1560" 
d="M1049 1495h389v-1204q-81 -123 -248 -207q-170 -84 -373 -84h-735v420h326l-193 829h387l199 -829h24q145 0 224 29v1046zM741 1602v-230h-632v184h102q52 125 134.5 186.5t184.5 61.5q99 0 155 -53t56 -149zM371 1556h192v27q0 59 -67 59q-77 0 -125 -86z" />
    <glyph glyph-name="uni06440671.fina" unicode="&#xfee0;&#xfb51;" horiz-adv-x="1660" 
d="M1661 420h33v-416q0 -4 -33 -4h-2q-229 0 -418 113q-186 -113 -424 -113h-735v420h326l-193 829h387l199 -829h24q145 0 224 29v1046h389v-1046q79 -29 223 -29zM741 1602v-230h-632v184h102q52 125 134.5 186.5t184.5 61.5q99 0 155 -53t56 -149zM371 1556h192v27
q0 59 -67 59q-77 0 -125 -86z" />
    <glyph glyph-name="uni066E.init" unicode="&#x66e;" horiz-adv-x="735" 
d="M223 1069h389v-842q-82 -102 -243.5 -164.5t-366.5 -62.5h-2q-33 0 -33 4v416h33q144 0 223 29v620z" />
    <glyph glyph-name="uni066E.medi" unicode="&#x66e;" horiz-adv-x="835" 
d="M836 420h32v-416q0 -4 -32 -4h-2q-233 0 -416 113q-183 -113 -416 -113h-2q-33 0 -33 4v416h33q144 0 223 29v620h389v-620q79 -29 224 -29z" />
    <glyph glyph-name="uni066E.fina" unicode="&#x66e;" horiz-adv-x="2516" 
d="M2517 420h33v-416q0 -4 -33 -4h-2q-239 0 -416 113q-204 -113 -553 -113h-784q-326 0 -487.5 128.5t-161.5 410.5q0 186 71 393l357 -66q-41 -118 -41 -204q0 -123 66 -182.5t212 -59.5h852q201 0 275 47v602h389v-620q79 -29 223 -29z" />
    <glyph glyph-name="uni066F.fina" unicode="&#x66f;" horiz-adv-x="1931" 
d="M1964 418v-416q0 -4 -33 -4h-217v-320q-134 -96 -356 -159q-219 -62 -447 -62q-370 0 -584 195.5t-214 521.5q0 146 47 320l352 -70q-23 -90 -23 -164q0 -193 123 -290t349 -97q188 0 364 43v104h-37q-308 0 -468.5 129.5t-160.5 362.5q0 239 151.5 385.5t426.5 146.5
q244 0 477 -104v-522h250zM1221 420h104v239q-57 23 -115 23q-75 0 -116 -34.5t-41 -100.5q0 -62 43 -94.5t125 -32.5z" />
    <glyph glyph-name="uni06A1.init" unicode="&#x6a1;" horiz-adv-x="1302" 
d="M1180 1067v-913q-115 -70 -310 -112t-426 -42h-444q-33 0 -33 4v416h344q-151 115 -151 317q0 140 72.5 240.5t195 149.5t281.5 49q226 0 471 -109zM555 662q0 -76 63.5 -123.5t172.5 -65.5v303q-40 15 -91 15q-66 0 -105.5 -34.5t-39.5 -94.5z" />
    <glyph glyph-name="uni06A1.medi" unicode="&#x6a1;" horiz-adv-x="1386" 
d="M1419 420v-416q0 -4 -33 -4h-1386q-33 0 -33 4v416h324q-133 133 -133 315q0 205 148 329t386 124q240 0 388.5 -124t148.5 -329q0 -182 -133 -315h323zM557 662q0 -57 35 -105t102 -80q135 66 135 185q0 66 -36.5 104.5t-98.5 38.5t-99.5 -38.5t-37.5 -104.5z" />
    <glyph glyph-name="uni06A1.fina" unicode="&#x6a1;" horiz-adv-x="2676" 
d="M2710 420v-416q0 -4 -33 -4h-1915q-326 0 -487.5 128.5t-161.5 410.5q0 186 71 393l357 -66q-41 -118 -41 -204q0 -123 66 -182.5t212 -59.5h807q-151 115 -151 317q0 140 72.5 240.5t194.5 149.5t281 49q227 0 472 -109v-647h256zM1829 662q0 -72 65 -119.5t170 -65.5
v299q-40 15 -90 15q-67 0 -106 -35.5t-39 -93.5z" />
    <glyph glyph-name="uni06C2.fina" unicode="&#x6c2;" horiz-adv-x="1343" 
d="M1343 420h33v-416q0 -4 -33 -4q-171 0 -256 33q-89 35 -153 117q-67 86 -168 280l-39 76q-25 -10 -41.5 -37.5t-50.5 -110.5l-141 -358l-371 123l192 483q66 171 154.5 233t247.5 62h223l242 -452q63 -29 161 -29zM809 1229h137v-205h-461v205h99q-43 46 -43 117
q0 81 55.5 135.5t144.5 54.5q55 0 107 -23.5t84 -60.5l-115 -115q-30 23 -57 23q-26 0 -43 -17t-17 -43q0 -33 28 -52t81 -19z" />
    <glyph glyph-name="uni06C3.fina" unicode="&#x6c3;" horiz-adv-x="1343" 
d="M1343 420h33v-416q0 -4 -33 -4q-171 0 -256 33q-89 35 -153 117q-67 86 -168 280l-39 76q-25 -10 -41.5 -37.5t-50.5 -110.5l-141 -358l-371 123l192 483q66 171 154.5 233t247.5 62h223l242 -452q63 -29 161 -29zM309 1198q0 82 56.5 138.5t138.5 56.5q80 0 136 -56.5
t56 -138.5q0 -81 -56 -137.5t-136 -56.5q-82 0 -138.5 56t-56.5 138zM737 1198q0 82 56.5 138.5t138.5 56.5q80 0 136 -56.5t56 -138.5q0 -81 -56 -137.5t-136 -56.5q-82 0 -138.5 56t-56.5 138z" />
    <glyph glyph-name="uniFB51" unicode="&#x671;" horiz-adv-x="735" arabic-form="final" 
d="M735 420h33v-416q0 -4 -33 -4h-2q-134 0 -253.5 27.5t-203.5 72.5q-86 47 -119.5 107t-33.5 166v1122h389v-1046q79 -29 223 -29zM616 1847v-229h-632v184h102q52 125 135 186.5t185 61.5q99 0 154.5 -53.5t55.5 -149.5zM246 1802h192v27q0 59 -67 59q-77 0 -125 -86z
" />
    <glyph glyph-name="uniFB57" unicode="&#x67e;" horiz-adv-x="2516" arabic-form="final" 
d="M2517 420h33v-416q0 -4 -33 -4h-2q-239 0 -416 113q-204 -113 -553 -113h-784q-326 0 -487.5 128.5t-161.5 410.5q0 186 71 393l357 -66q-41 -118 -41 -204q0 -123 66 -182.5t212 -59.5h852q201 0 275 47v602h389v-620q79 -29 223 -29zM872 -264q0 68 47 115t115 47
t115 -47t47 -115t-47 -115t-115 -47t-115 47t-47 115zM1249 -264q0 68 47.5 115t116.5 47q66 0 113 -47.5t47 -114.5t-47 -114.5t-113 -47.5q-69 0 -116.5 47t-47.5 115zM1059 -592q0 69 47 116.5t115 47.5q66 0 112.5 -47.5t46.5 -116.5q0 -67 -46.5 -114.5t-112.5 -47.5
q-67 0 -114.5 47t-47.5 115z" />
    <glyph glyph-name="uniFB58" unicode="&#x67e;" horiz-adv-x="735" arabic-form="initial" 
d="M223 1069h389v-842q-82 -102 -243.5 -164.5t-366.5 -62.5h-2q-33 0 -33 4v416h33q144 0 223 29v620zM14 -264q0 68 47 115t115 47t115 -47t47 -115t-47 -115t-115 -47t-115 47t-47 115zM391 -264q0 68 47.5 115t116.5 47q66 0 113 -47.5t47 -114.5t-47 -114.5t-113 -47.5
q-69 0 -116.5 47t-47.5 115zM201 -592q0 69 46.5 116.5t114.5 47.5q66 0 113 -47.5t47 -116.5q0 -67 -47 -114.5t-113 -47.5q-67 0 -114 47t-47 115z" />
    <glyph glyph-name="uniFB59" unicode="&#x67e;" horiz-adv-x="835" arabic-form="medial" 
d="M836 420h32v-416q0 -4 -32 -4h-2q-233 0 -416 113q-183 -113 -416 -113h-2q-33 0 -33 4v416h33q144 0 223 29v620h389v-620q79 -29 224 -29zM72 -264q0 68 47 115t114 47t114.5 -47t47.5 -115t-47.5 -115t-114.5 -47t-114 47t-47 115zM449 -264q0 68 47 115t116 47
q66 0 113 -47.5t47 -114.5t-47 -114.5t-113 -47.5q-69 0 -116 47t-47 115zM258 -592q0 69 47 116.5t115 47.5q66 0 113 -47.5t47 -116.5q0 -67 -47 -114.5t-113 -47.5q-68 0 -115 47t-47 115z" />
    <glyph glyph-name="uniFB67" unicode="&#x679;" horiz-adv-x="2516" arabic-form="final" 
d="M2517 420h33v-416q0 -4 -33 -4h-2q-239 0 -416 113q-204 -113 -553 -113h-784q-326 0 -487.5 128.5t-161.5 410.5q0 186 71 393l357 -66q-41 -118 -41 -204q0 -123 66 -182.5t212 -59.5h852q201 0 275 47v602h389v-620q79 -29 223 -29zM1460 1343v-237h-606v184h37v365
h170v-178q107 82 209 82q90 0 140 -58.5t50 -157.5zM1061 1290h221v31q0 76 -63 76q-66 0 -158 -86v-21z" />
    <glyph glyph-name="uniFB68" unicode="&#x679;" horiz-adv-x="735" arabic-form="initial" 
d="M223 1069h389v-842q-82 -102 -243.5 -164.5t-366.5 -62.5h-2q-33 0 -33 4v416h33q144 0 223 29v620zM694 1491v-238h-606v185h37v364h170v-178q107 82 209 82q90 0 140 -58t50 -157zM295 1438h221v30q0 76 -63 76q-66 0 -158 -86v-20z" />
    <glyph glyph-name="uniFB69" unicode="&#x679;" horiz-adv-x="835" arabic-form="medial" 
d="M836 420h32v-416q0 -4 -32 -4h-2q-233 0 -416 113q-183 -113 -416 -113h-2q-33 0 -33 4v416h33q144 0 223 29v620h389v-620q79 -29 224 -29zM700 1491v-238h-606v185h37v364h170v-178q107 82 209 82q90 0 140 -58t50 -157zM301 1438h221v30q0 76 -63 76q-66 0 -158 -86
v-20z" />
    <glyph glyph-name="uniFB6B" unicode="&#x6a4;" horiz-adv-x="2676" arabic-form="final" 
d="M2710 420v-416q0 -4 -33 -4h-1915q-326 0 -487.5 128.5t-161.5 410.5q0 186 71 393l357 -66q-41 -118 -41 -204q0 -123 66 -182.5t212 -59.5h807q-151 115 -151 317q0 140 72.5 240.5t194.5 149.5t281 49q227 0 472 -109v-647h256zM1829 662q0 -72 65 -119.5t170 -65.5
v299q-40 15 -90 15q-67 0 -106 -35.5t-39 -93.5zM1819 1765q0 69 46.5 116.5t114.5 47.5q66 0 113 -47.5t47 -116.5q0 -67 -47 -114t-113 -47q-68 0 -114.5 47t-46.5 114zM1632 1440q0 68 47 115t115 47t115 -47t47 -115t-47 -115t-115 -47t-115 47t-47 115zM2009 1440
q0 68 47.5 115t116.5 47q66 0 113 -47.5t47 -114.5t-47 -114.5t-113 -47.5q-69 0 -116.5 47t-47.5 115z" />
    <glyph glyph-name="uniFB6C" unicode="&#x6a4;" horiz-adv-x="1302" arabic-form="initial" 
d="M1180 1067v-913q-115 -70 -310 -112t-426 -42h-444q-33 0 -33 4v416h344q-151 115 -151 317q0 140 72.5 240.5t195 149.5t281.5 49q226 0 471 -109zM555 662q0 -76 63.5 -123.5t172.5 -65.5v303q-40 15 -91 15q-66 0 -105.5 -34.5t-39.5 -94.5zM545 1765q0 69 47 116.5
t115 47.5q66 0 112.5 -47.5t46.5 -116.5q0 -67 -46.5 -114t-112.5 -47q-68 0 -115 47t-47 114zM358 1440q0 68 47 115t115 47t115 -47t47 -115t-47 -115t-115 -47t-115 47t-47 115zM735 1440q0 68 47.5 115t116.5 47q66 0 113 -47.5t47 -114.5t-47 -114.5t-113 -47.5
q-69 0 -116.5 47t-47.5 115z" />
    <glyph glyph-name="uniFB6D" unicode="&#x6a4;" horiz-adv-x="1386" arabic-form="medial" 
d="M1419 420v-416q0 -4 -33 -4h-1386q-33 0 -33 4v416h324q-133 133 -133 315q0 205 148 329t386 124q240 0 388.5 -124t148.5 -329q0 -182 -133 -315h323zM557 662q0 -57 35 -105t102 -80q135 66 135 185q0 66 -36.5 104.5t-98.5 38.5t-99.5 -38.5t-37.5 -104.5zM528 1778
q0 69 47 116.5t115 47.5q66 0 113 -47.5t47 -116.5q0 -67 -47 -114.5t-113 -47.5q-68 0 -115 47t-47 115zM342 1452q0 68 47 115t115 47t115 -47t47 -115t-47 -115t-115 -47t-115 47t-47 115zM719 1452q0 68 47.5 115t116.5 47q66 0 112.5 -47.5t46.5 -114.5t-46.5 -114.5
t-112.5 -47.5q-69 0 -116.5 47t-47.5 115z" />
    <glyph glyph-name="uniFB7B" unicode="&#x686;" horiz-adv-x="1527" arabic-form="final" 
d="M1561 420v-416q0 -4 -33 -4h-897q-71 0 -115.5 -35t-44.5 -96q0 -62 44.5 -97.5t115.5 -35.5h127v-420h-23q-338 0 -516 137.5t-178 396.5q0 265 183.5 412.5t510.5 147.5h195q-53 62 -94 180q-20 59 -32 89t-30 61.5t-38.5 45.5t-51 24t-74.5 13q-113 0 -233 -75
l-209 266q216 174 483 174q215 0 336 -103t191 -333q62 -207 125 -291q31 -41 137 -41h121zM981 -426q-67 0 -114.5 47t-47.5 115t47.5 115t114.5 47t114.5 -47t47.5 -115t-47.5 -115t-114.5 -47zM1520 -264q0 -67 -47 -114.5t-113 -47.5q-69 0 -116.5 47t-47.5 115
t47.5 115t116.5 47q66 0 113 -47.5t47 -114.5zM1327 -592q0 -67 -47 -114.5t-113 -47.5q-67 0 -114 47t-47 115q0 69 46.5 116.5t114.5 47.5q66 0 113 -47.5t47 -116.5z" />
    <glyph glyph-name="uniFB7C" unicode="&#x686;" horiz-adv-x="1372" arabic-form="initial" 
d="M1300 358l-108 -358h-1192q-33 0 -33 4v416h807q-47 55 -86 168q-13 38 -19 54t-17 43.5t-17.5 38t-17.5 29t-21 25.5t-24.5 17.5t-30.5 14t-36.5 7.5t-45.5 6q-113 0 -234 -75l-211 266q216 174 488 174q213 0 333 -100.5t193 -331.5q29 -89 66 -189q74 -173 206 -209z
M260 -264q0 68 47 115t115 47t115 -47t47 -115t-47 -115t-115 -47t-115 47t-47 115zM637 -264q0 68 47.5 115t116.5 47q66 0 113 -47.5t47 -114.5t-47 -114.5t-113 -47.5q-69 0 -116.5 47t-47.5 115zM446 -592q0 69 47 116.5t115 47.5q66 0 113 -47.5t47 -116.5
q0 -67 -47 -114.5t-113 -47.5q-68 0 -115 47t-47 115z" />
    <glyph glyph-name="uniFB7D" unicode="&#x686;" horiz-adv-x="1374" arabic-form="medial" 
d="M1407 420v-416q0 -4 -31 -4h-1376q-33 0 -33 4v416h807q-47 55 -86 168q-13 38 -19 54t-17 43.5t-17.5 38t-17.5 29t-21 25.5t-24.5 17.5t-30.5 14t-36.5 7.5t-45.5 6q-113 0 -234 -75l-211 266q216 174 488 174q215 0 336 -103q120 -102 190 -329q35 -117 62.5 -183
t66.5 -114q20 -23 49.5 -31t85.5 -8h115zM256 -264q0 68 47 115t115 47t115 -47t47 -115t-47 -115t-115 -47t-115 47t-47 115zM633 -264q0 68 47.5 115t116.5 47q66 0 112.5 -47.5t46.5 -114.5t-46.5 -114.5t-112.5 -47.5q-69 0 -116.5 47t-47.5 115zM442 -592
q0 69 47 116.5t115 47.5q66 0 113 -47.5t47 -116.5q0 -67 -47 -114.5t-113 -47.5q-68 0 -115 47t-47 115z" />
    <glyph glyph-name="uniFB89" unicode="&#x688;" horiz-adv-x="1294" arabic-form="final" 
d="M1327 420v-416q0 -4 -33 -4h-1212v420h614v192q0 64 -46 94.5t-128 30.5h-284v389h188q133 -2 228 -12t170 -33.5t122 -58.5t78 -91.5t44.5 -127.5t16.5 -170v-213h242zM725 1538v-238h-606v185h37v364h170v-178q107 82 209 82q90 0 140 -58t50 -157zM326 1485h221v31
q0 75 -64 75q-65 0 -157 -86v-20z" />
    <glyph glyph-name="uniFB8B" unicode="&#x698;" horiz-adv-x="919" arabic-form="final" 
d="M920 420h32v-416q0 -4 -32 -4h-2q-119 0 -224 31q-15 -304 -184 -439t-432 -135q-90 0 -160 13l76 397h69q137 0 190.5 52t53.5 173v932h389v-575q79 -29 224 -29zM338 1655q0 69 47 116.5t115 47.5q66 0 112.5 -47.5t46.5 -116.5q0 -67 -46.5 -114.5t-112.5 -47.5
q-68 0 -115 47.5t-47 114.5zM152 1329q0 68 47 115t114 47t114.5 -47.5t47.5 -114.5t-47.5 -114.5t-114.5 -47.5t-114 47t-47 115zM528 1329q0 68 47.5 115t116.5 47q66 0 113 -47.5t47 -114.5t-47 -114.5t-113 -47.5q-69 0 -116.5 47t-47.5 115z" />
    <glyph glyph-name="uniFB8D" unicode="&#x691;" horiz-adv-x="919" arabic-form="final" 
d="M920 420h32v-416q0 -4 -32 -4h-2q-119 0 -224 31q-15 -304 -184 -439t-432 -135q-90 0 -160 13l76 397h69q137 0 190.5 52t53.5 173v932h389v-575q79 -29 224 -29zM780 1446v-238h-606v185h37v364h170v-178q107 82 209 82q90 0 140 -58t50 -157zM381 1393h221v30
q0 76 -63 76q-66 0 -158 -86v-20z" />
    <glyph glyph-name="uniFB8F" unicode="&#x6a9;" horiz-adv-x="2330" arabic-form="final" 
d="M2331 420h32v-416q0 -4 -32 -4h-2q-170 0 -318 74q-245 -74 -536 -74h-713q-326 0 -487.5 128.5t-161.5 410.5q0 186 71 393l357 -66q-41 -118 -41 -204q0 -123 66 -182.5t212 -59.5h738q215 0 286 47v31q-7 56 -48 78.5t-208 70.5l-346 96l-80 301l762 553l195 -245
l-475 -342l159 -47q95 -30 155 -53t111 -53t78.5 -59t47.5 -74t27.5 -96t10.5 -126v-53q60 -29 140 -29z" />
    <glyph glyph-name="uniFB90" unicode="&#x6a9;" horiz-adv-x="1294" arabic-form="initial" 
d="M1171 518v-356q-131 -81 -329 -121q-202 -41 -387 -41h-455q-33 0 -33 4v416h529q91 0 168.5 15.5t117.5 39.5v31q-3 23 -6.5 35t-18 26.5t-29.5 22.5t-56 22.5t-83 26.5t-124 35l-285 78l-80 301l762 553l195 -246l-475 -342l98 -29q217 -64 295 -102q100 -46 148 -132
t48 -237z" />
    <glyph glyph-name="uniFB91" unicode="&#x6a9;" horiz-adv-x="1310" arabic-form="medial" 
d="M1311 420h32v-416q0 -4 -32 -4h-2q-173 0 -326 78q-251 -78 -528 -78h-455q-33 0 -33 4v416h529q91 0 168.5 15.5t117.5 39.5v31q-3 23 -6.5 35t-18 26.5t-29.5 22.5t-56 22.5t-83 26.5t-124 35l-285 78l-80 301l762 553l195 -246l-475 -342l98 -29q217 -64 295 -102
q100 -46 148 -132t48 -237v-69q69 -29 140 -29z" />
    <glyph glyph-name="uniFB93" unicode="&#x6af;" horiz-adv-x="2330" arabic-form="final" 
d="M1731 1624l-641 -459l-41 152l589 424zM2331 420h32v-416q0 -4 -32 -4h-2q-170 0 -318 74q-245 -74 -536 -74h-713q-326 0 -487.5 128.5t-161.5 410.5q0 186 71 393l357 -66q-41 -118 -41 -204q0 -123 66 -182.5t212 -59.5h738q215 0 286 47v31q-7 56 -48 78.5t-208 70.5
l-346 96l-80 301l762 553l195 -245l-475 -342l159 -47q95 -30 155 -53t111 -53t78.5 -59t47.5 -74t27.5 -96t10.5 -126v-53q60 -29 140 -29z" />
    <glyph glyph-name="uniFB94" unicode="&#x6af;" horiz-adv-x="1294" arabic-form="initial" 
d="M711 1626l-639 -461l-41 152l590 424zM1171 518v-356q-131 -81 -329 -121q-202 -41 -387 -41h-455q-33 0 -33 4v416h529q91 0 168.5 15.5t117.5 39.5v31q-3 23 -6.5 35t-18 26.5t-29.5 22.5t-56 22.5t-83 26.5t-124 35l-285 78l-80 301l762 553l195 -246l-475 -342
l98 -29q217 -64 295 -102q100 -46 148 -132t48 -237z" />
    <glyph glyph-name="uniFB95" unicode="&#x6af;" horiz-adv-x="1310" arabic-form="medial" 
d="M713 1624l-641 -459l-41 152l590 424zM1311 420h32v-416q0 -4 -32 -4h-2q-173 0 -326 78q-251 -78 -528 -78h-455q-33 0 -33 4v416h529q91 0 168.5 15.5t117.5 39.5v31q-3 23 -6.5 35t-18 26.5t-29.5 22.5t-56 22.5t-83 26.5t-124 35l-285 78l-80 301l762 553l195 -246
l-475 -342l98 -29q217 -64 295 -102q100 -46 148 -132t48 -237v-69q69 -29 140 -29z" />
    <glyph glyph-name="uniFB9F" unicode="&#x6ba;" horiz-adv-x="1787" arabic-form="final" 
d="M1788 420h33v-416q0 -4 -33 -4h-2q-130 0 -234 43v-387q-140 -81 -319 -137q-186 -62 -393 -62q-337 0 -532 192.5t-195 520.5q0 154 45 324l354 -70q-23 -97 -23 -166q0 -188 106.5 -286.5t303.5 -98.5q170 0 303 47v909h363v-315q0 -70 61 -82q74 -12 162 -12z" />
    <glyph glyph-name="uniFBA7" unicode="&#x6c1;" horiz-adv-x="1343" arabic-form="final" 
d="M1343 420h33v-416q0 -4 -33 -4q-171 0 -256 33q-89 35 -153 117q-67 86 -168 280l-39 76q-25 -10 -41.5 -37.5t-50.5 -110.5l-141 -358l-371 123l192 483q66 171 154.5 233t247.5 62h223l242 -452q63 -29 161 -29z" />
    <glyph glyph-name="uniFBA8" unicode="&#x6c1;" horiz-adv-x="735" arabic-form="initial" 
d="M223 1024h389v-797q-82 -102 -243.5 -164.5t-366.5 -62.5h-2q-33 0 -33 4v416h33q144 0 223 29v575zM535 -225h28l-20 -215h-37q-125 0 -194.5 55t-69.5 158q0 152 166 233l47 -61q-41 -53 -41 -92q0 -78 121 -78z" />
    <glyph glyph-name="uniFBA9" unicode="&#x6c1;" horiz-adv-x="1433" arabic-form="medial" 
d="M1466 420v-416q0 -4 -32 -4h-33q-81 0 -118.5 -34.5t-37.5 -106.5v-529h-209q-335 0 -547 192.5t-256 510.5q-106 -33 -231 -33h-2q-33 0 -33 4v416h33q144 0 223 29v329h389v-508q0 -214 57.5 -334t186.5 -161v190q0 203 124.5 329t334.5 126h151z" />
    <glyph glyph-name="uniFBAB" unicode="&#x6be;" horiz-adv-x="1837" arabic-form="final" 
d="M1870 420v-416q0 -4 -33 -4h-1733q-32 0 -32 4v416h256q-60 91 -60 205q0 171 121 266q119 94 303 94q185 0 307 -96q119 -94 119 -264q0 -125 -63 -209l190 -2v131q0 267 -146 403.5t-413 136.5q-154 0 -268 -30v358q126 21 280 21q452 0 694 -228.5t242 -683.5v-102
h236zM604 547q0 -99 90 -123q88 21 88 123q0 53 -23 81.5t-65 28.5q-43 0 -66.5 -28t-23.5 -82z" />
    <glyph glyph-name="uniFBAC" unicode="&#x6be;" horiz-adv-x="1652" arabic-form="initial" 
d="M1530 522v-522h-1530q-33 0 -33 4v416h256q-59 89 -59 205q0 171 121 266q119 94 303 94q185 0 307 -96q119 -94 119 -264q0 -124 -64 -209l191 -2v131q0 267 -146 403.5t-413 136.5q-155 0 -269 -30v358q126 21 281 21q452 0 694 -228.5t242 -683.5zM500 547
q0 -99 90 -123q88 21 88 123q0 53 -23 81.5t-65 28.5q-43 0 -66.5 -28t-23.5 -82z" />
    <glyph glyph-name="uniFBAD" unicode="&#x6be;" horiz-adv-x="1708" arabic-form="medial" 
d="M1741 420v-416q0 -4 -33 -4h-1708q-33 0 -33 4v416h256q-59 89 -59 205q0 171 121 266q119 94 303 94q185 0 307 -96q119 -94 119 -264q0 -124 -64 -209l191 -2v131q0 267 -146 403.5t-413 136.5q-155 0 -269 -30v358q126 21 281 21q452 0 694 -228.5t242 -683.5v-102
h211zM500 547q0 -99 90 -123q88 21 88 123q0 53 -23 81.5t-65 28.5q-43 0 -66.5 -28t-23.5 -82z" />
    <glyph glyph-name="uniFBAF" unicode="&#x6d2;" horiz-adv-x="1720" arabic-form="final" 
d="M1753 420v-416q0 -4 -33 -4h-1130q-78 0 -78 -51t78 -51h577v-410h-471q-285 0 -429 119.5t-144 347.5t145.5 346.5t427.5 118.5h1057z" />
    <glyph glyph-name="uniFBB1" unicode="&#x6d3;" horiz-adv-x="1720" arabic-form="final" 
d="M1753 420v-416q0 -4 -33 -4h-1130q-78 0 -78 -51t78 -51h577v-410h-471q-285 0 -429 119.5t-144 347.5t145.5 346.5t427.5 118.5h1057zM750 768h137v-205h-461v205h98q-43 46 -43 117q0 81 56 135.5t145 54.5q55 0 106.5 -23.5t83.5 -60.5l-114 -114q-28 22 -58 22
q-26 0 -42.5 -16.5t-16.5 -42.5q0 -33 28 -52.5t81 -19.5z" />
    <glyph glyph-name="uniFBE8" unicode="&#x649;" horiz-adv-x="735" arabic-form="initial" 
d="M223 1069h389v-842q-82 -102 -243.5 -164.5t-366.5 -62.5h-2q-33 0 -33 4v416h33q144 0 223 29v620z" />
    <glyph glyph-name="uniFBE9" unicode="&#x649;" horiz-adv-x="835" arabic-form="medial" 
d="M836 420h32v-416q0 -4 -32 -4h-2q-233 0 -416 113q-183 -113 -416 -113h-2q-33 0 -33 4v416h33q144 0 223 29v620h389v-620q79 -29 224 -29z" />
    <glyph glyph-name="uniFBFD" unicode="&#x6cc;" horiz-adv-x="2326" arabic-form="final" 
d="M2327 420h32v-416q0 -4 -32 -4q-128 0 -213.5 15t-153.5 53.5t-111.5 105t-74.5 170.5l-50 168h-153q-94 0 -94 -70q0 -26 8 -47l207 -686q-143 -88 -379 -170t-457 -82q-340 0 -541.5 193t-201.5 520q0 154 45 324l354 -68q-23 -97 -23 -168q0 -188 106.5 -286.5
t303.5 -98.5q75 0 174 12q88 10 164 35l-139 436q-31 102 -31 179q0 175 117 270q122 96 301 96h524l96 -342q17 -58 36 -84.5t61.5 -40.5t124.5 -14z" />
    <glyph glyph-name="uniFBFE" unicode="&#x6cc;" horiz-adv-x="735" arabic-form="initial" 
d="M223 1069h389v-842q-82 -102 -243.5 -164.5t-366.5 -62.5h-2q-33 0 -33 4v416h33q144 0 223 29v620zM-43 -297q0 82 56.5 138.5t138.5 56.5q80 0 136 -56.5t56 -138.5t-56 -138.5t-136 -56.5q-82 0 -138.5 56.5t-56.5 138.5zM385 -297q0 82 56.5 138.5t138.5 56.5
q80 0 136 -56.5t56 -138.5t-56 -138.5t-136 -56.5q-82 0 -138.5 56.5t-56.5 138.5z" />
    <glyph glyph-name="uniFBFF" unicode="&#x6cc;" horiz-adv-x="835" arabic-form="medial" 
d="M836 420h32v-416q0 -4 -32 -4h-2q-233 0 -416 113q-183 -113 -416 -113h-2q-33 0 -33 4v416h33q144 0 223 29v620h389v-620q79 -29 224 -29zM14 -297q0 82 56.5 138.5t138.5 56.5q80 0 136 -56.5t56 -138.5t-56 -138.5t-136 -56.5q-82 0 -138.5 56.5t-56.5 138.5z
M442 -297q0 82 56.5 138.5t138.5 56.5q80 0 136 -56.5t56 -138.5t-56 -138.5t-136 -56.5q-82 0 -138.5 56.5t-56.5 138.5z" />
    <glyph glyph-name="uniFE82" unicode="&#x622;" horiz-adv-x="735" arabic-form="final" 
d="M735 420h33v-416q0 -4 -33 -4h-2q-134 0 -253.5 27.5t-203.5 72.5q-86 47 -119.5 107t-33.5 166v1122h389v-1046q79 -29 223 -29zM512 1851l106 -20q0 -115 -43 -168t-151 -49l-201 8q-50 1 -74 -8.5t-38 -36.5l-107 20q0 116 44.5 170t160.5 48l190 -9q49 -1 72 8.5
t41 36.5z" />
    <glyph glyph-name="uniFE84" unicode="&#x623;" horiz-adv-x="735" arabic-form="final" 
d="M735 420h33v-416q0 -4 -33 -4h-2q-134 0 -253.5 27.5t-203.5 72.5q-86 47 -119.5 107t-33.5 166v1122h389v-1046q79 -29 223 -29zM410 1823h137v-205h-461v205h98q-43 46 -43 116q0 81 56 136t145 55q55 0 106.5 -23.5t83.5 -60.5l-114 -115q-30 23 -58 23
q-26 0 -42.5 -17t-16.5 -43q0 -33 28 -52t81 -19z" />
    <glyph glyph-name="uniFE86" unicode="&#x624;" horiz-adv-x="1370" arabic-form="final" 
d="M1403 420v-416q0 -4 -33 -4h-237q-27 -290 -197 -416q-171 -127 -444 -127q-195 0 -388 54l72 374q180 -49 328 -49q133 0 187.5 40.5t56.5 123.5h-37q-306 0 -467.5 141t-161.5 371q0 239 151 385.5t426 146.5q245 0 478 -104v-520h266zM643 420h105v239q-57 23 -115 23
q-75 0 -116.5 -33.5t-41.5 -99.5q0 -62 43.5 -95.5t124.5 -33.5zM752 1372h137v-205h-461v205h98q-43 46 -43 117q0 81 56 135.5t145 54.5q55 0 106.5 -23.5t83.5 -60.5l-114 -114q-28 22 -58 22q-26 0 -42.5 -16.5t-16.5 -42.5q0 -33 28 -52.5t81 -19.5z" />
    <glyph glyph-name="uniFE88" unicode="&#x625;" horiz-adv-x="735" arabic-form="final" 
d="M735 420h33v-416q0 -4 -33 -4h-2q-134 0 -253.5 27.5t-203.5 72.5q-86 47 -119.5 107t-33.5 166v1122h389v-1046q79 -29 223 -29zM412 -410h137v-204h-461v204h98q-43 46 -43 117q0 81 56 136t145 55q55 0 107 -23.5t84 -60.5l-115 -115q-28 22 -58 22q-26 0 -42.5 -16.5
t-16.5 -42.5q0 -33 28 -52.5t81 -19.5z" />
    <glyph glyph-name="uniFE8A" unicode="&#x626;" horiz-adv-x="2326" arabic-form="final" 
d="M2327 420h32v-416q0 -4 -32 -4q-128 0 -213.5 15t-153.5 53.5t-111.5 105t-74.5 170.5l-50 168h-153q-94 0 -94 -70q0 -26 8 -47l207 -686q-143 -88 -379 -170t-457 -82q-340 0 -541.5 193t-201.5 520q0 154 45 324l354 -68q-23 -97 -23 -168q0 -188 106.5 -286.5
t303.5 -98.5q75 0 174 12q88 10 164 35l-139 436q-31 102 -31 179q0 175 117 270q122 96 301 96h524l96 -342q17 -58 36 -84.5t61.5 -40.5t124.5 -14zM489 829h138v-204h-461v204h98q-43 46 -43 117q0 81 56 136t145 55q55 0 106.5 -23.5t83.5 -60.5l-114 -115
q-30 23 -58 23q-26 0 -42.5 -17t-16.5 -43q0 -33 27.5 -52.5t80.5 -19.5z" />
    <glyph glyph-name="uniFE8B" unicode="&#x626;" horiz-adv-x="735" arabic-form="initial" 
d="M223 1069h389v-842q-82 -102 -243.5 -164.5t-366.5 -62.5h-2q-33 0 -33 4v416h33q144 0 223 29v620zM508 1438h137v-205h-461v205h99q-43 46 -43 116q0 81 55.5 136t144.5 55q55 0 107 -23.5t84 -60.5l-115 -115q-30 23 -57 23q-26 0 -43 -17t-17 -43q0 -33 28 -52
t81 -19z" />
    <glyph glyph-name="uniFE8C" unicode="&#x626;" horiz-adv-x="835" arabic-form="medial" 
d="M836 420h32v-416q0 -4 -32 -4h-2q-233 0 -416 113q-183 -113 -416 -113h-2q-33 0 -33 4v416h33q144 0 223 29v620h389v-620q79 -29 224 -29zM514 1438h137v-205h-461v205h99q-43 46 -43 116q0 81 55.5 136t144.5 55q55 0 107 -23.5t84 -60.5l-115 -115q-30 23 -57 23
q-26 0 -42.5 -17t-16.5 -43q0 -33 27.5 -52t80.5 -19z" />
    <glyph glyph-name="uniFE8E" unicode="&#x627;" horiz-adv-x="735" arabic-form="final" 
d="M735 420h33v-416q0 -4 -33 -4h-2q-134 0 -253.5 27.5t-203.5 72.5q-86 47 -119.5 107t-33.5 166v1122h389v-1046q79 -29 223 -29z" />
    <glyph glyph-name="uniFE90" unicode="&#x628;" horiz-adv-x="2516" arabic-form="final" 
d="M2517 420h33v-416q0 -4 -33 -4h-2q-239 0 -416 113q-204 -113 -553 -113h-784q-326 0 -487.5 128.5t-161.5 410.5q0 186 71 393l357 -66q-41 -118 -41 -204q0 -123 66 -182.5t212 -59.5h852q201 0 275 47v602h389v-620q79 -29 223 -29zM1028 -297q0 82 56.5 138.5
t138.5 56.5q80 0 137 -57t57 -138t-57 -138t-137 -57q-82 0 -138.5 56.5t-56.5 138.5z" />
    <glyph glyph-name="uniFE91" unicode="&#x628;" horiz-adv-x="735" arabic-form="initial" 
d="M223 1069h389v-842q-82 -102 -243.5 -164.5t-366.5 -62.5h-2q-33 0 -33 4v416h33q144 0 223 29v620zM170 -297q0 82 56.5 138.5t138.5 56.5q80 0 137 -57t57 -138t-57 -138t-137 -57q-82 0 -138.5 56.5t-56.5 138.5z" />
    <glyph glyph-name="uniFE92" unicode="&#x628;" horiz-adv-x="835" arabic-form="medial" 
d="M836 420h32v-416q0 -4 -32 -4h-2q-233 0 -416 113q-183 -113 -416 -113h-2q-33 0 -33 4v416h33q144 0 223 29v620h389v-620q79 -29 224 -29zM227 -297q0 82 56.5 138.5t138.5 56.5q80 0 137 -57t57 -138t-57 -138t-137 -57q-82 0 -138.5 56.5t-56.5 138.5z" />
    <glyph glyph-name="uniFE94" unicode="&#x629;" horiz-adv-x="1359" arabic-form="final" 
d="M1393 420v-416q0 -4 -33 -4h-633q-307 0 -476 143.5t-169 372.5q0 238 150.5 383t426.5 145q245 0 478 -104v-520h256zM643 420h105v229q-52 27 -117 27q-72 0 -114 -34t-42 -99q0 -60 43 -91.5t125 -31.5zM252 1341q0 82 56 138.5t138 56.5q80 0 136.5 -57t56.5 -138
t-56.5 -137.5t-136.5 -56.5q-82 0 -138 56t-56 138zM680 1341q0 82 56 138.5t138 56.5q80 0 136.5 -57t56.5 -138t-56.5 -137.5t-136.5 -56.5q-82 0 -138 56t-56 138z" />
    <glyph glyph-name="uniFE96" unicode="&#x62a;" horiz-adv-x="2516" arabic-form="final" 
d="M2517 420h33v-416q0 -4 -33 -4h-2q-239 0 -416 113q-204 -113 -553 -113h-784q-326 0 -487.5 128.5t-161.5 410.5q0 186 71 393l357 -66q-41 -118 -41 -204q0 -123 66 -182.5t212 -59.5h852q201 0 275 47v602h389v-620q79 -29 223 -29zM774 1260q0 82 56.5 138t138.5 56
q80 0 136 -56.5t56 -137.5q0 -82 -56 -138.5t-136 -56.5q-82 0 -138.5 56.5t-56.5 138.5zM1202 1260q0 82 56.5 138t138.5 56q80 0 136 -56.5t56 -137.5q0 -82 -56 -138.5t-136 -56.5q-82 0 -138.5 56.5t-56.5 138.5z" />
    <glyph glyph-name="uniFE97" unicode="&#x62a;" horiz-adv-x="735" arabic-form="initial" 
d="M223 1069h389v-842q-82 -102 -243.5 -164.5t-366.5 -62.5h-2q-33 0 -33 4v416h33q144 0 223 29v620zM8 1407q0 82 56.5 138.5t138.5 56.5q80 0 136 -56.5t56 -138.5t-56 -138.5t-136 -56.5q-82 0 -138.5 56.5t-56.5 138.5zM436 1407q0 82 56.5 138.5t138.5 56.5
q80 0 136 -56.5t56 -138.5t-56 -138.5t-136 -56.5q-82 0 -138.5 56.5t-56.5 138.5z" />
    <glyph glyph-name="uniFE98" unicode="&#x62a;" horiz-adv-x="835" arabic-form="medial" 
d="M836 420h32v-416q0 -4 -32 -4h-2q-233 0 -416 113q-183 -113 -416 -113h-2q-33 0 -33 4v416h33q144 0 223 29v620h389v-620q79 -29 224 -29zM14 1407q0 82 56.5 138.5t138.5 56.5q80 0 136 -56.5t56 -138.5t-56 -138.5t-136 -56.5q-82 0 -138.5 56.5t-56.5 138.5z
M442 1407q0 82 56.5 138.5t138.5 56.5q80 0 136 -56.5t56 -138.5t-56 -138.5t-136 -56.5q-82 0 -138.5 56.5t-56.5 138.5z" />
    <glyph glyph-name="uniFE9A" unicode="&#x62b;" horiz-adv-x="2516" arabic-form="final" 
d="M2517 420h33v-416q0 -4 -33 -4h-2q-239 0 -416 113q-204 -113 -553 -113h-784q-326 0 -487.5 128.5t-161.5 410.5q0 186 71 393l357 -66q-41 -118 -41 -204q0 -123 66 -182.5t212 -59.5h852q201 0 275 47v602h389v-620q79 -29 223 -29zM1018 1552q0 69 47 116.5t115 47.5
q66 0 112.5 -47.5t46.5 -116.5q0 -67 -46.5 -114t-112.5 -47q-68 0 -115 47t-47 114zM831 1227q0 67 47.5 114.5t114.5 47.5t114.5 -47.5t47.5 -114.5t-47.5 -114.5t-114.5 -47.5t-114.5 47.5t-47.5 114.5zM1208 1227q0 68 47.5 115t116.5 47q66 0 113 -47.5t47 -114.5
t-47 -114.5t-113 -47.5q-69 0 -116.5 47t-47.5 115z" />
    <glyph glyph-name="uniFE9B" unicode="&#x62b;" horiz-adv-x="735" arabic-form="initial" 
d="M223 1069h389v-842q-82 -102 -243.5 -164.5t-366.5 -62.5h-2q-33 0 -33 4v416h33q144 0 223 29v620zM252 1700q0 69 47 116.5t115 47.5q66 0 112.5 -47.5t46.5 -116.5q0 -67 -46.5 -114.5t-112.5 -47.5q-68 0 -115 47t-47 115zM66 1374q0 68 47 115t114 47t114.5 -47
t47.5 -115t-47.5 -115t-114.5 -47t-114 47t-47 115zM442 1374q0 68 47.5 115t116.5 47q66 0 113 -47.5t47 -114.5t-47 -114.5t-113 -47.5q-69 0 -116.5 47t-47.5 115z" />
    <glyph glyph-name="uniFE9C" unicode="&#x62b;" horiz-adv-x="835" arabic-form="medial" 
d="M836 420h32v-416q0 -4 -32 -4h-2q-233 0 -416 113q-183 -113 -416 -113h-2q-33 0 -33 4v416h33q144 0 223 29v620h389v-620q79 -29 224 -29zM258 1700q0 69 47 116.5t115 47.5q66 0 113 -47.5t47 -116.5q0 -67 -47 -114.5t-113 -47.5q-68 0 -115 47t-47 115zM72 1374
q0 68 47 115t114 47t114.5 -47t47.5 -115t-47.5 -115t-114.5 -47t-114 47t-47 115zM449 1374q0 68 47 115t116 47q66 0 113 -47.5t47 -114.5t-47 -114.5t-113 -47.5q-69 0 -116 47t-47 115z" />
    <glyph glyph-name="uniFE9E" unicode="&#x62c;" horiz-adv-x="1527" arabic-form="final" 
d="M1561 420v-416q0 -4 -33 -4h-885q-76 0 -124 -35t-48 -96q0 -62 47.5 -97.5t124.5 -35.5h301v-420h-199q-342 0 -523 138t-181 396q0 272 166 416t489 144h234q-53 62 -94 180q-14 40 -21 58.5t-18.5 46.5t-19.5 40.5t-21 30t-25.5 24.5t-31 15.5t-40 12t-49.5 5.5
q-113 0 -233 -75l-209 266q216 174 483 174q215 0 336 -103t191 -333q62 -207 125 -291q31 -41 137 -41h121zM1071 -307q0 82 56.5 138t138.5 56q80 0 137 -56.5t57 -137.5t-57 -138t-137 -57q-82 0 -138.5 56.5t-56.5 138.5z" />
    <glyph glyph-name="uniFE9F" unicode="&#x62c;" horiz-adv-x="1372" arabic-form="initial" 
d="M1300 358l-108 -358h-1192q-33 0 -33 4v416h807q-47 55 -86 168q-13 38 -19 54t-17 43.5t-17.5 38t-17.5 29t-21 25.5t-24.5 17.5t-30.5 14t-36.5 7.5t-45.5 6q-113 0 -234 -75l-211 266q216 174 488 174q213 0 333 -100.5t193 -331.5q29 -89 66 -189q74 -173 206 -209z
M416 -297q0 82 56 138.5t138 56.5q80 0 137.5 -57t57.5 -138t-57.5 -138t-137.5 -57q-82 0 -138 56.5t-56 138.5z" />
    <glyph glyph-name="uniFEA0" unicode="&#x62c;" horiz-adv-x="1374" arabic-form="medial" 
d="M1407 420v-416q0 -4 -31 -4h-1376q-33 0 -33 4v416h807q-47 55 -86 168q-13 38 -19 54t-17 43.5t-17.5 38t-17.5 29t-21 25.5t-24.5 17.5t-30.5 14t-36.5 7.5t-45.5 6q-113 0 -234 -75l-211 266q216 174 488 174q215 0 336 -103q120 -102 190 -329q35 -117 62.5 -183
t66.5 -114q20 -23 49.5 -31t85.5 -8h115zM412 -297q0 82 56 138.5t138 56.5q80 0 137.5 -57t57.5 -138t-57.5 -138t-137.5 -57q-82 0 -138 56.5t-56 138.5z" />
    <glyph glyph-name="uniFEA2" unicode="&#x62d;" horiz-adv-x="1527" arabic-form="final" 
d="M1561 420v-416q0 -4 -33 -4h-885q-76 0 -124 -35t-48 -96q0 -62 47.5 -97.5t124.5 -35.5h301v-420h-199q-342 0 -523 138t-181 396q0 272 166 416t489 144h234q-53 62 -94 180q-14 40 -21 58.5t-18.5 46.5t-19.5 40.5t-21 30t-25.5 24.5t-31 15.5t-40 12t-49.5 5.5
q-113 0 -233 -75l-209 266q216 174 483 174q215 0 336 -103t191 -333q62 -207 125 -291q31 -41 137 -41h121z" />
    <glyph glyph-name="uniFEA3" unicode="&#x62d;" horiz-adv-x="1372" arabic-form="initial" 
d="M1300 358l-108 -358h-1192q-33 0 -33 4v416h807q-47 55 -86 168q-13 38 -19 54t-17 43.5t-17.5 38t-17.5 29t-21 25.5t-24.5 17.5t-30.5 14t-36.5 7.5t-45.5 6q-113 0 -234 -75l-211 266q216 174 488 174q213 0 333 -100.5t193 -331.5q29 -89 66 -189q74 -173 206 -209z
" />
    <glyph glyph-name="uniFEA4" unicode="&#x62d;" horiz-adv-x="1374" arabic-form="medial" 
d="M1407 420v-416q0 -4 -31 -4h-1376q-33 0 -33 4v416h807q-47 55 -86 168q-13 38 -19 54t-17 43.5t-17.5 38t-17.5 29t-21 25.5t-24.5 17.5t-30.5 14t-36.5 7.5t-45.5 6q-113 0 -234 -75l-211 266q216 174 488 174q215 0 336 -103q120 -102 190 -329q35 -117 62.5 -183
t66.5 -114q20 -23 49.5 -31t85.5 -8h115z" />
    <glyph glyph-name="uniFEA6" unicode="&#x62e;" horiz-adv-x="1527" arabic-form="final" 
d="M1561 420v-416q0 -4 -33 -4h-885q-76 0 -124 -35t-48 -96q0 -62 47.5 -97.5t124.5 -35.5h301v-420h-199q-342 0 -523 138t-181 396q0 272 166 416t489 144h234q-53 62 -94 180q-14 40 -21 58.5t-18.5 46.5t-19.5 40.5t-21 30t-25.5 24.5t-31 15.5t-40 12t-49.5 5.5
q-113 0 -233 -75l-209 266q216 174 483 174q215 0 336 -103t191 -333q62 -207 125 -291q31 -41 137 -41h121zM494 1485q0 82 57 138t139 56q80 0 136.5 -56.5t56.5 -137.5t-56.5 -138t-136.5 -57q-82 0 -139 56.5t-57 138.5z" />
    <glyph glyph-name="uniFEA7" unicode="&#x62e;" horiz-adv-x="1372" arabic-form="initial" 
d="M1300 358l-108 -358h-1192q-33 0 -33 4v416h807q-47 55 -86 168q-13 38 -19 54t-17 43.5t-17.5 38t-17.5 29t-21 25.5t-24.5 17.5t-30.5 14t-36.5 7.5t-45.5 6q-113 0 -234 -75l-211 266q216 174 488 174q213 0 333 -100.5t193 -331.5q29 -89 66 -189q74 -173 206 -209z
M334 1485q0 82 57 138t139 56q80 0 136.5 -56.5t56.5 -137.5t-56.5 -138t-136.5 -57q-82 0 -139 56.5t-57 138.5z" />
    <glyph glyph-name="uniFEA8" unicode="&#x62e;" horiz-adv-x="1374" arabic-form="medial" 
d="M1407 420v-416q0 -4 -31 -4h-1376q-33 0 -33 4v416h807q-47 55 -86 168q-13 38 -19 54t-17 43.5t-17.5 38t-17.5 29t-21 25.5t-24.5 17.5t-30.5 14t-36.5 7.5t-45.5 6q-113 0 -234 -75l-211 266q216 174 488 174q215 0 336 -103q120 -102 190 -329q35 -117 62.5 -183
t66.5 -114q20 -23 49.5 -31t85.5 -8h115zM332 1485q0 82 57 138t139 56q80 0 136.5 -56.5t56.5 -137.5t-56.5 -138t-136.5 -57q-82 0 -139 56.5t-57 138.5z" />
    <glyph glyph-name="uniFEAA" unicode="&#x62f;" horiz-adv-x="1294" arabic-form="final" 
d="M1327 420v-416q0 -4 -33 -4h-1212v420h614v192q0 64 -46 94.5t-128 30.5h-284v389h188q133 -2 228 -12t170 -33.5t122 -58.5t78 -91.5t44.5 -127.5t16.5 -170v-213h242z" />
    <glyph glyph-name="uniFEAC" unicode="&#x630;" horiz-adv-x="1294" arabic-form="final" 
d="M1327 420v-416q0 -4 -33 -4h-1212v420h614v192q0 64 -46 94.5t-128 30.5h-284v389h188q133 -2 228 -12t170 -33.5t122 -58.5t78 -91.5t44.5 -127.5t16.5 -170v-213h242zM250 1454q0 82 57 138.5t139 56.5q80 0 136.5 -57t56.5 -138t-56.5 -137.5t-136.5 -56.5
q-82 0 -139 56t-57 138z" />
    <glyph glyph-name="uniFEAE" unicode="&#x631;" horiz-adv-x="919" arabic-form="final" 
d="M920 420h32v-416q0 -4 -32 -4h-2q-119 0 -224 31q-15 -304 -184 -439t-432 -135q-90 0 -160 13l76 397h69q137 0 190.5 52t53.5 173v932h389v-575q79 -29 224 -29z" />
    <glyph glyph-name="uniFEB0" unicode="&#x632;" horiz-adv-x="919" arabic-form="final" 
d="M920 420h32v-416q0 -4 -32 -4h-2q-119 0 -224 31q-15 -304 -184 -439t-432 -135q-90 0 -160 13l76 397h69q137 0 190.5 52t53.5 173v932h389v-575q79 -29 224 -29zM305 1362q0 81 57.5 137.5t139.5 56.5q80 0 136 -56.5t56 -137.5q0 -82 -56 -138.5t-136 -56.5
q-82 0 -139.5 56.5t-57.5 138.5z" />
    <glyph glyph-name="uniFEB2" unicode="&#x633;" horiz-adv-x="3117" arabic-form="final" 
d="M3117 420h33v-416q0 -4 -33 -4h-2q-190 0 -336 94q-150 -102 -321 -102q-172 0 -316 102q-141 -102 -317 -102q-166 0 -281 106v-438q-111 -72 -301 -137q-189 -66 -391 -66q-340 0 -539.5 193t-199.5 520q0 154 45 324l354 -68q-23 -97 -23 -168q0 -188 106.5 -286.5
t303.5 -98.5q170 0 303 47v909h389v-395q58 -22 131 -22t131 22v395h390v-395q61 -22 131 -22q73 0 131 22v488h389v-473q79 -29 223 -29z" />
    <glyph glyph-name="uniFEB3" unicode="&#x633;" horiz-adv-x="2037" arabic-form="initial" 
d="M1526 1044h389v-835q-185 -209 -520 -209q-174 0 -322 98q-143 -98 -330 -98q-186 0 -333 100q-169 -100 -408 -100h-2q-33 0 -33 4v416h33q144 0 223 29v380h389v-387q61 -22 131 -22q73 0 131 22v387h390v-387q61 -22 131 -22q73 0 131 22v602z" />
    <glyph glyph-name="uniFEB4" unicode="&#x633;" horiz-adv-x="2138" arabic-form="medial" 
d="M2138 420h33v-416q0 -4 -33 -4h-2q-204 0 -373 88q-155 -88 -368 -88q-174 0 -322 98q-143 -98 -330 -98q-186 0 -333 100q-169 -100 -408 -100h-2q-33 0 -33 4v416h33q144 0 223 29v380h389v-387q61 -22 131 -22q73 0 131 22v387h390v-387q61 -22 131 -22q73 0 131 22
v480h389v-473q79 -29 223 -29z" />
    <glyph glyph-name="uniFEB6" unicode="&#x634;" horiz-adv-x="3117" arabic-form="final" 
d="M3117 420h33v-416q0 -4 -33 -4h-2q-190 0 -336 94q-150 -102 -321 -102q-172 0 -316 102q-141 -102 -317 -102q-166 0 -281 106v-438q-111 -72 -301 -137q-189 -66 -391 -66q-340 0 -539.5 193t-199.5 520q0 154 45 324l354 -68q-23 -97 -23 -168q0 -188 106.5 -286.5
t303.5 -98.5q170 0 303 47v909h389v-395q58 -22 131 -22t131 22v395h390v-395q61 -22 131 -22q73 0 131 22v488h389v-473q79 -29 223 -29zM1882 1481q0 69 47 116.5t115 47.5q66 0 113 -47.5t47 -116.5q0 -67 -47 -114.5t-113 -47.5q-68 0 -115 47.5t-47 114.5zM1696 1155
q0 67 47 114.5t115 47.5q67 0 114 -47t47 -115t-47 -115t-114 -47q-68 0 -115 47.5t-47 114.5zM2073 1155q0 68 47 115t116 47q66 0 113 -47.5t47 -114.5t-47 -114.5t-113 -47.5q-69 0 -116 47t-47 115z" />
    <glyph glyph-name="uniFEB7" unicode="&#x634;" horiz-adv-x="2037" arabic-form="initial" 
d="M1526 1044h389v-835q-185 -209 -520 -209q-174 0 -322 98q-143 -98 -330 -98q-186 0 -333 100q-169 -100 -408 -100h-2q-33 0 -33 4v416h33q144 0 223 29v380h389v-387q61 -22 131 -22q73 0 131 22v387h390v-387q61 -22 131 -22q73 0 131 22v602zM905 1481q0 69 47 116.5
t115 47.5q66 0 113 -47.5t47 -116.5q0 -67 -47 -114.5t-113 -47.5q-67 0 -114.5 47.5t-47.5 114.5zM719 1155q0 67 47.5 114.5t114.5 47.5t114 -47t47 -115t-47 -115t-114 -47t-114.5 47.5t-47.5 114.5zM1096 1155q0 68 47.5 115t116.5 47q66 0 112.5 -47.5t46.5 -114.5
t-46.5 -114.5t-112.5 -47.5q-69 0 -116.5 47t-47.5 115z" />
    <glyph glyph-name="uniFEB8" unicode="&#x634;" horiz-adv-x="2138" arabic-form="medial" 
d="M2138 420h33v-416q0 -4 -33 -4h-2q-204 0 -373 88q-155 -88 -368 -88q-174 0 -322 98q-143 -98 -330 -98q-186 0 -333 100q-169 -100 -408 -100h-2q-33 0 -33 4v416h33q144 0 223 29v380h389v-387q61 -22 131 -22q73 0 131 22v387h390v-387q61 -22 131 -22q73 0 131 22
v480h389v-473q79 -29 223 -29zM905 1481q0 69 47 116.5t115 47.5q66 0 113 -47.5t47 -116.5q0 -67 -47 -114.5t-113 -47.5q-67 0 -114.5 47.5t-47.5 114.5zM719 1155q0 67 47.5 114.5t114.5 47.5t114 -47t47 -115t-47 -115t-114 -47t-114.5 47.5t-47.5 114.5zM1096 1155
q0 68 47.5 115t116.5 47q66 0 112.5 -47.5t46.5 -114.5t-46.5 -114.5t-112.5 -47.5q-69 0 -116.5 47t-47.5 115z" />
    <glyph glyph-name="uniFEBA" unicode="&#x635;" horiz-adv-x="2985" arabic-form="final" 
d="M3019 420v-416q0 -4 -33 -4h-1395v-313q-138 -93 -329 -160q-192 -70 -406 -70q-343 0 -543 193.5t-200 523.5q0 150 45 320l354 -68q-23 -97 -23 -168q0 -188 106.5 -286.5t303.5 -98.5q170 0 303 47v1104h389v-178q174 179 326.5 260.5t320.5 81.5q115 0 212.5 -37
t171.5 -109t115.5 -188t41.5 -264v-170h240zM1608 420h782v98q0 116 -39 195q-41 86 -172 86q-117 0 -254.5 -91t-316.5 -288z" />
    <glyph glyph-name="uniFEBB" unicode="&#x635;" horiz-adv-x="1923" arabic-form="initial" 
d="M1800 590v-590h-1800q-33 0 -33 4v416h256v604h389v-178q174 179 326.5 260.5t321.5 81.5q115 0 212.5 -37t171 -109t115 -188t41.5 -264zM629 420h782v98q0 120 -39 199q-37 82 -168 82q-119 0 -257.5 -91t-317.5 -288z" />
    <glyph glyph-name="uniFEBC" unicode="&#x635;" horiz-adv-x="2007" arabic-form="medial" 
d="M2040 420v-416q0 -4 -33 -4h-2007q-33 0 -33 4v416h256v604h389v-178q174 179 326.5 260.5t321.5 81.5q115 0 212.5 -37t171 -109t115 -188t41.5 -264v-170h240zM629 420h782v98q0 120 -39 199q-37 82 -168 82q-119 0 -257.5 -91t-317.5 -288z" />
    <glyph glyph-name="uniFEBE" unicode="&#x636;" horiz-adv-x="2985" arabic-form="final" 
d="M3019 420v-416q0 -4 -33 -4h-1395v-313q-138 -93 -329 -160q-192 -70 -406 -70q-343 0 -543 193.5t-200 523.5q0 150 45 320l354 -68q-23 -97 -23 -168q0 -188 106.5 -286.5t303.5 -98.5q170 0 303 47v1104h389v-178q174 179 326.5 260.5t320.5 81.5q115 0 212.5 -37
t171.5 -109t115.5 -188t41.5 -264v-170h240zM1608 420h782v98q0 116 -39 195q-41 86 -172 86q-117 0 -254.5 -91t-316.5 -288zM1686 1485q0 82 57 138t139 56q80 0 136.5 -56.5t56.5 -137.5t-56.5 -138t-136.5 -57q-82 0 -139 56.5t-57 138.5z" />
    <glyph glyph-name="uniFEBF" unicode="&#x636;" horiz-adv-x="1923" arabic-form="initial" 
d="M1800 590v-590h-1800q-33 0 -33 4v416h256v604h389v-178q174 179 326.5 260.5t321.5 81.5q115 0 212.5 -37t171 -109t115 -188t41.5 -264zM629 420h782v98q0 120 -39 199q-37 82 -168 82q-119 0 -257.5 -91t-317.5 -288zM629 1485q0 82 57 138t139 56q80 0 136.5 -56.5
t56.5 -137.5t-56.5 -138t-136.5 -57q-82 0 -139 56.5t-57 138.5z" />
    <glyph glyph-name="uniFEC0" unicode="&#x636;" horiz-adv-x="2007" arabic-form="medial" 
d="M2040 420v-416q0 -4 -33 -4h-2007q-33 0 -33 4v416h256v604h389v-178q174 179 326.5 260.5t321.5 81.5q115 0 212.5 -37t171 -109t115 -188t41.5 -264v-170h240zM629 420h782v98q0 120 -39 199q-37 82 -168 82q-119 0 -257.5 -91t-317.5 -288zM629 1485q0 82 57 138
t139 56q80 0 136.5 -56.5t56.5 -137.5t-56.5 -138t-136.5 -57q-82 0 -139 56.5t-57 138.5z" />
    <glyph glyph-name="uniFEC2" unicode="&#x637;" horiz-adv-x="2029" arabic-form="final" 
d="M2062 420v-416q0 -4 -32 -4h-1948v420h164v1075h389v-649q174 179 326.5 260.5t320.5 81.5q115 0 212.5 -37t171.5 -109t115.5 -188t41.5 -264v-170h239zM651 420h783v98q0 116 -39 195q-41 86 -172 86q-117 0 -255 -91t-317 -288z" />
    <glyph glyph-name="uniFEC3" unicode="&#x637;" horiz-adv-x="1923" arabic-form="initial" 
d="M1800 590v-590h-1800q-33 0 -33 4v416h256v1075h389v-649q174 179 326.5 260.5t321.5 81.5q115 0 212.5 -37t171 -109t115 -188t41.5 -264zM629 420h782v98q0 118 -39 197q-41 84 -172 84q-117 0 -254.5 -91t-316.5 -288z" />
    <glyph glyph-name="uniFEC4" unicode="&#x637;" horiz-adv-x="2007" arabic-form="medial" 
d="M2040 420v-416q0 -4 -33 -4h-2007q-33 0 -33 4v416h256v1075h389v-649q174 179 326.5 260.5t321.5 81.5q115 0 212.5 -37t171 -109t115 -188t41.5 -264v-170h240zM629 420h782v98q0 118 -39 197q-41 84 -172 84q-117 0 -254.5 -91t-316.5 -288z" />
    <glyph glyph-name="uniFEC6" unicode="&#x638;" horiz-adv-x="2029" arabic-form="final" 
d="M2062 420v-416q0 -4 -32 -4h-1948v420h164v1075h389v-649q174 179 326.5 260.5t320.5 81.5q115 0 212.5 -37t171.5 -109t115.5 -188t41.5 -264v-170h239zM651 420h783v98q0 116 -39 195q-41 86 -172 86q-117 0 -255 -91t-317 -288zM877 1516q0 82 57 138t139 56
q80 0 136.5 -56.5t56.5 -137.5t-56.5 -138t-136.5 -57q-82 0 -139 56.5t-57 138.5z" />
    <glyph glyph-name="uniFEC7" unicode="&#x638;" horiz-adv-x="1923" arabic-form="initial" 
d="M1800 590v-590h-1800q-33 0 -33 4v416h256v1075h389v-649q174 179 326.5 260.5t321.5 81.5q115 0 212.5 -37t171 -109t115 -188t41.5 -264zM629 420h782v98q0 118 -39 197q-41 84 -172 84q-117 0 -254.5 -91t-316.5 -288zM868 1516q0 81 57.5 137.5t139.5 56.5
q80 0 136 -56.5t56 -137.5q0 -82 -56 -138.5t-136 -56.5q-82 0 -139.5 56.5t-57.5 138.5z" />
    <glyph glyph-name="uniFEC8" unicode="&#x638;" horiz-adv-x="2007" arabic-form="medial" 
d="M2040 420v-416q0 -4 -33 -4h-2007q-33 0 -33 4v416h256v1075h389v-649q174 179 326.5 260.5t321.5 81.5q115 0 212.5 -37t171 -109t115 -188t41.5 -264v-170h240zM629 420h782v98q0 118 -39 197q-41 84 -172 84q-117 0 -254.5 -91t-316.5 -288zM868 1516q0 81 57.5 137.5
t139.5 56.5q80 0 136 -56.5t56 -137.5q0 -82 -56 -138.5t-136 -56.5q-82 0 -139.5 56.5t-57.5 138.5z" />
    <glyph glyph-name="uniFECA" unicode="&#x639;" horiz-adv-x="1570" arabic-form="final" 
d="M1604 420v-416q0 -4 -33 -4h-963q-82 0 -130 -35t-48 -96t48 -97t130 -36h324v-420h-209q-351 0 -527 138.5t-176 398.5q0 192 122.5 327t351.5 195l-275 407l70 310q253 100 520 100q238 0 387 -96q150 -94 150 -295q0 -113 -48.5 -211.5t-132.5 -169.5h439zM797 803
q-53 0 -129 -27l137 -289q63 31 102 83.5t39 109.5t-40 90t-109 33z" />
    <glyph glyph-name="uniFECB" unicode="&#x639;" horiz-adv-x="1343" arabic-form="initial" 
d="M852 420h410v-420h-1262q-33 0 -33 4v416h283q-94 125 -94 295q0 144 76.5 253t203 164.5t283.5 55.5q140 0 263 -52t210 -145l-270 -256q-63 82 -174 82q-87 0 -139 -51t-52 -137q0 -101 74.5 -155t220.5 -54z" />
    <glyph glyph-name="uniFECC" unicode="&#x639;" horiz-adv-x="1404" arabic-form="medial" 
d="M1438 420v-416q0 -4 -33 -4h-1405q-33 0 -33 4v416h389l-241 358l69 309q255 101 521 101q238 0 387 -96q149 -94 149 -295q0 -112 -47 -209t-129 -168h373zM692 799q-52 0 -129 -27l137 -289q64 31 103 84t39 109q0 57 -40.5 90t-109.5 33z" />
    <glyph glyph-name="uniFECE" unicode="&#x63a;" horiz-adv-x="1570" arabic-form="final" 
d="M1604 420v-416q0 -4 -33 -4h-963q-82 0 -130 -35t-48 -96t48 -97t130 -36h324v-420h-209q-351 0 -527 138.5t-176 398.5q0 192 122.5 327t351.5 195l-275 407l70 310q253 100 520 100q238 0 387 -96q150 -94 150 -295q0 -113 -48.5 -211.5t-132.5 -169.5h439zM797 803
q-53 0 -129 -27l137 -289q63 31 102 83.5t39 109.5t-40 90t-109 33zM653 1485q0 81 57.5 137.5t139.5 56.5q80 0 136 -56.5t56 -137.5q0 -82 -56 -138.5t-136 -56.5q-82 0 -139.5 56.5t-57.5 138.5z" />
    <glyph glyph-name="uniFECF" unicode="&#x63a;" horiz-adv-x="1343" arabic-form="initial" 
d="M852 420h410v-420h-1262q-33 0 -33 4v416h283q-94 125 -94 295q0 144 76.5 253t203 164.5t283.5 55.5q140 0 263 -52t210 -145l-270 -256q-63 82 -174 82q-87 0 -139 -51t-52 -137q0 -101 74.5 -155t220.5 -54zM522 1485q0 81 57.5 137.5t139.5 56.5q80 0 136 -56.5
t56 -137.5q0 -82 -56 -138.5t-136 -56.5q-82 0 -139.5 56.5t-57.5 138.5z" />
    <glyph glyph-name="uniFED0" unicode="&#x63a;" horiz-adv-x="1404" arabic-form="medial" 
d="M1438 420v-416q0 -4 -33 -4h-1405q-33 0 -33 4v416h389l-241 358l69 309q255 101 521 101q238 0 387 -96q149 -94 149 -295q0 -112 -47 -209t-129 -168h373zM692 799q-52 0 -129 -27l137 -289q64 31 103 84t39 109q0 57 -40.5 90t-109.5 33zM504 1485q0 82 57 138t139 56
q80 0 136.5 -56.5t56.5 -137.5t-56.5 -138t-136.5 -57q-82 0 -139 56.5t-57 138.5z" />
    <glyph glyph-name="uniFED2" unicode="&#x641;" horiz-adv-x="2676" arabic-form="final" 
d="M2710 420v-416q0 -4 -33 -4h-1915q-326 0 -487.5 128.5t-161.5 410.5q0 186 71 393l357 -66q-41 -118 -41 -204q0 -123 66 -182.5t212 -59.5h807q-151 115 -151 317q0 140 72.5 240.5t194.5 149.5t281 49q227 0 472 -109v-647h256zM1829 662q0 -72 65 -119.5t170 -65.5
v299q-40 15 -90 15q-67 0 -106 -35.5t-39 -93.5zM1786 1473q0 82 57 138t139 56q80 0 136.5 -56.5t56.5 -137.5t-56.5 -138t-136.5 -57q-82 0 -139 56.5t-57 138.5z" />
    <glyph glyph-name="uniFED3" unicode="&#x641;" horiz-adv-x="1302" arabic-form="initial" 
d="M1180 1067v-913q-115 -70 -310 -112t-426 -42h-444q-33 0 -33 4v416h344q-151 115 -151 317q0 140 72.5 240.5t195 149.5t281.5 49q226 0 471 -109zM555 662q0 -76 63.5 -123.5t172.5 -65.5v303q-40 15 -91 15q-66 0 -105.5 -34.5t-39.5 -94.5zM512 1473q0 81 57.5 137.5
t139.5 56.5q80 0 136 -56.5t56 -137.5q0 -82 -56 -138.5t-136 -56.5q-82 0 -139.5 56.5t-57.5 138.5z" />
    <glyph glyph-name="uniFED4" unicode="&#x641;" horiz-adv-x="1386" arabic-form="medial" 
d="M1419 420v-416q0 -4 -33 -4h-1386q-33 0 -33 4v416h324q-133 133 -133 315q0 205 148 329t386 124q240 0 388.5 -124t148.5 -329q0 -182 -133 -315h323zM557 662q0 -57 35 -105t102 -80q135 66 135 185q0 66 -36.5 104.5t-98.5 38.5t-99.5 -38.5t-37.5 -104.5zM496 1485
q0 82 57 138t139 56q80 0 136.5 -56.5t56.5 -137.5t-56.5 -138t-136.5 -57q-82 0 -139 56.5t-57 138.5z" />
    <glyph glyph-name="uniFED6" unicode="&#x642;" horiz-adv-x="1931" arabic-form="final" 
d="M1964 418v-416q0 -4 -33 -4h-217v-320q-134 -96 -356 -159q-219 -62 -447 -62q-370 0 -584 195.5t-214 521.5q0 146 47 320l352 -70q-23 -90 -23 -164q0 -193 123 -290t349 -97q188 0 364 43v104h-37q-308 0 -468.5 129.5t-160.5 362.5q0 239 151.5 385.5t426.5 146.5
q244 0 477 -104v-522h250zM1221 420h104v239q-57 23 -115 23q-75 0 -116 -34.5t-41 -100.5q0 -62 43 -94.5t125 -32.5zM829 1341q0 82 56.5 138.5t138.5 56.5q80 0 136.5 -57t56.5 -138t-56.5 -137.5t-136.5 -56.5q-82 0 -138.5 56t-56.5 138zM1257 1341q0 82 56.5 138.5
t138.5 56.5q80 0 136.5 -57t56.5 -138t-56.5 -137.5t-136.5 -56.5q-82 0 -138.5 56t-56.5 138z" />
    <glyph glyph-name="uniFED7" unicode="&#x642;" horiz-adv-x="1302" arabic-form="initial" 
d="M1180 1067v-913q-115 -70 -310 -112t-426 -42h-444q-33 0 -33 4v416h344q-151 115 -151 317q0 140 72.5 240.5t195 149.5t281.5 49q226 0 471 -109zM555 662q0 -76 63.5 -123.5t172.5 -65.5v303q-40 15 -91 15q-66 0 -105.5 -34.5t-39.5 -94.5zM301 1473q0 82 56.5 138
t138.5 56q80 0 136 -56.5t56 -137.5q0 -82 -56 -138.5t-136 -56.5q-82 0 -138.5 56.5t-56.5 138.5zM729 1473q0 82 56.5 138t138.5 56q80 0 136 -56.5t56 -137.5q0 -82 -56 -138.5t-136 -56.5q-82 0 -138.5 56.5t-56.5 138.5z" />
    <glyph glyph-name="uniFED8" unicode="&#x642;" horiz-adv-x="1386" arabic-form="medial" 
d="M1419 420v-416q0 -4 -33 -4h-1386q-33 0 -33 4v416h324q-133 133 -133 315q0 205 148 329t386 124q240 0 388.5 -124t148.5 -329q0 -182 -133 -315h323zM557 662q0 -57 35 -105t102 -80q135 66 135 185q0 66 -36.5 104.5t-98.5 38.5t-99.5 -38.5t-37.5 -104.5zM285 1485
q0 82 56 138t138 56q80 0 136.5 -56.5t56.5 -137.5t-56.5 -138t-136.5 -57q-82 0 -138 56.5t-56 138.5zM713 1485q0 82 56 138t138 56q80 0 136.5 -56.5t56.5 -137.5t-56.5 -138t-136.5 -57q-82 0 -138 56.5t-56 138.5z" />
    <glyph glyph-name="uniFEDA" unicode="&#x643;" horiz-adv-x="2373" arabic-form="final" 
d="M2374 420h32v-416q0 -4 -32 -4h-2q-239 0 -416 113q-204 -113 -553 -113h-641q-326 0 -487.5 128.5t-161.5 410.5q0 186 71 393l357 -66q-41 -118 -41 -204q0 -123 66 -182.5t212 -59.5h709q200 0 274 47v1028h389v-1046q79 -29 224 -29zM1358 977v-205h-461v205h98
q-43 46 -43 117q0 81 56 135.5t145 54.5q55 0 106.5 -23.5t83.5 -60.5l-114 -115q-30 23 -58 23q-26 0 -42.5 -16.5t-16.5 -42.5q0 -33 28 -52.5t81 -19.5h137z" />
    <glyph glyph-name="uniFEDB" unicode="&#x643;" horiz-adv-x="1294" arabic-form="initial" 
d="M1171 518v-356q-131 -81 -329 -121q-202 -41 -387 -41h-455q-33 0 -33 4v416h529q91 0 168.5 15.5t117.5 39.5v31q-3 23 -6.5 35t-18 26.5t-29.5 22.5t-56 22.5t-83 26.5t-124 35l-285 78l-80 301l762 553l195 -246l-475 -342l98 -29q217 -64 295 -102q100 -46 148 -132
t48 -237z" />
    <glyph glyph-name="uniFEDC" unicode="&#x643;" horiz-adv-x="1310" arabic-form="medial" 
d="M1311 420h32v-416q0 -4 -32 -4h-2q-173 0 -326 78q-251 -78 -528 -78h-455q-33 0 -33 4v416h529q91 0 168.5 15.5t117.5 39.5v31q-3 23 -6.5 35t-18 26.5t-29.5 22.5t-56 22.5t-83 26.5t-124 35l-285 78l-80 301l762 553l195 -246l-475 -342l98 -29q217 -64 295 -102
q100 -46 148 -132t48 -237v-69q69 -29 140 -29z" />
    <glyph glyph-name="uniFEDE" unicode="&#x644;" horiz-adv-x="1814" arabic-form="final" 
d="M1815 420h32v-416q0 -4 -32 -4h-3q-108 0 -221 29v-365q-134 -76 -325 -139q-198 -68 -410 -68q-340 0 -541.5 193t-201.5 520q0 154 45 324l354 -68q-23 -97 -23 -168q0 -188 106.5 -286.5t303.5 -98.5q170 0 303 47v1575h389v-1046q79 -29 224 -29z" />
    <glyph glyph-name="uniFEDF" unicode="&#x644;" horiz-adv-x="735" arabic-form="initial" 
d="M223 1495h389v-1204q-86 -125 -243 -207q-162 -84 -367 -84h-2q-33 0 -33 4v416h33q144 0 223 29v1046z" />
    <glyph glyph-name="uniFEE0" unicode="&#x644;" horiz-adv-x="835" arabic-form="medial" 
d="M836 420h32v-416q0 -4 -32 -4h-2q-233 0 -416 113q-183 -113 -416 -113h-2q-33 0 -33 4v416h33q144 0 223 29v1046h389v-1046q79 -29 224 -29z" />
    <glyph glyph-name="uniFEE2" unicode="&#x645;" horiz-adv-x="1622" arabic-form="final" 
d="M1622 420h33v-416q0 -4 -33 -4h-2q-174 0 -330 72q-74 -83 -179 -128.5t-226 -45.5q-120 0 -221 43q-100 44 -164 108q-80 -9 -80 -86q0 -294 41 -665h-389q-41 377 -41 677q0 175 78.5 259.5t244.5 95.5q-8 36 -8 100q0 150 70 272.5t193.5 191.5t275.5 69
q229 0 382 -148.5t156 -372.5q77 -22 199 -22zM1030 430q0 62 -39.5 102.5t-109.5 40.5q-65 0 -103.5 -40.5t-38.5 -102.5t38.5 -102.5t103.5 -40.5q70 0 109.5 40.5t39.5 102.5z" />
    <glyph glyph-name="uniFEE3" unicode="&#x645;" horiz-adv-x="1374" arabic-form="initial" 
d="M1292 430q0 -150 -69.5 -272t-193 -191t-275.5 -69q-124 0 -229.5 45.5t-180.5 130.5q-154 -74 -342 -74h-2q-33 0 -33 4v416h33q135 0 215 22q3 224 156.5 372.5t382.5 148.5q152 0 275.5 -69t193 -191.5t69.5 -272.5zM899 430q0 62 -39.5 102.5t-109.5 40.5
q-65 0 -103.5 -40.5t-38.5 -102.5t38.5 -102.5t103.5 -40.5q70 0 109.5 40.5t39.5 102.5z" />
    <glyph glyph-name="uniFEE4" unicode="&#x645;" horiz-adv-x="1474" arabic-form="medial" 
d="M1475 420h32v-416q0 -4 -32 -4h-2q-178 0 -326 74q-74 -85 -180 -130.5t-230 -45.5q-123 0 -228.5 45.5t-180.5 130.5q-145 -74 -326 -74h-2q-33 0 -33 4v416h33q122 0 199 22q3 224 156 372.5t382 148.5t382.5 -148.5t156.5 -372.5q77 -22 199 -22zM883 430
q0 62 -40 102.5t-110 40.5q-64 0 -102.5 -40.5t-38.5 -102.5t38.5 -102.5t102.5 -40.5q70 0 110 40.5t40 102.5z" />
    <glyph glyph-name="uniFEE6" unicode="&#x646;" horiz-adv-x="1787" arabic-form="final" 
d="M1788 420h33v-416q0 -4 -33 -4h-2q-130 0 -234 43v-387q-140 -81 -319 -137q-186 -62 -393 -62q-337 0 -532 192.5t-195 520.5q0 154 45 324l354 -70q-23 -97 -23 -166q0 -188 106.5 -286.5t303.5 -98.5q170 0 303 47v909h363v-315q0 -70 61 -82q74 -12 162 -12zM596 872
q0 82 57.5 138.5t139.5 56.5q80 0 136 -56.5t56 -138.5q0 -81 -56 -137.5t-136 -56.5q-82 0 -139.5 56.5t-57.5 137.5z" />
    <glyph glyph-name="uniFEE7" unicode="&#x646;" horiz-adv-x="735" arabic-form="initial" 
d="M223 1069h389v-842q-82 -102 -243.5 -164.5t-366.5 -62.5h-2q-33 0 -33 4v416h33q144 0 223 29v620zM219 1407q0 82 57.5 138.5t139.5 56.5q80 0 136 -56.5t56 -138.5t-56 -138.5t-136 -56.5q-82 0 -139.5 56.5t-57.5 138.5z" />
    <glyph glyph-name="uniFEE8" unicode="&#x646;" horiz-adv-x="835" arabic-form="medial" 
d="M836 420h32v-416q0 -4 -32 -4h-2q-233 0 -416 113q-183 -113 -416 -113h-2q-33 0 -33 4v416h33q144 0 223 29v620h389v-620q79 -29 224 -29zM225 1407q0 82 57.5 138.5t139.5 56.5q80 0 136 -56.5t56 -138.5t-56 -138.5t-136 -56.5q-82 0 -139.5 56.5t-57.5 138.5z" />
    <glyph glyph-name="uniFEEA" unicode="&#x647;" horiz-adv-x="1359" arabic-form="final" 
d="M1393 420v-416q0 -4 -33 -4h-633q-307 0 -476 143.5t-169 372.5q0 238 150.5 383t426.5 145q245 0 478 -104v-520h256zM643 420h105v229q-52 27 -117 27q-72 0 -114 -34t-42 -99q0 -60 43 -91.5t125 -31.5z" />
    <glyph glyph-name="uniFEEB" unicode="&#x647;" horiz-adv-x="1652" arabic-form="initial" 
d="M1530 522v-522h-1530q-33 0 -33 4v416h256q-59 89 -59 205q0 171 121 266q119 94 303 94q185 0 307 -96q119 -94 119 -264q0 -124 -64 -209l191 -2v131q0 267 -146 403.5t-413 136.5q-155 0 -269 -30v358q126 21 281 21q452 0 694 -228.5t242 -683.5zM500 547
q0 -99 90 -123q88 21 88 123q0 53 -23 81.5t-65 28.5q-43 0 -66.5 -28t-23.5 -82z" />
    <glyph glyph-name="uniFEEC" unicode="&#x647;" horiz-adv-x="1708" arabic-form="medial" 
d="M1741 420v-416q0 -4 -33 -4h-1708q-33 0 -33 4v416h256q-59 89 -59 205q0 171 121 266q119 94 303 94q185 0 307 -96q119 -94 119 -264q0 -124 -64 -209l191 -2v131q0 267 -146 403.5t-413 136.5q-155 0 -269 -30v358q126 21 281 21q452 0 694 -228.5t242 -683.5v-102
h211zM500 547q0 -99 90 -123q88 21 88 123q0 53 -23 81.5t-65 28.5q-43 0 -66.5 -28t-23.5 -82z" />
    <glyph glyph-name="uniFEEE" unicode="&#x648;" horiz-adv-x="1370" arabic-form="final" 
d="M1403 420v-416q0 -4 -33 -4h-237q-27 -290 -197 -416q-171 -127 -444 -127q-195 0 -388 54l72 374q180 -49 328 -49q133 0 187.5 40.5t56.5 123.5h-37q-306 0 -467.5 141t-161.5 371q0 239 151 385.5t426 146.5q245 0 478 -104v-520h266zM643 420h105v239q-57 23 -115 23
q-75 0 -116.5 -33.5t-41.5 -99.5q0 -62 43.5 -95.5t124.5 -33.5z" />
    <glyph glyph-name="uniFEF0" unicode="&#x649;" horiz-adv-x="2326" arabic-form="final" 
d="M2327 420h32v-416q0 -4 -32 -4q-128 0 -213.5 15t-153.5 53.5t-111.5 105t-74.5 170.5l-50 168h-153q-94 0 -94 -70q0 -26 8 -47l207 -686q-143 -88 -379 -170t-457 -82q-340 0 -541.5 193t-201.5 520q0 154 45 324l354 -68q-23 -97 -23 -168q0 -188 106.5 -286.5
t303.5 -98.5q75 0 174 12q88 10 164 35l-139 436q-31 102 -31 179q0 175 117 270q122 96 301 96h524l96 -342q17 -58 36 -84.5t61.5 -40.5t124.5 -14z" />
    <glyph glyph-name="uniFEF2" unicode="&#x64a;" horiz-adv-x="2326" arabic-form="final" 
d="M2327 420h32v-416q0 -4 -32 -4q-128 0 -213.5 15t-153.5 53.5t-111.5 105t-74.5 170.5l-50 168h-153q-94 0 -94 -70q0 -26 8 -47l207 -686q-143 -88 -379 -170t-457 -82q-340 0 -541.5 193t-201.5 520q0 154 45 324l354 -68q-23 -97 -23 -168q0 -188 106.5 -286.5
t303.5 -98.5q75 0 174 12q88 10 164 35l-139 436q-31 102 -31 179q0 175 117 270q122 96 301 96h524l96 -342q17 -58 36 -84.5t61.5 -40.5t124.5 -14zM426 -840q0 82 56.5 138.5t138.5 56.5q80 0 136 -56.5t56 -138.5q0 -81 -56 -137.5t-136 -56.5q-82 0 -138.5 56
t-56.5 138zM854 -840q0 82 56.5 138.5t138.5 56.5q80 0 136 -56.5t56 -138.5q0 -81 -56 -137.5t-136 -56.5q-82 0 -138.5 56t-56.5 138z" />
    <glyph glyph-name="uniFEF3" unicode="&#x64a;" horiz-adv-x="735" arabic-form="initial" 
d="M223 1069h389v-842q-82 -102 -243.5 -164.5t-366.5 -62.5h-2q-33 0 -33 4v416h33q144 0 223 29v620zM-43 -297q0 82 56.5 138.5t138.5 56.5q80 0 136 -56.5t56 -138.5t-56 -138.5t-136 -56.5q-82 0 -138.5 56.5t-56.5 138.5zM385 -297q0 82 56.5 138.5t138.5 56.5
q80 0 136 -56.5t56 -138.5t-56 -138.5t-136 -56.5q-82 0 -138.5 56.5t-56.5 138.5z" />
    <glyph glyph-name="uniFEF4" unicode="&#x64a;" horiz-adv-x="835" arabic-form="medial" 
d="M836 420h32v-416q0 -4 -32 -4h-2q-233 0 -416 113q-183 -113 -416 -113h-2q-33 0 -33 4v416h33q144 0 223 29v620h389v-620q79 -29 224 -29zM14 -297q0 82 56.5 138.5t138.5 56.5q80 0 136 -56.5t56 -138.5t-56 -138.5t-136 -56.5q-82 0 -138.5 56.5t-56.5 138.5z
M442 -297q0 82 56.5 138.5t138.5 56.5q80 0 136 -56.5t56 -138.5t-56 -138.5t-136 -56.5q-82 0 -138.5 56.5t-56.5 138.5z" />
    <glyph glyph-name=".notdef" horiz-adv-x="1024" 
d="M102 61v1229h820v-1229h-820zM246 205h532v942h-532v-942z" />
    <glyph glyph-name=".null" 
 />
    <glyph glyph-name="nonmarkingreturn" horiz-adv-x="682" 
 />
    <glyph glyph-name="space" unicode=" " horiz-adv-x="512" 
 />
    <glyph glyph-name="exclam" unicode="!" horiz-adv-x="587" 
d="M528 1434l-43 -988h-381l-43 988h467zM512 164q0 -78 -63 -132.5t-154 -54.5t-155 54.5t-64 132.5t64 132t155 54q90 0 153.5 -55t63.5 -131z" />
    <glyph glyph-name="quotedbl" unicode="&#x22;" horiz-adv-x="888" 
d="M385 1454l-29 -543h-268l-27 543h324zM829 1454l-28 -543h-269l-26 543h323z" />
    <glyph glyph-name="numbersign" unicode="#" horiz-adv-x="1544" 
d="M1335 1434l-49 -273h217l-55 -315h-217l-43 -240h217l-55 -315h-217l-52 -291h-321l51 291h-231l-52 -291h-321l51 291h-217l55 315h217l43 240h-217l56 315h217l47 273h321l-47 -273h232l49 273h321zM909 846h-231l-43 -240h231z" />
    <glyph glyph-name="dollar" unicode="$" horiz-adv-x="1228" 
d="M791 -12v-230h-336v240q-307 56 -453 160l193 344q104 -66 230 -104t241 -38q60 0 87 13.5t27 42.5q0 26 -11.5 39t-50.5 27.5t-136 39.5q-201 54 -308.5 111.5t-152.5 135.5t-45 202q0 185 98 306t281 159v239h336v-231q227 -34 413 -152l-170 -344q-97 55 -217 94
q-115 37 -201 37q-81 0 -81 -43q0 -20 10 -31t50 -26.5t130 -42.5q149 -46 242.5 -89.5t154 -100t84 -124.5t23.5 -165q0 -198 -111 -317.5t-327 -151.5z" />
    <glyph glyph-name="percent" unicode="%" horiz-adv-x="1937" 
d="M1673 1468l-1071 -1503h-336l1069 1503h338zM809 1042q0 -190 -102 -301.5t-281 -111.5t-282 111t-103 302q0 190 103 301t282 111t281 -111t102 -301zM328 1042q0 -73 27.5 -118t70.5 -45t69.5 45t26.5 118t-26.5 117.5t-69.5 44.5t-70.5 -44.5t-27.5 -117.5zM1898 393
q0 -190 -103 -300.5t-282 -110.5t-282 110.5t-103 300.5t103 302t282 112t282 -112t103 -302zM1415 393q0 -73 27.5 -117.5t70.5 -44.5t71 44.5t28 117.5t-28 118.5t-71 45.5t-70.5 -45.5t-27.5 -118.5z" />
    <glyph glyph-name="ampersand" unicode="&#x26;" horiz-adv-x="1593" 
d="M1346 375l147 -146l-291 -249l-115 124q-185 -124 -428 -124q-268 0 -412.5 103.5t-144.5 295.5q0 134 77 234t257 198q-59 65 -82.5 118t-23.5 120q0 172 132 288.5t326 116.5q181 0 302.5 -103t121.5 -257q0 -113 -60.5 -197.5t-178.5 -155.5l123 -118q49 69 98 165
l299 -137q-67 -156 -147 -276zM680 1077q0 -44 70 -114q79 38 104 61.5t25 58.5q0 43 -25 67t-68 24q-44 0 -75 -28t-31 -69zM844 369l-189 204q-72 -42 -99.5 -73.5t-27.5 -69.5q0 -55 37.5 -85t104.5 -30q83 0 174 54z" />
    <glyph glyph-name="quotesingle" unicode="'" horiz-adv-x="444" 
d="M385 1454l-29 -543h-268l-27 543h324z" />
    <glyph glyph-name="parenleft" unicode="(" horiz-adv-x="700" 
d="M309 1468l353 -180q-59 -152 -107 -381q-43 -215 -43 -422q0 -214 45 -432q49 -237 109 -385l-355 -180q-103 189 -178 469q-72 279 -72 528q0 247 72 523q70 267 176 460z" />
    <glyph glyph-name="parenright" unicode=")" horiz-adv-x="700" 
d="M639 485q0 -253 -74 -528q-71 -276 -176 -469l-354 180q58 143 108 385q45 218 45 432q0 212 -45 422q-45 229 -104 381l352 180q106 -193 176 -460q72 -276 72 -523z" />
    <glyph glyph-name="asterisk" unicode="*" horiz-adv-x="886" 
d="M565 1458l-4 -207l195 70l75 -231l-198 -62l125 -162l-197 -143l-117 172l-116 -172l-199 143l127 162l-201 62l76 231l197 -70l-6 207h243z" />
    <glyph glyph-name="plus" unicode="+" horiz-adv-x="1228" 
d="M1145 750v-318h-371v-373h-317v373h-373v318h373v370h317v-370h371z" />
    <glyph glyph-name="comma" unicode="," horiz-adv-x="557" 
d="M498 164q0 -48 -29 -92l-289 -420l-117 53l119 293q-56 24 -88.5 67.5t-32.5 98.5q0 76 64 131t154 55q91 0 155 -54t64 -132z" />
    <glyph glyph-name="hyphen" unicode="-" horiz-adv-x="835" 
d="M774 705v-347h-713v347h713z" />
    <glyph glyph-name="period" unicode="." horiz-adv-x="557" 
d="M498 164q0 -78 -64 -132.5t-155 -54.5t-154.5 54.5t-63.5 132.5q0 76 64 131t154 55q91 0 155 -54t64 -132z" />
    <glyph glyph-name="slash" unicode="/" horiz-adv-x="1163" 
d="M1124 1468l-716 -1503h-367l717 1503h366z" />
    <glyph glyph-name="zero" unicode="0" horiz-adv-x="1466" 
d="M1395 696q0 -330 -178 -523t-484 -193t-483.5 193t-177.5 523t177.5 523.5t483.5 193.5t484 -193.5t178 -523.5zM528 696q0 -147 55.5 -232t149.5 -85q97 0 152 84.5t55 232.5t-55 233t-152 85q-94 0 -149.5 -85.5t-55.5 -232.5z" />
    <glyph glyph-name="one" unicode="1" horiz-adv-x="884" 
d="M784 1395v-1395h-446v1001l-238 -53l-80 332l414 115h350z" />
    <glyph glyph-name="two" unicode="2" horiz-adv-x="1251" 
d="M737 362h473v-362h-1169v334l614 444q82 62 82 135q0 51 -31.5 80t-87.5 29q-69 0 -151 -42.5t-148 -111.5l-278 240q93 139 260 223q163 82 350 82q241 0 393 -132t152 -339q0 -136 -81.5 -248t-299.5 -274z" />
    <glyph glyph-name="three" unicode="3" horiz-adv-x="1290" 
d="M1219 438q0 -202 -157.5 -330t-412.5 -128q-310 0 -608 219l272 282q60 -54 143.5 -87.5t157.5 -33.5q72 0 114 32.5t42 88.5q0 105 -160 105q-64 0 -211 -27l-69 234l305 239h-494v361h1043v-318l-295 -233q141 -27 235 -140q95 -112 95 -264z" />
    <glyph glyph-name="four" unicode="4" horiz-adv-x="1388" 
d="M1182 569h168v-329h-168v-240h-447v240h-645l-59 344l639 809h512v-824zM502 569h235v314z" />
    <glyph glyph-name="five" unicode="5" horiz-adv-x="1267" 
d="M1229 471q0 -225 -155 -358t-417 -133q-174 0 -330.5 60t-273.5 175l215 268q74 -57 170.5 -93t175.5 -36t123.5 35.5t44.5 97.5t-44 99t-117 37q-58 0 -114 -23t-97 -65l-271 139l39 719h989v-361h-614l-8 -143q104 22 190 22q232 0 363 -116.5t131 -323.5z" />
    <glyph glyph-name="six" unicode="6" horiz-adv-x="1296" 
d="M1257 487q0 -218 -164.5 -362.5t-416.5 -144.5q-281 0 -442.5 189t-161.5 519q0 344 168.5 534.5t474.5 190.5q272 0 491 -145l-184 -281q-116 72 -246 72q-109 0 -169.5 -58t-80.5 -182q125 76 287 76q198 0 321 -113t123 -295zM840 465q0 69 -42.5 112.5t-109.5 43.5
q-101 0 -164 -97q13 -114 54 -164.5t114 -50.5q69 0 108.5 42t39.5 114z" />
    <glyph glyph-name="seven" unicode="7" horiz-adv-x="1191" 
d="M41 1393h1122v-349l-585 -1044h-504l581 1010h-614v383z" />
    <glyph glyph-name="eight" unicode="8" horiz-adv-x="1345" 
d="M1276 389q0 -176 -169 -292.5t-433 -116.5q-265 0 -433.5 116.5t-168.5 292.5q0 231 237 342q-192 103 -192 303q0 161 159.5 270t397.5 109t397.5 -109t159.5 -270q0 -199 -193 -303q238 -111 238 -342zM526 965q0 -62 40.5 -98t107.5 -36t106 35.5t39 98.5
q0 60 -41 97.5t-104 37.5q-64 0 -106 -38t-42 -97zM834 438q0 63 -44 101.5t-116 38.5t-116 -38.5t-44 -101.5q0 -60 44 -98.5t116 -38.5t116 38.5t44 98.5z" />
    <glyph glyph-name="nine" unicode="9" horiz-adv-x="1296" 
d="M1227 705q0 -344 -168.5 -534.5t-474.5 -190.5q-273 0 -492 145l184 281q116 -72 246 -72q109 0 169.5 57.5t80.5 181.5q-124 -75 -287 -75q-198 0 -321 113t-123 294q0 218 165 363t417 145q281 0 442.5 -189t161.5 -519zM774 868q-13 114 -54 164.5t-114 50.5
q-69 0 -108 -41.5t-39 -113.5q0 -69 42 -112.5t109 -43.5q102 0 164 96z" />
    <glyph glyph-name="colon" unicode=":" horiz-adv-x="557" 
d="M498 164q0 -78 -64 -132.5t-155 -54.5t-154.5 54.5t-63.5 132.5q0 76 64 131t154 55q91 0 155 -54t64 -132zM498 868q0 -78 -64 -132t-155 -54t-154.5 54t-63.5 132q0 76 64 131.5t154 55.5q91 0 155 -54.5t64 -132.5z" />
    <glyph glyph-name="semicolon" unicode=";" horiz-adv-x="557" 
d="M498 164q0 -48 -29 -92l-289 -420l-117 53l119 293q-56 24 -88.5 67.5t-32.5 98.5q0 76 64 131t154 55q91 0 155 -54t64 -132zM498 868q0 -78 -64 -132t-155 -54t-154.5 54t-63.5 132q0 76 64 131.5t154 55.5q91 0 155 -54.5t64 -132.5z" />
    <glyph glyph-name="less" unicode="&#x3c;" horiz-adv-x="1228" 
d="M1145 1186v-408l-639 -188l639 -189v-407l-1061 377v438z" />
    <glyph glyph-name="equal" unicode="=" horiz-adv-x="1228" 
d="M1145 975v-318h-1061v318h1061zM1145 524v-317h-1061v317h1061z" />
    <glyph glyph-name="greater" unicode="&#x3e;" horiz-adv-x="1228" 
d="M84 1186l1061 -377v-438l-1061 -377v407l639 189l-639 188v408z" />
    <glyph glyph-name="question" unicode="?" horiz-adv-x="1202" 
d="M1143 1018q0 -108 -53 -197q-52 -85 -183 -192l-22 -19q-49 -38 -64.5 -64.5t-15.5 -68.5l-2 -31h-379l-6 97q0 96 33 155q36 65 137 152l49 43q30 26 41.5 45t11.5 43q0 43 -32 67.5t-87 24.5q-54 0 -87.5 -25.5t-39.5 -70.5l-403 41q32 203 186 319.5t391 116.5
t381 -119.5t144 -316.5zM831 164q0 -78 -64 -132.5t-155 -54.5t-154 54.5t-63 132.5q0 76 63.5 131t153.5 55q91 0 155 -54t64 -132z" />
    <glyph glyph-name="at" unicode="@" horiz-adv-x="2037" 
d="M1982 618q0 -275 -141.5 -438.5t-376.5 -163.5q-196 0 -360 90v91q-94 -105 -236 -105q-143 0 -230 110t-87 290t87 289.5t230 109.5q137 0 236 -105v91h313v-558q28 -4 31 -4q80 0 132 83t52 212q0 230 -163 377.5t-418 147.5q-281 0 -459 -179t-178 -462
q-3 -180 75 -325.5t218 -227t313 -78.5q103 0 182 20l80 -309q-142 -29 -264 -29q-210 -2 -389 67t-304.5 193t-195.5 302.5t-68 388.5q-2 212 69.5 391t201 304.5t315 195t404.5 67.5q207 0 381 -61t294.5 -170t188 -264.5t67.5 -340.5zM858 492q0 -60 35.5 -98t91.5 -38
q38 0 69.5 19.5t49.5 52.5v127q-39 72 -117 72q-55 0 -92 -39t-37 -96z" />
    <glyph glyph-name="A" unicode="A" horiz-adv-x="1765" 
d="M1192 0l-74 219h-473l-72 -219h-532l547 1434h583l553 -1434h-532zM762 573h239l-120 365z" />
    <glyph glyph-name="B" unicode="B" horiz-adv-x="1509" 
d="M1448 395q0 -168 -117 -282q-116 -113 -375 -113h-833v1434h803q225 0 347 -94t122 -273q0 -228 -201 -315q129 -46 191.5 -139.5t62.5 -217.5zM569 1071v-201h224q66 0 101.5 26t35.5 75q0 100 -137 100h-224zM985 469q0 47 -35.5 76.5t-105.5 29.5h-275v-213h275
q70 0 105.5 30t35.5 77z" />
    <glyph glyph-name="C" unicode="C" horiz-adv-x="1536" 
d="M1475 1128l-388 -215q-39 58 -100.5 90.5t-134.5 32.5q-130 0 -213 -92q-82 -91 -82 -227q0 -137 82 -228q83 -92 213 -92q73 0 134.5 32.5t100.5 90.5l388 -215q-104 -151 -270.5 -238t-356.5 -87q-150 -3 -291 56.5t-244 159.5t-164 237.5t-57 283.5q-4 146 57 283.5
t164 237.5t244 159.5t291 56.5q190 0 356.5 -87.5t270.5 -238.5z" />
    <glyph glyph-name="D" unicode="D" horiz-adv-x="1617" 
d="M1526 717q4 -195 -101.5 -362t-285 -262.5t-385.5 -92.5h-631v1434h631q206 3 385.5 -92.5t285 -262.5t101.5 -362zM737 1036h-168v-639h168q136 0 234 93.5t98 226.5q0 134 -98 226.5t-234 92.5z" />
    <glyph glyph-name="E" unicode="E" horiz-adv-x="1396" 
d="M1325 1434v-396h-756v-127h705v-370h-705v-146h766v-395h-1212v1434h1202z" />
    <glyph glyph-name="F" unicode="F" horiz-adv-x="1341" 
d="M1280 1434v-400h-711v-188h637v-379h-637v-467h-446v1434h1157z" />
    <glyph glyph-name="G" unicode="G" horiz-adv-x="1622" 
d="M1466 1241l-290 -303q-118 106 -285 106q-141 0 -237.5 -88t-96.5 -239q0 -135 86 -227.5t221 -92.5q119 0 223 49v84h-196v316h620v-649q-284 -217 -647 -217q-152 -3 -296 56.5t-249 159.5t-167.5 237.5t-59.5 283.5q-3 168 63.5 310t179 234.5t257 143.5t299.5 49
q157 0 307.5 -55t267.5 -158z" />
    <glyph glyph-name="H" unicode="H" horiz-adv-x="1628" 
d="M1505 1434v-1434h-444v520h-492v-520h-446v1434h446v-514h492v514h444z" />
    <glyph glyph-name="I" unicode="I" horiz-adv-x="692" 
d="M569 1434v-1434h-446v1434h446z" />
    <glyph glyph-name="J" unicode="J" horiz-adv-x="1267" 
d="M1147 1434v-840q0 -174 -38 -294t-115.5 -190t-182.5 -100t-252 -30q-200 0 -327 58.5t-191 190.5l358 230q38 -72 138 -72q81 0 122 49.5t41 157.5v840h447z" />
    <glyph glyph-name="K" unicode="K" horiz-adv-x="1585" 
d="M973 0l-232 471l-172 -209v-262h-446v1434h446v-514l369 514h596l-500 -607l510 -827h-571z" />
    <glyph glyph-name="L" unicode="L" horiz-adv-x="1282" 
d="M569 1434v-1035h672v-399h-1118v1434h446z" />
    <glyph glyph-name="M" unicode="M" horiz-adv-x="2023" 
d="M1319 1434h582v-1434h-439v838l-377 -637h-147l-377 637v-838h-438v1434h582l307 -504z" />
    <glyph glyph-name="N" unicode="N" horiz-adv-x="1628" 
d="M1069 1434h436v-1434h-456l-488 698v-698h-438v1434h459l487 -699v699z" />
    <glyph glyph-name="O" unicode="O" horiz-adv-x="1726" 
d="M1634 717q3 -146 -59 -283.5t-166.5 -237.5t-248 -159.5t-296.5 -56.5q-152 -3 -296 56.5t-249 159.5t-167.5 237.5t-59.5 283.5q-3 146 59.5 283.5t167.5 237.5t249 159.5t296 56.5q153 3 296.5 -56.5t248 -159.5t166.5 -237.5t59 -283.5zM557 717q0 -135 86 -227.5
t221 -92.5q133 0 220 93t87 227t-87 226.5t-220 92.5q-135 0 -221 -92t-86 -227z" />
    <glyph glyph-name="P" unicode="P" horiz-adv-x="1488" 
d="M123 1434h641q329 0 486 -127.5t157 -393.5q0 -524 -590 -524h-248v-389h-446v1434zM762 1051h-193v-279h195q103 0 150 32.5t47 104.5q0 73 -48 107.5t-151 34.5z" />
    <glyph glyph-name="Q" unicode="Q" horiz-adv-x="1726" 
d="M1698 82l-238 -219l-213 213q-184 -96 -383 -96q-152 -3 -296 56.5t-249 159.5t-167.5 237.5t-59.5 283.5q-3 146 59.5 283.5t167.5 237.5t249 159.5t296 56.5q153 3 296.5 -56.5t248 -159.5t166.5 -237.5t59 -283.5q0 -237 -143 -428zM922 401l-140 140l238 219
l139 -139q12 47 12 96q0 134 -87 226.5t-220 92.5q-135 0 -221 -92t-86 -227t86 -227.5t221 -92.5q8 0 58 4z" />
    <glyph glyph-name="R" unicode="R" horiz-adv-x="1521" 
d="M1483 0h-512l-252 410h-150v-410h-446v1434h653q356 0 514 -118t158 -384q0 -177 -66.5 -289.5t-203.5 -169.5zM569 1053v-281h230q100 0 143 32t43 107t-43.5 108.5t-142.5 33.5h-230z" />
    <glyph glyph-name="S" unicode="S" horiz-adv-x="1454" 
d="M1368 1292l-186 -344q-129 61 -254 94q-130 37 -219 37q-103 0 -103 -57q0 -17 25.5 -29.5t116.5 -38.5l118 -32q184 -51 287 -101q242 -112 242 -366q0 -226 -165.5 -350.5t-467.5 -124.5q-390 0 -701 204l199 332q134 -74 279 -115t262 -41q65 0 94 15.5t29 52.5
q0 16 -9 25.5t-43.5 22t-109.5 30.5l-131 33q-159 38 -275 88q-233 104 -233 356q0 230 172 350q174 121 453 121q168 0 329.5 -42t290.5 -120z" />
    <glyph glyph-name="T" unicode="T" horiz-adv-x="1316" 
d="M1278 1434v-379h-395v-1055h-447v1055h-395v379h1237z" />
    <glyph glyph-name="U" unicode="U" horiz-adv-x="1579" 
d="M1456 1434v-768q0 -340 -167.5 -513t-497.5 -173t-499 174t-169 512v768h446v-768q0 -141 55 -210t167 -69t166.5 69t54.5 210v768h444z" />
    <glyph glyph-name="V" unicode="V" horiz-adv-x="1716" 
d="M1143 1434h532l-528 -1434h-584l-522 1434h532l283 -928z" />
    <glyph glyph-name="W" unicode="W" horiz-adv-x="2367" 
d="M1829 1434h498l-465 -1434h-455l-223 741l-223 -741h-455l-465 1434h498l217 -752l213 752h432l211 -752z" />
    <glyph glyph-name="X" unicode="X" horiz-adv-x="1617" 
d="M1577 0h-545l-227 373l-230 -373h-534l485 729l-465 705h545l207 -342l209 342h534l-464 -701z" />
    <glyph glyph-name="Y" unicode="Y" horiz-adv-x="1642" 
d="M1075 1434h527l-558 -949v-485h-446v479l-557 955h532l250 -478z" />
    <glyph glyph-name="Z" unicode="Z" horiz-adv-x="1411" 
d="M1325 1434v-312l-623 -729h648v-393h-1289v317l596 723h-544v394h1212z" />
    <glyph glyph-name="bracketleft" unicode="[" horiz-adv-x="731" 
d="M690 1434v-285h-233v-1342h233v-284h-629v1911h629z" />
    <glyph glyph-name="backslash" unicode="\" horiz-adv-x="1163" 
d="M41 1468h367l716 -1503h-366z" />
    <glyph glyph-name="bracketright" unicode="]" horiz-adv-x="731" 
d="M670 1434v-1911h-629v284h233v1342h-233v285h629z" />
    <glyph glyph-name="asciicircum" unicode="^" horiz-adv-x="1185" 
d="M852 1454l274 -762h-399l-135 432l-135 -432h-396l275 762h516z" />
    <glyph glyph-name="underscore" unicode="_" horiz-adv-x="1359" 
d="M1298 -106v-238h-1237v238h1237z" />
    <glyph glyph-name="grave" unicode="`" horiz-adv-x="800" 
d="M377 1491l252 -365h-357l-323 365h428z" />
    <glyph glyph-name="a" unicode="a" horiz-adv-x="1198" 
d="M1116 662v-662h-416v119q-139 -139 -307 -139q-149 0 -240.5 87.5t-91.5 227.5q0 141 96.5 221t266.5 80h276v25q0 51 -37 77.5t-106 26.5q-131 0 -281 -80l-116 264q255 135 518 135q210 0 324 -99t114 -283zM700 260v170h-110q-117 0 -117 -96q0 -50 31 -79.5t86 -29.5
q57 0 110 35z" />
    <glyph glyph-name="b" unicode="b" horiz-adv-x="1318" 
d="M1257 512q0 -237 -121 -384.5t-311 -147.5q-177 0 -307 133v-113h-416v1434h416v-523q130 133 307 133q190 0 311 -147.5t121 -384.5zM848 512q0 76 -48 128t-120 52q-49 0 -92.5 -24.5t-69.5 -67.5v-176q26 -43 69.5 -67.5t92.5 -24.5q72 0 120 52t48 128z" />
    <glyph glyph-name="c" unicode="c" horiz-adv-x="1142" 
d="M1094 803l-318 -174q-51 63 -143 63q-69 0 -116.5 -51t-47.5 -129t47.5 -129t116.5 -51q92 0 143 63l318 -174q-76 -111 -201 -176t-270 -65q-148 -3 -279 69.5t-208.5 196.5t-74.5 266q-3 142 74.5 266t208.5 196.5t279 69.5q145 0 270 -65t201 -176z" />
    <glyph glyph-name="d" unicode="d" horiz-adv-x="1308" 
d="M801 1434h416v-1434h-416v113q-130 -133 -307 -133q-190 0 -311.5 148t-121.5 384t121.5 384t311.5 148q177 0 307 -133v523zM801 424v176q-26 43 -69.5 67.5t-92.5 24.5q-72 0 -120 -52t-48 -128t48 -128t120 -52q49 0 92.5 24.5t69.5 67.5z" />
    <glyph glyph-name="e" unicode="e" horiz-adv-x="1230" 
d="M1178 512v-98h-699q27 -135 189 -135q56 0 111 18.5t91 50.5l224 -192q-91 -85 -210.5 -130.5t-252.5 -45.5q-162 0 -293 71t-204 192.5t-73 268.5t71.5 268.5t200 192.5t288.5 71q251 0 404 -151.5t153 -380.5zM477 606h295q0 64 -39 105t-104 41q-128 0 -152 -146z" />
    <glyph glyph-name="f" unicode="f" horiz-adv-x="835" 
d="M578 1087v-63h231v-315h-231v-709h-418v709h-119v315h119v76q0 183 102 268.5t283 85.5q145 0 313 -51l-51 -254q-74 27 -133 27q-96 0 -96 -89z" />
    <glyph glyph-name="g" unicode="g" horiz-adv-x="1308" 
d="M801 1024h416v-983q0 -238 -152 -354q-149 -113 -393 -113q-342 0 -598 131l116 268q176 -86 394 -86q103 0 160 38.5t57 115.5v84q-129 -129 -307 -129q-190 0 -311.5 145.5t-121.5 378.5t121.5 378.5t311.5 145.5q176 0 307 -131v111zM801 434v172q-26 43 -69.5 67.5
t-92.5 24.5q-71 0 -119.5 -52t-48.5 -126t48.5 -126t119.5 -52q49 0 92.5 24.5t69.5 67.5z" />
    <glyph glyph-name="h" unicode="h" horiz-adv-x="1302" 
d="M1221 719v-719h-416v592q0 56 -31 86.5t-88 30.5q-83 0 -168 -60v-649h-416v1434h416v-510q80 57 174.5 88.5t186.5 31.5q156 0 249 -87t93 -238z" />
    <glyph glyph-name="i" unicode="i" horiz-adv-x="634" 
d="M535 1272q0 -75 -63.5 -127.5t-154.5 -52.5q-90 0 -152.5 52.5t-62.5 127.5t63.5 128.5t151.5 53.5q91 0 154.5 -53.5t63.5 -128.5zM526 1024v-1024h-415v1024h415z" />
    <glyph glyph-name="j" unicode="j" horiz-adv-x="618" 
d="M526 1272q0 -75 -62.5 -127.5t-152.5 -52.5t-152.5 52.5t-62.5 127.5t63.5 128.5t151.5 53.5t151.5 -53.5t63.5 -128.5zM520 1024v-1092q0 -176 -99 -264t-267 -88q-121 0 -236 41l39 225q18 -6 35 -6q48 0 79 33t31 86v1065h418z" />
    <glyph glyph-name="k" unicode="k" horiz-adv-x="1290" 
d="M1270 0h-432l-187 324l-133 -156v-168h-416v1434h416v-760l260 350h471l-336 -393z" />
    <glyph glyph-name="l" unicode="l" horiz-adv-x="620" 
d="M518 1434v-1434h-416v1434h416z" />
    <glyph glyph-name="m" unicode="m" horiz-adv-x="1945" 
d="M1139 905q102 80 183 109.5t187 29.5q161 0 259 -84t98 -241v-719h-418v592q0 55 -29.5 86t-79.5 31q-85 0 -155 -43q2 -29 2 -111v-555h-416v592q0 55 -29 86t-79 31q-84 0 -154 -43v-666h-416v1024h416v-115q72 65 163.5 100t180.5 35q95 0 170 -35.5t117 -103.5z" />
    <glyph glyph-name="n" unicode="n" horiz-adv-x="1302" 
d="M1221 719v-719h-416v592q0 56 -31 86.5t-88 30.5q-83 0 -168 -60v-649h-416v1024h416v-100q80 57 174.5 88.5t186.5 31.5q156 0 249 -87t93 -238z" />
    <glyph glyph-name="o" unicode="o" horiz-adv-x="1302" 
d="M1241 512q3 -148 -75.5 -271.5t-215 -193.5t-299.5 -67q-163 -3 -299.5 67t-215 193.5t-75.5 271.5q-3 148 75.5 271.5t215 193.5t299.5 67q163 3 299.5 -67t215 -193.5t75.5 -271.5zM471 512q0 -81 49 -130.5t129 -49.5q82 0 131 49t49 131t-49 131t-131 49
q-80 0 -129 -49.5t-49 -130.5z" />
    <glyph glyph-name="p" unicode="p" horiz-adv-x="1339" 
d="M1257 512q0 -237 -121 -384.5t-311 -147.5q-177 0 -307 133v-512h-416v1423h416v-113q130 133 307 133q190 0 311 -147.5t121 -384.5zM848 512q0 76 -48 128t-120 52q-49 0 -92.5 -24.5t-69.5 -67.5v-176q26 -43 69.5 -67.5t92.5 -24.5q72 0 120 52t48 128z" />
    <glyph glyph-name="q" unicode="q" horiz-adv-x="1308" 
d="M801 1024h416v-1423h-416v512q-130 -133 -307 -133q-190 0 -311.5 148t-121.5 384t121.5 384t311.5 148q177 0 307 -133v113zM801 424v176q-26 43 -69.5 67.5t-92.5 24.5q-72 0 -120 -52t-48 -128t48 -128t120 -52q49 0 92.5 24.5t69.5 67.5z" />
    <glyph glyph-name="r" unicode="r" horiz-adv-x="858" 
d="M840 1044v-335q-88 0 -171.5 -45t-150.5 -129v-535h-416v1024h416v-186q68 97 154 151.5t168 54.5z" />
    <glyph glyph-name="s" unicode="s" horiz-adv-x="1064" 
d="M985 928l-135 -252q-75 41 -162 67.5t-147 26.5q-68 0 -68 -39q0 -14 16 -23t68 -22l90 -22q189 -50 273 -129t84 -209q0 -166 -119 -256t-336 -90q-283 0 -508 147l143 240q190 -113 375 -113q59 0 59 41q0 17 -12.5 25t-56.5 20l-123 33q-185 51 -262.5 124t-77.5 197
q0 166 118.5 258t332.5 92q246 0 448 -116z" />
    <glyph glyph-name="t" unicode="t" horiz-adv-x="917" 
d="M817 354l51 -280q-172 -94 -348 -94q-161 0 -259.5 92.5t-98.5 265.5v371h-121v315h121v256h416v-256h231v-315h-231v-299q0 -46 28.5 -70.5t77.5 -24.5q68 0 133 39z" />
    <glyph glyph-name="u" unicode="u" horiz-adv-x="1302" 
d="M784 1024h416v-1024h-416v100q-80 -57 -174 -88.5t-186 -31.5q-156 0 -249 87t-93 238v719h416v-592q0 -56 30.5 -86.5t87.5 -30.5q83 0 168 60v649z" />
    <glyph glyph-name="v" unicode="v" horiz-adv-x="1292" 
d="M831 1024h443l-369 -1024h-516l-369 1024h443l184 -598z" />
    <glyph glyph-name="w" unicode="w" horiz-adv-x="1716" 
d="M1698 1024l-291 -1024h-444l-105 424l-102 -424h-447l-289 1024h414l119 -575l147 575h318l145 -575l119 575h416z" />
    <glyph glyph-name="x" unicode="x" horiz-adv-x="1228" 
d="M1210 0h-473l-125 233l-127 -233h-465l355 512l-355 512h472l124 -231l127 231h465l-352 -512z" />
    <glyph glyph-name="y" unicode="y" horiz-adv-x="1280" 
d="M1262 1024l-416 -1114q-124 -330 -449 -330q-164 0 -377 82l115 270q121 -47 195 -47q97 0 149 76l6 8l-432 1055h439l176 -578l161 578h433z" />
    <glyph glyph-name="z" unicode="z" horiz-adv-x="1105" 
d="M1036 1024v-266l-407 -424h428v-334h-1006v266l406 424h-365v334h944z" />
    <glyph glyph-name="braceleft" unicode="{" horiz-adv-x="772" 
d="M731 1434v-269h-72q-71 0 -71 -65v-398q0 -156 -99 -223q99 -67 99 -223v-397q0 -68 71 -68h72v-268h-225q-311 0 -311 284v449q0 35 -21.5 56.5t-56.5 21.5h-56v291h56q35 0 56.5 22t21.5 55v447q0 285 311 285h225z" />
    <glyph glyph-name="bar" unicode="|" horiz-adv-x="665" 
d="M545 1536v-1849h-422v1849h422z" />
    <glyph glyph-name="braceright" unicode="}" horiz-adv-x="772" 
d="M41 1434h225q312 0 312 -285v-447q0 -32 22.5 -54.5t54.5 -22.5h56v-291h-56q-33 0 -55 -21.5t-22 -56.5v-449q0 -284 -312 -284h-225v268h72q71 0 71 68v397q0 156 99 223q-99 67 -99 223v398q0 65 -71 65h-72v269z" />
    <glyph glyph-name="asciitilde" unicode="~" horiz-adv-x="1228" 
d="M631 754q99 -45 153 -45q85 0 115 108l246 -37q0 -185 -83.5 -301.5t-215.5 -116.5q-93 0 -246 62q-121 47 -156 47q-38 0 -69.5 -30t-44.5 -79l-246 29q0 201 81.5 313.5t229.5 112.5q94 0 236 -63z" />
    <glyph glyph-name="uni00A0" unicode="&#xa0;" horiz-adv-x="512" 
 />
    <glyph glyph-name="exclamdown" unicode="&#xa1;" horiz-adv-x="587" 
d="M512 858q0 -76 -63.5 -131t-153.5 -55q-91 0 -155 54t-64 132t64 132t155 54q90 0 153.5 -55t63.5 -131zM485 575l43 -987h-467l43 987h381z" />
    <glyph glyph-name="cent" unicode="&#xa2;" horiz-adv-x="1228" 
d="M489 -242v248q-171 52 -280 191q-107 137 -107 315q0 176 107 313q111 141 280 193v248h328v-242q201 -54 318 -221l-318 -174q-51 63 -143 63q-69 0 -116.5 -51t-47.5 -129t47.5 -129t116.5 -51q92 0 143 63l318 -174q-117 -167 -318 -221v-242h-328z" />
    <glyph glyph-name="sterling" unicode="&#xa3;" horiz-adv-x="1228" 
d="M1419 1262l-260 -240q-54 57 -164 57q-90 0 -145.5 -39.5t-67.5 -107.5l-18 -111h434l-53 -293h-434l-29 -172h588l-64 -356h-1167l63 356h136l28 172h-135l53 295h135l33 193q38 216 190.5 327t405.5 111q322 0 471 -192z" />
    <glyph glyph-name="yen" unicode="&#xa5;" horiz-adv-x="1228" 
d="M1270 1434l-256 -562h137v-297h-272l-41 -90v-32h313v-297h-313v-156h-447v156h-313v297h313v26l-43 96h-270v297h135l-254 562h473l182 -463l185 463h471z" />
    <glyph glyph-name="brokenbar" unicode="&#xa6;" horiz-adv-x="665" 
d="M545 1536v-786h-422v786h422zM545 473v-786h-422v786h422z" />
    <glyph glyph-name="section" unicode="&#xa7;" horiz-adv-x="1286" 
d="M1227 72q0 -189 -141 -302.5t-373 -113.5q-180 0 -335 42t-315 134l166 305q104 -61 238 -102q137 -41 235 -41q103 0 103 51q0 25 -29.5 40t-111.5 32l-60 12q-495 102 -495 403q0 138 96 269q-90 90 -90 235q0 195 143 306.5t393 111.5q148 0 269 -33q118 -28 284 -108
l-162 -312q-239 115 -399 115q-57 0 -81.5 -12t-24.5 -41q0 -24 21.5 -36.5t88.5 -25.5l58 -12q271 -57 396.5 -158.5t125.5 -261.5q0 -141 -94 -260q94 -94 94 -237zM705 481l49 -10l24 -6q37 30 37 65t-42 56.5t-155 44.5l-49 10l-16 4q-33 -29 -33 -61q0 -37 38.5 -58.5
t146.5 -44.5z" />
    <glyph glyph-name="dieresis" unicode="&#xa8;" horiz-adv-x="800" 
d="M340 1327q0 -73 -48 -121.5t-120 -48.5q-74 0 -122 48.5t-48 121.5q0 72 48.5 120t121.5 48q72 0 120 -48t48 -120zM801 1327q0 -73 -49 -121.5t-121 -48.5t-120 48.5t-48 121.5q0 72 48 120t120 48t121 -48t49 -120z" />
    <glyph glyph-name="copyright" unicode="&#xa9;" horiz-adv-x="1595" 
d="M1536 717q3 -146 -56.5 -283.5t-159.5 -237.5t-237.5 -159.5t-283.5 -56.5q-146 -3 -283.5 56.5t-238 159.5t-160 237.5t-56.5 283.5q-3 146 56.5 283.5t160 237.5t238 159.5t283.5 56.5q146 3 283.5 -56.5t237.5 -159.5t159.5 -237.5t56.5 -283.5zM319 721
q-1 -94 38 -184.5t104 -157t154.5 -106t183.5 -37.5q123 -3 235 64.5t178.5 181.5t63.5 239q3 123 -63.5 235t-178.5 178.5t-235 63.5q-94 2 -183.5 -37t-155 -104.5t-104.5 -154t-37 -181.5zM1128 920l-215 -121q-41 65 -114 65q-61 0 -98 -41.5t-37 -105.5t37 -106t98 -42
q73 0 114 66l215 -121q-52 -81 -141 -129.5t-190 -48.5q-158 0 -274.5 113t-116.5 268t116.5 268t274.5 113q101 0 190 -48.5t141 -129.5z" />
    <glyph glyph-name="ordfeminine" unicode="&#xaa;" horiz-adv-x="821" 
d="M735 1190v-440h-278v75q-90 -90 -209 -90q-95 0 -155 58.5t-60 154.5q0 94 64.5 149.5t176.5 55.5h183v16q0 34 -26.5 52t-70.5 18q-91 0 -186 -53l-76 170q170 90 338 90q139 0 219 -63.5t80 -192.5zM457 928v108h-74q-37 0 -57.5 -16t-20.5 -45q0 -31 19.5 -49.5
t50.5 -18.5q41 0 82 21z" />
    <glyph glyph-name="guillemotleft" unicode="&#xab;" horiz-adv-x="1523" 
d="M446 1044l308 -157l-265 -344l265 -344l-312 -154l-391 498zM1167 1044l308 -157l-265 -344l265 -344l-312 -154l-391 498z" />
    <glyph glyph-name="uni00AD" unicode="&#xad;" horiz-adv-x="835" 
d="M774 705v-347h-713v347h713z" />
    <glyph glyph-name="registered" unicode="&#xae;" horiz-adv-x="1595" 
d="M1536 717q3 -146 -56.5 -283.5t-159.5 -237.5t-237.5 -159.5t-283.5 -56.5q-146 -3 -283.5 56.5t-238 159.5t-160 237.5t-56.5 283.5q-3 146 56.5 283.5t160 237.5t238 159.5t283.5 56.5q146 3 283.5 -56.5t237.5 -159.5t159.5 -237.5t56.5 -283.5zM319 721
q-1 -94 38 -184.5t104 -157t154.5 -106t183.5 -37.5q123 -3 235 64.5t178.5 181.5t63.5 239q3 123 -63.5 235t-178.5 178.5t-235 63.5q-94 2 -183.5 -37t-155 -104.5t-104.5 -154t-37 -181.5zM1102 819q0 -151 -111 -203l135 -208h-252l-108 178h-43v-178h-221v645h297
q158 0 230.5 -56t72.5 -178zM723 854v-96h86q37 0 51 10.5t14 36.5q0 29 -13.5 39t-51.5 10h-86z" />
    <glyph glyph-name="overscore" unicode="&#xaf;" horiz-adv-x="800" 
d="M770 1454v-256h-739v256h739z" />
    <glyph glyph-name="degree" unicode="&#xb0;" horiz-adv-x="911" 
d="M850 1219q0 -157 -116 -271t-277 -114q-162 0 -279 114t-117 271t117 271t279 114q161 0 277 -114t116 -271zM293 1219q0 -66 48 -113t116 -47q66 0 113.5 47t47.5 113t-47.5 112.5t-113.5 46.5q-68 0 -116 -46.5t-48 -112.5z" />
    <glyph glyph-name="plusminus" unicode="&#xb1;" horiz-adv-x="1228" 
d="M1145 317v-317h-1061v317h1061zM1145 1057v-318h-371v-372h-317v372h-373v318h373v370h317v-370h371z" />
    <glyph glyph-name="uni00B2" unicode="&#xb2;" horiz-adv-x="800" 
d="M555 975l-18 -14h221v-261h-727v207l354 264q51 36 51 70q0 23 -14 36t-39 13q-36 0 -83 -27.5t-89 -74.5l-184 168q72 92 172 142t213 50q151 0 251.5 -82.5t100.5 -205.5q0 -73 -45.5 -135t-163.5 -150z" />
    <glyph glyph-name="uni00B3" unicode="&#xb3;" horiz-adv-x="792" 
d="M756 989q0 -134 -105.5 -217.5t-275.5 -83.5q-205 0 -344 121l155 180q68 -53 156 -53t88 55q0 31 -25 47.5t-69 16.5q-54 0 -107 -15l-39 138l142 110h-244v248h651v-209l-137 -115q154 -61 154 -223z" />
    <glyph glyph-name="acute" unicode="&#xb4;" horiz-adv-x="800" 
d="M741 1491l-323 -365h-357l252 365h428z" />
    <glyph glyph-name="paragraph" unicode="&#xb6;" horiz-adv-x="1644" 
d="M698 1434h824v-1768h-348v1454h-127v-1454h-349v819h-55q-269 0 -415 131.5t-146 344.5q0 223 154.5 348t461.5 125z" />
    <glyph glyph-name="middot" unicode="&#xb7;" horiz-adv-x="557" 
d="M498 164q0 -78 -64 -132.5t-155 -54.5t-154.5 54.5t-63.5 132.5q0 76 64 131t154 55q91 0 155 -54t64 -132z" />
    <glyph glyph-name="cedilla" unicode="&#xb8;" horiz-adv-x="800" 
d="M649 -276q0 -100 -73 -153.5t-193 -53.5q-122 0 -233 57l51 135q49 -24 118 -24q46 0 71.5 20.5t25.5 52.5q0 28 -17.5 44t-44.5 16q-19 0 -41 -11l-61 70l65 129h170l-43 -88q92 -4 148.5 -58t56.5 -136z" />
    <glyph glyph-name="uni00B9" unicode="&#xb9;" horiz-adv-x="606" 
d="M516 1536v-836h-311v564l-127 -29l-58 231l263 70h233z" />
    <glyph glyph-name="ordmasculine" unicode="&#xba;" horiz-adv-x="935" 
d="M862 1092q0 -146 -116 -251.5t-277 -105.5t-277 105.5t-116 251.5q0 147 115.5 250.5t277.5 103.5t277.5 -103.5t115.5 -250.5zM346 1092q0 -51 35.5 -86t85.5 -35t84.5 35t34.5 86q0 49 -34.5 83.5t-84.5 34.5t-85.5 -34.5t-35.5 -83.5z" />
    <glyph glyph-name="guillemotright" unicode="&#xbb;" horiz-adv-x="1523" 
d="M358 1044l396 -501l-394 -498l-309 154l264 344l-264 344zM1079 1044l396 -501l-394 -498l-309 154l264 344l-264 344z" />
    <glyph glyph-name="onequarter" unicode="&#xbc;" horiz-adv-x="1794" 
d="M516 1393v-836h-311v563l-127 -28l-58 231l263 70h233zM1479 1415l-916 -1450h-321l913 1450h324zM1669 387h96v-246h-96v-141h-305v141h-377l-37 234l363 461h356v-449zM1262 387h102v168z" />
    <glyph glyph-name="onehalf" unicode="&#xbd;" horiz-adv-x="1824" 
d="M516 1393v-836h-311v563l-127 -28l-58 231l263 70h233zM1444 1415l-916 -1450h-321l913 1450h324zM1579 274l-18 -14h221v-260h-727v207l354 264q51 36 51 70q0 23 -14 36t-39 13q-35 0 -82.5 -28t-89.5 -75l-184 168q72 92 172.5 142.5t212.5 50.5q151 0 251.5 -83
t100.5 -206q0 -73 -45.5 -135t-163.5 -150z" />
    <glyph glyph-name="threequarters" unicode="&#xbe;" horiz-adv-x="1925" 
d="M756 846q0 -134 -105.5 -217.5t-275.5 -83.5q-205 0 -344 121l155 180q68 -53 156 -53t88 55q0 30 -24.5 46.5t-69.5 16.5q-58 0 -107 -14l-39 137l142 111h-244v248h651v-209l-137 -115q154 -61 154 -223zM1610 1415l-916 -1450h-321l913 1450h324zM1800 387h96v-246
h-96v-141h-305v141h-377l-37 234l363 461h356v-449zM1393 387h102v168z" />
    <glyph glyph-name="questiondown" unicode="&#xbf;" horiz-adv-x="1202" 
d="M809 870q0 -78 -63 -132t-154 -54t-155 54t-64 132t64 132.5t155 54.5q90 0 153.5 -55.5t63.5 -131.5zM61 16q0 110 52 195q51 86 184 195l22 18q49 38 64.5 64.5t15.5 68.5l2 31h379l6 -96q0 -95 -34 -156q-37 -66 -136 -152l-49 -43q-30 -26 -41.5 -45t-11.5 -43
q0 -43 32 -67.5t87 -24.5q54 0 87.5 25.5t39.5 70.5l403 -41q-32 -203 -186 -319.5t-391 -116.5t-381 119.5t-144 316.5z" />
    <glyph glyph-name="Agrave" unicode="&#xc0;" horiz-adv-x="1765" 
d="M1192 0l-74 219h-473l-72 -219h-532l547 1434h583l553 -1434h-532zM762 573h239l-120 365zM856 1901l252 -365h-356l-324 365h428z" />
    <glyph glyph-name="Aacute" unicode="&#xc1;" horiz-adv-x="1765" 
d="M1192 0l-74 219h-473l-72 -219h-532l547 1434h583l553 -1434h-532zM762 573h239l-120 365zM1333 1901l-323 -365h-357l252 365h428z" />
    <glyph glyph-name="Acircumflex" unicode="&#xc2;" horiz-adv-x="1765" 
d="M1192 0l-74 219h-473l-72 -219h-532l547 1434h583l553 -1434h-532zM762 573h239l-120 365zM1098 1901l252 -365h-342l-127 152l-125 -152h-344l252 365h434z" />
    <glyph glyph-name="Atilde" unicode="&#xc3;" horiz-adv-x="1765" 
d="M1192 0l-74 219h-473l-72 -219h-532l547 1434h583l553 -1434h-532zM762 573h239l-120 365zM705 1901q56 0 157 -37q119 -45 168 -45q32 0 48.5 15.5t27.5 51.5l176 -22q0 -147 -54 -235.5t-169 -88.5q-61 0 -189 47q-96 35 -137 35q-31 0 -48 -16t-28 -52l-176 23
q0 147 54.5 235.5t169.5 88.5z" />
    <glyph glyph-name="Adieresis" unicode="&#xc4;" horiz-adv-x="1765" 
d="M1192 0l-74 219h-473l-72 -219h-532l547 1434h583l553 -1434h-532zM762 573h239l-120 365zM819 1737q0 -73 -48 -121.5t-120 -48.5q-73 0 -121.5 48.5t-48.5 121.5q0 72 48.5 120t121.5 48q72 0 120 -48t48 -120zM1280 1737q0 -73 -49 -121.5t-121 -48.5t-120 48.5
t-48 121.5q0 72 48 120t120 48t121 -48t49 -120z" />
    <glyph glyph-name="Aring" unicode="&#xc5;" horiz-adv-x="1765" 
d="M1192 0l-74 219h-473l-72 -219h-532l547 1434h583l553 -1434h-532zM762 573h239l-120 365zM1174 1792q0 -117 -86 -202t-207 -85t-207 85t-86 202t86 202t207 85t207 -85t86 -202zM782 1792q0 -39 29 -67.5t70 -28.5t69.5 28.5t28.5 67.5t-28.5 67.5t-69.5 28.5
t-70 -28.5t-29 -67.5z" />
    <glyph glyph-name="AE" unicode="&#xc6;" horiz-adv-x="2236" 
d="M1450 395h725v-395h-1171v219h-336l-95 -219h-532l670 1434h1454v-396h-715v-127h664v-370h-664v-146zM819 573h185v428z" />
    <glyph glyph-name="Ccedilla" unicode="&#xc7;" horiz-adv-x="1536" 
d="M1087 520l388 -215q-100 -143 -254 -229.5t-332 -93.5l-31 -64q92 -4 148.5 -58t56.5 -136q0 -100 -73 -153.5t-193 -53.5q-123 0 -234 57l51 135q50 -24 119 -24q46 0 71 20.5t25 52.5q0 28 -17 44t-44 16q-19 0 -41 -11l-61 70l57 113q-130 19 -247.5 85t-202 163
t-133.5 222t-48 257q-4 146 57 283.5t164 237.5t244 159.5t291 56.5q190 0 356.5 -87.5t270.5 -238.5l-388 -215q-39 58 -100.5 90.5t-134.5 32.5q-130 0 -213 -92q-82 -91 -82 -227q0 -137 82 -228q83 -92 213 -92q73 0 134.5 32.5t100.5 90.5z" />
    <glyph glyph-name="Egrave" unicode="&#xc8;" horiz-adv-x="1396" 
d="M1325 1434v-396h-756v-127h705v-370h-705v-146h766v-395h-1212v1434h1202zM694 1901l252 -365h-356l-324 365h428z" />
    <glyph glyph-name="Eacute" unicode="&#xc9;" horiz-adv-x="1396" 
d="M1325 1434v-396h-756v-127h705v-370h-705v-146h766v-395h-1212v1434h1202zM1171 1901l-323 -365h-356l251 365h428z" />
    <glyph glyph-name="Ecircumflex" unicode="&#xca;" horiz-adv-x="1396" 
d="M1325 1434v-396h-756v-127h705v-370h-705v-146h766v-395h-1212v1434h1202zM936 1901l252 -365h-342l-127 152l-125 -152h-344l252 365h434z" />
    <glyph glyph-name="Edieresis" unicode="&#xcb;" horiz-adv-x="1396" 
d="M1325 1434v-396h-756v-127h705v-370h-705v-146h766v-395h-1212v1434h1202zM657 1737q0 -73 -48 -121.5t-120 -48.5q-73 0 -121.5 48.5t-48.5 121.5q0 72 48.5 120t121.5 48q72 0 120 -48t48 -120zM1118 1737q0 -73 -49 -121.5t-121 -48.5t-120 48.5t-48 121.5
q0 72 48 120t120 48t121 -48t49 -120z" />
    <glyph glyph-name="Igrave" unicode="&#xcc;" horiz-adv-x="692" 
d="M569 1434v-1434h-446v1434h446zM336 1901l252 -365h-357l-323 365h428z" />
    <glyph glyph-name="Iacute" unicode="&#xcd;" horiz-adv-x="692" 
d="M569 1434v-1434h-446v1434h446zM813 1901l-324 -365h-356l252 365h428z" />
    <glyph glyph-name="Icircumflex" unicode="&#xce;" horiz-adv-x="692" 
d="M569 1434v-1434h-446v1434h446zM578 1901l251 -365h-342l-127 152l-124 -152h-345l252 365h435z" />
    <glyph glyph-name="Idieresis" unicode="&#xcf;" horiz-adv-x="692" 
d="M569 1434v-1434h-446v1434h446zM299 1737q0 -73 -48 -121.5t-120 -48.5q-73 0 -121.5 48.5t-48.5 121.5q0 72 48.5 120t121.5 48q72 0 120 -48t48 -120zM760 1737q0 -73 -49 -121.5t-121 -48.5t-120 48.5t-48 121.5q0 72 48 120t120 48t121 -48t49 -120z" />
    <glyph glyph-name="Eth" unicode="&#xd0;" horiz-adv-x="1617" 
d="M1526 717q4 -195 -101.5 -362t-285 -262.5t-385.5 -92.5h-631v543h-103v348h103v543h631q206 3 385.5 -92.5t285 -262.5t101.5 -362zM1069 717q0 134 -98 226.5t-234 92.5h-168v-145h250v-348h-250v-146h168q136 0 234 93.5t98 226.5z" />
    <glyph glyph-name="Ntilde" unicode="&#xd1;" horiz-adv-x="1628" 
d="M1069 1434h436v-1434h-456l-488 698v-698h-438v1434h459l487 -699v699zM684 1901q57 0 158 -37q119 -45 168 -45q31 0 47.5 15.5t27.5 51.5l177 -22q0 -147 -54.5 -235.5t-169.5 -88.5q-60 0 -188 47q-96 35 -137 35q-31 0 -48 -16t-28 -52l-176 23q0 147 54 235.5
t169 88.5z" />
    <glyph glyph-name="Ograve" unicode="&#xd2;" horiz-adv-x="1726" 
d="M1634 717q3 -146 -59 -283.5t-166.5 -237.5t-248 -159.5t-296.5 -56.5q-152 -3 -296 56.5t-249 159.5t-167.5 237.5t-59.5 283.5q-3 146 59.5 283.5t167.5 237.5t249 159.5t296 56.5q153 3 296.5 -56.5t248 -159.5t166.5 -237.5t59 -283.5zM557 717q0 -135 86 -227.5
t221 -92.5q133 0 220 93t87 227t-87 226.5t-220 92.5q-135 0 -221 -92t-86 -227zM840 1901l252 -365h-357l-323 365h428z" />
    <glyph glyph-name="Oacute" unicode="&#xd3;" horiz-adv-x="1726" 
d="M1634 717q3 -146 -59 -283.5t-166.5 -237.5t-248 -159.5t-296.5 -56.5q-152 -3 -296 56.5t-249 159.5t-167.5 237.5t-59.5 283.5q-3 146 59.5 283.5t167.5 237.5t249 159.5t296 56.5q153 3 296.5 -56.5t248 -159.5t166.5 -237.5t59 -283.5zM557 717q0 -135 86 -227.5
t221 -92.5q133 0 220 93t87 227t-87 226.5t-220 92.5q-135 0 -221 -92t-86 -227zM1317 1901l-324 -365h-356l252 365h428z" />
    <glyph glyph-name="Ocircumflex" unicode="&#xd4;" horiz-adv-x="1726" 
d="M1634 717q3 -146 -59 -283.5t-166.5 -237.5t-248 -159.5t-296.5 -56.5q-152 -3 -296 56.5t-249 159.5t-167.5 237.5t-59.5 283.5q-3 146 59.5 283.5t167.5 237.5t249 159.5t296 56.5q153 3 296.5 -56.5t248 -159.5t166.5 -237.5t59 -283.5zM557 717q0 -135 86 -227.5
t221 -92.5q133 0 220 93t87 227t-87 226.5t-220 92.5q-135 0 -221 -92t-86 -227zM1081 1901l252 -365h-342l-127 152l-125 -152h-344l252 365h434z" />
    <glyph glyph-name="Otilde" unicode="&#xd5;" horiz-adv-x="1726" 
d="M1634 717q3 -146 -59 -283.5t-166.5 -237.5t-248 -159.5t-296.5 -56.5q-152 -3 -296 56.5t-249 159.5t-167.5 237.5t-59.5 283.5q-3 146 59.5 283.5t167.5 237.5t249 159.5t296 56.5q153 3 296.5 -56.5t248 -159.5t166.5 -237.5t59 -283.5zM557 717q0 -135 86 -227.5
t221 -92.5q133 0 220 93t87 227t-87 226.5t-220 92.5q-135 0 -221 -92t-86 -227zM688 1901q57 0 158 -37q119 -45 168 -45q32 0 48.5 15.5t27.5 51.5l176 -22q0 -147 -54.5 -235.5t-169.5 -88.5q-60 0 -188 47q-96 35 -137 35q-31 0 -48 -16t-28 -52l-176 23q0 147 54 235.5
t169 88.5z" />
    <glyph glyph-name="Odieresis" unicode="&#xd6;" horiz-adv-x="1726" 
d="M1634 717q3 -146 -59 -283.5t-166.5 -237.5t-248 -159.5t-296.5 -56.5q-152 -3 -296 56.5t-249 159.5t-167.5 237.5t-59.5 283.5q-3 146 59.5 283.5t167.5 237.5t249 159.5t296 56.5q153 3 296.5 -56.5t248 -159.5t166.5 -237.5t59 -283.5zM557 717q0 -135 86 -227.5
t221 -92.5q133 0 220 93t87 227t-87 226.5t-220 92.5q-135 0 -221 -92t-86 -227zM803 1737q0 -73 -48 -121.5t-120 -48.5q-73 0 -121.5 48.5t-48.5 121.5q0 72 48.5 120t121.5 48q72 0 120 -48t48 -120zM1264 1737q0 -73 -49 -121.5t-121 -48.5t-120 48.5t-48 121.5
q0 72 48 120t120 48t121 -48t49 -120z" />
    <glyph glyph-name="multiply" unicode="&#xd7;" horiz-adv-x="1228" 
d="M1130 881l-290 -291l290 -291l-223 -225l-291 293l-292 -293l-226 223l293 293l-293 293l226 223l292 -291l291 291z" />
    <glyph glyph-name="Oslash" unicode="&#xd8;" horiz-adv-x="1726" 
d="M1634 717q3 -146 -59 -283.5t-166.5 -237.5t-248 -159.5t-296.5 -56.5q-99 0 -178 20l-49 -102h-346l110 229q-144 104 -226.5 259t-82.5 331q-3 146 59.5 283.5t167.5 237.5t249 159.5t296 56.5q90 0 176 -18l50 100h346l-111 -227q145 -106 227 -261t82 -331zM604 541
l242 495q-128 -7 -208.5 -97t-80.5 -222q0 -99 47 -176zM1171 717q0 102 -49 178l-241 -498q127 6 209 97q81 90 81 223z" />
    <glyph glyph-name="Ugrave" unicode="&#xd9;" horiz-adv-x="1579" 
d="M1456 1434v-768q0 -340 -167.5 -513t-497.5 -173t-499 174t-169 512v768h446v-768q0 -141 55 -210t167 -69t166.5 69t54.5 210v768h444zM766 1901l252 -365h-356l-324 365h428z" />
    <glyph glyph-name="Uacute" unicode="&#xda;" horiz-adv-x="1579" 
d="M1456 1434v-768q0 -340 -167.5 -513t-497.5 -173t-499 174t-169 512v768h446v-768q0 -141 55 -210t167 -69t166.5 69t54.5 210v768h444zM1243 1901l-323 -365h-357l252 365h428z" />
    <glyph glyph-name="Ucircumflex" unicode="&#xdb;" horiz-adv-x="1579" 
d="M1456 1434v-768q0 -340 -167.5 -513t-497.5 -173t-499 174t-169 512v768h446v-768q0 -141 55 -210t167 -69t166.5 69t54.5 210v768h444zM1008 1901l252 -365h-342l-127 152l-125 -152h-344l251 365h435z" />
    <glyph glyph-name="Udieresis" unicode="&#xdc;" horiz-adv-x="1579" 
d="M1456 1434v-768q0 -340 -167.5 -513t-497.5 -173t-499 174t-169 512v768h446v-768q0 -141 55 -210t167 -69t166.5 69t54.5 210v768h444zM729 1737q0 -73 -48 -121.5t-120 -48.5q-73 0 -121.5 48.5t-48.5 121.5q0 72 48.5 120t121.5 48q72 0 120 -48t48 -120zM1190 1737
q0 -73 -49 -121.5t-121 -48.5t-120 48.5t-48 121.5q0 72 48 120t120 48t121 -48t49 -120z" />
    <glyph glyph-name="Yacute" unicode="&#xdd;" horiz-adv-x="1642" 
d="M1075 1434h527l-558 -949v-485h-446v479l-557 955h532l250 -478zM1274 1901l-324 -365h-356l252 365h428z" />
    <glyph glyph-name="Thorn" unicode="&#xde;" horiz-adv-x="1488" 
d="M569 1434v-162h195q330 0 486.5 -127t156.5 -395t-156 -395.5t-483 -127.5h-199v-227h-446v1434h446zM762 889h-193v-279h195q102 0 149.5 34t47.5 106t-48 105.5t-151 33.5z" />
    <glyph glyph-name="germandbls" unicode="&#xdf;" horiz-adv-x="1456" 
d="M102 0v971q0 140 77.5 250t215 171.5t310.5 61.5q149 0 269.5 -46t189.5 -130.5t69 -192.5q0 -63 -23 -107t-75 -99q-61 -64 -77 -85t-16 -40q0 -20 29 -43q29 -22 135 -74q108 -54 150.5 -118t42.5 -173q0 -156 -124 -261t-310 -105q-151 0 -324 57l90 334
q95 -43 178 -43q37 0 57.5 14.5t20.5 40.5q0 25 -28 44t-119 56q-109 44 -156 91t-47 110q0 94 111 211q69 69 69 119q0 39 -37 64.5t-96 25.5q-75 0 -120.5 -43.5t-45.5 -112.5v-948h-416z" />
    <glyph glyph-name="agrave" unicode="&#xe0;" horiz-adv-x="1198" 
d="M1116 662v-662h-416v119q-139 -139 -307 -139q-149 0 -240.5 87.5t-91.5 227.5q0 141 96.5 221t266.5 80h276v25q0 51 -37 77.5t-106 26.5q-131 0 -281 -80l-116 264q255 135 518 135q210 0 324 -99t114 -283zM700 260v170h-110q-117 0 -117 -96q0 -50 31 -79.5t86 -29.5
q57 0 110 35zM637 1491l252 -365h-357l-323 365h428z" />
    <glyph glyph-name="aacute" unicode="&#xe1;" horiz-adv-x="1198" 
d="M1116 662v-662h-416v119q-139 -139 -307 -139q-149 0 -240.5 87.5t-91.5 227.5q0 141 96.5 221t266.5 80h276v25q0 51 -37 77.5t-106 26.5q-131 0 -281 -80l-116 264q255 135 518 135q210 0 324 -99t114 -283zM700 260v170h-110q-117 0 -117 -96q0 -50 31 -79.5t86 -29.5
q57 0 110 35zM1114 1491l-323 -365h-357l252 365h428z" />
    <glyph glyph-name="acircumflex" unicode="&#xe2;" horiz-adv-x="1198" 
d="M1116 662v-662h-416v119q-139 -139 -307 -139q-149 0 -240.5 87.5t-91.5 227.5q0 141 96.5 221t266.5 80h276v25q0 51 -37 77.5t-106 26.5q-131 0 -281 -80l-116 264q255 135 518 135q210 0 324 -99t114 -283zM700 260v170h-110q-117 0 -117 -96q0 -50 31 -79.5t86 -29.5
q57 0 110 35zM879 1491l251 -365h-342l-126 152l-125 -152h-344l251 365h435z" />
    <glyph glyph-name="atilde" unicode="&#xe3;" horiz-adv-x="1198" 
d="M1116 662v-662h-416v119q-139 -139 -307 -139q-149 0 -240.5 87.5t-91.5 227.5q0 141 96.5 221t266.5 80h276v25q0 51 -37 77.5t-106 26.5q-131 0 -281 -80l-116 264q255 135 518 135q210 0 324 -99t114 -283zM700 260v170h-110q-117 0 -117 -96q0 -50 31 -79.5t86 -29.5
q57 0 110 35zM485 1491q57 0 158 -37q119 -45 168 -45q31 0 48 16t28 52l176 -23q0 -147 -54 -235.5t-169 -88.5q-59 0 -189 48q-93 34 -137 34q-32 0 -48.5 -15.5t-27.5 -51.5l-176 22q0 147 54 235.5t169 88.5z" />
    <glyph glyph-name="adieresis" unicode="&#xe4;" horiz-adv-x="1198" 
d="M1116 662v-662h-416v119q-139 -139 -307 -139q-149 0 -240.5 87.5t-91.5 227.5q0 141 96.5 221t266.5 80h276v25q0 51 -37 77.5t-106 26.5q-131 0 -281 -80l-116 264q255 135 518 135q210 0 324 -99t114 -283zM700 260v170h-110q-117 0 -117 -96q0 -50 31 -79.5t86 -29.5
q57 0 110 35zM600 1327q0 -73 -48 -121.5t-120 -48.5q-74 0 -122 48.5t-48 121.5q0 72 48.5 120t121.5 48q72 0 120 -48t48 -120zM1061 1327q0 -73 -49 -121.5t-121 -48.5t-120 48.5t-48 121.5q0 72 48 120t120 48t121 -48t49 -120z" />
    <glyph glyph-name="aring" unicode="&#xe5;" horiz-adv-x="1198" 
d="M1116 662v-662h-416v119q-139 -139 -307 -139q-149 0 -240.5 87.5t-91.5 227.5q0 141 96.5 221t266.5 80h276v25q0 51 -37 77.5t-106 26.5q-131 0 -281 -80l-116 264q255 135 518 135q210 0 324 -99t114 -283zM700 260v170h-110q-117 0 -117 -96q0 -50 31 -79.5t86 -29.5
q57 0 110 35zM954 1382q0 -117 -85.5 -201.5t-206.5 -84.5t-207 84.5t-86 201.5t86 202t207 85t206.5 -84.5t85.5 -202.5zM563 1382q0 -39 29 -67.5t70 -28.5t69.5 28.5t28.5 67.5t-28.5 68t-69.5 29t-70 -29t-29 -68z" />
    <glyph glyph-name="ae" unicode="&#xe6;" horiz-adv-x="1871" 
d="M1819 512v-98h-699q27 -135 189 -135q56 0 111 18.5t91 50.5l224 -192q-91 -85 -210.5 -130.5t-252.5 -45.5q-255 0 -418 163q-172 -163 -416 -163q-177 0 -277 85.5t-100 229.5q0 141 96.5 221t266.5 80h276v25q0 51 -37 77.5t-106 26.5q-131 0 -281 -80l-116 264
q255 135 518 135q180 0 289 -75q124 75 295 75q251 0 404 -151.5t153 -380.5zM1118 606h295q0 64 -39 105t-104 41q-128 0 -152 -146zM602 225q31 0 74.5 15t81.5 39q-37 70 -49 151h-119q-117 0 -117 -96q0 -109 129 -109z" />
    <glyph glyph-name="ccedilla" unicode="&#xe7;" horiz-adv-x="1142" 
d="M776 395l318 -174q-69 -103 -182.5 -167.5t-243.5 -71.5l-31 -64q92 -4 148.5 -58t56.5 -136q0 -100 -73.5 -153.5t-193.5 -53.5q-122 0 -233 57l51 135q49 -24 119 -24q46 0 71 20.5t25 52.5q0 28 -17 44t-44 16q-19 0 -41 -11l-62 70l58 115q-189 37 -315 184.5
t-126 335.5q-3 142 74.5 266t208.5 196.5t279 69.5q145 0 270 -65t201 -176l-318 -174q-51 63 -143 63q-69 0 -116.5 -51t-47.5 -129t47.5 -129t116.5 -51q92 0 143 63z" />
    <glyph glyph-name="egrave" unicode="&#xe8;" horiz-adv-x="1230" 
d="M1178 512v-98h-699q27 -135 189 -135q56 0 111 18.5t91 50.5l224 -192q-91 -85 -210.5 -130.5t-252.5 -45.5q-162 0 -293 71t-204 192.5t-73 268.5t71.5 268.5t200 192.5t288.5 71q251 0 404 -151.5t153 -380.5zM477 606h295q0 64 -39 105t-104 41q-128 0 -152 -146z
M596 1491l252 -365h-356l-324 365h428z" />
    <glyph glyph-name="eacute" unicode="&#xe9;" horiz-adv-x="1230" 
d="M1178 512v-98h-699q27 -135 189 -135q56 0 111 18.5t91 50.5l224 -192q-91 -85 -210.5 -130.5t-252.5 -45.5q-162 0 -293 71t-204 192.5t-73 268.5t71.5 268.5t200 192.5t288.5 71q251 0 404 -151.5t153 -380.5zM477 606h295q0 64 -39 105t-104 41q-128 0 -152 -146z
M1073 1491l-323 -365h-357l252 365h428z" />
    <glyph glyph-name="ecircumflex" unicode="&#xea;" horiz-adv-x="1230" 
d="M1178 512v-98h-699q27 -135 189 -135q56 0 111 18.5t91 50.5l224 -192q-91 -85 -210.5 -130.5t-252.5 -45.5q-162 0 -293 71t-204 192.5t-73 268.5t71.5 268.5t200 192.5t288.5 71q251 0 404 -151.5t153 -380.5zM477 606h295q0 64 -39 105t-104 41q-128 0 -152 -146z
M838 1491l252 -365h-342l-127 152l-125 -152h-344l251 365h435z" />
    <glyph glyph-name="edieresis" unicode="&#xeb;" horiz-adv-x="1230" 
d="M1178 512v-98h-699q27 -135 189 -135q56 0 111 18.5t91 50.5l224 -192q-91 -85 -210.5 -130.5t-252.5 -45.5q-162 0 -293 71t-204 192.5t-73 268.5t71.5 268.5t200 192.5t288.5 71q251 0 404 -151.5t153 -380.5zM477 606h295q0 64 -39 105t-104 41q-128 0 -152 -146z
M559 1327q0 -73 -48 -121.5t-120 -48.5q-73 0 -121.5 48.5t-48.5 121.5q0 72 48.5 120t121.5 48q72 0 120 -48t48 -120zM1020 1327q0 -73 -49 -121.5t-121 -48.5t-120 48.5t-48 121.5q0 72 48 120t120 48t121 -48t49 -120z" />
    <glyph glyph-name="igrave" unicode="&#xec;" horiz-adv-x="634" 
d="M526 1024v-1024h-415v1024h415zM297 1491l252 -365h-356l-324 365h428z" />
    <glyph glyph-name="iacute" unicode="&#xed;" horiz-adv-x="634" 
d="M526 1024v-1024h-415v1024h415zM774 1491l-323 -365h-357l252 365h428z" />
    <glyph glyph-name="icircumflex" unicode="&#xee;" horiz-adv-x="634" 
d="M526 1024v-1024h-415v1024h415zM539 1491l252 -365h-342l-127 152l-125 -152h-344l251 365h435z" />
    <glyph glyph-name="idieresis" unicode="&#xef;" horiz-adv-x="634" 
d="M526 1024v-1024h-415v1024h415zM260 1327q0 -73 -48 -121.5t-120 -48.5q-74 0 -122 48.5t-48 121.5q0 72 48.5 120t121.5 48q72 0 120 -48t48 -120zM721 1327q0 -73 -49 -121.5t-121 -48.5t-120 48.5t-48 121.5q0 72 48 120t120 48t121 -48t49 -120z" />
    <glyph glyph-name="eth" unicode="&#xf0;" horiz-adv-x="1329" 
d="M1247 602q0 -173 -74.5 -314t-213.5 -224.5t-316 -83.5q-274 0 -428 125t-154 337q0 204 139 327.5t365 123.5q119 0 223 -37q-36 76 -79 125l-66 -63l-139 108l63 61q-89 44 -198 68l75 299q208 -29 377 -121l123 119l139 -113l-112 -106q276 -239 276 -631zM840 547
q-76 76 -195 76q-84 0 -130 -44t-46 -124q0 -166 203 -166q70 0 116.5 74.5t51.5 183.5z" />
    <glyph glyph-name="ntilde" unicode="&#xf1;" horiz-adv-x="1302" 
d="M1221 719v-719h-416v592q0 56 -31 86.5t-88 30.5q-83 0 -168 -60v-649h-416v1024h416v-100q80 57 174.5 88.5t186.5 31.5q156 0 249 -87t93 -238zM485 1491q57 0 158 -37q119 -45 168 -45q31 0 48 16t28 52l176 -23q0 -147 -54 -235.5t-169 -88.5q-59 0 -189 48
q-93 34 -137 34q-32 0 -48.5 -15.5t-27.5 -51.5l-176 22q0 147 54 235.5t169 88.5z" />
    <glyph glyph-name="ograve" unicode="&#xf2;" horiz-adv-x="1302" 
d="M1241 512q3 -148 -75.5 -271.5t-215 -193.5t-299.5 -67q-163 -3 -299.5 67t-215 193.5t-75.5 271.5q-3 148 75.5 271.5t215 193.5t299.5 67q163 3 299.5 -67t215 -193.5t75.5 -271.5zM471 512q0 -81 49 -130.5t129 -49.5q82 0 131 49t49 131t-49 131t-131 49
q-80 0 -129 -49.5t-49 -130.5zM627 1491l252 -365h-357l-323 365h428z" />
    <glyph glyph-name="oacute" unicode="&#xf3;" horiz-adv-x="1302" 
d="M1241 512q3 -148 -75.5 -271.5t-215 -193.5t-299.5 -67q-163 -3 -299.5 67t-215 193.5t-75.5 271.5q-3 148 75.5 271.5t215 193.5t299.5 67q163 3 299.5 -67t215 -193.5t75.5 -271.5zM471 512q0 -81 49 -130.5t129 -49.5q82 0 131 49t49 131t-49 131t-131 49
q-80 0 -129 -49.5t-49 -130.5zM1104 1491l-324 -365h-356l252 365h428z" />
    <glyph glyph-name="ocircumflex" unicode="&#xf4;" horiz-adv-x="1302" 
d="M1241 512q3 -148 -75.5 -271.5t-215 -193.5t-299.5 -67q-163 -3 -299.5 67t-215 193.5t-75.5 271.5q-3 148 75.5 271.5t215 193.5t299.5 67q163 3 299.5 -67t215 -193.5t75.5 -271.5zM471 512q0 -81 49 -130.5t129 -49.5q82 0 131 49t49 131t-49 131t-131 49
q-80 0 -129 -49.5t-49 -130.5zM868 1491l252 -365h-342l-127 152l-125 -152h-344l252 365h434z" />
    <glyph glyph-name="otilde" unicode="&#xf5;" horiz-adv-x="1302" 
d="M1241 512q3 -148 -75.5 -271.5t-215 -193.5t-299.5 -67q-163 -3 -299.5 67t-215 193.5t-75.5 271.5q-3 148 75.5 271.5t215 193.5t299.5 67q163 3 299.5 -67t215 -193.5t75.5 -271.5zM471 512q0 -81 49 -130.5t129 -49.5q82 0 131 49t49 131t-49 131t-131 49
q-80 0 -129 -49.5t-49 -130.5zM475 1491q57 0 158 -37q119 -45 168 -45q31 0 48 16t28 52l176 -23q0 -147 -54.5 -235.5t-169.5 -88.5q-58 0 -188 48q-93 34 -137 34q-32 0 -48.5 -15.5t-27.5 -51.5l-176 22q0 147 54 235.5t169 88.5z" />
    <glyph glyph-name="odieresis" unicode="&#xf6;" horiz-adv-x="1302" 
d="M1241 512q3 -148 -75.5 -271.5t-215 -193.5t-299.5 -67q-163 -3 -299.5 67t-215 193.5t-75.5 271.5q-3 148 75.5 271.5t215 193.5t299.5 67q163 3 299.5 -67t215 -193.5t75.5 -271.5zM471 512q0 -81 49 -130.5t129 -49.5q82 0 131 49t49 131t-49 131t-131 49
q-80 0 -129 -49.5t-49 -130.5zM590 1327q0 -73 -48 -121.5t-120 -48.5q-74 0 -122 48.5t-48 121.5q0 72 48.5 120t121.5 48q72 0 120 -48t48 -120zM1051 1327q0 -73 -49 -121.5t-121 -48.5t-120 48.5t-48 121.5q0 72 48 120t120 48t121 -48t49 -120z" />
    <glyph glyph-name="divide" unicode="&#xf7;" horiz-adv-x="1228" 
d="M831 1020q0 -78 -63 -132t-154 -54t-154 54t-63 132t63 132t154 54t154 -54t63 -132zM1145 750v-318h-1061v318h1061zM831 162q0 -78 -63 -132.5t-154 -54.5t-154 54.5t-63 132.5t63 132t154 54t154 -54t63 -132z" />
    <glyph glyph-name="oslash" unicode="&#xf8;" horiz-adv-x="1302" 
d="M1241 512q3 -148 -75.5 -271.5t-215 -193.5t-299.5 -67q-85 0 -145 14l-51 -96h-267l99 188q-107 73 -166.5 183.5t-59.5 242.5q-3 148 75.5 271.5t215 193.5t299.5 67q86 0 146 -14l51 96h268l-100 -188q107 -73 166 -183.5t59 -242.5zM471 512q0 -76 43 -125l148 305
h-13q-80 0 -129 -49.5t-49 -130.5zM829 512q0 79 -49 131l-151 -311h20q82 0 131 49t49 131z" />
    <glyph glyph-name="ugrave" unicode="&#xf9;" horiz-adv-x="1302" 
d="M784 1024h416v-1024h-416v100q-80 -57 -174 -88.5t-186 -31.5q-156 0 -249 87t-93 238v719h416v-592q0 -56 30.5 -86.5t87.5 -30.5q83 0 168 60v649zM623 1491l251 -365h-356l-323 365h428z" />
    <glyph glyph-name="uacute" unicode="&#xfa;" horiz-adv-x="1302" 
d="M784 1024h416v-1024h-416v100q-80 -57 -174 -88.5t-186 -31.5q-156 0 -249 87t-93 238v719h416v-592q0 -56 30.5 -86.5t87.5 -30.5q83 0 168 60v649zM1100 1491l-324 -365h-356l252 365h428z" />
    <glyph glyph-name="ucircumflex" unicode="&#xfb;" horiz-adv-x="1302" 
d="M784 1024h416v-1024h-416v100q-80 -57 -174 -88.5t-186 -31.5q-156 0 -249 87t-93 238v719h416v-592q0 -56 30.5 -86.5t87.5 -30.5q83 0 168 60v649zM864 1491l252 -365h-342l-127 152l-125 -152h-344l252 365h434z" />
    <glyph glyph-name="udieresis" unicode="&#xfc;" horiz-adv-x="1302" 
d="M784 1024h416v-1024h-416v100q-80 -57 -174 -88.5t-186 -31.5q-156 0 -249 87t-93 238v719h416v-592q0 -56 30.5 -86.5t87.5 -30.5q83 0 168 60v649zM586 1327q0 -73 -48 -121.5t-120 -48.5q-74 0 -122 48.5t-48 121.5q0 72 48.5 120t121.5 48q72 0 120 -48t48 -120z
M1047 1327q0 -73 -49 -121.5t-121 -48.5t-120 48.5t-48 121.5q0 72 48 120t120 48t121 -48t49 -120z" />
    <glyph glyph-name="yacute" unicode="&#xfd;" horiz-adv-x="1280" 
d="M1262 1024l-416 -1114q-124 -330 -449 -330q-164 0 -377 82l115 270q121 -47 195 -47q97 0 149 76l6 8l-432 1055h439l176 -578l161 578h433zM1120 1491l-323 -365h-357l252 365h428z" />
    <glyph glyph-name="thorn" unicode="&#xfe;" horiz-adv-x="1339" 
d="M1257 512q0 -237 -121 -384.5t-311 -147.5q-177 0 -307 133v-512h-416v1833h416v-523q130 133 307 133q190 0 311 -147.5t121 -384.5zM848 512q0 76 -48 128t-120 52q-49 0 -92.5 -24.5t-69.5 -67.5v-176q26 -43 69.5 -67.5t92.5 -24.5q72 0 120 52t48 128z" />
    <glyph glyph-name="ydieresis" unicode="&#xff;" horiz-adv-x="1280" 
d="M1262 1024l-416 -1114q-124 -330 -449 -330q-164 0 -377 82l115 270q121 -47 195 -47q97 0 149 76l6 8l-432 1055h439l176 -578l161 578h433zM606 1327q0 -73 -48 -121.5t-120 -48.5q-74 0 -122 48.5t-48 121.5q0 72 48.5 120t121.5 48q72 0 120 -48t48 -120zM1067 1327
q0 -73 -49 -121.5t-121 -48.5t-120 48.5t-48 121.5q0 72 48 120t120 48t121 -48t49 -120z" />
    <glyph glyph-name="Amacron" unicode="&#x100;" horiz-adv-x="1765" 
d="M1192 0l-74 219h-473l-72 -219h-532l547 1434h583l553 -1434h-532zM762 573h239l-120 365zM1251 1864v-256h-739v256h739z" />
    <glyph glyph-name="amacron" unicode="&#x101;" horiz-adv-x="1198" 
d="M1116 662v-662h-416v119q-139 -139 -307 -139q-149 0 -240.5 87.5t-91.5 227.5q0 141 96.5 221t266.5 80h276v25q0 51 -37 77.5t-106 26.5q-131 0 -281 -80l-116 264q255 135 518 135q210 0 324 -99t114 -283zM700 260v170h-110q-117 0 -117 -96q0 -50 31 -79.5t86 -29.5
q57 0 110 35zM1032 1454v-256h-739v256h739z" />
    <glyph glyph-name="Abreve" unicode="&#x102;" horiz-adv-x="1765" 
d="M1192 0l-74 219h-473l-72 -219h-532l547 1434h583l553 -1434h-532zM762 573h239l-120 365zM881 1556q-170 0 -290 103t-120 254h272q0 -50 39.5 -79.5t98.5 -29.5q61 0 100 29.5t39 79.5h272q0 -151 -120 -254t-291 -103z" />
    <glyph glyph-name="abreve" unicode="&#x103;" horiz-adv-x="1198" 
d="M1116 662v-662h-416v119q-139 -139 -307 -139q-149 0 -240.5 87.5t-91.5 227.5q0 141 96.5 221t266.5 80h276v25q0 51 -37 77.5t-106 26.5q-131 0 -281 -80l-116 264q255 135 518 135q210 0 324 -99t114 -283zM700 260v170h-110q-117 0 -117 -96q0 -50 31 -79.5t86 -29.5
q57 0 110 35zM662 1147q-170 0 -290 102.5t-120 253.5h272q0 -50 39.5 -79t98.5 -29q61 0 100 29t39 79h272q0 -151 -119.5 -253.5t-291.5 -102.5z" />
    <glyph glyph-name="Aogonek" unicode="&#x104;" horiz-adv-x="1765" 
d="M1663 -201l47 -186q-82 -33 -201 -33q-124 0 -192 48t-68 141q0 97 76 219l8 12h-141l-74 219h-473l-72 -219h-532l547 1434h583l553 -1434h-165l-3 -4q-51 -74 -51 -119q0 -41 30.5 -62.5t80.5 -21.5q23 0 47 6zM762 573h239l-120 365z" />
    <glyph glyph-name="aogonek" unicode="&#x105;" horiz-adv-x="1198" 
d="M1133 -201l47 -186q-82 -33 -201 -33q-124 0 -192 48t-68 141q0 106 76 219l8 12h-103v119q-139 -139 -307 -139q-149 0 -240.5 87.5t-91.5 227.5q0 141 96.5 221t266.5 80h276v25q0 51 -37 77.5t-106 26.5q-131 0 -281 -80l-116 264q255 135 518 135q210 0 324 -99
t114 -283v-662h-88l-2 -4q-51 -86 -51 -119q0 -41 30.5 -62.5t79.5 -21.5q24 0 48 6zM700 260v170h-110q-117 0 -117 -96q0 -50 31 -79.5t86 -29.5q57 0 110 35z" />
    <glyph glyph-name="Cacute" unicode="&#x106;" horiz-adv-x="1536" 
d="M1475 1128l-388 -215q-39 58 -100.5 90.5t-134.5 32.5q-130 0 -213 -92q-82 -91 -82 -227q0 -137 82 -228q83 -92 213 -92q73 0 134.5 32.5t100.5 90.5l388 -215q-104 -151 -270.5 -238t-356.5 -87q-150 -3 -291 56.5t-244 159.5t-164 237.5t-57 283.5q-4 146 57 283.5
t164 237.5t244 159.5t291 56.5q190 0 356.5 -87.5t270.5 -238.5zM1278 1901l-324 -365h-356l252 365h428z" />
    <glyph glyph-name="cacute" unicode="&#x107;" horiz-adv-x="1142" 
d="M1094 803l-318 -174q-51 63 -143 63q-69 0 -116.5 -51t-47.5 -129t47.5 -129t116.5 -51q92 0 143 63l318 -174q-76 -111 -201 -176t-270 -65q-148 -3 -279 69.5t-208.5 196.5t-74.5 266q-3 142 74.5 266t208.5 196.5t279 69.5q145 0 270 -65t201 -176zM1051 1491
l-324 -365h-356l252 365h428z" />
    <glyph glyph-name="Ccircumflex" unicode="&#x108;" horiz-adv-x="1536" 
d="M1475 1128l-388 -215q-39 58 -100.5 90.5t-134.5 32.5q-130 0 -213 -92q-82 -91 -82 -227q0 -137 82 -228q83 -92 213 -92q73 0 134.5 32.5t100.5 90.5l388 -215q-104 -151 -270.5 -238t-356.5 -87q-150 -3 -291 56.5t-244 159.5t-164 237.5t-57 283.5q-4 146 57 283.5
t164 237.5t244 159.5t291 56.5q190 0 356.5 -87.5t270.5 -238.5zM1042 1901l252 -365h-342l-127 152l-125 -152h-344l252 365h434z" />
    <glyph glyph-name="ccircumflex" unicode="&#x109;" horiz-adv-x="1142" 
d="M1094 803l-318 -174q-51 63 -143 63q-69 0 -116.5 -51t-47.5 -129t47.5 -129t116.5 -51q92 0 143 63l318 -174q-76 -111 -201 -176t-270 -65q-148 -3 -279 69.5t-208.5 196.5t-74.5 266q-3 142 74.5 266t208.5 196.5t279 69.5q145 0 270 -65t201 -176zM815 1491l252 -365
h-342l-127 152l-125 -152h-344l252 365h434z" />
    <glyph glyph-name="Cdotaccent" unicode="&#x10a;" horiz-adv-x="1536" 
d="M1475 1128l-388 -215q-39 58 -100.5 90.5t-134.5 32.5q-130 0 -213 -92q-82 -91 -82 -227q0 -137 82 -228q83 -92 213 -92q73 0 134.5 32.5t100.5 90.5l388 -215q-104 -151 -270.5 -238t-356.5 -87q-150 -3 -291 56.5t-244 159.5t-164 237.5t-57 283.5q-4 146 57 283.5
t164 237.5t244 159.5t291 56.5q190 0 356.5 -87.5t270.5 -238.5zM993 1737q0 -73 -48 -121.5t-120 -48.5q-73 0 -121.5 48.5t-48.5 121.5q0 72 48.5 120t121.5 48q72 0 120 -48t48 -120z" />
    <glyph glyph-name="cdotaccent" unicode="&#x10b;" horiz-adv-x="1142" 
d="M1094 803l-318 -174q-51 63 -143 63q-69 0 -116.5 -51t-47.5 -129t47.5 -129t116.5 -51q92 0 143 63l318 -174q-76 -111 -201 -176t-270 -65q-148 -3 -279 69.5t-208.5 196.5t-74.5 266q-3 142 74.5 266t208.5 196.5t279 69.5q145 0 270 -65t201 -176zM766 1327
q0 -73 -48 -121.5t-120 -48.5q-74 0 -122 48.5t-48 121.5q0 72 48.5 120t121.5 48q72 0 120 -48t48 -120z" />
    <glyph glyph-name="Ccaron" unicode="&#x10c;" horiz-adv-x="1536" 
d="M1475 1128l-388 -215q-39 58 -100.5 90.5t-134.5 32.5q-130 0 -213 -92q-82 -91 -82 -227q0 -137 82 -228q83 -92 213 -92q73 0 134.5 32.5t100.5 90.5l388 -215q-104 -151 -270.5 -238t-356.5 -87q-150 -3 -291 56.5t-244 159.5t-164 237.5t-57 283.5q-4 146 57 283.5
t164 237.5t244 159.5t291 56.5q190 0 356.5 -87.5t270.5 -238.5zM1294 1901l-252 -365h-434l-252 365h344l125 -152l127 152h342z" />
    <glyph glyph-name="ccaron" unicode="&#x10d;" horiz-adv-x="1142" 
d="M1094 803l-318 -174q-51 63 -143 63q-69 0 -116.5 -51t-47.5 -129t47.5 -129t116.5 -51q92 0 143 63l318 -174q-76 -111 -201 -176t-270 -65q-148 -3 -279 69.5t-208.5 196.5t-74.5 266q-3 142 74.5 266t208.5 196.5t279 69.5q145 0 270 -65t201 -176zM1067 1491
l-252 -365h-434l-252 365h344l125 -152l127 152h342z" />
    <glyph glyph-name="Dcaron" unicode="&#x10e;" horiz-adv-x="1617" 
d="M1526 717q4 -195 -101.5 -362t-285 -262.5t-385.5 -92.5h-631v1434h631q206 3 385.5 -92.5t285 -262.5t101.5 -362zM737 1036h-168v-639h168q136 0 234 93.5t98 226.5q0 134 -98 226.5t-234 92.5zM1178 1901l-252 -365h-434l-252 365h344l125 -152l127 152h342z" />
    <glyph glyph-name="dcaron" unicode="&#x10f;" horiz-adv-x="1748" 
d="M801 1434h416v-1434h-416v113q-130 -133 -307 -133q-190 0 -311.5 148t-121.5 384t121.5 384t311.5 148q177 0 307 -133v523zM801 424v176q-26 43 -69.5 67.5t-92.5 24.5q-72 0 -120 -52t-48 -128t48 -128t120 -52q49 0 92.5 24.5t69.5 67.5zM1749 1282q0 -48 -29 -92
l-288 -420l-117 53l119 293q-56 24 -88.5 67.5t-32.5 98.5q0 76 63.5 131t153.5 55q91 0 155 -54t64 -132z" />
    <glyph glyph-name="Dcroat" unicode="&#x110;" horiz-adv-x="1617" 
d="M1526 717q4 -195 -101.5 -362t-285 -262.5t-385.5 -92.5h-631v543h-103v348h103v543h631q206 3 385.5 -92.5t285 -262.5t101.5 -362zM1069 717q0 134 -98 226.5t-234 92.5h-168v-145h250v-348h-250v-146h168q136 0 234 93.5t98 226.5z" />
    <glyph glyph-name="dslash" unicode="&#x111;" horiz-adv-x="1308" 
d="M1343 1346v-256h-126v-1090h-416v113q-130 -133 -307 -133q-190 0 -311.5 148t-121.5 384t121.5 384t311.5 148q177 0 307 -133v179h-195v256h195v88h416v-88h126zM801 424v176q-26 43 -69.5 67.5t-92.5 24.5q-72 0 -120 -52t-48 -128t48 -128t120 -52q49 0 92.5 24.5
t69.5 67.5z" />
    <glyph glyph-name="Emacron" unicode="&#x112;" horiz-adv-x="1396" 
d="M1325 1434v-396h-756v-127h705v-370h-705v-146h766v-395h-1212v1434h1202zM1090 1864v-256h-740v256h740z" />
    <glyph glyph-name="Ebreve" unicode="&#x114;" horiz-adv-x="1396" 
d="M1325 1434v-396h-756v-127h705v-370h-705v-146h766v-395h-1212v1434h1202zM719 1556q-170 0 -290 103t-120 254h273q0 -50 39 -79.5t98 -29.5q61 0 100 29.5t39 79.5h272q0 -151 -120 -254t-291 -103z" />
    <glyph glyph-name="ebreve" unicode="&#x115;" horiz-adv-x="1230" 
d="M1178 512v-98h-699q27 -135 189 -135q56 0 111 18.5t91 50.5l224 -192q-91 -85 -210.5 -130.5t-252.5 -45.5q-162 0 -293 71t-204 192.5t-73 268.5t71.5 268.5t200 192.5t288.5 71q251 0 404 -151.5t153 -380.5zM477 606h295q0 64 -39 105t-104 41q-128 0 -152 -146z
M621 1147q-170 0 -290 102.5t-120 253.5h272q0 -50 39.5 -79t98.5 -29q61 0 100 29t39 79h272q0 -151 -119.5 -253.5t-291.5 -102.5z" />
    <glyph glyph-name="Edotaccent" unicode="&#x116;" horiz-adv-x="1396" 
d="M1325 1434v-396h-756v-127h705v-370h-705v-146h766v-395h-1212v1434h1202zM887 1737q0 -73 -48 -121.5t-120 -48.5q-73 0 -121.5 48.5t-48.5 121.5q0 72 48.5 120t121.5 48q72 0 120 -48t48 -120z" />
    <glyph glyph-name="Eogonek" unicode="&#x118;" horiz-adv-x="1396" 
d="M1343 -201l48 -186q-82 -33 -201 -33q-124 0 -192 48t-68 141q0 106 76 219l8 12h-891v1434h1202v-396h-756v-127h705v-370h-705v-146h766v-395h-96l-2 -4q-51 -86 -51 -119q0 -41 30.5 -62.5t79.5 -21.5q23 0 47 6z" />
    <glyph glyph-name="eogonek" unicode="&#x119;" horiz-adv-x="1230" 
d="M1178 512v-98h-699q27 -135 189 -135q56 0 111 18.5t91 50.5l224 -192q-60 -54 -121 -88q-84 -134 -84 -191q0 -41 30.5 -62.5t79.5 -21.5q24 0 48 6l47 -186q-82 -33 -201 -33q-124 0 -192 48t-68 141q0 88 74 215q-66 -4 -76 -4q-162 0 -293 71t-204 192.5t-73 268.5
t71.5 268.5t200 192.5t288.5 71q251 0 404 -151.5t153 -380.5zM477 606h295q0 64 -39 105t-104 41q-128 0 -152 -146z" />
    <glyph glyph-name="Ecaron" unicode="&#x11a;" horiz-adv-x="1396" 
d="M1325 1434v-396h-756v-127h705v-370h-705v-146h766v-395h-1212v1434h1202zM1188 1901l-252 -365h-434l-252 365h344l125 -152l127 152h342z" />
    <glyph glyph-name="ecaron" unicode="&#x11b;" horiz-adv-x="1230" 
d="M1178 512v-98h-699q27 -135 189 -135q56 0 111 18.5t91 50.5l224 -192q-91 -85 -210.5 -130.5t-252.5 -45.5q-162 0 -293 71t-204 192.5t-73 268.5t71.5 268.5t200 192.5t288.5 71q251 0 404 -151.5t153 -380.5zM477 606h295q0 64 -39 105t-104 41q-128 0 -152 -146z
M1090 1491l-252 -365h-435l-251 365h344l125 -152l127 152h342z" />
    <glyph glyph-name="Gcircumflex" unicode="&#x11c;" horiz-adv-x="1622" 
d="M1466 1241l-290 -303q-118 106 -285 106q-141 0 -237.5 -88t-96.5 -239q0 -135 86 -227.5t221 -92.5q119 0 223 49v84h-196v316h620v-649q-284 -217 -647 -217q-152 -3 -296 56.5t-249 159.5t-167.5 237.5t-59.5 283.5q-3 168 63.5 310t179 234.5t257 143.5t299.5 49
q157 0 307.5 -55t267.5 -158zM1065 1901l252 -365h-342l-127 152l-125 -152h-344l252 365h434z" />
    <glyph glyph-name="gcircumflex" unicode="&#x11d;" horiz-adv-x="1308" 
d="M801 1024h416v-983q0 -238 -152 -354q-149 -113 -393 -113q-342 0 -598 131l116 268q176 -86 394 -86q103 0 160 38.5t57 115.5v84q-129 -129 -307 -129q-190 0 -311.5 145.5t-121.5 378.5t121.5 378.5t311.5 145.5q176 0 307 -131v111zM801 434v172q-26 43 -69.5 67.5
t-92.5 24.5q-71 0 -119.5 -52t-48.5 -126t48.5 -126t119.5 -52q49 0 92.5 24.5t69.5 67.5zM918 1491l251 -365h-342l-127 152l-125 -152h-344l252 365h435z" />
    <glyph glyph-name="Gbreve" unicode="&#x11e;" horiz-adv-x="1622" 
d="M1466 1241l-290 -303q-118 106 -285 106q-141 0 -237.5 -88t-96.5 -239q0 -135 86 -227.5t221 -92.5q119 0 223 49v84h-196v316h620v-649q-284 -217 -647 -217q-152 -3 -296 56.5t-249 159.5t-167.5 237.5t-59.5 283.5q-3 168 63.5 310t179 234.5t257 143.5t299.5 49
q157 0 307.5 -55t267.5 -158zM848 1556q-170 0 -290 103t-120 254h273q0 -50 39 -79.5t98 -29.5q61 0 100 29.5t39 79.5h273q0 -151 -120 -254t-292 -103z" />
    <glyph glyph-name="gbreve" unicode="&#x11f;" horiz-adv-x="1308" 
d="M801 1024h416v-983q0 -238 -152 -354q-149 -113 -393 -113q-342 0 -598 131l116 268q176 -86 394 -86q103 0 160 38.5t57 115.5v84q-129 -129 -307 -129q-190 0 -311.5 145.5t-121.5 378.5t121.5 378.5t311.5 145.5q176 0 307 -131v111zM801 434v172q-26 43 -69.5 67.5
t-92.5 24.5q-71 0 -119.5 -52t-48.5 -126t48.5 -126t119.5 -52q49 0 92.5 24.5t69.5 67.5zM700 1147q-170 0 -289.5 102.5t-119.5 253.5h272q0 -50 39 -79t98 -29q61 0 100.5 29t39.5 79h272q0 -151 -120 -253.5t-292 -102.5z" />
    <glyph glyph-name="Gdotaccent" unicode="&#x120;" horiz-adv-x="1622" 
d="M1466 1241l-290 -303q-118 106 -285 106q-141 0 -237.5 -88t-96.5 -239q0 -135 86 -227.5t221 -92.5q119 0 223 49v84h-196v316h620v-649q-284 -217 -647 -217q-152 -3 -296 56.5t-249 159.5t-167.5 237.5t-59.5 283.5q-3 168 63.5 310t179 234.5t257 143.5t299.5 49
q157 0 307.5 -55t267.5 -158zM1016 1737q0 -73 -48 -121.5t-120 -48.5q-74 0 -122 48.5t-48 121.5q0 72 48.5 120t121.5 48q72 0 120 -48t48 -120z" />
    <glyph glyph-name="gdotaccent" unicode="&#x121;" horiz-adv-x="1308" 
d="M801 1024h416v-983q0 -238 -152 -354q-149 -113 -393 -113q-342 0 -598 131l116 268q176 -86 394 -86q103 0 160 38.5t57 115.5v84q-129 -129 -307 -129q-190 0 -311.5 145.5t-121.5 378.5t121.5 378.5t311.5 145.5q176 0 307 -131v111zM801 434v172q-26 43 -69.5 67.5
t-92.5 24.5q-71 0 -119.5 -52t-48.5 -126t48.5 -126t119.5 -52q49 0 92.5 24.5t69.5 67.5zM868 1327q0 -73 -48 -121.5t-120 -48.5q-74 0 -122 48.5t-48 121.5q0 72 48.5 120t121.5 48q72 0 120 -48t48 -120z" />
    <glyph glyph-name="uni0122" unicode="&#x122;" horiz-adv-x="1622" 
d="M1466 1241l-290 -303q-118 106 -285 106q-141 0 -237.5 -88t-96.5 -239q0 -135 86 -227.5t221 -92.5q119 0 223 49v84h-196v316h620v-649q-284 -217 -647 -217q-152 -3 -296 56.5t-249 159.5t-167.5 237.5t-59.5 283.5q-3 168 63.5 310t179 234.5t257 143.5t299.5 49
q157 0 307.5 -55t267.5 -158zM1067 -231q0 -39 -27 -74l-225 -277l-100 43l78 172q-47 19 -76 56t-29 80q0 63 55.5 106t133.5 43q79 0 134.5 -43t55.5 -106z" />
    <glyph glyph-name="uni0123" unicode="&#x123;" horiz-adv-x="1308" 
d="M801 1024h416v-983q0 -238 -152 -354q-149 -113 -393 -113q-342 0 -598 131l116 268q176 -86 394 -86q103 0 160 38.5t57 115.5v84q-129 -129 -307 -129q-190 0 -311.5 145.5t-121.5 378.5t121.5 378.5t311.5 145.5q176 0 307 -131v111zM801 434v172q-26 43 -69.5 67.5
t-92.5 24.5q-71 0 -119.5 -52t-48.5 -126t48.5 -126t119.5 -52q49 0 92.5 24.5t69.5 67.5zM522 1290q0 40 27 74l225 276l100 -43l-77 -172q47 -19 75.5 -55.5t28.5 -79.5q0 -63 -55 -106t-133 -43q-79 0 -135 43t-56 106z" />
    <glyph glyph-name="Hcircumflex" unicode="&#x124;" horiz-adv-x="1628" 
d="M1505 1434v-1434h-444v520h-492v-520h-446v1434h446v-514h492v514h444zM1063 1901l252 -365h-342l-127 152l-125 -152h-344l252 365h434z" />
    <glyph glyph-name="hcircumflex" unicode="&#x125;" horiz-adv-x="1302" 
d="M1221 719v-719h-416v592q0 56 -31 86.5t-88 30.5q-83 0 -168 -60v-649h-416v1434h416v-510q80 57 174.5 88.5t186.5 31.5q156 0 249 -87t93 -238zM547 1901l252 -365h-342l-127 152l-125 -152h-344l252 365h434z" />
    <glyph glyph-name="Hbar" unicode="&#x126;" horiz-adv-x="1628" 
d="M1628 1321v-277h-123v-1044h-444v520h-492v-520h-446v1044h-123v277h123v113h446v-113h492v113h444v-113h123zM1061 920v124h-492v-124h492z" />
    <glyph glyph-name="hbar" unicode="&#x127;" horiz-adv-x="1302" 
d="M1221 719v-719h-416v592q0 56 -31 86.5t-88 30.5q-83 0 -168 -60v-649h-416v1090h-120v256h120v88h416v-88h240v-256h-240v-166q80 57 174.5 88.5t186.5 31.5q156 0 249 -87t93 -238z" />
    <glyph glyph-name="Itilde" unicode="&#x128;" horiz-adv-x="692" 
d="M569 1434v-1434h-446v1434h446zM184 1901q57 0 158 -37q119 -45 168 -45q32 0 48.5 15.5t27.5 51.5l176 -22q0 -147 -54 -235.5t-169 -88.5q-61 0 -189 47q-96 35 -137 35q-31 0 -48 -16t-28 -52l-176 23q0 147 54 235.5t169 88.5z" />
    <glyph glyph-name="itilde" unicode="&#x129;" horiz-adv-x="634" 
d="M526 1024v-1024h-415v1024h415zM145 1491q57 0 158 -37q119 -45 168 -45q31 0 48 16t28 52l176 -23q0 -147 -54 -235.5t-169 -88.5q-59 0 -189 48q-93 34 -137 34q-32 0 -48.5 -15.5t-27.5 -51.5l-176 22q0 147 54 235.5t169 88.5z" />
    <glyph glyph-name="Imacron" unicode="&#x12a;" horiz-adv-x="692" 
d="M569 1434v-1434h-446v1434h446zM731 1864v-256h-739v256h739z" />
    <glyph glyph-name="imacron" unicode="&#x12b;" horiz-adv-x="634" 
d="M526 1024v-1024h-415v1024h415zM692 1454v-256h-739v256h739z" />
    <glyph glyph-name="Iogonek" unicode="&#x12e;" horiz-adv-x="692" 
d="M584 -201l47 -186q-82 -33 -201 -33q-124 0 -192 48t-68 141q0 106 76 219l8 12h-131v1434h446v-1434h-90l-2 -4q-51 -86 -51 -119q0 -41 30.5 -62.5t80.5 -21.5q23 0 47 6z" />
    <glyph glyph-name="iogonek" unicode="&#x12f;" horiz-adv-x="634" 
d="M102 1272q0 75 63.5 128.5t151.5 53.5q91 0 154.5 -53.5t63.5 -128.5t-63.5 -127.5t-154.5 -52.5q-90 0 -152.5 52.5t-62.5 127.5zM545 -201l47 -186q-82 -33 -201 -33q-124 0 -192 48t-68 141q0 106 76 219l8 12h-104v1024h415v-1024h-86l-2 -4q-51 -86 -51 -119
q0 -41 30.5 -62.5t80.5 -21.5q23 0 47 6z" />
    <glyph glyph-name="Idot" unicode="&#x130;" horiz-adv-x="692" 
d="M569 1434v-1434h-446v1434h446zM528 1737q0 -73 -48 -121.5t-120 -48.5q-74 0 -122 48.5t-48 121.5q0 72 48.5 120t121.5 48q72 0 120 -48t48 -120z" />
    <glyph glyph-name="dotlessi" unicode="&#x131;" horiz-adv-x="634" 
d="M526 1024v-1024h-415v1024h415z" />
    <glyph glyph-name="IJ" unicode="&#x132;" horiz-adv-x="1959" 
d="M569 1434v-1434h-446v1434h446zM1839 1434v-840q0 -174 -38 -294t-115.5 -190t-182.5 -100t-252 -30q-200 0 -327 58.5t-191 190.5l359 230q38 -72 137 -72q82 0 123 49.5t41 157.5v840h446z" />
    <glyph glyph-name="ij" unicode="&#x133;" horiz-adv-x="1253" 
d="M535 1272q0 -75 -63.5 -127.5t-154.5 -52.5q-90 0 -152.5 52.5t-62.5 127.5t63.5 128.5t151.5 53.5q91 0 154.5 -53.5t63.5 -128.5zM526 1024v-1024h-415v1024h415zM1161 1272q0 -75 -62.5 -127.5t-152.5 -52.5t-152.5 52.5t-62.5 127.5t63.5 128.5t151.5 53.5
t151.5 -53.5t63.5 -128.5zM1155 1024v-1092q0 -176 -99.5 -264t-267.5 -88q-120 0 -235 41l39 225q18 -6 35 -6q48 0 79 33t31 86v1065h418z" />
    <glyph glyph-name="Jcircumflex" unicode="&#x134;" horiz-adv-x="1267" 
d="M1147 1434v-840q0 -174 -38 -294t-115.5 -190t-182.5 -100t-252 -30q-200 0 -327 58.5t-191 190.5l358 230q38 -72 138 -72q81 0 122 49.5t41 157.5v840h447zM1139 1901l252 -365h-342l-127 152l-125 -152h-344l252 365h434z" />
    <glyph glyph-name="jcircumflex" unicode="&#x135;" horiz-adv-x="618" 
d="M520 1024v-1092q0 -176 -99 -264t-267 -88q-121 0 -236 41l39 225q18 -6 35 -6q48 0 79 33t31 86v1065h418zM524 1491l252 -365h-342l-127 152l-125 -152h-344l252 365h434z" />
    <glyph glyph-name="uni0136" unicode="&#x136;" horiz-adv-x="1585" 
d="M973 0l-232 471l-172 -209v-262h-446v1434h446v-514l369 514h596l-500 -607l510 -827h-571zM1001 -231q0 -41 -26 -74l-225 -277l-101 43l78 172q-47 19 -75.5 56t-28.5 80q0 63 55 106t133 43q79 0 134.5 -43t55.5 -106z" />
    <glyph glyph-name="uni0137" unicode="&#x137;" horiz-adv-x="1290" 
d="M1270 0h-432l-187 324l-133 -156v-168h-416v1434h416v-760l260 350h471l-336 -393zM854 -231q0 -39 -27 -74l-225 -277l-100 43l78 172q-47 19 -76 56t-29 80q0 63 55.5 106t133.5 43q79 0 134.5 -43t55.5 -106z" />
    <glyph glyph-name="Lacute" unicode="&#x139;" horiz-adv-x="1282" 
d="M569 1434v-1035h672v-399h-1118v1434h446zM819 1901l-323 -365h-357l252 365h428z" />
    <glyph glyph-name="lacute" unicode="&#x13a;" horiz-adv-x="620" 
d="M518 1434v-1434h-416v1434h416zM770 1901l-324 -365h-356l252 365h428z" />
    <glyph glyph-name="uni013B" unicode="&#x13b;" horiz-adv-x="1282" 
d="M569 1434v-1035h672v-399h-1118v1434h446zM881 -231q0 -39 -27 -74l-225 -277l-101 43l78 172q-47 19 -75.5 56t-28.5 80q0 63 55 106t133 43q79 0 135 -43t56 -106z" />
    <glyph glyph-name="uni013C" unicode="&#x13c;" horiz-adv-x="620" 
d="M518 1434v-1434h-416v1434h416zM514 -231q0 -39 -27 -74l-225 -277l-100 43l78 172q-47 19 -76 56t-29 80q0 63 55.5 106t133.5 43q79 0 134.5 -43t55.5 -106z" />
    <glyph glyph-name="Lcaron" unicode="&#x13d;" horiz-adv-x="1282" 
d="M569 1434v-1035h672v-399h-1118v1434h446zM1241 1282q0 -48 -29 -92l-288 -420l-117 53l119 293q-56 24 -88.5 67.5t-32.5 98.5q0 76 63.5 131t153.5 55q91 0 155 -54t64 -132z" />
    <glyph glyph-name="lcaron" unicode="&#x13e;" horiz-adv-x="1060" 
d="M518 1434v-1434h-416v1434h416zM1061 1282q0 -48 -29 -92l-289 -420l-116 53l118 293q-56 23 -88 67t-32 99q0 76 63.5 131t153.5 55q91 0 155 -54t64 -132z" />
    <glyph glyph-name="Ldot" unicode="&#x13f;" horiz-adv-x="1282" 
d="M569 1434v-1035h672v-399h-1118v1434h446zM1196 772q0 -78 -64 -132t-155 -54t-154 54t-63 132q0 76 63.5 131t153.5 55q91 0 155 -54t64 -132z" />
    <glyph glyph-name="ldot" unicode="&#x140;" horiz-adv-x="1085" 
d="M518 1434v-1434h-416v1434h416zM1063 772q0 -78 -64 -132t-155 -54t-154 54t-63 132q0 76 63.5 131t153.5 55q91 0 155 -54t64 -132z" />
    <glyph glyph-name="Lslash" unicode="&#x141;" horiz-adv-x="1282" 
d="M569 399h672v-399h-1118v489l-92 -40v407l92 41v537h446v-340l193 86v-406l-193 -86v-289z" />
    <glyph glyph-name="lslash" unicode="&#x142;" horiz-adv-x="620" 
d="M633 1087v-405l-115 -55v-627h-416v422l-114 -55v407l114 55v605h416v-402z" />
    <glyph glyph-name="Nacute" unicode="&#x143;" horiz-adv-x="1628" 
d="M1069 1434h436v-1434h-456l-488 698v-698h-438v1434h459l487 -699v699zM1313 1901l-324 -365h-356l252 365h428z" />
    <glyph glyph-name="nacute" unicode="&#x144;" horiz-adv-x="1302" 
d="M1221 719v-719h-416v592q0 56 -31 86.5t-88 30.5q-83 0 -168 -60v-649h-416v1024h416v-100q80 57 174.5 88.5t186.5 31.5q156 0 249 -87t93 -238zM1114 1491l-323 -365h-357l252 365h428z" />
    <glyph glyph-name="uni0145" unicode="&#x145;" horiz-adv-x="1628" 
d="M1069 1434h436v-1434h-456l-488 698v-698h-438v1434h459l487 -699v699zM1061 -231q0 -39 -27 -74l-225 -277l-100 43l77 172q-47 19 -75.5 56t-28.5 80q0 63 55 106t133 43q79 0 135 -43t56 -106z" />
    <glyph glyph-name="uni0146" unicode="&#x146;" horiz-adv-x="1302" 
d="M1221 719v-719h-416v592q0 56 -31 86.5t-88 30.5q-83 0 -168 -60v-649h-416v1024h416v-100q80 57 174.5 88.5t186.5 31.5q156 0 249 -87t93 -238zM862 -231q0 -41 -26 -74l-226 -277l-100 43l78 172q-47 19 -76 56t-29 80q0 63 55.5 106t133.5 43q79 0 134.5 -43
t55.5 -106z" />
    <glyph glyph-name="Ncaron" unicode="&#x147;" horiz-adv-x="1628" 
d="M1069 1434h436v-1434h-456l-488 698v-698h-438v1434h459l487 -699v699zM1329 1901l-252 -365h-434l-252 365h344l125 -152l127 152h342z" />
    <glyph glyph-name="ncaron" unicode="&#x148;" horiz-adv-x="1302" 
d="M1221 719v-719h-416v592q0 56 -31 86.5t-88 30.5q-83 0 -168 -60v-649h-416v1024h416v-100q80 57 174.5 88.5t186.5 31.5q156 0 249 -87t93 -238zM1130 1491l-251 -365h-435l-251 365h344l125 -152l126 152h342z" />
    <glyph glyph-name="Eng" unicode="&#x14a;" horiz-adv-x="1628" 
d="M1067 1434h438v-1340q0 -171 -36.5 -288.5t-112 -186t-178.5 -98t-248 -29.5q-195 0 -321.5 58t-188.5 186l350 227q41 -72 135 -72q120 0 150 101l-494 706v-698h-438v1434h459l485 -697v697z" />
    <glyph glyph-name="eng" unicode="&#x14b;" horiz-adv-x="1302" 
d="M1221 719v-787q0 -176 -99.5 -264t-265.5 -88q-120 0 -235 41l38 225q18 -6 35 -6q48 0 79.5 33t31.5 86v633q0 55 -29.5 86t-79.5 31q-100 0 -178 -60v-649h-416v1024h416v-100q78 57 169.5 88.5t178.5 31.5q160 0 257.5 -84t97.5 -241z" />
    <glyph glyph-name="Omacron" unicode="&#x14c;" horiz-adv-x="1726" 
d="M1634 717q3 -146 -59 -283.5t-166.5 -237.5t-248 -159.5t-296.5 -56.5q-152 -3 -296 56.5t-249 159.5t-167.5 237.5t-59.5 283.5q-3 146 59.5 283.5t167.5 237.5t249 159.5t296 56.5q153 3 296.5 -56.5t248 -159.5t166.5 -237.5t59 -283.5zM557 717q0 -135 86 -227.5
t221 -92.5q133 0 220 93t87 227t-87 226.5t-220 92.5q-135 0 -221 -92t-86 -227zM1235 1864v-256h-739v256h739z" />
    <glyph glyph-name="omacron" unicode="&#x14d;" horiz-adv-x="1302" 
d="M1241 512q3 -148 -75.5 -271.5t-215 -193.5t-299.5 -67q-163 -3 -299.5 67t-215 193.5t-75.5 271.5q-3 148 75.5 271.5t215 193.5t299.5 67q163 3 299.5 -67t215 -193.5t75.5 -271.5zM471 512q0 -81 49 -130.5t129 -49.5q82 0 131 49t49 131t-49 131t-131 49
q-80 0 -129 -49.5t-49 -130.5zM1022 1454v-256h-739v256h739z" />
    <glyph glyph-name="Ohungarumlaut" unicode="&#x150;" horiz-adv-x="1726" 
d="M1634 717q3 -146 -59 -283.5t-166.5 -237.5t-248 -159.5t-296.5 -56.5q-152 -3 -296 56.5t-249 159.5t-167.5 237.5t-59.5 283.5q-3 146 59.5 283.5t167.5 237.5t249 159.5t296 56.5q153 3 296.5 -56.5t248 -159.5t166.5 -237.5t59 -283.5zM557 717q0 -135 86 -227.5
t221 -92.5q133 0 220 93t87 227t-87 226.5t-220 92.5q-135 0 -221 -92t-86 -227zM1139 1901l-324 -365h-356l252 365h428zM1679 1901l-323 -365h-357l254 365h426z" />
    <glyph glyph-name="ohungarumlaut" unicode="&#x151;" horiz-adv-x="1302" 
d="M1241 512q3 -148 -75.5 -271.5t-215 -193.5t-299.5 -67q-163 -3 -299.5 67t-215 193.5t-75.5 271.5q-3 148 75.5 271.5t215 193.5t299.5 67q163 3 299.5 -67t215 -193.5t75.5 -271.5zM471 512q0 -81 49 -130.5t129 -49.5q82 0 131 49t49 131t-49 131t-131 49
q-80 0 -129 -49.5t-49 -130.5zM926 1491l-324 -365h-356l252 365h428zM1466 1491l-323 -365h-357l254 365h426z" />
    <glyph glyph-name="OE" unicode="&#x152;" horiz-adv-x="2408" 
d="M1620 395h727v-395h-1171v51q-139 -71 -312 -71q-152 -3 -296 56.5t-249 159.5t-167.5 237.5t-59.5 283.5q-3 146 59.5 283.5t167.5 237.5t249 159.5t296 56.5q171 0 312 -72v52h1161v-396h-717v-127h666v-370h-666v-146zM1171 717q0 134 -87 226.5t-220 92.5
q-135 0 -222 -92.5t-87 -226.5t87.5 -227t221.5 -93q133 0 220 93t87 227z" />
    <glyph glyph-name="oe" unicode="&#x153;" horiz-adv-x="1998" 
d="M1946 512v-98h-699q27 -135 189 -135q56 0 111 18.5t91 50.5l224 -192q-91 -85 -210.5 -130.5t-252.5 -45.5q-222 0 -371 122q-159 -122 -377 -122q-156 -3 -294 69.5t-219 197t-77 265.5q-4 141 77 265.5t219 197t294 69.5q211 0 375 -120q152 120 363 120
q251 0 404 -151.5t153 -380.5zM1245 606h295q0 64 -39 105t-104 41q-128 0 -152 -146zM827 512q0 75 -52 127.5t-126 52.5t-127 -52.5t-53 -127.5t53 -127.5t127 -52.5t126 52.5t52 127.5z" />
    <glyph glyph-name="Racute" unicode="&#x154;" horiz-adv-x="1521" 
d="M1483 0h-512l-252 410h-150v-410h-446v1434h653q356 0 514 -118t158 -384q0 -177 -66.5 -289.5t-203.5 -169.5zM569 1053v-281h230q100 0 143 32t43 107t-43.5 108.5t-142.5 33.5h-230zM1225 1901l-324 -365h-356l252 365h428z" />
    <glyph glyph-name="racute" unicode="&#x155;" horiz-adv-x="858" 
d="M840 1044v-335q-88 0 -171.5 -45t-150.5 -129v-535h-416v1024h416v-186q68 97 154 151.5t168 54.5zM909 1491l-323 -365h-357l252 365h428z" />
    <glyph glyph-name="uni0156" unicode="&#x156;" horiz-adv-x="1521" 
d="M1483 0h-512l-252 410h-150v-410h-446v1434h653q356 0 514 -118t158 -384q0 -177 -66.5 -289.5t-203.5 -169.5zM569 1053v-281h230q100 0 143 32t43 107t-43.5 108.5t-142.5 33.5h-230zM981 -231q0 -39 -27 -74l-225 -277l-100 43l78 172q-47 19 -76 56t-29 80
q0 63 55.5 106t133.5 43q79 0 134.5 -43t55.5 -106z" />
    <glyph glyph-name="uni0157" unicode="&#x157;" horiz-adv-x="858" 
d="M840 1044v-335q-88 0 -171.5 -45t-150.5 -129v-535h-416v1024h416v-186q68 97 154 151.5t168 54.5zM508 -231q0 -39 -27 -74l-225 -277l-100 43l77 172q-47 19 -75.5 56t-28.5 80q0 63 55 106t133 43q79 0 135 -43t56 -106z" />
    <glyph glyph-name="Rcaron" unicode="&#x158;" horiz-adv-x="1521" 
d="M1483 0h-512l-252 410h-150v-410h-446v1434h653q356 0 514 -118t158 -384q0 -177 -66.5 -289.5t-203.5 -169.5zM569 1053v-281h230q100 0 143 32t43 107t-43.5 108.5t-142.5 33.5h-230zM1241 1901l-252 -365h-434l-252 365h344l125 -152l127 152h342z" />
    <glyph glyph-name="rcaron" unicode="&#x159;" horiz-adv-x="858" 
d="M840 1044v-335q-88 0 -171.5 -45t-150.5 -129v-535h-416v1024h416v-186q68 97 154 151.5t168 54.5zM926 1491l-252 -365h-434l-252 365h344l125 -152l127 152h342z" />
    <glyph glyph-name="Sacute" unicode="&#x15a;" horiz-adv-x="1454" 
d="M1368 1292l-186 -344q-129 61 -254 94q-130 37 -219 37q-103 0 -103 -57q0 -17 25.5 -29.5t116.5 -38.5l118 -32q184 -51 287 -101q242 -112 242 -366q0 -226 -165.5 -350.5t-467.5 -124.5q-390 0 -701 204l199 332q134 -74 279 -115t262 -41q65 0 94 15.5t29 52.5
q0 16 -9 25.5t-43.5 22t-109.5 30.5l-131 33q-159 38 -275 88q-233 104 -233 356q0 230 172 350q174 121 453 121q168 0 329.5 -42t290.5 -120zM1192 1901l-324 -365h-356l252 365h428z" />
    <glyph glyph-name="sacute" unicode="&#x15b;" horiz-adv-x="1064" 
d="M985 928l-135 -252q-75 41 -162 67.5t-147 26.5q-68 0 -68 -39q0 -14 16 -23t68 -22l90 -22q189 -50 273 -129t84 -209q0 -166 -119 -256t-336 -90q-283 0 -508 147l143 240q190 -113 375 -113q59 0 59 41q0 17 -12.5 25t-56.5 20l-123 33q-185 51 -262.5 124t-77.5 197
q0 166 118.5 258t332.5 92q246 0 448 -116zM983 1491l-324 -365h-356l252 365h428z" />
    <glyph glyph-name="Scircumflex" unicode="&#x15c;" horiz-adv-x="1454" 
d="M1368 1292l-186 -344q-129 61 -254 94q-130 37 -219 37q-103 0 -103 -57q0 -17 25.5 -29.5t116.5 -38.5l118 -32q184 -51 287 -101q242 -112 242 -366q0 -226 -165.5 -350.5t-467.5 -124.5q-390 0 -701 204l199 332q134 -74 279 -115t262 -41q65 0 94 15.5t29 52.5
q0 16 -9 25.5t-43.5 22t-109.5 30.5l-131 33q-159 38 -275 88q-233 104 -233 356q0 230 172 350q174 121 453 121q168 0 329.5 -42t290.5 -120zM956 1901l252 -365h-342l-127 152l-125 -152h-344l252 365h434z" />
    <glyph glyph-name="scircumflex" unicode="&#x15d;" horiz-adv-x="1064" 
d="M985 928l-135 -252q-75 41 -162 67.5t-147 26.5q-68 0 -68 -39q0 -14 16 -23t68 -22l90 -22q189 -50 273 -129t84 -209q0 -166 -119 -256t-336 -90q-283 0 -508 147l143 240q190 -113 375 -113q59 0 59 41q0 17 -12.5 25t-56.5 20l-123 33q-185 51 -262.5 124t-77.5 197
q0 166 118.5 258t332.5 92q246 0 448 -116zM748 1491l251 -365h-342l-127 152l-124 -152h-345l252 365h435z" />
    <glyph glyph-name="Scedilla" unicode="&#x15e;" horiz-adv-x="1454" 
d="M846 -18l-31 -64q92 -4 148.5 -58t56.5 -136q0 -100 -73 -153.5t-193 -53.5q-123 0 -234 57l51 135q49 -24 119 -24q46 0 71 20.5t25 52.5q0 28 -17 44t-44 16q-19 0 -41 -11l-61 70l53 105q-346 21 -615 202l199 332q134 -74 279 -115t262 -41q65 0 94 15.5t29 52.5
q0 16 -9 25.5t-43.5 22t-109.5 30.5l-131 33q-159 38 -275 88q-233 104 -233 356q0 230 172 350q174 121 453 121q168 0 329.5 -42t290.5 -120l-186 -344q-129 61 -254 94q-130 37 -219 37q-103 0 -103 -57q0 -17 25.5 -29.5t116.5 -38.5l118 -32q184 -51 287 -101
q242 -112 242 -366q0 -209 -142.5 -331.5t-406.5 -141.5z" />
    <glyph glyph-name="scedilla" unicode="&#x15f;" horiz-adv-x="1064" 
d="M614 -18l-30 -64q92 -4 148 -58t56 -136q0 -100 -73 -153.5t-193 -53.5q-122 0 -233 57l51 135q50 -24 119 -24q46 0 71 20.5t25 52.5q0 28 -17 44t-44 16q-19 0 -41 -11l-62 70l55 109q-223 21 -405 141l143 240q190 -113 375 -113q59 0 59 41q0 17 -12.5 25t-56.5 20
l-123 33q-185 51 -262.5 124t-77.5 197q0 166 118.5 258t332.5 92q246 0 448 -116l-135 -252q-75 41 -162 67.5t-147 26.5q-68 0 -68 -39q0 -14 16 -23t68 -22l90 -22q189 -50 273 -129t84 -209q0 -152 -101.5 -241t-288.5 -103z" />
    <glyph glyph-name="Scaron" unicode="&#x160;" horiz-adv-x="1454" 
d="M1368 1292l-186 -344q-129 61 -254 94q-130 37 -219 37q-103 0 -103 -57q0 -17 25.5 -29.5t116.5 -38.5l118 -32q184 -51 287 -101q242 -112 242 -366q0 -226 -165.5 -350.5t-467.5 -124.5q-390 0 -701 204l199 332q134 -74 279 -115t262 -41q65 0 94 15.5t29 52.5
q0 16 -9 25.5t-43.5 22t-109.5 30.5l-131 33q-159 38 -275 88q-233 104 -233 356q0 230 172 350q174 121 453 121q168 0 329.5 -42t290.5 -120zM1208 1901l-252 -365h-434l-252 365h344l125 -152l127 152h342z" />
    <glyph glyph-name="scaron" unicode="&#x161;" horiz-adv-x="1064" 
d="M985 928l-135 -252q-75 41 -162 67.5t-147 26.5q-68 0 -68 -39q0 -14 16 -23t68 -22l90 -22q189 -50 273 -129t84 -209q0 -166 -119 -256t-336 -90q-283 0 -508 147l143 240q190 -113 375 -113q59 0 59 41q0 17 -12.5 25t-56.5 20l-123 33q-185 51 -262.5 124t-77.5 197
q0 166 118.5 258t332.5 92q246 0 448 -116zM999 1491l-251 -365h-435l-252 365h345l124 -152l127 152h342z" />
    <glyph glyph-name="Tcaron" unicode="&#x164;" horiz-adv-x="1316" 
d="M1278 1434v-379h-395v-1055h-447v1055h-395v379h1237zM1112 1901l-252 -365h-434l-252 365h344l125 -152l127 152h342z" />
    <glyph glyph-name="tcaron" unicode="&#x165;" horiz-adv-x="1171" 
d="M1151 1393q0 -39 -27 -74l-225 -277l-100 43l78 172q-47 19 -76 56t-29 80q0 63 55.5 106t133.5 43q79 0 134.5 -43t55.5 -106zM817 354l51 -280q-172 -94 -348 -94q-161 0 -259.5 92.5t-98.5 265.5v371h-121v315h121v256h416v-256h231v-315h-231v-299q0 -46 28.5 -70.5
t77.5 -24.5q68 0 133 39z" />
    <glyph glyph-name="Tbar" unicode="&#x166;" horiz-adv-x="1316" 
d="M1278 1055h-395v-275h192v-276h-192v-504h-447v504h-192v276h192v275h-395v379h1237v-379z" />
    <glyph glyph-name="tbar" unicode="&#x167;" horiz-adv-x="917" 
d="M817 354l51 -280q-172 -94 -348 -94q-161 0 -259.5 92.5t-98.5 265.5v61h-107v256h107v54h-121v315h121v256h416v-256h231v-315h-231v-54h217v-256h-217q1 -41 30.5 -62.5t75.5 -21.5q68 0 133 39z" />
    <glyph glyph-name="Utilde" unicode="&#x168;" horiz-adv-x="1579" 
d="M1456 1434v-768q0 -340 -167.5 -513t-497.5 -173t-499 174t-169 512v768h446v-768q0 -141 55 -210t167 -69t166.5 69t54.5 210v768h444zM614 1901q57 0 158 -37q119 -45 168 -45q32 0 48.5 15.5t27.5 51.5l176 -22q0 -147 -54 -235.5t-169 -88.5q-61 0 -189 47
q-96 35 -137 35q-31 0 -48 -16t-28 -52l-176 23q0 147 54 235.5t169 88.5z" />
    <glyph glyph-name="utilde" unicode="&#x169;" horiz-adv-x="1302" 
d="M784 1024h416v-1024h-416v100q-80 -57 -174 -88.5t-186 -31.5q-156 0 -249 87t-93 238v719h416v-592q0 -56 30.5 -86.5t87.5 -30.5q83 0 168 60v649zM471 1491q57 0 158 -37q119 -45 168 -45q31 0 47.5 15.5t27.5 52.5l177 -23q0 -147 -54.5 -235.5t-169.5 -88.5
q-58 0 -188 48q-93 34 -137 34q-32 0 -48.5 -15.5t-27.5 -51.5l-176 22q0 147 54 235.5t169 88.5z" />
    <glyph glyph-name="Umacron" unicode="&#x16a;" horiz-adv-x="1579" 
d="M1456 1434v-768q0 -340 -167.5 -513t-497.5 -173t-499 174t-169 512v768h446v-768q0 -141 55 -210t167 -69t166.5 69t54.5 210v768h444zM1161 1864v-256h-739v256h739z" />
    <glyph glyph-name="umacron" unicode="&#x16b;" horiz-adv-x="1302" 
d="M784 1024h416v-1024h-416v100q-80 -57 -174 -88.5t-186 -31.5q-156 0 -249 87t-93 238v719h416v-592q0 -56 30.5 -86.5t87.5 -30.5q83 0 168 60v649zM1018 1454v-256h-739v256h739z" />
    <glyph glyph-name="Ubreve" unicode="&#x16c;" horiz-adv-x="1579" 
d="M1456 1434v-768q0 -340 -167.5 -513t-497.5 -173t-499 174t-169 512v768h446v-768q0 -141 55 -210t167 -69t166.5 69t54.5 210v768h444zM791 1556q-170 0 -290 103t-120 254h272q0 -50 39.5 -79.5t98.5 -29.5q61 0 100 29.5t39 79.5h272q0 -151 -120 -254t-291 -103z" />
    <glyph glyph-name="ubreve" unicode="&#x16d;" horiz-adv-x="1302" 
d="M784 1024h416v-1024h-416v100q-80 -57 -174 -88.5t-186 -31.5q-156 0 -249 87t-93 238v719h416v-592q0 -56 30.5 -86.5t87.5 -30.5q83 0 168 60v649zM647 1147q-170 0 -289.5 102.5t-119.5 253.5h272q0 -50 39 -79t98 -29q61 0 100 29t39 79h273q0 -151 -120 -253.5
t-292 -102.5z" />
    <glyph glyph-name="Uring" unicode="&#x16e;" horiz-adv-x="1579" 
d="M1456 1434v-768q0 -340 -167.5 -513t-497.5 -173t-499 174t-169 512v768h446v-768q0 -141 55 -210t167 -69t166.5 69t54.5 210v768h444zM1083 1792q0 -118 -85.5 -202.5t-206.5 -84.5t-207 85t-86 202t86 202t207 85t206.5 -84.5t85.5 -202.5zM692 1792q0 -39 29 -67.5
t70 -28.5t69.5 28.5t28.5 67.5t-28.5 67.5t-69.5 28.5t-70 -28.5t-29 -67.5z" />
    <glyph glyph-name="uring" unicode="&#x16f;" horiz-adv-x="1302" 
d="M784 1024h416v-1024h-416v100q-80 -57 -174 -88.5t-186 -31.5q-156 0 -249 87t-93 238v719h416v-592q0 -56 30.5 -86.5t87.5 -30.5q83 0 168 60v649zM940 1382q0 -117 -86 -201.5t-207 -84.5t-207 84.5t-86 201.5t86 202t207 85t207 -85t86 -202zM549 1382
q0 -39 28.5 -67.5t69.5 -28.5t69.5 28.5t28.5 67.5t-28.5 68t-69.5 29t-69.5 -29t-28.5 -68z" />
    <glyph glyph-name="Uhungarumlaut" unicode="&#x170;" horiz-adv-x="1579" 
d="M1456 1434v-768q0 -340 -167.5 -513t-497.5 -173t-499 174t-169 512v768h446v-768q0 -141 55 -210t167 -69t166.5 69t54.5 210v768h444zM1065 1901l-324 -365h-356l252 365h428zM1606 1901l-324 -365h-356l254 365h426z" />
    <glyph glyph-name="uhungarumlaut" unicode="&#x171;" horiz-adv-x="1302" 
d="M784 1024h416v-1024h-416v100q-80 -57 -174 -88.5t-186 -31.5q-156 0 -249 87t-93 238v719h416v-592q0 -56 30.5 -86.5t87.5 -30.5q83 0 168 60v649zM922 1491l-324 -365h-356l252 365h428zM1462 1491l-323 -365h-357l254 365h426z" />
    <glyph glyph-name="Uogonek" unicode="&#x172;" horiz-adv-x="1579" 
d="M1012 1434h444v-768q0 -313 -144 -485t-427 -197q-43 -73 -43 -107q0 -41 30.5 -62.5t79.5 -21.5q23 0 47 6l48 -186q-82 -33 -201 -33q-124 0 -192 48t-68 141q0 106 76 219q-266 32 -402.5 204t-136.5 474v768h446v-768q0 -141 55 -210t167 -69t166.5 69t54.5 210v768z
" />
    <glyph glyph-name="uogonek" unicode="&#x173;" horiz-adv-x="1302" 
d="M1204 -201l47 -186q-82 -33 -200 -33q-124 0 -192 48t-68 141q0 107 75 219l8 12h-90v100q-80 -57 -174 -88.5t-186 -31.5q-156 0 -249 87t-93 238v719h416v-592q0 -56 30.5 -86.5t87.5 -30.5q83 0 168 60v649h416v-1024h-100l-2 -4q-51 -86 -51 -119q0 -41 30.5 -62.5
t79.5 -21.5q23 0 47 6z" />
    <glyph glyph-name="Wcircumflex" unicode="&#x174;" horiz-adv-x="2367" 
d="M1829 1434h498l-465 -1434h-455l-223 741l-223 -741h-455l-465 1434h498l217 -752l213 752h432l211 -752zM1405 1901l252 -365h-342l-127 152l-125 -152h-344l252 365h434z" />
    <glyph glyph-name="wcircumflex" unicode="&#x175;" horiz-adv-x="1716" 
d="M1698 1024l-291 -1024h-444l-105 424l-102 -424h-447l-289 1024h414l119 -575l147 575h318l145 -575l119 575h416zM1073 1491l252 -365h-342l-127 152l-125 -152h-344l252 365h434z" />
    <glyph glyph-name="Ycircumflex" unicode="&#x176;" horiz-adv-x="1642" 
d="M1075 1434h527l-558 -949v-485h-446v479l-557 955h532l250 -478zM1038 1901l252 -365h-342l-127 152l-125 -152h-344l252 365h434z" />
    <glyph glyph-name="ycircumflex" unicode="&#x177;" horiz-adv-x="1280" 
d="M1262 1024l-416 -1114q-124 -330 -449 -330q-164 0 -377 82l115 270q121 -47 195 -47q97 0 149 76l6 8l-432 1055h439l176 -578l161 578h433zM885 1491l252 -365h-342l-127 152l-125 -152h-344l252 365h434z" />
    <glyph glyph-name="Ydieresis" unicode="&#x178;" horiz-adv-x="1642" 
d="M1075 1434h527l-558 -949v-485h-446v479l-557 955h532l250 -478zM760 1737q0 -73 -48 -121.5t-120 -48.5q-74 0 -122 48.5t-48 121.5q0 72 48.5 120t121.5 48q72 0 120 -48t48 -120zM1221 1737q0 -73 -49 -121.5t-121 -48.5t-120 48.5t-48 121.5q0 72 48 120t120 48
t121 -48t49 -120z" />
    <glyph glyph-name="Zacute" unicode="&#x179;" horiz-adv-x="1411" 
d="M1325 1434v-312l-623 -729h648v-393h-1289v317l596 723h-544v394h1212zM1157 1901l-323 -365h-357l252 365h428z" />
    <glyph glyph-name="zacute" unicode="&#x17a;" horiz-adv-x="1105" 
d="M1036 1024v-266l-407 -424h428v-334h-1006v266l406 424h-365v334h944zM1028 1491l-323 -365h-357l252 365h428z" />
    <glyph glyph-name="Zdotaccent" unicode="&#x17b;" horiz-adv-x="1411" 
d="M1325 1434v-312l-623 -729h648v-393h-1289v317l596 723h-544v394h1212zM872 1737q0 -73 -47.5 -121.5t-119.5 -48.5q-73 0 -121.5 48.5t-48.5 121.5q0 72 48.5 120t121.5 48q72 0 119.5 -48t47.5 -120z" />
    <glyph glyph-name="zdotaccent" unicode="&#x17c;" horiz-adv-x="1105" 
d="M1036 1024v-266l-407 -424h428v-334h-1006v266l406 424h-365v334h944zM743 1327q0 -73 -48 -121.5t-120 -48.5q-73 0 -121 48t-48 122q0 72 48 120t121 48q72 0 120 -48t48 -120z" />
    <glyph glyph-name="Zcaron" unicode="&#x17d;" horiz-adv-x="1411" 
d="M1325 1434v-312l-623 -729h648v-393h-1289v317l596 723h-544v394h1212zM1174 1901l-252 -365h-435l-251 365h344l125 -152l126 152h343z" />
    <glyph glyph-name="zcaron" unicode="&#x17e;" horiz-adv-x="1105" 
d="M1036 1024v-266l-407 -424h428v-334h-1006v266l406 424h-365v334h944zM1044 1491l-251 -365h-435l-252 365h345l124 -152l127 152h342z" />
    <glyph glyph-name="florin" unicode="&#x192;" horiz-adv-x="835" 
d="M858 1403l-51 -254q-74 27 -133 27q-96 0 -96 -89v-178h231v-313h-231v-576q0 -440 -537 -440v260q56 12 87.5 63.5t31.5 127.5v565h-119v313h119v191q0 183 102 268.5t283 85.5q145 0 313 -51z" />
    <glyph glyph-name="uni0218" unicode="&#x218;" horiz-adv-x="1454" 
d="M1368 1292l-186 -344q-129 61 -254 94q-130 37 -219 37q-103 0 -103 -57q0 -17 25.5 -29.5t116.5 -38.5l118 -32q184 -51 287 -101q242 -112 242 -366q0 -226 -165.5 -350.5t-467.5 -124.5q-390 0 -701 204l199 332q134 -74 279 -115t262 -41q65 0 94 15.5t29 52.5
q0 16 -9 25.5t-43.5 22t-109.5 30.5l-131 33q-159 38 -275 88q-233 104 -233 356q0 230 172 350q174 121 453 121q168 0 329.5 -42t290.5 -120zM975 -231q0 -39 -27 -74l-225 -277l-100 43l77 172q-47 19 -75.5 56t-28.5 80q0 63 55 106t133 43q79 0 135 -43t56 -106z" />
    <glyph glyph-name="uni0219" unicode="&#x219;" horiz-adv-x="1064" 
d="M985 928l-135 -252q-75 41 -162 67.5t-147 26.5q-68 0 -68 -39q0 -14 16 -23t68 -22l90 -22q189 -50 273 -129t84 -209q0 -166 -119 -256t-336 -90q-283 0 -508 147l143 240q190 -113 375 -113q59 0 59 41q0 17 -12.5 25t-56.5 20l-123 33q-185 51 -262.5 124t-77.5 197
q0 166 118.5 258t332.5 92q246 0 448 -116zM743 -231q0 -41 -26 -74l-225 -277l-101 43l78 172q-47 19 -75.5 56t-28.5 80q0 63 55 106t133 43q79 0 134.5 -43t55.5 -106z" />
    <glyph glyph-name="uni021A" unicode="&#x21a;" horiz-adv-x="1316" 
d="M1278 1434v-379h-395v-1055h-447v1055h-395v379h1237zM844 -231q0 -39 -27 -74l-225 -277l-100 43l77 172q-47 19 -75.5 56t-28.5 80q0 63 55 106t133 43q79 0 135 -43t56 -106z" />
    <glyph glyph-name="uni021B" unicode="&#x21b;" horiz-adv-x="917" 
d="M817 354l51 -280q-172 -94 -348 -94q-161 0 -259.5 92.5t-98.5 265.5v371h-121v315h121v256h416v-256h231v-315h-231v-299q0 -46 28.5 -70.5t77.5 -24.5q68 0 133 39zM698 -231q0 -41 -26 -74l-226 -277l-100 43l78 172q-47 19 -76 56t-29 80q0 63 55.5 106t133.5 43
q79 0 134.5 -43t55.5 -106z" />
    <glyph glyph-name="uni0237" unicode="&#x237;" horiz-adv-x="618" 
d="M520 1024v-1092q0 -176 -99 -264t-267 -88q-121 0 -236 41l39 225q18 -6 35 -6q48 0 79 33t31 86v1065h418z" />
    <glyph glyph-name="circumflex" unicode="&#x2c6;" horiz-adv-x="800" 
d="M618 1491l252 -365h-342l-127 152l-125 -152h-344l252 365h434z" />
    <glyph glyph-name="caron" unicode="&#x2c7;" horiz-adv-x="800" 
d="M870 1491l-252 -365h-434l-252 365h344l125 -152l127 152h342z" />
    <glyph glyph-name="breve" unicode="&#x2d8;" horiz-adv-x="800" 
d="M399 1147q-170 0 -289.5 102.5t-119.5 253.5h272q0 -50 39 -79t98 -29q61 0 100.5 29t39.5 79h272q0 -151 -120 -253.5t-292 -102.5z" />
    <glyph glyph-name="dotaccent" unicode="&#x2d9;" horiz-adv-x="800" 
d="M569 1327q0 -73 -48 -121.5t-120 -48.5q-73 0 -121.5 48.5t-48.5 121.5q0 72 48.5 120t121.5 48q72 0 120 -48t48 -120z" />
    <glyph glyph-name="ring" unicode="&#x2da;" horiz-adv-x="800" 
d="M694 1382q0 -117 -86 -201.5t-207 -84.5t-206.5 84.5t-85.5 201.5q0 118 85.5 202.5t206.5 84.5t207 -85t86 -202zM303 1382q0 -39 28.5 -67.5t69.5 -28.5t70 28.5t29 67.5t-29 68t-70 29t-69.5 -29t-28.5 -68z" />
    <glyph glyph-name="ogonek" unicode="&#x2db;" horiz-adv-x="800" 
d="M260 6h225l-6 -10q-51 -86 -51 -119q0 -41 30.5 -62.5t80.5 -21.5q23 0 47 6l47 -186q-82 -33 -201 -33q-124 0 -192 48t-68 141q0 106 76 219z" />
    <glyph glyph-name="tilde" unicode="&#x2dc;" horiz-adv-x="800" 
d="M223 1491q57 0 158 -37q119 -45 168 -45q31 0 48 16t28 52l176 -23q0 -147 -54 -235.5t-169 -88.5q-59 0 -189 48q-93 34 -137 34q-32 0 -48.5 -15.5t-27.5 -51.5l-176 22q0 147 54 235.5t169 88.5z" />
    <glyph glyph-name="hungarumlaut" unicode="&#x2dd;" horiz-adv-x="800" 
d="M676 1491l-324 -365h-356l252 365h428zM1217 1491l-324 -365h-356l254 365h426z" />
    <glyph glyph-name="gravecomb" unicode="&#x300;" 
d="M-25 1491l252 -365h-356l-324 365h428z" />
    <glyph glyph-name="acutecomb" unicode="&#x301;" 
d="M453 1491l-324 -365h-356l252 365h428z" />
    <glyph glyph-name="uni0302" unicode="&#x302;" 
d="M217 1491l252 -365h-342l-127 152l-125 -152h-344l252 365h434z" />
    <glyph glyph-name="tildecomb" unicode="&#x303;" 
d="M-176 1491q57 0 158 -37q119 -45 168 -45q31 0 47.5 15.5t27.5 52.5l176 -23q0 -147 -54 -235.5t-169 -88.5q-58 0 -188 48q-93 34 -137 34q-32 0 -48.5 -15.5t-27.5 -51.5l-176 22q0 147 54 235.5t169 88.5z" />
    <glyph glyph-name="uni0304" unicode="&#x304;" 
d="M371 1454v-256h-740v256h740z" />
    <glyph glyph-name="uni0306" unicode="&#x306;" 
d="M0 1147q-170 0 -290 102.5t-120 253.5h273q0 -50 39 -79t98 -29q61 0 100 29t39 79h273q0 -151 -120 -253.5t-292 -102.5z" />
    <glyph glyph-name="uni0307" unicode="&#x307;" 
d="M168 1327q0 -73 -48 -121.5t-120 -48.5q-74 0 -122 48.5t-48 121.5q0 72 48.5 120t121.5 48q72 0 120 -48t48 -120z" />
    <glyph glyph-name="uni0308" unicode="&#x308;" 
d="M-61 1327q0 -73 -48 -121.5t-120 -48.5q-73 0 -121.5 48.5t-48.5 121.5q0 72 48.5 120t121.5 48q72 0 120 -48t48 -120zM399 1327q0 -73 -49 -121.5t-121 -48.5t-120 48.5t-48 121.5q0 72 48 120t120 48t121 -48t49 -120z" />
    <glyph glyph-name="uni030A" unicode="&#x30a;" 
d="M293 1382q0 -117 -86 -201.5t-207 -84.5t-207 84.5t-86 201.5t86 202t207 85t207 -85t86 -202zM-98 1382q0 -39 28.5 -67.5t69.5 -28.5t69.5 28.5t28.5 67.5t-28.5 68t-69.5 29t-69.5 -29t-28.5 -68z" />
    <glyph glyph-name="uni030B" unicode="&#x30b;" 
d="M274 1491l-323 -365h-357l252 365h428zM815 1491l-323 -365h-357l254 365h426z" />
    <glyph glyph-name="uni030C" unicode="&#x30c;" 
d="M469 1491l-252 -365h-434l-252 365h344l125 -152l127 152h342z" />
    <glyph glyph-name="uni0312" unicode="&#x312;" 
d="M-178 1290q0 41 26 74l226 276l100 -43l-78 -172q47 -19 76 -55.5t29 -79.5q0 -63 -55.5 -106t-133.5 -43q-79 0 -134.5 43t-55.5 106z" />
    <glyph glyph-name="uni0326" unicode="&#x326;" 
d="M201 -231q0 -39 -27 -74l-225 -277l-101 43l78 172q-47 19 -75.5 56t-28.5 80q0 63 55 106t133 43q79 0 135 -43t56 -106z" />
    <glyph glyph-name="uni0327" unicode="&#x327;" 
d="M246 -276q0 -100 -73 -153.5t-193 -53.5q-123 0 -234 57l51 135q49 -24 119 -24q46 0 71 20.5t25 52.5q0 28 -17 44t-44 16q-19 0 -41 -11l-62 70l66 129h170l-43 -88q92 -4 148.5 -58t56.5 -136z" />
    <glyph glyph-name="uni0328" unicode="&#x328;" 
d="M-141 6h225l-6 -10q-51 -86 -51 -119q0 -41 30.5 -62.5t79.5 -21.5q23 0 47 6l47 -186q-82 -33 -200 -33q-124 0 -192 48t-68 141q0 107 75 219z" />
    <glyph glyph-name="pi" unicode="&#x3c0;" horiz-adv-x="1619" 
d="M1571 690h-228v-284q0 -55 25 -84t68 -29q25 0 43 6l37 -272q-112 -50 -224 -50q-168 0 -267 94t-99 287v332h-262v-690h-416v690h-207v334h1530v-334z" />
    <glyph glyph-name="uni058F" unicode="&#x58f;" horiz-adv-x="1228" 
d="M1223 528h-95v-77h95v-293h-95v-158h-444v158h-246v293h246v77h-246v293h246v148q0 57 -27.5 83.5t-87.5 26.5t-87 -26.5t-27 -83.5v-72h-445v102q0 220 144.5 337.5t414.5 117.5t414.5 -117.5t144.5 -337.5v-178h95v-293z" />
    <glyph glyph-name="uni060C" unicode="&#x60c;" horiz-adv-x="798" 
d="M205 174q0 50 35 115l209 383h139l-78 -338q39 -27 61.5 -69t22.5 -91q0 -81 -57.5 -137.5t-137.5 -56.5q-82 0 -138 56t-56 138z" />
    <glyph glyph-name="uni0615" unicode="&#x615;" 
d="M279 1303v-238h-607v184h37v365h170v-178q107 82 209 82q90 0 140.5 -58t50.5 -157zM-121 1249h221v31q0 76 -63 76q-66 0 -158 -86v-21z" />
    <glyph glyph-name="uni061B" unicode="&#x61b;" horiz-adv-x="716" 
d="M164 748q0 49 35 114l209 383h139l-78 -338q84 -58 84 -159q0 -81 -57.5 -138t-137.5 -57q-82 0 -138 56.5t-56 138.5zM164 174q0 82 56 138.5t138 56.5q80 0 137.5 -57t57.5 -138t-57.5 -137.5t-137.5 -56.5q-82 0 -138 56t-56 138z" />
    <glyph glyph-name="uni061F" unicode="&#x61f;" horiz-adv-x="1306" 
d="M1204 1020l-403 -41q-6 45 -39.5 70.5t-87.5 25.5t-86.5 -24.5t-32.5 -67.5q0 -24 12 -42t41 -46q55 -48 82.5 -74.5t57 -60.5t42 -62.5t21 -66t10.5 -86.5v-86h-379v20q0 42 -21.5 72t-82.5 80q-126 103 -181 187t-55 196q0 206 144 323t385 117q234 0 387.5 -115.5
t185.5 -318.5zM438 174q0 82 56.5 138.5t138.5 56.5q80 0 137 -57t57 -138t-57 -137.5t-137 -56.5q-82 0 -138.5 56t-56.5 138z" />
    <glyph glyph-name="uni0621" unicode="&#x621;" horiz-adv-x="1126" 
d="M745 420h259v-420h-881v420h186q-73 85 -73 209q0 156 106.5 261t282.5 105q109 0 203.5 -39.5t162.5 -109.5l-233 -217q-43 43 -105 43q-54 0 -83 -30.5t-29 -84.5q0 -137 204 -137z" />
    <glyph glyph-name="uni0622" unicode="&#x622;" horiz-adv-x="634" 
d="M123 0v1495h389v-1495h-389zM512 1851l106 -20q0 -115 -43 -168t-151 -49l-201 8q-50 1 -74 -8.5t-38 -36.5l-107 20q0 116 44.5 170t160.5 48l190 -9q49 -1 72 8.5t41 36.5z" />
    <glyph glyph-name="uni0623" unicode="&#x623;" horiz-adv-x="634" 
d="M123 0v1495h389v-1495h-389zM410 1823h137v-205h-461v205h98q-43 46 -43 116q0 81 56 136t145 55q55 0 106.5 -23.5t83.5 -60.5l-114 -115q-30 23 -58 23q-26 0 -42.5 -17t-16.5 -43q0 -33 28 -52t81 -19z" />
    <glyph glyph-name="uni0624" unicode="&#x624;" horiz-adv-x="1259" 
d="M1137 940v-842q0 -342 -174 -491q-175 -150 -471 -150q-195 0 -388 54l72 374q180 -49 328 -49q133 0 187.5 40.5t56.5 123.5h-37q-306 0 -467.5 141t-161.5 371q0 239 151 385.5t426 146.5q245 0 478 -104zM643 420h105v239q-57 23 -115 23q-75 0 -116.5 -33.5
t-41.5 -99.5q0 -62 43.5 -95.5t124.5 -33.5zM752 1372h137v-205h-461v205h98q-43 46 -43 117q0 81 56 135.5t145 54.5q55 0 106.5 -23.5t83.5 -60.5l-114 -114q-28 22 -58 22q-26 0 -42.5 -16.5t-16.5 -42.5q0 -33 28 -52.5t81 -19.5z" />
    <glyph glyph-name="uni0625" unicode="&#x625;" horiz-adv-x="634" 
d="M123 0v1495h389v-1495h-389zM412 -410h137v-204h-461v204h98q-43 46 -43 117q0 81 56 136t145 55q55 0 107 -23.5t84 -60.5l-115 -115q-28 22 -58 22q-26 0 -42.5 -16.5t-16.5 -42.5q0 -33 28 -52.5t81 -19.5z" />
    <glyph glyph-name="uni0626" unicode="&#x626;" horiz-adv-x="2314" 
d="M1477 442q0 -26 8 -47l207 -686q-150 -95 -373 -172q-219 -80 -453 -80q-341 0 -547 193.5t-206 519.5q0 154 45 324l354 -68q-23 -97 -23 -168q0 -188 106.5 -286.5t303.5 -98.5q75 0 174 12q88 10 164 35l-139 436q-31 102 -31 179q0 175 117 270q122 96 301 96h514
l233 -819l-364 -94l-154 524h-143q-94 0 -94 -70zM504 829h137v-204h-461v204h99q-43 46 -43 117q0 81 55.5 136t144.5 55q55 0 107 -23.5t84 -60.5l-115 -115q-30 23 -57 23q-26 0 -43 -17t-17 -43q0 -33 28 -52.5t81 -19.5z" />
    <glyph glyph-name="uni0627" unicode="&#x627;" horiz-adv-x="634" 
d="M123 0v1495h389v-1495h-389z" />
    <glyph glyph-name="uni0628" unicode="&#x628;" horiz-adv-x="2416" 
d="M113 539q0 186 71 393l357 -66q-41 -118 -41 -204q0 -123 66 -182.5t212 -59.5h852q201 0 275 47v602h389v-915q-115 -70 -310 -112t-425 -42h-797q-326 0 -487.5 128.5t-161.5 410.5zM1028 -297q0 82 56.5 138.5t138.5 56.5q80 0 137 -57t57 -138t-57 -138t-137 -57
q-82 0 -138.5 56.5t-56.5 138.5z" />
    <glyph glyph-name="uni0629" unicode="&#x629;" horiz-adv-x="1241" 
d="M82 512q0 150 70 272t193.5 191t275.5 69t275.5 -69t193 -191t69.5 -272t-69.5 -272t-193 -191t-275.5 -69q-229 0 -384 152t-155 380zM766 512q0 64 -40 105.5t-110 41.5q-64 0 -102.5 -42t-38.5 -105t38.5 -105t102.5 -42q70 0 110 41.5t40 105.5zM213 1341
q0 82 56.5 138.5t138.5 56.5q80 0 136 -56.5t56 -138.5q0 -81 -56 -137.5t-136 -56.5q-82 0 -138.5 56t-56.5 138zM641 1341q0 82 56.5 138.5t138.5 56.5q80 0 136 -56.5t56 -138.5q0 -81 -56 -137.5t-136 -56.5q-82 0 -138.5 56t-56.5 138z" />
    <glyph glyph-name="uni062A" unicode="&#x62a;" horiz-adv-x="2416" 
d="M113 539q0 186 71 393l357 -66q-41 -118 -41 -204q0 -123 66 -182.5t212 -59.5h852q201 0 275 47v602h389v-915q-115 -70 -310 -112t-425 -42h-797q-326 0 -487.5 128.5t-161.5 410.5zM774 1260q0 82 56.5 138t138.5 56q80 0 136 -56.5t56 -137.5q0 -82 -56 -138.5
t-136 -56.5q-82 0 -138.5 56.5t-56.5 138.5zM1202 1260q0 82 56.5 138t138.5 56q80 0 136 -56.5t56 -137.5q0 -82 -56 -138.5t-136 -56.5q-82 0 -138.5 56.5t-56.5 138.5z" />
    <glyph glyph-name="uni062B" unicode="&#x62b;" horiz-adv-x="2416" 
d="M113 539q0 186 71 393l357 -66q-41 -118 -41 -204q0 -123 66 -182.5t212 -59.5h852q201 0 275 47v602h389v-915q-115 -70 -310 -112t-425 -42h-797q-326 0 -487.5 128.5t-161.5 410.5zM1018 1552q0 69 47 116.5t115 47.5q66 0 112.5 -47.5t46.5 -116.5q0 -67 -46.5 -114
t-112.5 -47q-68 0 -115 47t-47 114zM831 1227q0 67 47.5 114.5t114.5 47.5t114.5 -47.5t47.5 -114.5t-47.5 -114.5t-114.5 -47.5t-114.5 47.5t-47.5 114.5zM1208 1227q0 68 47.5 115t116.5 47q66 0 113 -47.5t47 -114.5t-47 -114.5t-113 -47.5q-69 0 -116.5 47t-47.5 115z
" />
    <glyph glyph-name="uni062C" unicode="&#x62c;" horiz-adv-x="1525" 
d="M1454 358l-108 -358h-701q-77 0 -125.5 -35t-48.5 -96q0 -62 48.5 -97.5t125.5 -35.5h303v-420h-198q-344 0 -526.5 138t-182.5 396q0 272 167 416t490 144h238q-56 61 -94 178q-19 54 -28 77.5t-25 56.5t-29 45.5t-35 27.5t-48.5 20t-64.5 8q-112 0 -235 -75l-209 266
q216 174 487 174q213 0 333.5 -100.5t193.5 -331.5q40 -125 67 -191q73 -171 205 -207zM1073 -307q0 82 56.5 138t138.5 56q80 0 137 -56.5t57 -137.5t-57 -138t-137 -57q-82 0 -138.5 56.5t-56.5 138.5z" />
    <glyph glyph-name="uni062D" unicode="&#x62d;" horiz-adv-x="1525" 
d="M1454 358l-108 -358h-701q-77 0 -125.5 -35t-48.5 -96q0 -62 48.5 -97.5t125.5 -35.5h303v-420h-198q-344 0 -526.5 138t-182.5 396q0 272 167 416t490 144h238q-56 61 -94 178q-19 54 -28 77.5t-25 56.5t-29 45.5t-35 27.5t-48.5 20t-64.5 8q-112 0 -235 -75l-209 266
q216 174 487 174q213 0 333.5 -100.5t193.5 -331.5q40 -125 67 -191q73 -171 205 -207z" />
    <glyph glyph-name="uni062E" unicode="&#x62e;" horiz-adv-x="1525" 
d="M1454 358l-108 -358h-701q-77 0 -125.5 -35t-48.5 -96q0 -62 48.5 -97.5t125.5 -35.5h303v-420h-198q-344 0 -526.5 138t-182.5 396q0 272 167 416t490 144h238q-56 61 -94 178q-19 54 -28 77.5t-25 56.5t-29 45.5t-35 27.5t-48.5 20t-64.5 8q-112 0 -235 -75l-209 266
q216 174 487 174q213 0 333.5 -100.5t193.5 -331.5q40 -125 67 -191q73 -171 205 -207zM498 1485q0 82 57 138t139 56q80 0 136.5 -56.5t56.5 -137.5t-56.5 -138t-136.5 -57q-82 0 -139 56.5t-57 138.5z" />
    <glyph glyph-name="uni062F" unicode="&#x62f;" horiz-adv-x="1208" 
d="M1085 633v-633h-1003v420h614v192q0 64 -46 94.5t-128 30.5h-284v389h188q133 -2 228 -12t170 -33.5t122 -58.5t78 -91.5t44.5 -127.5t16.5 -170z" />
    <glyph glyph-name="uni0630" unicode="&#x630;" horiz-adv-x="1208" 
d="M1085 633v-633h-1003v420h614v192q0 64 -46 94.5t-128 30.5h-284v389h188q133 -2 228 -12t170 -33.5t122 -58.5t78 -91.5t44.5 -127.5t16.5 -170zM250 1454q0 82 57 138.5t139 56.5q80 0 136.5 -57t56.5 -138t-56.5 -137.5t-136.5 -56.5q-82 0 -139 56t-57 138z" />
    <glyph glyph-name="uni0631" unicode="&#x631;" horiz-adv-x="819" 
d="M-82 -530l76 397h69q137 0 190.5 52t53.5 173v932h389v-926q0 -339 -170 -489q-172 -152 -448 -152q-90 0 -160 13z" />
    <glyph glyph-name="uni0632" unicode="&#x632;" horiz-adv-x="819" 
d="M-82 -530l76 397h69q137 0 190.5 52t53.5 173v932h389v-926q0 -339 -170 -489q-172 -152 -448 -152q-90 0 -160 13zM305 1362q0 81 57.5 137.5t139.5 56.5q80 0 136 -56.5t56 -137.5q0 -82 -56 -138.5t-136 -56.5q-82 0 -139.5 56.5t-57.5 138.5z" />
    <glyph glyph-name="uni0633" unicode="&#x633;" horiz-adv-x="3016" 
d="M2505 1044h389v-847q-78 -91 -194.5 -148t-241.5 -57q-172 0 -316 102q-141 -102 -317 -102q-148 0 -252 82v-412q-114 -75 -305 -139q-198 -66 -412 -66q-342 0 -542.5 193t-200.5 520q0 154 45 324l354 -68q-23 -97 -23 -168q0 -188 106.5 -286.5t303.5 -98.5
q170 0 303 47v909h389v-395q58 -22 131 -22t131 22v395h390v-395q61 -22 131 -22q73 0 131 22v610z" />
    <glyph glyph-name="uni0634" unicode="&#x634;" horiz-adv-x="3016" 
d="M2505 1044h389v-847q-78 -91 -194.5 -148t-241.5 -57q-172 0 -316 102q-141 -102 -317 -102q-148 0 -252 82v-412q-114 -75 -305 -139q-198 -66 -412 -66q-342 0 -542.5 193t-200.5 520q0 154 45 324l354 -68q-23 -97 -23 -168q0 -188 106.5 -286.5t303.5 -98.5
q170 0 303 47v909h389v-395q58 -22 131 -22t131 22v395h390v-395q61 -22 131 -22q73 0 131 22v610zM1882 1481q0 69 47 116.5t115 47.5q66 0 113 -47.5t47 -116.5q0 -67 -47 -114.5t-113 -47.5q-68 0 -115 47.5t-47 114.5zM1696 1155q0 67 47 114.5t115 47.5q67 0 114 -47
t47 -115t-47 -115t-114 -47q-68 0 -115 47.5t-47 114.5zM2073 1155q0 68 47 115t116 47q66 0 113 -47.5t47 -114.5t-47 -114.5t-113 -47.5q-69 0 -116 47t-47 115z" />
    <glyph glyph-name="uni0635" unicode="&#x635;" horiz-adv-x="2902" 
d="M2779 590v-590h-1188v-313q-138 -93 -329 -160q-192 -70 -406 -70q-343 0 -543 193.5t-200 523.5q0 150 45 320l354 -68q-23 -97 -23 -168q0 -188 106.5 -286.5t303.5 -98.5q170 0 303 47v1104h389v-178q174 179 326.5 260.5t320.5 81.5q115 0 212.5 -37t171.5 -109
t115.5 -188t41.5 -264zM1608 420h782v98q0 116 -39 195q-41 86 -172 86q-117 0 -254.5 -91t-316.5 -288z" />
    <glyph glyph-name="uni0636" unicode="&#x636;" horiz-adv-x="2902" 
d="M2779 590v-590h-1188v-313q-138 -93 -329 -160q-192 -70 -406 -70q-343 0 -543 193.5t-200 523.5q0 150 45 320l354 -68q-23 -97 -23 -168q0 -188 106.5 -286.5t303.5 -98.5q170 0 303 47v1104h389v-178q174 179 326.5 260.5t320.5 81.5q115 0 212.5 -37t171.5 -109
t115.5 -188t41.5 -264zM1608 420h782v98q0 116 -39 195q-41 86 -172 86q-117 0 -254.5 -91t-316.5 -288zM1686 1485q0 82 57 138t139 56q80 0 136.5 -56.5t56.5 -137.5t-56.5 -138t-136.5 -57q-82 0 -139 56.5t-57 138.5z" />
    <glyph glyph-name="uni0637" unicode="&#x637;" horiz-adv-x="1945" 
d="M1823 590v-590h-1741v420h164v1075h389v-649q174 179 326.5 260.5t320.5 81.5q115 0 212.5 -37t171.5 -109t115.5 -188t41.5 -264zM651 420h783v98q0 116 -39 195q-41 86 -172 86q-117 0 -255 -91t-317 -288z" />
    <glyph glyph-name="uni0638" unicode="&#x638;" horiz-adv-x="1945" 
d="M1823 590v-590h-1741v420h164v1075h389v-649q174 179 326.5 260.5t320.5 81.5q115 0 212.5 -37t171.5 -109t115.5 -188t41.5 -264zM651 420h783v98q0 116 -39 195q-41 86 -172 86q-117 0 -255 -91t-317 -288zM877 1516q0 82 57 138t139 56q80 0 136.5 -56.5t56.5 -137.5
t-56.5 -138t-136.5 -57q-82 0 -139 56.5t-57 138.5z" />
    <glyph glyph-name="uni0639" unicode="&#x639;" horiz-adv-x="1511" 
d="M1075 420h211v-420h-653q-81 0 -131.5 -34.5t-50.5 -96.5t50.5 -97.5t131.5 -35.5h325v-420h-213q-346 0 -535.5 139t-189.5 395q0 208 126 336.5t362 171.5q-77 67 -117.5 159.5t-40.5 197.5q0 144 80 253t212.5 164.5t295.5 55.5q147 0 274 -51.5t218 -145.5l-271 -256
q-69 82 -192 82q-97 0 -156 -51t-59 -137q0 -100 82 -154.5t241 -54.5z" />
    <glyph glyph-name="uni063A" unicode="&#x63a;" horiz-adv-x="1511" 
d="M1075 420h211v-420h-653q-81 0 -131.5 -34.5t-50.5 -96.5t50.5 -97.5t131.5 -35.5h325v-420h-213q-346 0 -535.5 139t-189.5 395q0 208 126 336.5t362 171.5q-77 67 -117.5 159.5t-40.5 197.5q0 144 80 253t212.5 164.5t295.5 55.5q147 0 274 -51.5t218 -145.5l-271 -256
q-69 82 -192 82q-97 0 -156 -51t-59 -137q0 -100 82 -154.5t241 -54.5zM741 1485q0 81 57.5 137.5t139.5 56.5q80 0 136 -56.5t56 -137.5q0 -82 -56 -138.5t-136 -56.5q-82 0 -139.5 56.5t-57.5 138.5z" />
    <glyph glyph-name="uni0640" unicode="&#x640;" horiz-adv-x="512" 
d="M545 420v-416q0 -4 -33 -4h-512q-33 0 -33 4v416h578z" />
    <glyph glyph-name="uni0641" unicode="&#x641;" horiz-adv-x="2576" 
d="M2454 1034v-880q-115 -70 -310 -112t-426 -42h-956q-326 0 -487.5 128.5t-161.5 410.5q0 186 71 393l357 -66q-41 -118 -41 -204q0 -123 66 -182.5t212 -59.5h809q-153 114 -153 321t151 322q149 113 389 113q273 0 480 -142zM1829 662q0 -72 65 -119.5t170 -65.5v299
q-40 15 -90 15q-67 0 -106 -35.5t-39 -93.5zM1778 1473q0 82 57 138t139 56q80 0 136.5 -56.5t56.5 -137.5t-56.5 -138t-136.5 -57q-82 0 -139 56.5t-57 138.5z" />
    <glyph glyph-name="uni0642" unicode="&#x642;" horiz-adv-x="1837" 
d="M1714 940v-1262q-134 -96 -356 -159q-219 -62 -447 -62q-370 0 -584 195.5t-214 521.5q0 146 47 320l352 -70q-23 -90 -23 -164q0 -193 123 -290t349 -97q188 0 364 43v104h-37q-308 0 -468.5 129.5t-160.5 362.5q0 239 151.5 385.5t426.5 146.5q244 0 477 -104z
M1221 420h104v239q-57 23 -115 23q-75 0 -116 -34.5t-41 -100.5q0 -62 43 -94.5t125 -32.5zM829 1341q0 82 56.5 138.5t138.5 56.5q80 0 136.5 -57t56.5 -138t-56.5 -137.5t-136.5 -56.5q-82 0 -138.5 56t-56.5 138zM1257 1341q0 82 56.5 138.5t138.5 56.5q80 0 136.5 -57
t56.5 -138t-56.5 -137.5t-136.5 -56.5q-82 0 -138.5 56t-56.5 138z" />
    <glyph glyph-name="uni0643" unicode="&#x643;" horiz-adv-x="2273" 
d="M1761 1495h389v-1341q-115 -70 -310 -112t-425 -42h-653q-326 0 -487.5 128.5t-161.5 410.5q0 186 71 393l357 -66q-41 -118 -41 -204q0 -123 66 -182.5t212 -59.5h709q200 0 274 47v1028zM1358 977v-205h-461v205h98q-43 46 -43 117q0 81 56 135.5t145 54.5
q55 0 106.5 -23.5t83.5 -60.5l-114 -115q-30 23 -58 23q-26 0 -42.5 -16.5t-16.5 -42.5q0 -33 28 -52.5t81 -19.5h137z" />
    <glyph glyph-name="uni0644" unicode="&#x644;" horiz-adv-x="1714" 
d="M1202 1495h389v-1831q-134 -76 -325 -139q-198 -68 -410 -68q-340 0 -541.5 193t-201.5 520q0 154 45 324l354 -68q-23 -97 -23 -168q0 -188 106.5 -286.5t303.5 -98.5q170 0 303 47v1575z" />
    <glyph glyph-name="uni0645" unicode="&#x645;" horiz-adv-x="1505" 
d="M1423 512q0 -150 -69.5 -272t-193 -191t-275.5 -69q-120 0 -221 43q-70 28 -138 28q-106 0 -106 -88q0 -294 41 -665h-389q-41 377 -41 677q0 181 84.5 265.5t259.5 89.5q-29 92 -29 182q0 150 70 272t193.5 191t275.5 69t275.5 -69t193 -191t69.5 -272zM1030 512
q0 62 -39.5 102.5t-109.5 40.5q-65 0 -103.5 -40.5t-38.5 -102.5t38.5 -102.5t103.5 -40.5q70 0 109.5 40.5t39.5 102.5z" />
    <glyph glyph-name="uni0646" unicode="&#x646;" horiz-adv-x="1734" 
d="M113 174q0 159 45 320l356 -70q-25 -92 -25 -164q0 -192 108.5 -289.5t303.5 -97.5q152 0 301 47v909h410v-1140q-131 -101 -338 -166q-210 -66 -416 -66q-348 0 -546.5 195.5t-198.5 521.5zM598 872q0 82 57.5 138.5t139.5 56.5q80 0 136 -56.5t56 -138.5
q0 -81 -56 -137.5t-136 -56.5q-82 0 -139.5 56.5t-57.5 137.5z" />
    <glyph glyph-name="uni0647" unicode="&#x647;" horiz-adv-x="1241" 
d="M82 512q0 150 70 272t193.5 191t275.5 69t275.5 -69t193 -191t69.5 -272t-69.5 -272t-193 -191t-275.5 -69q-229 0 -384 152t-155 380zM766 512q0 64 -40 105.5t-110 41.5q-64 0 -102.5 -42t-38.5 -105t38.5 -105t102.5 -42q70 0 110 41.5t40 105.5z" />
    <glyph glyph-name="uni0648" unicode="&#x648;" horiz-adv-x="1259" 
d="M1137 940v-842q0 -342 -174 -491q-175 -150 -471 -150q-195 0 -388 54l72 374q180 -49 328 -49q133 0 187.5 40.5t56.5 123.5h-37q-306 0 -467.5 141t-161.5 371q0 239 151 385.5t426 146.5q245 0 478 -104zM643 420h105v239q-57 23 -115 23q-75 0 -116.5 -33.5
t-41.5 -99.5q0 -62 43.5 -95.5t124.5 -33.5z" />
    <glyph glyph-name="uni0649" unicode="&#x649;" horiz-adv-x="2314" 
d="M1477 442q0 -26 8 -47l207 -686q-150 -95 -373 -172q-219 -80 -453 -80q-341 0 -547 193.5t-206 519.5q0 154 45 324l354 -68q-23 -97 -23 -168q0 -188 106.5 -286.5t303.5 -98.5q75 0 174 12q88 10 164 35l-139 436q-31 102 -31 179q0 175 117 270q122 96 301 96h514
l233 -819l-364 -94l-154 524h-143q-94 0 -94 -70z" />
    <glyph glyph-name="uni064A" unicode="&#x64a;" horiz-adv-x="2314" 
d="M1477 442q0 -26 8 -47l207 -686q-150 -95 -373 -172q-219 -80 -453 -80q-341 0 -547 193.5t-206 519.5q0 154 45 324l354 -68q-23 -97 -23 -168q0 -188 106.5 -286.5t303.5 -98.5q75 0 174 12q88 10 164 35l-139 436q-31 102 -31 179q0 175 117 270q122 96 301 96h514
l233 -819l-364 -94l-154 524h-143q-94 0 -94 -70zM440 -840q0 82 56.5 138.5t138.5 56.5q80 0 136 -56.5t56 -138.5q0 -81 -56 -137.5t-136 -56.5q-82 0 -138.5 56t-56.5 138zM868 -840q0 82 56.5 138.5t138.5 56.5q80 0 136 -56.5t56 -138.5q0 -81 -56 -137.5t-136 -56.5
q-82 0 -138.5 56t-56.5 138z" />
    <glyph glyph-name="uni064B" unicode="&#x64b;" 
d="M-299 1323v150l598 155v-149zM-299 1106v149l598 156v-149z" />
    <glyph glyph-name="uni064C" unicode="&#x64c;" 
d="M313 1470q0 -88 -53.5 -163t-159.5 -123q-163 -72 -389 -84l-49 96q55 55 55 113q0 65 -55 75v129q191 0 191 -145q0 -67 -41 -129q103 13 182 45q39 17 45 21q-137 47 -137 174q0 81 57.5 130.5t149.5 49.5q90 0 147 -50t57 -139zM158 1458q0 26 -14.5 42t-37.5 16
t-36 -13.5t-13 -36.5q0 -26 21.5 -45.5t58.5 -27.5q21 35 21 65z" />
    <glyph glyph-name="uni064D" unicode="&#x64d;" 
d="M-299 -387v149l598 156v-149zM-299 -596v150l598 155v-149z" />
    <glyph glyph-name="uni064E" unicode="&#x64e;" 
d="M-299 1106v149l598 156v-149z" />
    <glyph glyph-name="uni064F" unicode="&#x64f;" 
d="M270 1438q0 -149 -143 -227.5t-420 -104.5l-26 141q156 16 249 47q-55 31 -80.5 69t-25.5 91q0 89 62.5 142t160.5 53q100 0 161.5 -55t61.5 -156zM104 1438q0 29 -16 45t-43 16q-25 0 -40 -14t-15 -39q0 -54 78 -82q36 33 36 74z" />
    <glyph glyph-name="uni0650" unicode="&#x650;" 
d="M-299 -397v149l598 156v-150z" />
    <glyph glyph-name="uni0651" unicode="&#x651;" 
d="M164 1591h164v-284q0 -80 -53.5 -118t-135.5 -38q-61 0 -112 23q-48 -68 -166 -68q-84 0 -136.5 38t-52.5 118v243h164v-192q0 -18 12 -28.5t31 -10.5q20 0 33.5 10.5t13.5 28.5v227h146v-178q0 -22 13.5 -33.5t35.5 -11.5q43 0 43 45v229z" />
    <glyph glyph-name="uni0652" unicode="&#x652;" 
d="M-252 1350q0 106 71.5 174.5t180.5 68.5t180.5 -68.5t71.5 -174.5q0 -104 -72 -174t-180 -70t-180 70t-72 174zM82 1350q0 34 -23.5 59t-60.5 25q-34 0 -58 -25.5t-24 -58.5t24 -58.5t58 -25.5q37 0 60.5 25t23.5 59z" />
    <glyph glyph-name="uni0653" unicode="&#x653;" 
d="M195 1278l106 -21q0 -114 -43.5 -167.5t-151.5 -49.5l-200 9q-50 1 -74.5 -8.5t-38.5 -36.5l-106 20q0 116 44 169.5t160 47.5l191 -8q49 -1 72 8.5t41 36.5z" />
    <glyph glyph-name="uni0654" unicode="&#x654;" 
d="M92 1249h137v-205h-460v205h98q-43 46 -43 117q0 81 56 135.5t145 54.5q55 0 106.5 -23.5t83.5 -59.5l-115 -115q-28 22 -57 22q-26 0 -42.5 -16.5t-16.5 -42.5q0 -33 27.5 -52.5t80.5 -19.5z" />
    <glyph glyph-name="uni0655" unicode="&#x655;" 
d="M92 -307h137v-205h-460v205h98q-43 46 -43 117q0 81 56 135.5t145 54.5q55 0 106.5 -23.5t83.5 -60.5l-115 -115q-30 23 -57 23q-26 0 -42.5 -17t-16.5 -43q0 -33 27.5 -52t80.5 -19z" />
    <glyph glyph-name="uni0656" unicode="&#x656;" 
d="M-88 -588v488h176v-488h-176z" />
    <glyph glyph-name="uni0658" unicode="&#x658;" 
d="M119 1548h164v-366q-57 -34 -135 -55t-160 -21q-134 0 -212.5 70t-78.5 188q0 52 18 117l152 -29q-8 -19 -8 -49q0 -123 153 -123q55 0 107 8v260z" />
    <glyph glyph-name="uni0660" unicode="&#x660;" horiz-adv-x="839" 
d="M420 455l-277 276l277 277l276 -277z" />
    <glyph glyph-name="uni0661" unicode="&#x661;" horiz-adv-x="817" 
d="M264 0l-100 1434h391l98 -1434h-389z" />
    <glyph glyph-name="uni0662" unicode="&#x662;" horiz-adv-x="1198" 
d="M1075 1434v-410h-493l71 -1024h-389l-100 1434h911z" />
    <glyph glyph-name="uni0663" unicode="&#x663;" horiz-adv-x="1523" 
d="M1122 1434h279v-521q-42 -52 -122.5 -86t-170.5 -34q-118 0 -213 65q-89 -65 -209 -65q-53 0 -94 14l61 -807h-379l-110 1434h381l20 -279q54 -4 62 -4q59 0 106 12v271h215v-271q38 -12 92 -12q48 0 82 12v271z" />
    <glyph glyph-name="uni0664" unicode="&#x664;" horiz-adv-x="1136" 
d="M973 381l123 -301q-181 -100 -424 -100q-257 0 -403 106.5t-146 292.5q0 222 225 342q-113 54 -166 131t-53 192q0 191 135.5 300.5t372.5 109.5q223 0 407 -100l-157 -291q-113 45 -219 45q-73 0 -114.5 -27t-41.5 -71q0 -68 91 -111t249 -43h20v-252h-12
q-172 0 -263 -47t-91 -125q0 -106 199 -106q149 0 268 55z" />
    <glyph glyph-name="uni0665" unicode="&#x665;" horiz-adv-x="1402" 
d="M123 446q-1 87 16 181.5t49.5 186.5t83.5 174.5t113.5 144.5t144.5 97t172 32q182 0 314 -129q131 -128 196 -320q68 -192 68 -367q0 -220 -145.5 -342t-432.5 -122q-288 0 -433.5 121.5t-145.5 342.5zM909 547q0 125 -60.5 229.5t-148.5 104.5q-60 0 -108 -51t-73 -126
t-25 -155q0 -100 50.5 -143.5t157.5 -43.5q105 0 156 43.5t51 141.5z" />
    <glyph glyph-name="uni0666" unicode="&#x666;" horiz-adv-x="1183" 
d="M1020 0h-389l-39 1014h-531v420h902z" />
    <glyph glyph-name="uni0667" unicode="&#x667;" horiz-adv-x="1452" 
d="M977 1434h434q-106 -287 -233 -689q-111 -348 -213 -745h-476q-84 327 -217 750q-132 421 -231 684h434q64 -210 115 -408q50 -193 137 -614q90 442 137 630q45 180 113 392z" />
    <glyph glyph-name="uni0668" unicode="&#x668;" horiz-adv-x="1452" 
d="M1411 0h-434q-69 213 -113 389q-47 189 -137 633q-86 -417 -137 -616q-52 -200 -115 -406h-434q97 256 231 682q135 433 217 752h476q103 -398 213 -748q127 -400 233 -686z" />
    <glyph glyph-name="uni0669" unicode="&#x669;" horiz-adv-x="1320" 
d="M1157 0h-381l-28 430h-99q-264 0 -415.5 139t-151.5 377q0 159 70 275.5t189.5 174.5t274.5 58q224 0 451 -121zM612 799h111l-16 256q-41 20 -103 20q-143 0 -143 -137q0 -139 151 -139z" />
    <glyph glyph-name="uni066A" unicode="&#x66a;" horiz-adv-x="1937" 
d="M1673 1468l-1071 -1503h-336l1069 1503h338zM809 1042q0 -190 -102 -301.5t-281 -111.5t-282 111t-103 302q0 190 103 301t282 111t281 -111t102 -301zM328 1042q0 -73 27.5 -118t70.5 -45t69.5 45t26.5 118t-26.5 117.5t-69.5 44.5t-70.5 -44.5t-27.5 -117.5zM1898 393
q0 -190 -103 -300.5t-282 -110.5t-282 110.5t-103 300.5t103 302t282 112t282 -112t103 -302zM1415 393q0 -73 27.5 -117.5t70.5 -44.5t71 44.5t28 117.5t-28 118.5t-71 45.5t-70.5 -45.5t-27.5 -118.5z" />
    <glyph glyph-name="uni066B" unicode="&#x66b;" horiz-adv-x="716" 
d="M553 160q0 -50 -35 -115l-209 -383h-139l78 338q-39 27 -61.5 69t-22.5 91q0 81 57 137.5t137 56.5q82 0 138.5 -56t56.5 -138z" />
    <glyph glyph-name="uni066C" unicode="&#x66c;" horiz-adv-x="819" 
d="M655 307l-352 -645h-139l149 645h342z" />
    <glyph glyph-name="uni066D" unicode="&#x66d;" horiz-adv-x="980" 
d="M375 596l-199 143l127 162l-201 62l76 231l197 -70l-6 207h243l-4 -207l195 70l76 -231l-199 -62l125 -162l-197 -143l-116 172z" />
    <glyph glyph-name="uni066E" unicode="&#x66e;" horiz-adv-x="2416" 
d="M113 539q0 186 71 393l357 -66q-41 -118 -41 -204q0 -123 66 -182.5t212 -59.5h852q201 0 275 47v602h389v-915q-115 -70 -310 -112t-425 -42h-797q-326 0 -487.5 128.5t-161.5 410.5z" />
    <glyph glyph-name="uni066F" unicode="&#x66f;" horiz-adv-x="1837" 
d="M1714 940v-1262q-134 -96 -356 -159q-219 -62 -447 -62q-370 0 -584 195.5t-214 521.5q0 146 47 320l352 -70q-23 -90 -23 -164q0 -193 123 -290t349 -97q188 0 364 43v104h-37q-308 0 -468.5 129.5t-160.5 362.5q0 239 151.5 385.5t426.5 146.5q244 0 477 -104z
M1221 420h104v239q-57 23 -115 23q-75 0 -116 -34.5t-41 -100.5q0 -62 43 -94.5t125 -32.5z" />
    <glyph glyph-name="uni0670" unicode="&#x670;" 
d="M-86 1106v446h172v-446h-172z" />
    <glyph glyph-name="uni0671" unicode="&#x671;" horiz-adv-x="634" 
d="M123 0v1495h389v-1495h-389zM616 1847v-229h-632v184h102q52 125 135 186.5t185 61.5q99 0 154.5 -53.5t55.5 -149.5zM246 1802h192v27q0 59 -67 59q-77 0 -125 -86z" />
    <glyph glyph-name="uni0679" unicode="&#x679;" horiz-adv-x="2416" 
d="M113 539q0 186 71 393l357 -66q-41 -118 -41 -204q0 -123 66 -182.5t212 -59.5h852q201 0 275 47v602h389v-915q-115 -70 -310 -112t-425 -42h-797q-326 0 -487.5 128.5t-161.5 410.5zM1460 1343v-237h-606v184h37v365h170v-178q107 82 209 82q90 0 140 -58.5t50 -157.5z
M1061 1290h221v31q0 76 -63 76q-66 0 -158 -86v-21z" />
    <glyph glyph-name="uni067E" unicode="&#x67e;" horiz-adv-x="2416" 
d="M113 539q0 186 71 393l357 -66q-41 -118 -41 -204q0 -123 66 -182.5t212 -59.5h852q201 0 275 47v602h389v-915q-115 -70 -310 -112t-425 -42h-797q-326 0 -487.5 128.5t-161.5 410.5zM872 -264q0 68 47 115t115 47t115 -47t47 -115t-47 -115t-115 -47t-115 47t-47 115z
M1249 -264q0 68 47.5 115t116.5 47q66 0 113 -47.5t47 -114.5t-47 -114.5t-113 -47.5q-69 0 -116.5 47t-47.5 115zM1059 -592q0 69 47 116.5t115 47.5q66 0 112.5 -47.5t46.5 -116.5q0 -67 -46.5 -114.5t-112.5 -47.5q-67 0 -114.5 47t-47.5 115z" />
    <glyph glyph-name="uni0686" unicode="&#x686;" horiz-adv-x="1519" 
d="M631 -264h127v-420h-23q-338 0 -516 137.5t-178 396.5q0 265 183.5 412.5t510.5 147.5h185q-57 69 -93 180q-44 130 -65 165q-33 52 -96 64q-15 3 -33 4q-47 0 -89 -16t-65 -37l-268 250q204 168 467 168q200 0 312.5 -103t176.5 -331q26 -95 47.5 -155.5t50.5 -115
t65 -84.5t83 -41l-108 -358h-674q-71 0 -115.5 -35t-44.5 -96q0 -62 44.5 -97.5t115.5 -35.5zM981 -426q-67 0 -114.5 47t-47.5 115t47.5 115t114.5 47t114.5 -47t47.5 -115t-47.5 -115t-114.5 -47zM1520 -264q0 -67 -47 -114.5t-113 -47.5q-69 0 -116.5 47t-47.5 115
t47.5 115t116.5 47q66 0 113 -47.5t47 -114.5zM1327 -592q0 -67 -47 -114.5t-113 -47.5q-67 0 -114 47t-47 115q0 69 46.5 116.5t114.5 47.5q66 0 113 -47.5t47 -116.5z" />
    <glyph glyph-name="uni0688" unicode="&#x688;" horiz-adv-x="1208" 
d="M1085 633v-633h-1003v420h614v192q0 64 -46 94.5t-128 30.5h-284v389h188q133 -2 228 -12t170 -33.5t122 -58.5t78 -91.5t44.5 -127.5t16.5 -170zM725 1538v-238h-606v185h37v364h170v-178q107 82 209 82q90 0 140 -58t50 -157zM326 1485h221v31q0 75 -64 75
q-65 0 -157 -86v-20z" />
    <glyph glyph-name="uni0691" unicode="&#x691;" horiz-adv-x="819" 
d="M-82 -530l76 397h69q137 0 190.5 52t53.5 173v932h389v-926q0 -339 -170 -489q-172 -152 -448 -152q-90 0 -160 13zM780 1446v-238h-606v185h37v364h170v-178q107 82 209 82q90 0 140 -58t50 -157zM381 1393h221v30q0 76 -63 76q-66 0 -158 -86v-20z" />
    <glyph glyph-name="uni0698" unicode="&#x698;" horiz-adv-x="819" 
d="M-82 -530l76 397h69q137 0 190.5 52t53.5 173v932h389v-926q0 -339 -170 -489q-172 -152 -448 -152q-90 0 -160 13zM338 1655q0 69 47 116.5t115 47.5q66 0 112.5 -47.5t46.5 -116.5q0 -67 -46.5 -114.5t-112.5 -47.5q-68 0 -115 47.5t-47 114.5zM152 1329q0 68 47 115
t114 47t114.5 -47.5t47.5 -114.5t-47.5 -114.5t-114.5 -47.5t-114 47t-47 115zM528 1329q0 68 47.5 115t116.5 47q66 0 113 -47.5t47 -114.5t-47 -114.5t-113 -47.5q-69 0 -116.5 47t-47.5 115z" />
    <glyph glyph-name="uni06A1" unicode="&#x6a1;" horiz-adv-x="2576" 
d="M2454 1034v-880q-115 -70 -310 -112t-426 -42h-956q-326 0 -487.5 128.5t-161.5 410.5q0 186 71 393l357 -66q-41 -118 -41 -204q0 -123 66 -182.5t212 -59.5h809q-153 114 -153 321t151 322q149 113 389 113q273 0 480 -142zM1829 662q0 -72 65 -119.5t170 -65.5v299
q-40 15 -90 15q-67 0 -106 -35.5t-39 -93.5z" />
    <glyph glyph-name="uni06A4" unicode="&#x6a4;" horiz-adv-x="2576" 
d="M2454 1034v-880q-115 -70 -310 -112t-426 -42h-956q-326 0 -487.5 128.5t-161.5 410.5q0 186 71 393l357 -66q-41 -118 -41 -204q0 -123 66 -182.5t212 -59.5h809q-153 114 -153 321t151 322q149 113 389 113q273 0 480 -142zM1829 662q0 -72 65 -119.5t170 -65.5v299
q-40 15 -90 15q-67 0 -106 -35.5t-39 -93.5zM1810 1765q0 69 47 116.5t115 47.5q66 0 113 -47.5t47 -116.5q0 -67 -47 -114t-113 -47q-68 0 -115 47t-47 114zM1624 1440q0 68 47 115t115 47t115 -47t47 -115t-47 -115t-115 -47t-115 47t-47 115zM2001 1440q0 68 47.5 115
t116.5 47q66 0 112.5 -47.5t46.5 -114.5t-46.5 -114.5t-112.5 -47.5q-69 0 -116.5 47t-47.5 115z" />
    <glyph glyph-name="uni06A9" unicode="&#x6a9;" horiz-adv-x="2314" 
d="M2191 502v-348q-130 -77 -327 -117q-194 -37 -389 -37h-713q-326 0 -487.5 128.5t-161.5 410.5q0 186 71 393l357 -66q-41 -118 -41 -204q0 -123 66 -182.5t212 -59.5h738q215 0 286 47v31q-7 56 -48 78.5t-208 70.5l-346 96l-80 301l762 553l195 -245l-475 -342l159 -47
q95 -30 155 -53t111 -53t78.5 -59t47.5 -74t27.5 -96t10.5 -126z" />
    <glyph glyph-name="uni06AF" unicode="&#x6af;" horiz-adv-x="2314" 
d="M1731 1624l-641 -459l-41 152l589 424zM2191 502v-348q-130 -77 -327 -117q-194 -37 -389 -37h-713q-326 0 -487.5 128.5t-161.5 410.5q0 186 71 393l357 -66q-41 -118 -41 -204q0 -123 66 -182.5t212 -59.5h738q215 0 286 47v31q-7 56 -48 78.5t-208 70.5l-346 96
l-80 301l762 553l195 -245l-475 -342l159 -47q95 -30 155 -53t111 -53t78.5 -59t47.5 -74t27.5 -96t10.5 -126z" />
    <glyph glyph-name="uni06BA" unicode="&#x6ba;" horiz-adv-x="1734" 
d="M113 174q0 159 45 320l356 -70q-25 -92 -25 -164q0 -192 108.5 -289.5t303.5 -97.5q152 0 301 47v909h410v-1140q-131 -101 -338 -166q-210 -66 -416 -66q-348 0 -546.5 195.5t-198.5 521.5z" />
    <glyph glyph-name="uni06BE" unicode="&#x6be;" horiz-adv-x="1757" 
d="M1634 522v-522h-1530q-32 0 -32 4v416h256q-60 91 -60 205q0 171 121 266q119 94 303 94q185 0 307 -96q119 -94 119 -264q0 -125 -63 -209l190 -2v131q0 267 -146 403.5t-413 136.5q-154 0 -268 -30v358q126 21 280 21q452 0 694 -228.5t242 -683.5zM604 547
q0 -99 90 -123q88 21 88 123q0 53 -23 81.5t-65 28.5q-43 0 -66.5 -28t-23.5 -82z" />
    <glyph glyph-name="uni06C1" unicode="&#x6c1;" horiz-adv-x="1241" 
d="M82 512q0 150 70 272t193.5 191t275.5 69t275.5 -69t193 -191t69.5 -272t-69.5 -272t-193 -191t-275.5 -69q-229 0 -384 152t-155 380zM766 512q0 64 -40 105.5t-110 41.5q-64 0 -102.5 -42t-38.5 -105t38.5 -105t102.5 -42q70 0 110 41.5t40 105.5z" />
    <glyph glyph-name="uni06C2" unicode="&#x6c2;" horiz-adv-x="1241" 
d="M82 512q0 150 70 272t193.5 191t275.5 69t275.5 -69t193 -191t69.5 -272t-69.5 -272t-193 -191t-275.5 -69q-229 0 -384 152t-155 380zM766 512q0 64 -40 105.5t-110 41.5q-64 0 -102.5 -42t-38.5 -105t38.5 -105t102.5 -42q70 0 110 41.5t40 105.5zM713 1372h137v-205
h-461v205h98q-43 46 -43 117q0 81 56 135.5t145 54.5q55 0 107 -23.5t84 -60.5l-115 -114q-28 22 -57 22q-26 0 -43 -16.5t-17 -42.5q0 -33 28 -52.5t81 -19.5z" />
    <glyph glyph-name="uni06C3" unicode="&#x6c3;" horiz-adv-x="1241" 
d="M82 512q0 150 70 272t193.5 191t275.5 69t275.5 -69t193 -191t69.5 -272t-69.5 -272t-193 -191t-275.5 -69q-229 0 -384 152t-155 380zM766 512q0 64 -40 105.5t-110 41.5q-64 0 -102.5 -42t-38.5 -105t38.5 -105t102.5 -42q70 0 110 41.5t40 105.5zM213 1341
q0 82 56.5 138.5t138.5 56.5q80 0 136 -56.5t56 -138.5q0 -81 -56 -137.5t-136 -56.5q-82 0 -138.5 56t-56.5 138zM641 1341q0 82 56.5 138.5t138.5 56.5q80 0 136 -56.5t56 -138.5q0 -81 -56 -137.5t-136 -56.5q-82 0 -138.5 56t-56.5 138z" />
    <glyph glyph-name="uni06CC" unicode="&#x6cc;" horiz-adv-x="2314" 
d="M1477 442q0 -26 8 -47l207 -686q-150 -95 -373 -172q-219 -80 -453 -80q-341 0 -547 193.5t-206 519.5q0 154 45 324l354 -68q-23 -97 -23 -168q0 -188 106.5 -286.5t303.5 -98.5q75 0 174 12q88 10 164 35l-139 436q-31 102 -31 179q0 175 117 270q122 96 301 96h514
l233 -819l-364 -94l-154 524h-143q-94 0 -94 -70z" />
    <glyph glyph-name="uni06D2" unicode="&#x6d2;" horiz-adv-x="1781" 
d="M123 244q0 162 70 256q35 46 73.5 80t83.5 56.5t83 35.5t93 28l164 41q65 17 89 48t24 98v137h389v-264q0 -53 -5 -90t-22 -80t-48.5 -74.5t-87 -61t-134.5 -51.5l-322 -81q-59 -13 -59 -54q0 -43 78 -43h1128v-420h-983q-322 0 -468 103.5t-146 335.5z" />
    <glyph glyph-name="uni06D3" unicode="&#x6d3;" horiz-adv-x="1781" 
d="M123 244q0 162 70 256q35 46 73.5 80t83.5 56.5t83 35.5t93 28l164 41q65 17 89 48t24 98v137h389v-264q0 -53 -5 -90t-22 -80t-48.5 -74.5t-87 -61t-134.5 -51.5l-322 -81q-59 -13 -59 -54q0 -43 78 -43h1128v-420h-983q-322 0 -468 103.5t-146 335.5zM369 1024h137
v-205h-461v205h98q-43 46 -43 117q0 81 56 135.5t145 54.5q55 0 107 -23.5t84 -60.5l-115 -114q-28 22 -58 22q-26 0 -42.5 -16.5t-16.5 -42.5q0 -33 28 -52.5t81 -19.5z" />
    <glyph glyph-name="uni06D4" unicode="&#x6d4;" horiz-adv-x="798" 
d="M205 174q0 82 56 138.5t138 56.5q80 0 137.5 -57t57.5 -138t-57.5 -137.5t-137.5 -56.5q-82 0 -138 56t-56 138z" />
    <glyph glyph-name="uni06F0" unicode="&#x6f0;" horiz-adv-x="839" 
d="M420 455l-277 276l277 277l276 -277z" />
    <glyph glyph-name="uni06F1" unicode="&#x6f1;" horiz-adv-x="817" 
d="M264 0l-100 1434h391l98 -1434h-389z" />
    <glyph glyph-name="uni06F2" unicode="&#x6f2;" horiz-adv-x="1198" 
d="M1075 1434v-410h-493l71 -1024h-389l-100 1434h911z" />
    <glyph glyph-name="uni06F3" unicode="&#x6f3;" horiz-adv-x="1523" 
d="M1122 1434h279v-521q-42 -52 -122.5 -86t-170.5 -34q-118 0 -213 65q-89 -65 -209 -65q-53 0 -94 14l61 -807h-379l-110 1434h381l20 -279q54 -4 62 -4q59 0 106 12v271h215v-271q38 -12 92 -12q48 0 82 12v271z" />
    <glyph glyph-name="uni06F4" unicode="&#x6f4;" horiz-adv-x="1372" 
d="M1100 1006h155v-328h-649l47 -678h-389l-100 1434h391l29 -428h174q-58 67 -58 163q0 124 84.5 205.5t219.5 81.5q177 0 286 -119l-182 -168q-33 33 -82 33q-41 0 -64.5 -23.5t-23.5 -66.5q0 -106 162 -106z" />
    <glyph glyph-name="uni06F5" unicode="&#x6f5;" horiz-adv-x="1402" 
d="M1280 465q0 -227 -102.5 -355t-255.5 -128q-71 0 -131 34.5t-89 96.5q-30 -61 -91.5 -96t-129.5 -35q-153 0 -255.5 128t-102.5 355q0 165 65 354q65 188 197 314q132 129 315 129q184 0 316 -129q131 -125 196 -314q68 -189 68 -354zM909 545q0 121 -61.5 228.5
t-147.5 107.5q-57 0 -105.5 -52.5t-74.5 -129.5t-26 -154q0 -103 24 -144t72 -41q63 0 98 66h27q35 -66 98 -66q48 0 72 41t24 144z" />
    <glyph glyph-name="uni06F6" unicode="&#x6f6;" horiz-adv-x="1146" 
d="M995 870l49 -303l-282 -41q-33 -8 -54.5 -13.5t-42.5 -17t-33 -20t-25.5 -30.5t-20 -39t-17.5 -56t-17.5 -71t-19.5 -93l-34 -186l-385 4l34 186q39 204 95 338q56 128 168 203q-177 115 -177 318q0 175 119 290t299 115q230 0 389 -156l-213 -198q-58 61 -139 61
q-66 0 -105.5 -40.5t-39.5 -106.5q0 -77 61.5 -124.5t169.5 -47.5v-2z" />
    <glyph glyph-name="uni06F7" unicode="&#x6f7;" horiz-adv-x="1452" 
d="M977 1434h434q-106 -287 -233 -689q-111 -348 -213 -745h-476q-84 327 -217 750q-132 421 -231 684h434q64 -210 115 -408q50 -193 137 -614q90 442 137 630q45 180 113 392z" />
    <glyph glyph-name="uni06F8" unicode="&#x6f8;" horiz-adv-x="1452" 
d="M1411 0h-434q-69 213 -113 389q-47 189 -137 633q-86 -417 -137 -616q-52 -200 -115 -406h-434q97 256 231 682q135 433 217 752h476q103 -398 213 -748q127 -400 233 -686z" />
    <glyph glyph-name="uni06F9" unicode="&#x6f9;" horiz-adv-x="1320" 
d="M1157 0h-381l-28 430h-99q-264 0 -415.5 139t-151.5 377q0 159 70 275.5t189.5 174.5t274.5 58q224 0 451 -121zM612 799h111l-16 256q-41 20 -103 20q-143 0 -143 -137q0 -139 151 -139z" />
    <glyph glyph-name="Wgrave" unicode="&#x1e80;" horiz-adv-x="2367" 
d="M1829 1434h498l-465 -1434h-455l-223 741l-223 -741h-455l-465 1434h498l217 -752l213 752h432l211 -752zM1163 1901l252 -365h-356l-324 365h428z" />
    <glyph glyph-name="wgrave" unicode="&#x1e81;" horiz-adv-x="1716" 
d="M1698 1024l-291 -1024h-444l-105 424l-102 -424h-447l-289 1024h414l119 -575l147 575h318l145 -575l119 575h416zM831 1491l252 -365h-356l-324 365h428z" />
    <glyph glyph-name="Wacute" unicode="&#x1e82;" horiz-adv-x="2367" 
d="M1829 1434h498l-465 -1434h-455l-223 741l-223 -741h-455l-465 1434h498l217 -752l213 752h432l211 -752zM1640 1901l-323 -365h-356l251 365h428z" />
    <glyph glyph-name="wacute" unicode="&#x1e83;" horiz-adv-x="1716" 
d="M1698 1024l-291 -1024h-444l-105 424l-102 -424h-447l-289 1024h414l119 -575l147 575h318l145 -575l119 575h416zM1309 1491l-324 -365h-356l252 365h428z" />
    <glyph glyph-name="Wdieresis" unicode="&#x1e84;" horiz-adv-x="2367" 
d="M1829 1434h498l-465 -1434h-455l-223 741l-223 -741h-455l-465 1434h498l217 -752l213 752h432l211 -752zM1126 1737q0 -73 -48 -121.5t-120 -48.5q-74 0 -122 48.5t-48 121.5q0 72 48.5 120t121.5 48q72 0 120 -48t48 -120zM1587 1737q0 -73 -49 -121.5t-121 -48.5
t-120 48.5t-48 121.5q0 72 48 120t120 48t121 -48t49 -120z" />
    <glyph glyph-name="wdieresis" unicode="&#x1e85;" horiz-adv-x="1716" 
d="M1698 1024l-291 -1024h-444l-105 424l-102 -424h-447l-289 1024h414l119 -575l147 575h318l145 -575l119 575h416zM795 1327q0 -73 -48 -121.5t-120 -48.5q-73 0 -121.5 48.5t-48.5 121.5q0 72 48.5 120t121.5 48q72 0 120 -48t48 -120zM1255 1327q0 -73 -49 -121.5
t-121 -48.5t-119.5 48.5t-47.5 121.5q0 72 47.5 120t119.5 48t121 -48t49 -120z" />
    <glyph glyph-name="uni1E9E" unicode="&#x1e9e;" horiz-adv-x="1622" 
d="M1563 442q0 -223 -137.5 -342.5t-393.5 -119.5q-155 0 -317 51l145 338q73 -31 131 -31q125 0 125 98q0 38 -27 61t-100 46l-104 32v226l100 219q-59 47 -172 47q-109 0 -176.5 -57t-67.5 -148v-862h-446v883q0 272 185 421.5t523 149.5q431 0 662 -270l-186 -381
q135 -50 195.5 -135t60.5 -226z" />
    <glyph glyph-name="Ygrave" unicode="&#x1ef2;" horiz-adv-x="1642" 
d="M1075 1434h527l-558 -949v-485h-446v479l-557 955h532l250 -478zM797 1901l252 -365h-357l-323 365h428z" />
    <glyph glyph-name="ygrave" unicode="&#x1ef3;" horiz-adv-x="1280" 
d="M1262 1024l-416 -1114q-124 -330 -449 -330q-164 0 -377 82l115 270q121 -47 195 -47q97 0 149 76l6 8l-432 1055h439l176 -578l161 578h433zM643 1491l252 -365h-356l-324 365h428z" />
    <glyph glyph-name="uni2009" unicode="&#x2009;" horiz-adv-x="204" 
 />
    <glyph glyph-name="endash" unicode="&#x2013;" horiz-adv-x="1052" 
d="M991 705v-347h-930v347h930z" />
    <glyph glyph-name="emdash" unicode="&#x2014;" horiz-adv-x="1398" 
d="M61 358v347h1276v-347h-1276z" />
    <glyph glyph-name="quoteleft" unicode="&#x2018;" horiz-adv-x="557" 
d="M61 956q0 49 29 93l289 419l117 -53l-119 -293q56 -24 88.5 -67.5t32.5 -98.5q0 -76 -63.5 -131t-153.5 -55q-91 0 -155.5 54t-64.5 132z" />
    <glyph glyph-name="quoteright" unicode="&#x2019;" horiz-adv-x="557" 
d="M498 1282q0 -48 -29 -92l-289 -420l-117 53l119 293q-56 24 -88.5 67.5t-32.5 98.5q0 76 64 131t154 55q91 0 155 -54t64 -132z" />
    <glyph glyph-name="quotesinglbase" unicode="&#x201a;" horiz-adv-x="557" 
d="M498 164q0 -48 -29 -92l-289 -420l-117 53l119 293q-56 24 -88.5 67.5t-32.5 98.5q0 76 64 131t154 55q91 0 155 -54t64 -132z" />
    <glyph glyph-name="quotedblleft" unicode="&#x201c;" horiz-adv-x="1114" 
d="M61 956q0 49 29 93l289 419l117 -53l-119 -293q56 -24 88.5 -67.5t32.5 -98.5q0 -76 -63.5 -131t-153.5 -55q-91 0 -155.5 54t-64.5 132zM618 956q0 49 29 93l289 419l117 -53l-119 -293q56 -24 88.5 -67.5t32.5 -98.5q0 -76 -63.5 -131t-153.5 -55q-91 0 -155.5 54
t-64.5 132z" />
    <glyph glyph-name="quotedblright" unicode="&#x201d;" horiz-adv-x="1114" 
d="M498 1282q0 -48 -29 -92l-289 -420l-117 53l119 293q-56 24 -88.5 67.5t-32.5 98.5q0 76 64 131t154 55q91 0 155 -54t64 -132zM1055 1282q0 -48 -29 -92l-289 -420l-116 53l118 293q-56 24 -88.5 67.5t-32.5 98.5q0 76 64 131t154 55q91 0 155 -54t64 -132z" />
    <glyph glyph-name="quotedblbase" unicode="&#x201e;" horiz-adv-x="1114" 
d="M498 164q0 -48 -29 -92l-289 -420l-117 53l119 293q-56 24 -88.5 67.5t-32.5 98.5q0 76 64 131t154 55q91 0 155 -54t64 -132zM1055 164q0 -48 -29 -92l-289 -420l-116 53l118 293q-56 24 -88.5 67.5t-32.5 98.5q0 76 64 131t154 55q91 0 155 -54t64 -132z" />
    <glyph glyph-name="dagger" unicode="&#x2020;" horiz-adv-x="1093" 
d="M721 1454v-371h313v-313h-313v-1083h-348v1083h-312v313h312v371h348z" />
    <glyph glyph-name="daggerdbl" unicode="&#x2021;" horiz-adv-x="1093" 
d="M721 1454v-371h313v-313h-313v-399h313v-314h-313v-370h-348v370h-312v314h312v399h-312v313h312v371h348z" />
    <glyph glyph-name="bullet" unicode="&#x2022;" horiz-adv-x="894" 
d="M834 633q0 -158 -114 -272.5t-271 -114.5q-159 0 -273.5 114t-114.5 273t114.5 273t273.5 114q157 0 271 -114.5t114 -272.5z" />
    <glyph glyph-name="ellipsis" unicode="&#x2026;" horiz-adv-x="1845" 
d="M524 164q0 -78 -64 -132.5t-155 -54.5t-154 54.5t-63 132.5q0 76 63.5 131t153.5 55q91 0 155 -54t64 -132zM1139 164q0 -78 -64 -132.5t-155 -54.5t-154.5 54.5t-63.5 132.5q0 76 64 131t154 55q91 0 155 -54t64 -132zM1753 164q0 -78 -64 -132.5t-155 -54.5t-154 54.5
t-63 132.5q0 76 63.5 131t153.5 55q91 0 155 -54t64 -132z" />
    <glyph glyph-name="perthousand" unicode="&#x2030;" horiz-adv-x="2787" 
d="M1683 1468l-1081 -1503h-346l1079 1503h348zM809 1042q0 -190 -102 -301.5t-281 -111.5t-282 111t-103 302q0 190 103 301t282 111t281 -111t102 -301zM328 1042q0 -73 27.5 -118t70.5 -45t69.5 45t26.5 118t-26.5 117.5t-69.5 44.5t-70.5 -44.5t-27.5 -117.5zM1898 393
q0 -190 -103 -300.5t-282 -110.5t-282 110.5t-103 300.5t103 302t282 112t282 -112t103 -302zM2746 393q0 -190 -102 -300.5t-281 -110.5t-282 110.5t-103 300.5q0 191 103 302.5t282 111.5t281 -112t102 -302zM1415 393q0 -73 27.5 -117.5t70.5 -44.5t71 44.5t28 117.5
t-28 118.5t-71 45.5t-70.5 -45.5t-27.5 -118.5zM2265 393q0 -73 27.5 -117.5t70.5 -44.5t70 44.5t27 117.5t-27 118.5t-70 45.5t-70.5 -45.5t-27.5 -118.5z" />
    <glyph glyph-name="guilsinglleft" unicode="&#x2039;" horiz-adv-x="802" 
d="M446 1044l308 -157l-265 -344l265 -344l-312 -154l-391 498z" />
    <glyph glyph-name="guilsinglright" unicode="&#x203a;" horiz-adv-x="802" 
d="M358 1044l396 -501l-394 -498l-309 154l264 344l-264 344z" />
    <glyph glyph-name="fraction" unicode="&#x2044;" horiz-adv-x="397" 
d="M817 1415l-915 -1450h-322l914 1450h323z" />
    <glyph glyph-name="uni2070" unicode="&#x2070;" horiz-adv-x="870" 
d="M842 1118q0 -191 -111 -310.5t-295 -119.5q-185 0 -296 119.5t-111 310.5t111 310.5t296 119.5q184 0 295 -119.5t111 -310.5zM346 1118q0 -80 24 -121t66 -41q40 0 64 41.5t24 120.5t-24 120.5t-64 41.5q-42 0 -66 -41t-24 -121z" />
    <glyph glyph-name="uni2074" unicode="&#x2074;" horiz-adv-x="860" 
d="M735 1087h96v-245h-96v-142h-305v142h-377l-37 233l363 461h356v-449zM328 1087h102v168z" />
    <glyph glyph-name="uni2075" unicode="&#x2075;" horiz-adv-x="808" 
d="M776 991q0 -131 -105.5 -217t-256.5 -86q-249 0 -398 113l152 188q77 -51 170 -51q102 0 102 68q0 26 -18 42.5t-47 16.5q-55 0 -90 -47l-205 104l24 414h625v-233h-350l-2 -56q66 4 67 4q152 0 242 -70.5t90 -189.5z" />
    <glyph glyph-name="uni2076" unicode="&#x2076;" horiz-adv-x="782" 
d="M754 989q0 -126 -104 -213.5t-253 -87.5q-167 0 -265.5 113t-98.5 305q0 201 108 321.5t291 120.5q182 0 309 -102l-116 -182q-82 49 -150 49q-45 0 -78.5 -28t-46.5 -77q73 25 137 25q119 0 193 -67.5t74 -176.5zM465 985q0 82 -53 82q-46 0 -72 -37q1 -65 20 -99
t50 -34q55 0 55 88z" />
    <glyph glyph-name="uni2077" unicode="&#x2077;" horiz-adv-x="745" 
d="M25 1536h696v-223l-334 -613h-358l321 572h-325v264z" />
    <glyph glyph-name="uni2078" unicode="&#x2078;" horiz-adv-x="811" 
d="M782 944q0 -115 -106 -184q-110 -72 -273 -72q-160 0 -270 72q-104 70 -104 184q0 121 116 195q-92 64 -92 168q0 107 99 174q101 67 251 67q153 0 254 -67t101 -174q0 -99 -92 -168q55 -35 85.5 -86.5t30.5 -108.5zM352 1270q0 -64 51 -64q54 0 54 64q0 65 -54 65
q-51 0 -51 -65zM465 971q0 67 -62 67q-59 0 -59 -67q0 -68 59 -68q62 0 62 68z" />
    <glyph glyph-name="uni2079" unicode="&#x2079;" horiz-adv-x="782" 
d="M750 1130q0 -201 -108.5 -321.5t-291.5 -120.5q-181 0 -309 103l117 182q82 -49 149 -49q45 0 78.5 27.5t46.5 76.5q-71 -24 -137 -24q-119 0 -192.5 67t-73.5 176q0 126 103.5 213.5t252.5 87.5q167 0 266 -113t99 -305zM371 1169q45 0 71 37q-3 133 -69 133
q-56 0 -56 -88q0 -82 54 -82z" />
    <glyph glyph-name="uni2080" unicode="&#x2080;" horiz-adv-x="870" 
d="M842 418q0 -191 -111 -310.5t-295 -119.5q-185 0 -296 119.5t-111 310.5t111 310.5t296 119.5q184 0 295 -119.5t111 -310.5zM346 418q0 -80 24 -121t66 -41q40 0 64 41.5t24 120.5t-24 120.5t-64 41.5q-42 0 -66 -41t-24 -121z" />
    <glyph glyph-name="uni2081" unicode="&#x2081;" horiz-adv-x="606" 
d="M516 836v-836h-311v563l-127 -28l-58 231l263 70h233z" />
    <glyph glyph-name="uni2082" unicode="&#x2082;" horiz-adv-x="800" 
d="M555 274l-18 -14h221v-260h-727v207l354 264q51 36 51 70q0 23 -14 36t-39 13q-35 0 -82.5 -28t-89.5 -75l-184 168q72 92 172.5 142.5t212.5 50.5q151 0 251.5 -83t100.5 -206q0 -73 -45.5 -135t-163.5 -150z" />
    <glyph glyph-name="uni2083" unicode="&#x2083;" horiz-adv-x="792" 
d="M756 289q0 -134 -105.5 -217.5t-275.5 -83.5q-205 0 -344 121l155 180q68 -53 156 -53t88 55q0 30 -24.5 46.5t-69.5 16.5q-58 0 -107 -14l-39 137l142 111h-244v248h651v-209l-137 -115q154 -61 154 -223z" />
    <glyph glyph-name="uni2084" unicode="&#x2084;" horiz-adv-x="860" 
d="M735 387h96v-246h-96v-141h-305v141h-377l-37 234l363 461h356v-449zM328 387h102v168z" />
    </font>
</defs>
</svg>
