<?xml version="1.0" standalone="no"?>
<!DOCTYPE svg PUBLIC "-//W3C//DTD SVG 1.1//EN" "http://www.w3.org/Graphics/SVG/1.1/DTD/svg11.dtd" >
<svg xmlns="http://www.w3.org/2000/svg" xmlns:xlink="http://www.w3.org/1999/xlink" version="1.1">
<metadata>
Created by FontForge 20170731 at Tue Jul 25 16:01:44 2023
 By Aleksey,,,
Copyright (c) 2014 by Jonathan Hill. All rights reserved.
</metadata>
<defs>
<font id="LoewNextArabic-ExtraBold" horiz-adv-x="0" >
  <font-face 
    font-family="Loew Next Arabic ExtraBold"
    font-weight="800"
    font-stretch="normal"
    units-per-em="2048"
    panose-1="2 11 8 4 3 3 2 2 2 4"
    ascent="1536"
    descent="-512"
    x-height="1024"
    cap-height="1434"
    bbox="-410 -1024 3201 2167"
    underline-thickness="102"
    underline-position="-307"
    unicode-range="U+0020-FEFC"
  />
<missing-glyph horiz-adv-x="1024" 
d="M102 61v1229h820v-1229h-820zM246 205h532v942h-532v-942z" />
    <glyph glyph-name="fi" unicode="fi" horiz-adv-x="1437" 
d="M817 1413l-41 -199q-67 25 -139 25q-64 0 -102.5 -37.5t-38.5 -107.5v-70h794v-1024h-303v786h-491v-786h-308v786h-141v238h141v76q0 177 100 265.5t271 88.5q124 0 258 -41zM1300 1280q0 -60 -47.5 -102.5t-113.5 -42.5q-68 0 -116 42.5t-48 102.5t48 102.5t116 42.5
q66 0 113.5 -42.5t47.5 -102.5z" />
    <glyph glyph-name="fl" unicode="fl" horiz-adv-x="1415" 
d="M739 1434h541v-1434h-305v1214h-199q-67 25 -139 25q-64 0 -102.5 -37.5t-38.5 -107.5v-70h276v-238h-276v-786h-308v786h-141v238h141v76q0 177 100 265.5t271 88.5q101 0 180 -20z" />
    <glyph glyph-name="uniFDF2" unicode="&#x627;&#xfedf;&#xfee0;&#xfeea;" horiz-adv-x="3379" arabic-form="isolated" 
d="M1774 2068v-335h-123v335h123zM1446 1432v176h121v-150q0 -45 43 -45q20 0 32.5 11.5t12.5 33.5v180h112v-133q0 -24 13.5 -37.5t34.5 -13.5q20 0 32.5 14t12.5 37v174h118v-206q0 -65 -40.5 -98.5t-102.5 -33.5q-69 0 -104 35q-18 -37 -55.5 -56.5t-80.5 -19.5
q-64 0 -106.5 32t-42.5 100zM2886 1495h288v-1495h-288v1495zM2249 362v994h291v-1151q-79 -98 -195 -151.5t-260 -53.5q-207 0 -350 104q-149 -104 -451 -104h-479q-278 0 -439 143t-161 377q0 239 150.5 381.5t408.5 142.5q123 0 245.5 -32t207.5 -78v-627h159
q58 0 116 16t95 46v772h291v-779q63 -63 186 -63q125 0 185 63zM928 307v424q-77 41 -183 41q-113 0 -180 -61.5t-67 -175.5q0 -109 68 -168.5t186 -59.5h176z" />
    <glyph glyph-name="uniFEF5" unicode="&#xfedf;&#xfe82;" horiz-adv-x="1523" arabic-form="isolated" 
d="M1053 1495h290v-1255q-91 -107 -245.5 -173.5t-331.5 -66.5h-664v307h371l-215 932h291l221 -932q176 0 283 64v1124zM596 1604l94 -19q-5 -108 -45 -156.5t-139 -44.5l-197 7q-47 2 -72 -9.5t-38 -40.5l-93 19q2 108 44.5 157.5t146.5 43.5l188 -9q50 -1 74.5 10.5
t36.5 41.5z" />
    <glyph glyph-name="uniFEF6" unicode="&#xfee0;&#xfe82;" horiz-adv-x="1632" arabic-form="final" 
d="M1632 307h33v-303q0 -4 -33 -4h-2q-235 0 -430 121q-198 -121 -434 -121h-664v307h371l-215 932h291l221 -932q176 0 283 64v1124h290v-1124q107 -64 289 -64zM596 1604l94 -19q-5 -108 -45 -156.5t-139 -44.5l-197 7q-47 2 -72 -9.5t-38 -40.5l-93 19q2 108 44.5 157.5
t146.5 43.5l188 -9q50 -1 74.5 10.5t36.5 41.5z" />
    <glyph glyph-name="uniFEF7" unicode="&#xfedf;&#xfe84;" horiz-adv-x="1523" arabic-form="isolated" 
d="M1053 1495h290v-1255q-91 -107 -245.5 -173.5t-331.5 -66.5h-664v307h371l-215 932h291l221 -932q176 0 283 64v1124zM461 1556h125v-176h-445v176h99q-45 51 -45 121q0 80 54.5 133.5t143.5 53.5q102 0 176 -74l-98 -100q-22 22 -61 22q-32 0 -52 -20t-20 -52
q0 -38 31.5 -61t91.5 -23z" />
    <glyph glyph-name="uniFEF8" unicode="&#xfee0;&#xfe84;" horiz-adv-x="1632" arabic-form="final" 
d="M582 1556v-176h-443v176h99q-45 51 -45 121q0 79 55 133t141 54q52 0 98.5 -20.5t77.5 -53.5l-96 -100q-28 22 -63 22q-32 0 -51 -20t-19 -52q0 -38 31 -61t90 -23h125zM1632 307h33v-303q0 -4 -33 -4h-2q-237 0 -428 121q-201 -121 -436 -121h-664v307h371l-215 932h291
l221 -932q176 0 283 64v1124h290v-1124q107 -64 289 -64z" />
    <glyph glyph-name="uniFEF9" unicode="&#xfedf;&#xfe88;" horiz-adv-x="1523" arabic-form="isolated" 
d="M1053 1495h290v-1255q-91 -107 -245.5 -173.5t-331.5 -66.5h-664v307h371l-215 932h291l221 -932q176 0 283 64v1124zM569 -442h125v-174h-444v174h98q-45 51 -45 120q0 81 55 135t144 54q102 0 176 -74l-98 -102q-24 24 -62 24q-32 0 -52 -20t-20 -51q0 -38 32 -62
t91 -24z" />
    <glyph glyph-name="uniFEFA" unicode="&#xfee0;&#xfe88;" horiz-adv-x="1632" arabic-form="final" 
d="M1632 307h33v-303q0 -4 -33 -4h-2q-235 0 -430 121q-198 -121 -434 -121h-664v307h371l-215 932h291l221 -932q176 0 283 64v1124h290v-1124q107 -64 289 -64zM569 -442h125v-174h-444v174h98q-45 51 -45 120q0 81 55 135t144 54q102 0 176 -74l-98 -102q-24 24 -62 24
q-32 0 -52 -20t-20 -51q0 -38 32 -62t91 -24z" />
    <glyph glyph-name="uniFEFB" unicode="&#xfedf;&#xfe8e;" horiz-adv-x="1523" arabic-form="isolated" 
d="M1053 1495h290v-1255q-91 -107 -245.5 -173.5t-331.5 -66.5h-664v307h371l-215 932h291l221 -932q176 0 283 64v1124z" />
    <glyph glyph-name="uniFEFC" unicode="&#xfee0;&#xfe8e;" horiz-adv-x="1632" arabic-form="final" 
d="M1632 307h33v-303q0 -4 -33 -4h-2q-235 0 -430 121q-198 -121 -434 -121h-664v307h371l-215 932h291l221 -932q176 0 283 64v1124h290v-1124q107 -64 289 -64z" />
    <glyph glyph-name="f_f" unicode="ff" horiz-adv-x="1654" 
d="M817 1413l-41 -199q-67 25 -139 25q-64 0 -102.5 -37.5t-38.5 -107.5v-70h520v76q0 177 99.5 265.5t270.5 88.5q125 0 259 -41l-41 -199q-67 25 -140 25q-64 0 -102.5 -37.5t-38.5 -107.5v-70h276v-238h-276v-786h-307v786h-520v-786h-308v786h-141v238h141v76
q0 177 100 265.5t271 88.5q124 0 258 -41z" />
    <glyph glyph-name="f_f_i" unicode="ffi" horiz-adv-x="2265" 
d="M817 1413l-41 -199q-67 25 -139 25q-64 0 -102.5 -37.5t-38.5 -107.5v-70h520v76q0 177 99.5 265.5t270.5 88.5q125 0 259 -41l-41 -199q-67 25 -140 25q-64 0 -102.5 -37.5t-38.5 -107.5v-70h795v-1024h-303v786h-492v-786h-307v786h-520v-786h-308v786h-141v238h141v76
q0 177 100 265.5t271 88.5q124 0 258 -41zM2128 1280q0 -60 -48 -102.5t-114 -42.5q-68 0 -116 42.5t-48 102.5t48 102.5t116 42.5q66 0 114 -42.5t48 -102.5z" />
    <glyph glyph-name="f_f_l" unicode="ffl" horiz-adv-x="2242" 
d="M817 1413l-41 -199q-67 25 -139 25q-64 0 -102.5 -37.5t-38.5 -107.5v-70h520v76q0 177 99.5 265.5t270.5 88.5q102 0 181 -20h540v-1434h-305v1214h-198q-67 25 -140 25q-64 0 -102.5 -37.5t-38.5 -107.5v-70h276v-238h-276v-786h-307v786h-520v-786h-308v786h-141v238
h141v76q0 177 100 265.5t271 88.5q124 0 258 -41z" />
    <glyph glyph-name="uni06440671" unicode="&#xfedf;&#xfb51;" horiz-adv-x="1523" 
d="M1053 1495h290v-1255q-91 -107 -245.5 -173.5t-331.5 -66.5h-664v307h371l-215 932h291l221 -932q176 0 283 64v1124zM733 1589v-209h-614v160h98q53 121 134.5 182.5t180.5 61.5q94 0 147.5 -51.5t53.5 -143.5zM362 1540h218v33q0 33 -19.5 52.5t-56.5 19.5
q-86 0 -142 -105z" />
    <glyph glyph-name="uni06440671.fina" unicode="&#xfee0;&#xfb51;" horiz-adv-x="1632" 
d="M1632 307h33v-303q0 -4 -33 -4h-2q-235 0 -430 121q-198 -121 -434 -121h-664v307h371l-215 932h291l221 -932q176 0 283 64v1124h290v-1124q107 -64 289 -64zM733 1589v-209h-614v160h98q53 121 134.5 182.5t180.5 61.5q94 0 147.5 -51.5t53.5 -143.5zM362 1540h218v33
q0 33 -19.5 52.5t-56.5 19.5q-86 0 -142 -105z" />
    <glyph glyph-name="uni066E.init" unicode="&#x66e;" horiz-adv-x="741" 
d="M578 1040v-864q-89 -77 -245 -126.5t-331 -49.5h-2q-33 0 -33 4v303h33q177 0 287 45v688h291z" />
    <glyph glyph-name="uni066E.medi" unicode="&#x66e;" horiz-adv-x="864" 
d="M864 307h33v-303q0 -4 -33 -4h-2q-232 0 -430 115q-198 -115 -430 -115h-2q-33 0 -33 4v303h33q174 0 287 55v678h291v-678q113 -55 286 -55z" />
    <glyph glyph-name="uni066E.fina" unicode="&#x66e;" horiz-adv-x="2531" 
d="M2531 307h33v-303q0 -4 -33 -4h-2q-241 0 -428 115q-201 -115 -549 -115h-796q-304 0 -458.5 121t-154.5 389q0 169 64 367l268 -48q-41 -134 -41 -231q0 -291 338 -291h838q108 0 201 18t143 46v669h293v-678q113 -55 284 -55z" />
    <glyph glyph-name="uni066F.fina" unicode="&#x66f;" horiz-adv-x="1959" 
d="M1993 307v-303q0 -6 -33 -6h-279v-324q-134 -93 -338 -151q-208 -60 -425 -60q-366 0 -572.5 183.5t-206.5 494.5q0 159 45 310l265 -52q-27 -99 -27 -196q0 -215 135.5 -324.5t394.5 -109.5q215 0 439 75v166h-131q-287 0 -446 132t-159 362q0 233 152.5 374.5
t415.5 141.5q233 0 458 -111v-602h312zM1210 307h181v398q-87 40 -187 40q-117 0 -186.5 -58.5t-69.5 -162.5q0 -102 71 -159.5t191 -57.5z" />
    <glyph glyph-name="uni06A1.init" unicode="&#x6a1;" horiz-adv-x="1349" 
d="M1186 1024v-889q-108 -62 -291 -98.5t-399 -36.5h-496q-33 0 -33 4v303h471q-241 125 -241 383q0 140 71 244t191.5 156.5t273.5 52.5q234 0 453 -119zM489 651q0 -125 107.5 -196.5t296.5 -85.5v452q-78 37 -170 37q-107 0 -170.5 -55.5t-63.5 -151.5z" />
    <glyph glyph-name="uni06A1.medi" unicode="&#x6a1;" horiz-adv-x="1437" 
d="M1061 307h377v-307h-1438v307h377q-182 156 -182 379q0 206 146.5 334.5t377.5 128.5q234 0 379 -127t145 -336q0 -223 -182 -379zM489 641q0 -96 65 -173.5t167 -117.5q99 40 163 117.5t64 173.5q0 99 -63.5 161t-163.5 62q-103 0 -167.5 -61.5t-64.5 -161.5z" />
    <glyph glyph-name="uni06A1.fina" unicode="&#x6a1;" horiz-adv-x="2703" 
d="M2736 307v-303q0 -4 -33 -4h-1947q-304 0 -458.5 121t-154.5 389q0 169 64 367l268 -48q-41 -134 -41 -231q0 -291 338 -291h887q-225 129 -225 383q0 209 151 331t387 122q232 0 451 -119v-717h313zM1729 649q0 -122 106.5 -197t296.5 -96v465q-78 37 -172 37
q-106 0 -168.5 -56.5t-62.5 -152.5z" />
    <glyph glyph-name="uni06C2.fina" unicode="&#x6c2;" horiz-adv-x="1302" 
d="M1303 307h32v-303q0 -4 -32 -4q-78 3 -126 8t-96 23.5t-78 41t-70 73.5t-73.5 106.5t-87.5 153.5l-74 143q-50 -5 -82.5 -41.5t-70.5 -134.5l-146 -373l-276 92l182 461q63 165 152 229q86 62 225 62h178l225 -422q46 -66 94.5 -90.5t123.5 -24.5zM770 1180h125v-176
h-444v176h98q-45 51 -45 120q0 80 54.5 133.5t143.5 53.5q103 0 177 -74l-99 -100q-22 22 -61 22q-32 0 -52 -19.5t-20 -51.5q0 -38 31.5 -61t91.5 -23z" />
    <glyph glyph-name="uni06C3.fina" unicode="&#x6c3;" horiz-adv-x="1302" 
d="M1303 307h32v-303q0 -4 -32 -4q-78 3 -126 8t-96 23.5t-78 41t-70 73.5t-73.5 106.5t-87.5 153.5l-74 143q-50 -5 -82.5 -41.5t-70.5 -134.5l-146 -373l-276 92l182 461q63 165 152 229q86 62 225 62h178l225 -422q46 -66 94.5 -90.5t123.5 -24.5zM307 1157
q0 68 47.5 115t116.5 47q66 0 113 -47.5t47 -114.5q0 -68 -47 -116t-113 -48q-69 0 -116.5 48t-47.5 116zM717 1157q0 68 47.5 115t116.5 47q67 0 114 -47t47 -115t-47 -116t-114 -48q-69 0 -116.5 48t-47.5 116z" />
    <glyph glyph-name="uniFB51" unicode="&#x671;" horiz-adv-x="757" arabic-form="final" 
d="M758 307h33v-303q0 -4 -33 -4h-2q-131 0 -251.5 28.5t-209.5 77.5q-66 37 -90.5 81t-24.5 124v1184h291v-1133q116 -55 287 -55zM612 1847v-209h-614v160h98q53 121 135 182.5t181 61.5q94 0 147 -51.5t53 -143.5zM242 1798h217v33q0 33 -19.5 52.5t-56.5 19.5
q-85 0 -141 -105z" />
    <glyph glyph-name="uniFB57" unicode="&#x67e;" horiz-adv-x="2531" arabic-form="final" 
d="M2531 307h33v-303q0 -4 -33 -4h-2q-241 0 -428 115q-201 -115 -549 -115h-796q-304 0 -458.5 121t-154.5 389q0 169 64 367l268 -48q-41 -134 -41 -231q0 -291 338 -291h838q108 0 201 18t143 46v669h293v-678q113 -55 284 -55zM893 -276q0 60 42 101.5t103 41.5
q60 0 101 -41.5t41 -101.5t-41 -102t-101 -42q-61 0 -103 42t-42 102zM1266 -279q0 61 42.5 103.5t102.5 42.5t100.5 -42t40.5 -104q0 -60 -40.5 -101.5t-100.5 -41.5t-102.5 41.5t-42.5 101.5zM1079 -578q0 61 42 103.5t102 42.5t100.5 -42t40.5 -104q0 -60 -40.5 -101.5
t-100.5 -41.5t-102 41.5t-42 101.5z" />
    <glyph glyph-name="uniFB58" unicode="&#x67e;" horiz-adv-x="741" arabic-form="initial" 
d="M578 1040v-864q-89 -77 -245 -126.5t-331 -49.5h-2q-33 0 -33 4v303h33q177 0 287 45v688h291zM29 -276q0 60 42 101.5t103 41.5q60 0 100.5 -41.5t40.5 -101.5t-40.5 -102t-100.5 -42q-61 0 -103 42t-42 102zM401 -279q0 61 43 103.5t103 42.5t100.5 -42t40.5 -104
q0 -60 -40.5 -101.5t-100.5 -41.5t-103 41.5t-43 101.5zM215 -578q0 61 41.5 103.5t101.5 42.5t101 -42t41 -104q0 -60 -41 -101.5t-101 -41.5t-101.5 41.5t-41.5 101.5z" />
    <glyph glyph-name="uniFB59" unicode="&#x67e;" horiz-adv-x="864" arabic-form="medial" 
d="M864 307h33v-303q0 -4 -33 -4h-2q-232 0 -430 115q-198 -115 -430 -115h-2q-33 0 -33 4v303h33q174 0 287 55v678h291v-678q113 -55 286 -55zM106 -276q0 60 42.5 101.5t103.5 41.5q60 0 100.5 -41.5t40.5 -101.5t-40.5 -102t-100.5 -42q-61 0 -103.5 42t-42.5 102z
M479 -279q0 61 43 103.5t103 42.5t100.5 -42t40.5 -104q0 -60 -40.5 -101.5t-100.5 -41.5t-103 41.5t-43 101.5zM293 -578q0 61 41.5 103.5t101.5 42.5t101 -42t41 -104q0 -60 -41 -101.5t-101 -41.5t-101.5 41.5t-41.5 101.5z" />
    <glyph glyph-name="uniFB67" unicode="&#x679;" horiz-adv-x="2531" arabic-form="final" 
d="M2531 307h33v-303q0 -4 -33 -4h-2q-241 0 -428 115q-201 -115 -549 -115h-796q-304 0 -458.5 121t-154.5 389q0 169 64 367l268 -48q-41 -134 -41 -231q0 -291 338 -291h838q108 0 201 18t143 46v669h293v-678q113 -55 284 -55zM1462 1231v-217h-592v160h45v366h148v-192
q107 88 215 88q87 0 135.5 -55.5t48.5 -149.5zM1063 1174h246v38q0 84 -74 84q-71 0 -172 -94v-28z" />
    <glyph glyph-name="uniFB68" unicode="&#x679;" horiz-adv-x="741" arabic-form="initial" 
d="M578 1040v-864q-89 -77 -245 -126.5t-331 -49.5h-2q-33 0 -33 4v303h33q177 0 287 45v688h291zM698 1448v-217h-592v160h46v366h147v-192q107 88 215 88q87 0 135.5 -55.5t48.5 -149.5zM299 1391h246v39q0 83 -74 83q-71 0 -172 -94v-28z" />
    <glyph glyph-name="uniFB69" unicode="&#x679;" horiz-adv-x="864" arabic-form="medial" 
d="M864 307h33v-303q0 -4 -33 -4h-2q-232 0 -430 115q-198 -115 -430 -115h-2q-33 0 -33 4v303h33q174 0 287 55v678h291v-678q113 -55 286 -55zM707 1448v-217h-592v160h45v366h147v-192q107 88 215 88q87 0 136 -56t49 -149zM307 1391h246v39q0 83 -74 83q-71 0 -172 -94
v-28z" />
    <glyph glyph-name="uniFB6B" unicode="&#x6a4;" horiz-adv-x="2703" arabic-form="final" 
d="M2736 307v-303q0 -4 -33 -4h-1947q-304 0 -458.5 121t-154.5 389q0 169 64 367l268 -48q-41 -134 -41 -231q0 -291 338 -291h887q-225 129 -225 383q0 209 151 331t387 122q232 0 451 -119v-717h313zM1729 649q0 -122 106.5 -197t296.5 -96v465q-78 37 -172 37
q-106 0 -168.5 -56.5t-62.5 -152.5zM1827 1737q0 61 41.5 103t101.5 42t100.5 -41.5t40.5 -103.5q0 -60 -40.5 -102t-100.5 -42t-101.5 42t-41.5 102zM1640 1438q0 60 42.5 101.5t103.5 41.5q60 0 100.5 -41.5t40.5 -101.5t-40.5 -102t-100.5 -42q-61 0 -103.5 42t-42.5 102
zM2013 1438q0 61 42 102t104 41q60 0 100.5 -41t40.5 -102q0 -60 -40.5 -102t-100.5 -42t-103 42t-43 102z" />
    <glyph glyph-name="uniFB6C" unicode="&#x6a4;" horiz-adv-x="1349" arabic-form="initial" 
d="M1186 1024v-889q-108 -62 -291 -98.5t-399 -36.5h-496q-33 0 -33 4v303h471q-241 125 -241 383q0 140 71 244t191.5 156.5t273.5 52.5q234 0 453 -119zM489 651q0 -125 107.5 -196.5t296.5 -85.5v452q-78 37 -170 37q-107 0 -170.5 -55.5t-63.5 -151.5zM586 1737
q0 61 41.5 103t101.5 42t100.5 -41.5t40.5 -103.5q0 -60 -40.5 -102t-100.5 -42t-101.5 42t-41.5 102zM399 1438q0 60 42.5 101.5t103.5 41.5q60 0 100.5 -41.5t40.5 -101.5t-40.5 -102t-100.5 -42q-61 0 -103.5 42t-42.5 102zM772 1438q0 61 42 102t104 41q60 0 100.5 -41
t40.5 -102q0 -60 -40.5 -102t-100.5 -42t-103 42t-43 102z" />
    <glyph glyph-name="uniFB6D" unicode="&#x6a4;" horiz-adv-x="1437" arabic-form="medial" 
d="M1061 307h377v-307h-1438v307h377q-182 156 -182 379q0 206 146.5 334.5t377.5 128.5q234 0 379 -127t145 -336q0 -223 -182 -379zM489 641q0 -96 65 -173.5t167 -117.5q99 40 163 117.5t64 173.5q0 99 -63.5 161t-163.5 62q-103 0 -167.5 -61.5t-64.5 -161.5zM575 1743
q0 61 42 103t102 42t100.5 -41.5t40.5 -103.5q0 -60 -40.5 -102t-100.5 -42t-102 42t-42 102zM389 1444q0 60 42.5 101.5t103.5 41.5q60 0 100.5 -41.5t40.5 -101.5t-40.5 -102t-100.5 -42q-61 0 -103.5 42t-42.5 102zM762 1444q0 61 41.5 102t103.5 41q60 0 101 -41
t41 -102q0 -60 -41 -102t-101 -42t-102.5 42t-42.5 102z" />
    <glyph glyph-name="uniFB7B" unicode="&#x686;" horiz-adv-x="1499" arabic-form="final" 
d="M1532 307v-303q0 -4 -33 -4h-905q-99 0 -159 -49.5t-60 -136.5q0 -92 60 -144.5t163 -52.5h127v-307h-57q-285 0 -446 130.5t-161 364.5q0 233 162.5 365.5t442.5 132.5h319q-43 50 -71 106t-58 150q-37 122 -59 170q-56 121 -203 121q-115 0 -252 -84l-156 203
q198 155 432 155q110 0 189 -25t137 -82t98 -138t74 -203q36 -129 70.5 -207t87.5 -131q29 -31 115 -31h143zM893 -408q-61 0 -103 42t-42 102t42 101.5t103 41.5q60 0 100.5 -41.5t40.5 -101.5t-40.5 -102t-100.5 -42zM1407 -266q0 -60 -40.5 -102t-100.5 -42t-103 42
t-43 102q0 61 43 103t103 42t100.5 -41.5t40.5 -103.5zM1219 -565q0 -60 -41 -102t-101 -42t-101.5 42t-41.5 102q0 61 41.5 103t101.5 42t101 -42t41 -103z" />
    <glyph glyph-name="uniFB7C" unicode="&#x686;" horiz-adv-x="1343" arabic-form="initial" 
d="M1245 264l-80 -264h-1165q-33 0 -33 4v303h879q-41 46 -67 99.5t-58 150.5q-19 63 -31 98t-29 72.5t-33 55.5t-41.5 34.5t-56 23t-73.5 9.5q-115 0 -252 -84l-160 203q201 155 436 155q212 0 321 -102t177 -342q25 -82 63 -186q73 -184 203 -230zM260 -276
q0 60 42.5 101.5t103.5 41.5q60 0 100.5 -41.5t40.5 -101.5t-40.5 -102t-100.5 -42q-61 0 -103.5 42t-42.5 102zM633 -279q0 61 42.5 103.5t102.5 42.5t101 -42t41 -104q0 -60 -41 -101.5t-101 -41.5t-102.5 41.5t-42.5 101.5zM446 -578q0 61 42 103.5t102 42.5t100.5 -42
t40.5 -104q0 -60 -40.5 -101.5t-100.5 -41.5t-102 41.5t-42 101.5z" />
    <glyph glyph-name="uniFB7D" unicode="&#x686;" horiz-adv-x="1357" arabic-form="medial" 
d="M1391 307v-303q0 -4 -31 -4h-1360q-33 0 -33 4v303h877q-44 51 -71.5 106t-53.5 146q-35 116 -60 170q-56 121 -204 121q-113 0 -250 -84l-160 203q201 155 434 155q110 0 188.5 -24.5t137 -81t98.5 -137t76 -203.5q35 -127 67 -201.5t80 -128.5q19 -23 49.5 -32t90.5 -9
h125zM256 -276q0 60 42 101.5t103 41.5q60 0 101 -41.5t41 -101.5t-41 -102t-101 -42q-61 0 -103 42t-42 102zM629 -279q0 61 42.5 103.5t102.5 42.5t100.5 -42t40.5 -104q0 -60 -40.5 -101.5t-100.5 -41.5t-102.5 41.5t-42.5 101.5zM442 -578q0 61 42 103.5t102 42.5
t100.5 -42t40.5 -104q0 -60 -40.5 -101.5t-100.5 -41.5t-102 41.5t-42 101.5z" />
    <glyph glyph-name="uniFB89" unicode="&#x688;" horiz-adv-x="1312" arabic-form="final" 
d="M1346 307v-303q0 -4 -33 -4h-1221v307h672v254q0 114 -58 159.5t-190 45.5h-244v291h177q233 0 363.5 -46.5t186.5 -149t56 -286.5v-268h291zM733 1462v-217h-592v160h45v367h148v-193q107 88 215 88q87 0 135.5 -55.5t48.5 -149.5zM334 1405h246v39q0 84 -74 84
q-71 0 -172 -94v-29z" />
    <glyph glyph-name="uniFB8B" unicode="&#x698;" horiz-adv-x="903" arabic-form="final" 
d="M903 307h33v-303q0 -4 -33 -4h-2q-149 0 -289 51q-7 -298 -157 -443t-420 -145q-43 0 -148 11l56 295q18 -2 82 -2q161 0 229 73t68 234v934h290v-639q112 -62 291 -62zM328 1630q0 61 41.5 103.5t101.5 42.5t100.5 -42t40.5 -104q0 -60 -40.5 -101.5t-100.5 -41.5
t-101.5 41.5t-41.5 101.5zM141 1331q0 60 42.5 102t103.5 42q60 0 100.5 -42t40.5 -102t-40.5 -101.5t-100.5 -41.5q-61 0 -103.5 41.5t-42.5 101.5zM514 1331q0 61 41.5 102.5t103.5 41.5q60 0 101 -41.5t41 -102.5q0 -60 -41 -101.5t-101 -41.5t-102.5 41.5t-42.5 101.5z
" />
    <glyph glyph-name="uniFB8D" unicode="&#x691;" horiz-adv-x="903" arabic-form="final" 
d="M903 307h33v-303q0 -4 -33 -4h-2q-149 0 -289 51q-7 -298 -157 -443t-420 -145q-43 0 -148 11l56 295q18 -2 82 -2q161 0 229 73t68 234v934h290v-639q112 -62 291 -62zM741 1425v-217h-591v160h45v367h147v-193q107 88 215 88q87 0 135.5 -55.5t48.5 -149.5zM342 1368
h246v39q0 84 -74 84q-71 0 -172 -94v-29z" />
    <glyph glyph-name="uniFB8F" unicode="&#x6a9;" horiz-adv-x="2355" arabic-form="final" 
d="M2355 307h33v-303q0 -4 -33 -4h-2q-182 0 -334 82q-233 -82 -534 -82h-729q-304 0 -458.5 121t-154.5 389q0 169 64 367l268 -48q-41 -134 -41 -231q0 -291 338 -291h744q215 0 342 60v63q-6 106 -65 150t-263 104l-293 80l-61 229l745 566l147 -187l-540 -405l149 -43
q113 -33 186.5 -63t131.5 -68.5t89 -88.5t47.5 -114.5t18.5 -155.5v-82q68 -45 205 -45z" />
    <glyph glyph-name="uniFB90" unicode="&#x6a9;" horiz-adv-x="1251" arabic-form="initial" 
d="M1104 442v-299q-118 -68 -307 -106q-179 -37 -359 -37h-438q-33 0 -33 4v303h502q98 0 190 18t152 46v63q-3 39 -8.5 64.5t-22 49.5t-37.5 39.5t-64.5 34.5t-93 34.5t-132.5 39.5l-263 72l-61 229l745 566l148 -187l-541 -405l119 -33q101 -30 166 -53.5t126 -54.5
t95.5 -64t62 -80.5t39.5 -106t15 -137.5z" />
    <glyph glyph-name="uniFB91" unicode="&#x6a9;" horiz-adv-x="1308" arabic-form="medial" 
d="M1309 307h32v-303q0 -4 -32 -4h-2q-179 0 -338 84q-241 -84 -531 -84h-438q-33 0 -33 4v303h502q98 0 190 18t152 46v63q-3 47 -12.5 76.5t-29 54.5t-63 45.5t-99.5 39.5t-154 46l-263 72l-61 229l745 566l148 -187l-541 -405l119 -33q101 -30 166 -53.5t126 -54.5
t95.5 -64t62 -80.5t39.5 -106t15 -137.5v-88q77 -47 205 -47z" />
    <glyph glyph-name="uniFB93" unicode="&#x6af;" horiz-adv-x="2355" arabic-form="final" 
d="M1778 1581l-633 -475l-35 131l590 444zM2355 307h33v-303q0 -4 -33 -4h-2q-180 0 -332 82q-236 -82 -536 -82h-729q-304 0 -458.5 121t-154.5 389q0 169 64 367l268 -48q-41 -134 -41 -231q0 -291 338 -291h744q215 0 342 60v63q-6 106 -65 150t-263 104l-293 80l-61 229
l745 566l147 -187l-540 -405l149 -43q113 -33 186.5 -63t131.5 -68.5t89 -88.5t47.5 -114.5t18.5 -155.5v-84q82 -43 205 -43z" />
    <glyph glyph-name="uniFB94" unicode="&#x6af;" horiz-adv-x="1251" arabic-form="initial" 
d="M731 1581l-631 -475l-37 131l590 444zM1104 442v-299q-118 -68 -307 -106q-179 -37 -359 -37h-438q-33 0 -33 4v303h502q98 0 190 18t152 46v63q-3 39 -8.5 64.5t-22 49.5t-37.5 39.5t-64.5 34.5t-93 34.5t-132.5 39.5l-263 72l-61 229l745 566l148 -187l-541 -405
l119 -33q101 -30 166 -53.5t126 -54.5t95.5 -64t62 -80.5t39.5 -106t15 -137.5z" />
    <glyph glyph-name="uniFB95" unicode="&#x6af;" horiz-adv-x="1308" arabic-form="medial" 
d="M731 1581l-631 -475l-37 131l590 444zM1309 307h32v-303q0 -4 -32 -4h-2q-179 0 -338 84q-241 -84 -531 -84h-438q-33 0 -33 4v303h502q98 0 190 18t152 46v63q-3 47 -12.5 76.5t-29 54.5t-63 45.5t-99.5 39.5t-154 46l-263 72l-61 229l745 566l148 -187l-541 -405
l119 -33q101 -30 166 -53.5t126 -54.5t95.5 -64t62 -80.5t39.5 -106t15 -137.5v-88q77 -47 205 -47z" />
    <glyph glyph-name="uniFB9F" unicode="&#x6ba;" horiz-adv-x="1843" arabic-form="final" 
d="M1843 307h33v-303q0 -4 -33 -4h-2q-162 0 -293 61v-403q-343 -195 -690 -195q-335 0 -527 183t-192 495q0 150 43 312l267 -52q-27 -99 -27 -200q0 -209 122 -320.5t351 -111.5q197 0 383 79v945h278v-379q0 -53 52 -68q95 -39 235 -39z" />
    <glyph glyph-name="uniFBA7" unicode="&#x6c1;" horiz-adv-x="1302" arabic-form="final" 
d="M1303 307h32v-303q0 -4 -32 -4q-78 3 -126 8t-96 23.5t-78 41t-70 73.5t-73.5 106.5t-87.5 153.5l-74 143q-50 -5 -82.5 -41.5t-70.5 -134.5l-146 -373l-276 92l182 461q63 165 152 229q86 62 225 62h178l225 -422q46 -66 94.5 -90.5t123.5 -24.5z" />
    <glyph glyph-name="uniFBA8" unicode="&#x6c1;" horiz-adv-x="741" arabic-form="initial" 
d="M287 1008h291v-809q-89 -91 -240.5 -145t-335.5 -54h-2q-33 0 -33 4v303h33q168 0 287 53v648zM498 -276h24l-16 -177h-29q-116 0 -183 53t-67 146q0 71 41 130.5t123 94.5l37 -49q-59 -53 -59 -110q0 -88 129 -88z" />
    <glyph glyph-name="uniFBA9" unicode="&#x6c1;" horiz-adv-x="1421" arabic-form="medial" 
d="M1454 307v-303q0 -4 -33 -4h-51q-109 0 -154 -47.5t-45 -149.5v-446h-176q-159 0 -291 51t-223.5 142t-144.5 218.5t-60 280.5q-131 -49 -274 -49h-2q-33 0 -33 4v303h33q167 0 274 58v270h291v-471q0 -221 74 -341t240 -149v199q0 199 114.5 316.5t321.5 117.5h139z" />
    <glyph glyph-name="uniFBAB" unicode="&#x6be;" horiz-adv-x="1912" arabic-form="final" 
d="M1946 307v-303q0 -4 -33 -4h-1788q-33 0 -33 4v303h318q-95 109 -95 264q0 181 122 287.5t308 106.5t309.5 -108t123.5 -286q0 -155 -97 -266l287 -2v225q0 311 -168 451q-166 141 -434 141q-140 0 -256 -26v270q117 20 264 20q403 0 645 -213q240 -212 240 -659v-205
h287zM575 524q0 -89 43.5 -145.5t126.5 -69.5q83 13 126.5 69.5t43.5 145.5q0 84 -47 134.5t-123 50.5t-123 -50.5t-47 -134.5z" />
    <glyph glyph-name="uniFBAC" unicode="&#x6be;" horiz-adv-x="1673" arabic-form="initial" 
d="M1536 512v-512h-1536q-33 0 -33 4v303h320q-97 111 -97 264q0 118 59.5 209t157 138t214.5 47q186 0 309 -108t123 -286q0 -155 -97 -266l287 -2v225q0 311 -168 451q-167 141 -434 141q-140 0 -256 -26v270q120 20 264 20q405 0 647 -213q240 -212 240 -659zM451 524
q0 -89 44 -145.5t128 -69.5q83 13 126.5 69.5t43.5 145.5q0 84 -47 134.5t-123 50.5t-124 -50.5t-48 -134.5z" />
    <glyph glyph-name="uniFBAD" unicode="&#x6be;" horiz-adv-x="1771" arabic-form="medial" 
d="M1804 307v-303q0 -4 -32 -4h-1772q-33 0 -33 4v303h320q-97 111 -97 264q0 118 59.5 209t157 138t214.5 47q186 0 309 -108t123 -286q0 -155 -97 -266l287 -2v225q0 311 -168 451q-167 141 -434 141q-140 0 -256 -26v270q120 20 264 20q405 0 647 -213q240 -212 240 -659
v-205h268zM451 524q0 -89 44 -145.5t128 -69.5q83 13 126.5 69.5t43.5 145.5q0 84 -47 134.5t-123 50.5t-124 -50.5t-48 -134.5z" />
    <glyph glyph-name="uniFBAF" unicode="&#x6d2;" horiz-adv-x="1654" arabic-form="final" 
d="M1688 307v-303q0 -4 -33 -4h-1106q-115 0 -115 -82q0 -80 115 -80h551v-303h-475q-237 0 -359.5 100.5t-122.5 288.5q0 189 121.5 286t360.5 97h1063z" />
    <glyph glyph-name="uniFBB1" unicode="&#x6d3;" horiz-adv-x="1654" arabic-form="final" 
d="M1688 307v-303q0 -4 -33 -4h-1106q-115 0 -115 -82q0 -80 115 -80h551v-303h-475q-237 0 -359.5 100.5t-122.5 288.5q0 189 121.5 286t360.5 97h1063zM727 668h125v-176h-444v176h98q-45 51 -45 120q0 80 54.5 133.5t143.5 53.5q103 0 177 -74l-99 -100q-22 22 -61 22
q-32 0 -52 -19.5t-20 -51.5q0 -38 31.5 -61t91.5 -23z" />
    <glyph glyph-name="uniFBE8" unicode="&#x649;" horiz-adv-x="741" arabic-form="initial" 
d="M578 1040v-864q-89 -77 -245 -126.5t-331 -49.5h-2q-33 0 -33 4v303h33q177 0 287 45v688h291z" />
    <glyph glyph-name="uniFBE9" unicode="&#x649;" horiz-adv-x="864" arabic-form="medial" 
d="M864 307h33v-303q0 -4 -33 -4h-2q-232 0 -430 115q-198 -115 -430 -115h-2q-33 0 -33 4v303h33q174 0 287 55v678h291v-678q113 -55 286 -55z" />
    <glyph glyph-name="uniFBFD" unicode="&#x6cc;" horiz-adv-x="2387" arabic-form="final" 
d="M2388 307h33v-303q0 -4 -33 -4q-243 0 -355 72.5t-173 275.5l-70 240h-193q-69 0 -108 -30t-39 -85q0 -17 10 -59l211 -715q-143 -88 -362 -160q-219 -76 -439 -76q-339 0 -535 181.5t-196 494.5q0 155 43 312l267 -50q-27 -99 -27 -198q0 -210 123 -322t352 -112
q110 0 236 24q133 25 206 57l-163 535q-25 86 -25 156q0 153 106.5 242t276.5 89h467l110 -389q22 -71 49 -106.5t79.5 -52.5t148.5 -17z" />
    <glyph glyph-name="uniFBFE" unicode="&#x6cc;" horiz-adv-x="741" arabic-form="initial" 
d="M578 1040v-864q-89 -77 -245 -126.5t-331 -49.5h-2q-33 0 -33 4v303h33q177 0 287 45v688h291zM-8 -295q0 68 47.5 115t116.5 47q66 0 112.5 -47.5t46.5 -114.5q0 -68 -46.5 -116t-112.5 -48q-69 0 -116.5 48t-47.5 116zM401 -295q0 68 47.5 115t116.5 47
q67 0 114.5 -47.5t47.5 -114.5q0 -68 -47.5 -116t-114.5 -48q-69 0 -116.5 48t-47.5 116z" />
    <glyph glyph-name="uniFBFF" unicode="&#x6cc;" horiz-adv-x="864" arabic-form="medial" 
d="M864 307h33v-303q0 -4 -33 -4h-2q-232 0 -430 115q-198 -115 -430 -115h-2q-33 0 -33 4v303h33q174 0 287 55v678h291v-678q113 -55 286 -55zM70 -295q0 68 47 115t116 47q66 0 113 -47.5t47 -114.5q0 -68 -47 -116t-113 -48q-69 0 -116 48t-47 116zM479 -295
q0 68 47.5 115t116.5 47q67 0 114.5 -47.5t47.5 -114.5q0 -68 -47.5 -116t-114.5 -48q-69 0 -116.5 48t-47.5 116z" />
    <glyph glyph-name="uniFE82" unicode="&#x622;" horiz-adv-x="757" arabic-form="final" 
d="M758 307h33v-303q0 -4 -33 -4h-2q-131 0 -251.5 28.5t-209.5 77.5q-66 37 -90.5 81t-24.5 124v1184h291v-1133q116 -55 287 -55zM518 1862l94 -19q-5 -108 -45 -156.5t-139 -44.5l-197 7q-47 2 -72 -9.5t-38 -40.5l-92 19q2 108 44 157.5t146 43.5l189 -9q50 -1 74 10.5
t36 41.5z" />
    <glyph glyph-name="uniFE84" unicode="&#x623;" horiz-adv-x="757" arabic-form="final" 
d="M758 307h33v-303q0 -4 -33 -4h-2q-131 0 -251.5 28.5t-209.5 77.5q-66 37 -90.5 81t-24.5 124v1184h291v-1133q116 -55 287 -55zM422 1815h125v-177h-445v177h99q-45 51 -45 120q0 80 54.5 133.5t143.5 53.5q102 0 176 -74l-98 -100q-22 22 -61 22q-32 0 -52 -20t-20 -52
q0 -38 31.5 -60.5t91.5 -22.5z" />
    <glyph glyph-name="uniFE86" unicode="&#x624;" horiz-adv-x="1419" arabic-form="final" 
d="M1452 307v-303q0 -4 -33 -4h-286q-23 -273 -183 -405t-434 -132q-193 0 -373 58l52 278q177 -53 329 -53q162 0 237 62t81 192h-131q-285 0 -443.5 138.5t-158.5 365.5q0 233 152.5 374.5t412.5 141.5q230 0 461 -111v-602h317zM664 307h178v398q-87 40 -185 40
q-115 0 -185.5 -57.5t-70.5 -161.5q0 -103 71.5 -161t191.5 -58zM770 1354h125v-176h-444v176h98q-45 51 -45 121q0 80 54.5 133t143.5 53q103 0 177 -74l-99 -100q-22 22 -61 22q-32 0 -52 -19.5t-20 -51.5q0 -38 31.5 -61t91.5 -23z" />
    <glyph glyph-name="uniFE88" unicode="&#x625;" horiz-adv-x="757" arabic-form="final" 
d="M758 307h33v-303q0 -4 -33 -4h-2q-131 0 -251.5 28.5t-209.5 77.5q-66 37 -90.5 81t-24.5 124v1184h291v-1133q116 -55 287 -55zM459 -442h125v-174h-445v174h99q-45 51 -45 120q0 81 54.5 135t143.5 54q102 0 176 -74l-98 -102q-24 24 -61 24q-32 0 -52 -20t-20 -51
q0 -38 32 -62t91 -24z" />
    <glyph glyph-name="uniFE8A" unicode="&#x626;" horiz-adv-x="2387" arabic-form="final" 
d="M2388 307h33v-303q0 -4 -33 -4q-243 0 -355 72.5t-173 275.5l-70 240h-193q-69 0 -108 -30t-39 -85q0 -17 10 -59l211 -715q-143 -88 -362 -160q-219 -76 -439 -76q-339 0 -535 181.5t-196 494.5q0 155 43 312l267 -50q-27 -99 -27 -198q0 -210 123 -322t352 -112
q110 0 236 24q133 25 206 57l-163 535q-25 86 -25 156q0 153 106.5 242t276.5 89h467l110 -389q22 -71 49 -106.5t79.5 -52.5t148.5 -17zM498 809h125v-176h-445v176h98q-45 51 -45 121q0 80 55 133t144 53q102 0 176 -74l-98 -100q-23 23 -62 23q-32 0 -51.5 -20t-19.5 -52
q0 -38 31.5 -61t91.5 -23z" />
    <glyph glyph-name="uniFE8B" unicode="&#x626;" horiz-adv-x="741" arabic-form="initial" 
d="M578 1040v-864q-89 -77 -245 -126.5t-331 -49.5h-2q-33 0 -33 4v303h33q177 0 287 45v688h291zM524 1397h125v-176h-444v176h98q-45 51 -45 121q0 80 55 133t144 53q102 0 176 -74l-98 -100q-22 22 -62 22q-32 0 -52 -19.5t-20 -51.5q0 -38 31.5 -61t91.5 -23z" />
    <glyph glyph-name="uniFE8C" unicode="&#x626;" horiz-adv-x="864" arabic-form="medial" 
d="M864 307h33v-303q0 -4 -33 -4h-2q-232 0 -430 115q-198 -115 -430 -115h-2q-33 0 -33 4v303h33q174 0 287 55v678h291v-678q113 -55 286 -55zM532 1397h125v-176h-444v176h98q-45 51 -45 121q0 80 55 133t144 53q102 0 176 -74l-98 -100q-22 22 -62 22q-32 0 -51.5 -19.5
t-19.5 -51.5q0 -38 31 -61t91 -23z" />
    <glyph glyph-name="uniFE8E" unicode="&#x627;" horiz-adv-x="757" arabic-form="final" 
d="M758 307h33v-303q0 -4 -33 -4h-2q-131 0 -251.5 28.5t-209.5 77.5q-66 37 -90.5 81t-24.5 124v1184h291v-1133q116 -55 287 -55z" />
    <glyph glyph-name="uniFE90" unicode="&#x628;" horiz-adv-x="2531" arabic-form="final" 
d="M2531 307h33v-303q0 -4 -33 -4h-2q-241 0 -428 115q-201 -115 -549 -115h-796q-304 0 -458.5 121t-154.5 389q0 169 64 367l268 -48q-41 -134 -41 -231q0 -291 338 -291h838q108 0 201 18t143 46v669h293v-678q113 -55 284 -55zM1059 -297q0 69 47.5 116.5t116.5 47.5
q68 0 115.5 -47.5t47.5 -116.5t-47.5 -116.5t-115.5 -47.5q-69 0 -116.5 47.5t-47.5 116.5z" />
    <glyph glyph-name="uniFE91" unicode="&#x628;" horiz-adv-x="741" arabic-form="initial" 
d="M578 1040v-864q-89 -77 -245 -126.5t-331 -49.5h-2q-33 0 -33 4v303h33q177 0 287 45v688h291zM195 -297q0 69 47 116.5t116 47.5q68 0 116 -47.5t48 -116.5t-48 -116.5t-116 -47.5q-69 0 -116 47.5t-47 116.5z" />
    <glyph glyph-name="uniFE92" unicode="&#x628;" horiz-adv-x="864" arabic-form="medial" 
d="M864 307h33v-303q0 -4 -33 -4h-2q-232 0 -430 115q-198 -115 -430 -115h-2q-33 0 -33 4v303h33q174 0 287 55v678h291v-678q113 -55 286 -55zM272 -297q0 69 47.5 116.5t116.5 47.5q68 0 116 -47.5t48 -116.5t-48 -116.5t-116 -47.5q-69 0 -116.5 47.5t-47.5 116.5z" />
    <glyph glyph-name="uniFE94" unicode="&#x629;" horiz-adv-x="1413" arabic-form="final" 
d="M1446 307v-303q0 -4 -33 -4h-698q-278 0 -442 143.5t-164 376.5q0 239 152 381.5t413 142.5q126 0 248.5 -31.5t207.5 -78.5v-627h316zM664 307h176v420q-84 41 -189 41q-114 0 -183 -60.5t-69 -172.5q0 -109 71 -168.5t194 -59.5zM307 1362q0 68 47.5 115t116.5 47
q66 0 113 -47.5t47 -114.5q0 -68 -47 -116t-113 -48q-69 0 -116.5 48t-47.5 116zM717 1362q0 68 47.5 115t116.5 47q67 0 114 -47t47 -115t-47 -116t-114 -48q-69 0 -116.5 48t-47.5 116z" />
    <glyph glyph-name="uniFE96" unicode="&#x62a;" horiz-adv-x="2531" arabic-form="final" 
d="M2531 307h33v-303q0 -4 -33 -4h-2q-241 0 -428 115q-201 -115 -549 -115h-796q-304 0 -458.5 121t-154.5 389q0 169 64 367l268 -48q-41 -134 -41 -231q0 -291 338 -291h838q108 0 201 18t143 46v669h293v-678q113 -55 284 -55zM825 1157q0 68 47.5 115t116.5 47
q66 0 113 -47.5t47 -114.5q0 -68 -47 -116t-113 -48q-69 0 -116.5 48t-47.5 116zM1235 1157q0 68 47.5 115t116.5 47q67 0 114.5 -47.5t47.5 -114.5q0 -68 -47.5 -116t-114.5 -48q-69 0 -116.5 48t-47.5 116z" />
    <glyph glyph-name="uniFE97" unicode="&#x62a;" horiz-adv-x="741" arabic-form="initial" 
d="M578 1040v-864q-89 -77 -245 -126.5t-331 -49.5h-2q-33 0 -33 4v303h33q177 0 287 45v688h291zM61 1374q0 68 47.5 115t116.5 47q66 0 113 -47.5t47 -114.5q0 -68 -47 -116t-113 -48q-69 0 -116.5 48t-47.5 116zM471 1374q0 68 47.5 115t116.5 47q67 0 114.5 -47
t47.5 -115t-47.5 -116t-114.5 -48q-69 0 -116.5 48t-47.5 116z" />
    <glyph glyph-name="uniFE98" unicode="&#x62a;" horiz-adv-x="864" arabic-form="medial" 
d="M864 307h33v-303q0 -4 -33 -4h-2q-232 0 -430 115q-198 -115 -430 -115h-2q-33 0 -33 4v303h33q174 0 287 55v678h291v-678q113 -55 286 -55zM70 1374q0 68 47 115t116 47q66 0 113 -47.5t47 -114.5q0 -68 -47 -116t-113 -48q-69 0 -116 48t-47 116zM479 1374
q0 68 47.5 115t116.5 47q67 0 114.5 -47t47.5 -115t-47.5 -116t-114.5 -48q-69 0 -116.5 48t-47.5 116z" />
    <glyph glyph-name="uniFE9A" unicode="&#x62b;" horiz-adv-x="2531" arabic-form="final" 
d="M2531 307h33v-303q0 -4 -33 -4h-2q-241 0 -428 115q-201 -115 -549 -115h-796q-304 0 -458.5 121t-154.5 389q0 169 64 367l268 -48q-41 -134 -41 -231q0 -291 338 -291h838q108 0 201 18t143 46v669h293v-678q113 -55 284 -55zM1049 1436q0 61 41.5 103t101.5 42
t100.5 -41.5t40.5 -103.5q0 -60 -40.5 -102t-100.5 -42t-101.5 42t-41.5 102zM862 1137q0 60 42.5 101.5t103.5 41.5q60 0 100.5 -41.5t40.5 -101.5t-40.5 -102t-100.5 -42q-61 0 -103.5 42t-42.5 102zM1235 1137q0 61 41.5 102t103.5 41q60 0 101 -41t41 -102
q0 -60 -41 -102t-101 -42t-102.5 42t-42.5 102z" />
    <glyph glyph-name="uniFE9B" unicode="&#x62b;" horiz-adv-x="741" arabic-form="initial" 
d="M578 1040v-864q-89 -77 -245 -126.5t-331 -49.5h-2q-33 0 -33 4v303h33q177 0 287 45v688h291zM285 1653q0 61 41.5 103t101.5 42t100.5 -41.5t40.5 -103.5q0 -60 -40.5 -102t-100.5 -42t-101.5 42t-41.5 102zM98 1354q0 60 42.5 101.5t103.5 41.5q60 0 100.5 -41.5
t40.5 -101.5t-40.5 -102t-100.5 -42q-61 0 -103.5 42t-42.5 102zM471 1354q0 61 41.5 102t103.5 41q60 0 101 -41t41 -102q0 -60 -41 -102t-101 -42t-102.5 42t-42.5 102z" />
    <glyph glyph-name="uniFE9C" unicode="&#x62b;" horiz-adv-x="864" arabic-form="medial" 
d="M864 307h33v-303q0 -4 -33 -4h-2q-232 0 -430 115q-198 -115 -430 -115h-2q-33 0 -33 4v303h33q174 0 287 55v678h291v-678q113 -55 286 -55zM293 1653q0 61 41.5 103t101.5 42t101 -42t41 -103q0 -60 -41 -102t-101 -42t-101.5 42t-41.5 102zM106 1354q0 60 42.5 101.5
t103.5 41.5q60 0 100.5 -41.5t40.5 -101.5t-40.5 -102t-100.5 -42q-61 0 -103.5 42t-42.5 102zM479 1354q0 61 42 102t104 41q60 0 100.5 -41t40.5 -102q0 -60 -40.5 -102t-100.5 -42t-103 42t-43 102z" />
    <glyph glyph-name="uniFE9E" unicode="&#x62c;" horiz-adv-x="1499" arabic-form="final" 
d="M1532 307v-303q0 -4 -33 -4h-893q-104 0 -167.5 -50.5t-63.5 -137.5t63.5 -138t169.5 -51h310v-307h-244q-290 0 -451.5 128t-161.5 361q0 237 153.5 367.5t432.5 130.5h338q-43 50 -71 106t-58 150q-37 122 -59 170q-56 121 -203 121q-115 0 -252 -84l-156 203
q198 155 432 155q110 0 189 -25t137 -82t98 -138t74 -203q36 -129 70.5 -207t87.5 -131q29 -31 115 -31h143zM918 -279q0 68 47 115t116 47q66 0 114 -47.5t48 -114.5t-48 -115t-114 -48q-69 0 -116 47.5t-47 115.5z" />
    <glyph glyph-name="uniFE9F" unicode="&#x62c;" horiz-adv-x="1343" arabic-form="initial" 
d="M1245 264l-80 -264h-1165q-33 0 -33 4v303h879q-41 46 -67 99.5t-58 150.5q-19 63 -31 98t-29 72.5t-33 55.5t-41.5 34.5t-56 23t-73.5 9.5q-115 0 -252 -84l-160 203q201 155 436 155q212 0 321 -102t177 -342q25 -82 63 -186q73 -184 203 -230zM426 -297
q0 69 47.5 116.5t116.5 47.5q68 0 116 -47.5t48 -116.5t-48 -116.5t-116 -47.5q-69 0 -116.5 47.5t-47.5 116.5z" />
    <glyph glyph-name="uniFEA0" unicode="&#x62c;" horiz-adv-x="1357" arabic-form="medial" 
d="M1391 307v-303q0 -4 -31 -4h-1360q-33 0 -33 4v303h877q-44 51 -71.5 106t-53.5 146q-35 116 -60 170q-56 121 -204 121q-113 0 -250 -84l-160 203q201 155 434 155q110 0 188.5 -24.5t137 -81t98.5 -137t76 -203.5q35 -127 67 -201.5t80 -128.5q19 -23 49.5 -32t90.5 -9
h125zM424 -297q0 69 47.5 116.5t116.5 47.5q68 0 116 -47.5t48 -116.5t-48 -116.5t-116 -47.5q-69 0 -116.5 47.5t-47.5 116.5z" />
    <glyph glyph-name="uniFEA2" unicode="&#x62d;" horiz-adv-x="1499" arabic-form="final" 
d="M1532 307v-303q0 -4 -33 -4h-893q-104 0 -167.5 -50.5t-63.5 -137.5t63.5 -138t169.5 -51h310v-307h-244q-290 0 -451.5 128t-161.5 361q0 237 153.5 367.5t432.5 130.5h338q-43 50 -71 106t-58 150q-37 122 -59 170q-56 121 -203 121q-115 0 -252 -84l-156 203
q198 155 432 155q110 0 189 -25t137 -82t98 -138t74 -203q36 -129 70.5 -207t87.5 -131q29 -31 115 -31h143z" />
    <glyph glyph-name="uniFEA3" unicode="&#x62d;" horiz-adv-x="1343" arabic-form="initial" 
d="M1245 264l-80 -264h-1165q-33 0 -33 4v303h879q-41 46 -67 99.5t-58 150.5q-19 63 -31 98t-29 72.5t-33 55.5t-41.5 34.5t-56 23t-73.5 9.5q-115 0 -252 -84l-160 203q201 155 436 155q212 0 321 -102t177 -342q25 -82 63 -186q73 -184 203 -230z" />
    <glyph glyph-name="uniFEA4" unicode="&#x62d;" horiz-adv-x="1357" arabic-form="medial" 
d="M1391 307v-303q0 -4 -31 -4h-1360q-33 0 -33 4v303h877q-44 51 -71.5 106t-53.5 146q-35 116 -60 170q-56 121 -204 121q-113 0 -250 -84l-160 203q201 155 434 155q110 0 188.5 -24.5t137 -81t98.5 -137t76 -203.5q35 -127 67 -201.5t80 -128.5q19 -23 49.5 -32t90.5 -9
h125z" />
    <glyph glyph-name="uniFEA6" unicode="&#x62e;" horiz-adv-x="1499" arabic-form="final" 
d="M1532 307v-303q0 -4 -33 -4h-893q-104 0 -167.5 -50.5t-63.5 -137.5t63.5 -138t169.5 -51h310v-307h-244q-290 0 -451.5 128t-161.5 361q0 237 153.5 367.5t432.5 130.5h338q-43 50 -71 106t-58 150q-37 122 -59 170q-56 121 -203 121q-115 0 -252 -84l-156 203
q198 155 432 155q110 0 189 -25t137 -82t98 -138t74 -203q36 -129 70.5 -207t87.5 -131q29 -31 115 -31h143zM481 1423q0 69 48.5 116.5t117.5 47.5q68 0 115 -47.5t47 -116.5q0 -68 -47.5 -115.5t-114.5 -47.5q-69 0 -117.5 47.5t-48.5 115.5z" />
    <glyph glyph-name="uniFEA7" unicode="&#x62e;" horiz-adv-x="1343" arabic-form="initial" 
d="M1245 264l-80 -264h-1165q-33 0 -33 4v303h879q-41 46 -67 99.5t-58 150.5q-19 63 -31 98t-29 72.5t-33 55.5t-41.5 34.5t-56 23t-73.5 9.5q-115 0 -252 -84l-160 203q201 155 436 155q212 0 321 -102t177 -342q25 -82 63 -186q73 -184 203 -230zM338 1423
q0 69 48.5 116.5t117.5 47.5q68 0 115 -47.5t47 -116.5q0 -68 -47.5 -115.5t-114.5 -47.5q-69 0 -117.5 47.5t-48.5 115.5z" />
    <glyph glyph-name="uniFEA8" unicode="&#x62e;" horiz-adv-x="1357" arabic-form="medial" 
d="M1391 307v-303q0 -4 -31 -4h-1360q-33 0 -33 4v303h877q-44 51 -71.5 106t-53.5 146q-35 116 -60 170q-56 121 -204 121q-113 0 -250 -84l-160 203q201 155 434 155q110 0 188.5 -24.5t137 -81t98.5 -137t76 -203.5q35 -127 67 -201.5t80 -128.5q19 -23 49.5 -32t90.5 -9
h125zM336 1423q0 69 48.5 116.5t117.5 47.5q68 0 115 -47.5t47 -116.5q0 -68 -47.5 -115.5t-114.5 -47.5q-69 0 -117.5 47.5t-48.5 115.5z" />
    <glyph glyph-name="uniFEAA" unicode="&#x62f;" horiz-adv-x="1312" arabic-form="final" 
d="M1346 307v-303q0 -4 -33 -4h-1221v307h672v254q0 114 -58 159.5t-190 45.5h-244v291h177q233 0 363.5 -46.5t186.5 -149t56 -286.5v-268h291z" />
    <glyph glyph-name="uniFEAC" unicode="&#x630;" horiz-adv-x="1312" arabic-form="final" 
d="M1346 307v-303q0 -4 -33 -4h-1221v307h672v254q0 114 -58 159.5t-190 45.5h-244v291h177q233 0 363.5 -46.5t186.5 -149t56 -286.5v-268h291zM297 1389q0 69 48.5 116t117.5 47q68 0 115 -47t47 -116q0 -68 -47.5 -116t-114.5 -48q-69 0 -117.5 48t-48.5 116z" />
    <glyph glyph-name="uniFEAE" unicode="&#x631;" horiz-adv-x="903" arabic-form="final" 
d="M903 307h33v-303q0 -4 -33 -4h-2q-149 0 -289 51q-7 -298 -157 -443t-420 -145q-43 0 -148 11l56 295q18 -2 82 -2q161 0 229 73t68 234v934h290v-639q112 -62 291 -62z" />
    <glyph glyph-name="uniFEB0" unicode="&#x632;" horiz-adv-x="903" arabic-form="final" 
d="M903 307h33v-303q0 -4 -33 -4h-2q-149 0 -289 51q-7 -298 -157 -443t-420 -145q-43 0 -148 11l56 295q18 -2 82 -2q161 0 229 73t68 234v934h290v-639q112 -62 291 -62zM305 1352q0 69 48.5 116.5t117.5 47.5q68 0 115 -47.5t47 -116.5q0 -68 -47.5 -116t-114.5 -48
q-69 0 -117.5 48t-48.5 116z" />
    <glyph glyph-name="uniFEB2" unicode="&#x633;" horiz-adv-x="3168" arabic-form="final" 
d="M3168 307h33v-303q0 -4 -33 -4h-2q-206 0 -373 102q-159 -110 -339 -110q-177 0 -324 108q-138 -108 -318 -108q-152 0 -268 90v-424q-334 -195 -680 -195q-336 0 -530.5 183t-194.5 495q0 150 43 312l267 -52q-27 -99 -27 -200q0 -209 122 -320.5t351 -111.5
q197 0 383 79v945h293v-443q80 -51 182 -51q95 0 180 49v445h293v-445q85 -49 182 -49q101 0 181 51v535h293v-523q113 -55 286 -55z" />
    <glyph glyph-name="uniFEB3" unicode="&#x633;" horiz-adv-x="2052" arabic-form="initial" 
d="M1597 1018h291v-828q-85 -91 -206.5 -140.5t-262.5 -49.5q-176 0 -325 104q-149 -104 -330 -104q-197 0 -338 106q-175 -106 -424 -106h-2q-33 0 -33 4v303h33q154 0 287 55v431h291v-435q83 -51 182 -51q97 0 182 49v437h291v-437q88 -49 182 -49q102 0 182 51v660z" />
    <glyph glyph-name="uniFEB4" unicode="&#x633;" horiz-adv-x="2174" arabic-form="medial" 
d="M2175 307h33v-303q0 -4 -33 -4h-2q-215 0 -395 98q-154 -98 -359 -98q-176 0 -325 104q-149 -104 -330 -104q-197 0 -338 106q-175 -106 -424 -106h-2q-33 0 -33 4v303h33q154 0 287 55v431h291v-435q83 -51 182 -51q97 0 182 49v437h291v-437q88 -49 182 -49
q102 0 182 51v527h291v-523q113 -55 287 -55z" />
    <glyph glyph-name="uniFEB6" unicode="&#x634;" horiz-adv-x="3168" arabic-form="final" 
d="M3168 307h33v-303q0 -4 -33 -4h-2q-206 0 -373 102q-159 -110 -339 -110q-177 0 -324 108q-138 -108 -318 -108q-152 0 -268 90v-424q-334 -195 -680 -195q-336 0 -530.5 183t-194.5 495q0 150 43 312l267 -52q-27 -99 -27 -200q0 -209 122 -320.5t351 -111.5
q197 0 383 79v945h293v-443q80 -51 182 -51q95 0 180 49v445h293v-445q85 -49 182 -49q101 0 181 51v535h293v-523q113 -55 286 -55zM1935 1436q0 61 42 103t102 42t100.5 -41.5t40.5 -103.5q0 -60 -40.5 -102t-100.5 -42t-102 42t-42 102zM1749 1137q0 60 42 101.5
t103 41.5q60 0 101 -41.5t41 -101.5t-41 -102t-101 -42q-61 0 -103 42t-42 102zM2122 1137q0 61 41.5 102t103.5 41q60 0 100.5 -41t40.5 -102q0 -60 -40.5 -102t-100.5 -42t-102.5 42t-42.5 102z" />
    <glyph glyph-name="uniFEB7" unicode="&#x634;" horiz-adv-x="2052" arabic-form="initial" 
d="M1597 1018h291v-828q-85 -91 -206.5 -140.5t-262.5 -49.5q-176 0 -325 104q-149 -104 -330 -104q-197 0 -338 106q-175 -106 -424 -106h-2q-33 0 -33 4v303h33q154 0 287 55v431h291v-435q83 -51 182 -51q97 0 182 49v437h291v-437q88 -49 182 -49q102 0 182 51v660z
M944 1436q0 61 41.5 103t101.5 42t101 -42t41 -103q0 -60 -41 -102t-101 -42t-101.5 42t-41.5 102zM758 1137q0 60 42 101.5t103 41.5q60 0 100.5 -41.5t40.5 -101.5t-40.5 -102t-100.5 -42q-61 0 -103 42t-42 102zM1130 1137q0 61 42 102t104 41q60 0 100.5 -41t40.5 -102
q0 -60 -40.5 -102t-100.5 -42t-103 42t-43 102z" />
    <glyph glyph-name="uniFEB8" unicode="&#x634;" horiz-adv-x="2174" arabic-form="medial" 
d="M2175 307h33v-303q0 -4 -33 -4h-2q-215 0 -395 98q-154 -98 -359 -98q-176 0 -325 104q-149 -104 -330 -104q-197 0 -338 106q-175 -106 -424 -106h-2q-33 0 -33 4v303h33q154 0 287 55v431h291v-435q83 -51 182 -51q97 0 182 49v437h291v-437q88 -49 182 -49
q102 0 182 51v527h291v-523q113 -55 287 -55zM944 1436q0 61 41.5 103t101.5 42t101 -42t41 -103q0 -60 -41 -102t-101 -42t-101.5 42t-41.5 102zM758 1137q0 60 42 101.5t103 41.5q60 0 100.5 -41.5t40.5 -101.5t-40.5 -102t-100.5 -42q-61 0 -103 42t-42 102zM1130 1137
q0 61 42 102t104 41q60 0 100.5 -41t40.5 -102q0 -60 -40.5 -102t-100.5 -42t-103 42t-43 102z" />
    <glyph glyph-name="uniFEBA" unicode="&#x635;" horiz-adv-x="3051" arabic-form="final" 
d="M3084 307v-303q0 -4 -32 -4h-1481v-324q-346 -213 -705 -213q-339 0 -533 182.5t-194 497.5q0 148 43 310l267 -52q-27 -99 -27 -200q0 -209 122 -320.5t351 -111.5q197 0 383 79v1125h293v-223q187 193 351 283.5t341 90.5q234 0 377 -149.5t143 -425.5v-242h301z
M1571 307h921v191q0 139 -61 237q-61 101 -215 101q-142 0 -295.5 -104t-349.5 -331v-94z" />
    <glyph glyph-name="uniFEBB" unicode="&#x635;" horiz-adv-x="1949" arabic-form="initial" 
d="M1792 549v-549h-1792q-33 0 -33 4v303h320v666h291v-225q187 195 350 285.5t342 90.5q114 0 209 -37t165 -108t109 -181t39 -249zM578 307h921v191q0 145 -61 239q-58 99 -211 99q-145 0 -299 -104t-350 -333v-92z" />
    <glyph glyph-name="uniFEBC" unicode="&#x635;" horiz-adv-x="2058" arabic-form="medial" 
d="M2091 307v-303q0 -4 -33 -4h-2058q-33 0 -33 4v303h320v666h291v-225q187 195 350 285.5t342 90.5q114 0 209 -37t165 -108t109 -181t39 -249v-242h299zM578 307h921v191q0 145 -61 239q-58 99 -211 99q-145 0 -299 -104t-350 -333v-92z" />
    <glyph glyph-name="uniFEBE" unicode="&#x636;" horiz-adv-x="3051" arabic-form="final" 
d="M3084 307v-303q0 -4 -32 -4h-1481v-324q-346 -213 -705 -213q-339 0 -533 182.5t-194 497.5q0 148 43 310l267 -52q-27 -99 -27 -200q0 -209 122 -320.5t351 -111.5q197 0 383 79v1125h293v-223q187 193 351 283.5t341 90.5q234 0 377 -149.5t143 -425.5v-242h301z
M1571 307h921v191q0 139 -61 237q-61 101 -215 101q-142 0 -295.5 -104t-349.5 -331v-94zM1704 1444q0 69 48.5 116.5t117.5 47.5q68 0 115 -47.5t47 -116.5q0 -68 -47.5 -116t-114.5 -48q-69 0 -117.5 48t-48.5 116z" />
    <glyph glyph-name="uniFEBF" unicode="&#x636;" horiz-adv-x="1949" arabic-form="initial" 
d="M1792 549v-549h-1792q-33 0 -33 4v303h320v666h291v-225q187 195 350 285.5t342 90.5q114 0 209 -37t165 -108t109 -181t39 -249zM578 307h921v191q0 145 -61 239q-58 99 -211 99q-145 0 -299 -104t-350 -333v-92zM641 1444q0 69 48.5 116.5t117.5 47.5q68 0 115 -47.5
t47 -116.5q0 -68 -47.5 -116t-114.5 -48q-69 0 -117.5 48t-48.5 116z" />
    <glyph glyph-name="uniFEC0" unicode="&#x636;" horiz-adv-x="2058" arabic-form="medial" 
d="M2091 307v-303q0 -4 -33 -4h-2058q-33 0 -33 4v303h320v666h291v-225q187 195 350 285.5t342 90.5q114 0 209 -37t165 -108t109 -181t39 -249v-242h299zM578 307h921v191q0 145 -61 239q-58 99 -211 99q-145 0 -299 -104t-350 -333v-92zM641 1444q0 69 48.5 116.5
t117.5 47.5q68 0 115 -47.5t47 -116.5q0 -68 -47.5 -116t-114.5 -48q-69 0 -117.5 48t-48.5 116z" />
    <glyph glyph-name="uniFEC2" unicode="&#x637;" horiz-adv-x="2062" arabic-form="final" 
d="M2095 307v-303q0 -4 -33 -4h-1978v307h205v1172h293v-729q187 193 351 283.5t341 90.5q234 0 377 -149.5t143 -425.5v-242h301zM582 307h921v191q0 139 -61 237q-61 101 -215 101q-142 0 -295.5 -104t-349.5 -331v-94z" />
    <glyph glyph-name="uniFEC3" unicode="&#x637;" horiz-adv-x="1949" arabic-form="initial" 
d="M1792 549v-549h-1792q-33 0 -33 4v303h320v1172h291v-731q187 195 350 285.5t342 90.5q114 0 209 -37t165 -108t109 -181t39 -249zM578 307h921v191q0 141 -61 239q-62 99 -213 99q-142 0 -297 -104.5t-350 -332.5v-92z" />
    <glyph glyph-name="uniFEC4" unicode="&#x637;" horiz-adv-x="2058" arabic-form="medial" 
d="M2091 307v-303q0 -4 -33 -4h-2058q-33 0 -33 4v303h320v1172h291v-731q187 195 350 285.5t342 90.5q114 0 209 -37t165 -108t109 -181t39 -249v-242h299zM578 307h921v191q0 141 -61 239q-62 99 -213 99q-142 0 -297 -104.5t-350 -332.5v-92z" />
    <glyph glyph-name="uniFEC6" unicode="&#x638;" horiz-adv-x="2062" arabic-form="final" 
d="M2095 307v-303q0 -4 -33 -4h-1978v307h205v1172h293v-729q187 193 351 283.5t341 90.5q234 0 377 -149.5t143 -425.5v-242h301zM582 307h921v191q0 139 -61 237q-61 101 -215 101q-142 0 -295.5 -104t-349.5 -331v-94zM866 1475q0 69 48.5 116t117.5 47q68 0 115 -47
t47 -116q0 -68 -47.5 -116t-114.5 -48q-69 0 -117.5 48t-48.5 116z" />
    <glyph glyph-name="uniFEC7" unicode="&#x638;" horiz-adv-x="1949" arabic-form="initial" 
d="M1792 549v-549h-1792q-33 0 -33 4v303h320v1172h291v-731q187 195 350 285.5t342 90.5q114 0 209 -37t165 -108t109 -181t39 -249zM578 307h921v191q0 141 -61 239q-62 99 -213 99q-142 0 -297 -104.5t-350 -332.5v-92zM870 1475q0 69 48.5 116t117.5 47q68 0 115 -47
t47 -116q0 -68 -47.5 -116t-114.5 -48q-69 0 -117.5 48t-48.5 116z" />
    <glyph glyph-name="uniFEC8" unicode="&#x638;" horiz-adv-x="2058" arabic-form="medial" 
d="M2091 307v-303q0 -4 -33 -4h-2058q-33 0 -33 4v303h320v1172h291v-731q187 195 350 285.5t342 90.5q114 0 209 -37t165 -108t109 -181t39 -249v-242h299zM578 307h921v191q0 141 -61 239q-62 99 -213 99q-142 0 -297 -104.5t-350 -332.5v-92zM870 1475q0 69 48.5 116
t117.5 47q68 0 115 -47t47 -116q0 -68 -47.5 -116t-114.5 -48q-69 0 -117.5 48t-48.5 116z" />
    <glyph glyph-name="uniFECA" unicode="&#x639;" horiz-adv-x="1570" arabic-form="final" 
d="M1604 307v-303q0 -4 -33 -4h-961q-115 0 -179 -49t-64 -137q0 -91 64 -141t181 -50h310v-307h-242q-299 0 -459 126.5t-160 354.5q0 189 124.5 310t355.5 163l-326 504l49 227q265 125 537 125q241 0 381.5 -101.5t140.5 -293.5q0 -126 -60.5 -238.5t-164.5 -185.5h506z
M791 840q-113 0 -240 -56l225 -428q111 44 180.5 124.5t69.5 172.5q0 88 -62.5 137.5t-172.5 49.5z" />
    <glyph glyph-name="uniFECB" unicode="&#x639;" horiz-adv-x="1363" arabic-form="initial" 
d="M844 307h407v-307h-1251q-33 0 -33 4v303h352q-131 137 -131 334q0 143 72.5 254t196.5 170t278 59q127 0 238.5 -42.5t193.5 -120.5l-196 -203q-82 88 -219 88q-119 0 -192 -70t-73 -186q0 -130 95.5 -206.5t261.5 -76.5z" />
    <glyph glyph-name="uniFECC" unicode="&#x639;" horiz-adv-x="1394" arabic-form="medial" 
d="M1411 307v-307h-1427v307h426l-299 463l49 229q265 125 536 125q241 0 382 -102.5t141 -294.5q0 -122 -60 -233.5t-160 -186.5h412zM686 838q-112 0 -242 -56l228 -430q113 45 181.5 124.5t68.5 174.5q0 88 -63 137.5t-173 49.5z" />
    <glyph glyph-name="uniFECE" unicode="&#x63a;" horiz-adv-x="1570" arabic-form="final" 
d="M1604 307v-303q0 -4 -33 -4h-961q-115 0 -179 -49t-64 -137q0 -91 64 -141t181 -50h310v-307h-242q-299 0 -459 126.5t-160 354.5q0 189 124.5 310t355.5 163l-326 504l49 227q265 125 537 125q241 0 381.5 -101.5t140.5 -293.5q0 -126 -60.5 -238.5t-164.5 -185.5h506z
M791 840q-113 0 -240 -56l225 -428q111 44 180.5 124.5t69.5 172.5q0 88 -62.5 137.5t-172.5 49.5zM670 1444q0 69 48.5 116.5t117.5 47.5q68 0 114.5 -47.5t46.5 -116.5q0 -68 -47 -116t-114 -48q-69 0 -117.5 48t-48.5 116z" />
    <glyph glyph-name="uniFECF" unicode="&#x63a;" horiz-adv-x="1363" arabic-form="initial" 
d="M844 307h407v-307h-1251q-33 0 -33 4v303h352q-131 137 -131 334q0 143 72.5 254t196.5 170t278 59q127 0 238.5 -42.5t193.5 -120.5l-196 -203q-82 88 -219 88q-119 0 -192 -70t-73 -186q0 -130 95.5 -206.5t261.5 -76.5zM563 1444q0 69 48.5 116.5t117.5 47.5
q68 0 115 -47.5t47 -116.5q0 -68 -47.5 -116t-114.5 -48q-69 0 -117.5 48t-48.5 116z" />
    <glyph glyph-name="uniFED0" unicode="&#x63a;" horiz-adv-x="1394" arabic-form="medial" 
d="M1411 307v-307h-1427v307h426l-299 463l49 229q265 125 536 125q241 0 382 -102.5t141 -294.5q0 -122 -60 -233.5t-160 -186.5h412zM686 838q-112 0 -242 -56l228 -430q113 45 181.5 124.5t68.5 174.5q0 88 -63 137.5t-173 49.5zM526 1444q0 69 48.5 116.5t117.5 47.5
q68 0 115 -47.5t47 -116.5q0 -68 -47.5 -116t-114.5 -48q-69 0 -117.5 48t-48.5 116z" />
    <glyph glyph-name="uniFED2" unicode="&#x641;" horiz-adv-x="2703" arabic-form="final" 
d="M2736 307v-303q0 -4 -33 -4h-1947q-304 0 -458.5 121t-154.5 389q0 169 64 367l268 -48q-41 -134 -41 -231q0 -291 338 -291h887q-225 129 -225 383q0 209 151 331t387 122q232 0 451 -119v-717h313zM1729 649q0 -122 106.5 -197t296.5 -96v465q-78 37 -172 37
q-106 0 -168.5 -56.5t-62.5 -152.5zM1804 1458q0 69 48.5 116.5t117.5 47.5q68 0 115 -47.5t47 -116.5q0 -68 -47.5 -116t-114.5 -48q-69 0 -117.5 48t-48.5 116z" />
    <glyph glyph-name="uniFED3" unicode="&#x641;" horiz-adv-x="1349" arabic-form="initial" 
d="M1186 1024v-889q-108 -62 -291 -98.5t-399 -36.5h-496q-33 0 -33 4v303h471q-241 125 -241 383q0 140 71 244t191.5 156.5t273.5 52.5q234 0 453 -119zM489 651q0 -125 107.5 -196.5t296.5 -85.5v452q-78 37 -170 37q-107 0 -170.5 -55.5t-63.5 -151.5zM563 1458
q0 69 48.5 116.5t117.5 47.5q68 0 115 -47.5t47 -116.5q0 -68 -47.5 -116t-114.5 -48q-69 0 -117.5 48t-48.5 116z" />
    <glyph glyph-name="uniFED4" unicode="&#x641;" horiz-adv-x="1437" arabic-form="medial" 
d="M1061 307h377v-307h-1438v307h377q-182 156 -182 379q0 206 146.5 334.5t377.5 128.5q234 0 379 -127t145 -336q0 -223 -182 -379zM489 641q0 -96 65 -173.5t167 -117.5q99 40 163 117.5t64 173.5q0 99 -63.5 161t-163.5 62q-103 0 -167.5 -61.5t-64.5 -161.5zM553 1464
q0 69 48.5 116.5t117.5 47.5q68 0 115 -47.5t47 -116.5q0 -68 -47.5 -116t-114.5 -48q-69 0 -117.5 48t-48.5 116z" />
    <glyph glyph-name="uniFED6" unicode="&#x642;" horiz-adv-x="1959" arabic-form="final" 
d="M1993 307v-303q0 -6 -33 -6h-279v-324q-134 -93 -338 -151q-208 -60 -425 -60q-366 0 -572.5 183.5t-206.5 494.5q0 159 45 310l265 -52q-27 -99 -27 -196q0 -215 135.5 -324.5t394.5 -109.5q215 0 439 75v166h-131q-287 0 -446 132t-159 362q0 233 152.5 374.5
t415.5 141.5q233 0 458 -111v-602h312zM1210 307h181v398q-87 40 -187 40q-117 0 -186.5 -58.5t-69.5 -162.5q0 -102 71 -159.5t191 -57.5zM858 1335q0 68 47.5 115t116.5 47q66 0 113 -47.5t47 -114.5q0 -68 -47 -116t-113 -48q-69 0 -116.5 48t-47.5 116zM1268 1335
q0 68 47.5 115t116.5 47q67 0 114 -47t47 -115t-47 -116t-114 -48q-69 0 -116.5 48t-47.5 116z" />
    <glyph glyph-name="uniFED7" unicode="&#x642;" horiz-adv-x="1349" arabic-form="initial" 
d="M1186 1024v-889q-108 -62 -291 -98.5t-399 -36.5h-496q-33 0 -33 4v303h471q-241 125 -241 383q0 140 71 244t191.5 156.5t273.5 52.5q234 0 453 -119zM489 651q0 -125 107.5 -196.5t296.5 -85.5v452q-78 37 -170 37q-107 0 -170.5 -55.5t-63.5 -151.5zM362 1458
q0 68 47.5 115t116.5 47q66 0 113 -47.5t47 -114.5q0 -68 -47 -116t-113 -48q-69 0 -116.5 48t-47.5 116zM772 1458q0 68 47.5 115t116.5 47q68 0 115 -47t47 -115t-47.5 -116t-114.5 -48q-69 0 -116.5 48t-47.5 116z" />
    <glyph glyph-name="uniFED8" unicode="&#x642;" horiz-adv-x="1437" arabic-form="medial" 
d="M1061 307h377v-307h-1438v307h377q-182 156 -182 379q0 206 146.5 334.5t377.5 128.5q234 0 379 -127t145 -336q0 -223 -182 -379zM489 641q0 -96 65 -173.5t167 -117.5q99 40 163 117.5t64 173.5q0 99 -63.5 161t-163.5 62q-103 0 -167.5 -61.5t-64.5 -161.5zM352 1464
q0 68 47.5 115t116.5 47q66 0 113 -47.5t47 -114.5q0 -68 -47 -116t-113 -48q-69 0 -116.5 48t-47.5 116zM762 1464q0 68 47.5 115t116.5 47q67 0 114 -47t47 -115t-47 -116t-114 -48q-69 0 -116.5 48t-47.5 116z" />
    <glyph glyph-name="uniFEDA" unicode="&#x643;" horiz-adv-x="2392" arabic-form="final" 
d="M2392 307h33v-303q0 -4 -33 -4h-2q-241 0 -428 115q-210 -115 -549 -115h-657q-304 0 -458.5 121t-154.5 389q0 169 64 367l268 -48q-41 -134 -41 -231q0 -291 338 -291h694q241 0 349 64v1124h290v-1133q113 -55 287 -55zM1339 901v-174h-442v174h98q-45 51 -45 121
q0 81 55 134.5t142 53.5q103 0 176 -73l-98 -103q-25 25 -62 25q-32 0 -51.5 -20.5t-19.5 -51.5q0 -38 31.5 -62t90.5 -24h125z" />
    <glyph glyph-name="uniFEDB" unicode="&#x643;" horiz-adv-x="1251" arabic-form="initial" 
d="M1104 442v-299q-118 -68 -307 -106q-179 -37 -359 -37h-438q-33 0 -33 4v303h502q98 0 190 18t152 46v63q-3 39 -8.5 64.5t-22 49.5t-37.5 39.5t-64.5 34.5t-93 34.5t-132.5 39.5l-263 72l-61 229l745 566l148 -187l-541 -405l119 -33q101 -30 166 -53.5t126 -54.5
t95.5 -64t62 -80.5t39.5 -106t15 -137.5z" />
    <glyph glyph-name="uniFEDC" unicode="&#x643;" horiz-adv-x="1308" arabic-form="medial" 
d="M1309 307h32v-303q0 -4 -32 -4h-2q-179 0 -338 84q-241 -84 -531 -84h-438q-33 0 -33 4v303h502q98 0 190 18t152 46v63q-3 47 -12.5 76.5t-29 54.5t-63 45.5t-99.5 39.5t-154 46l-263 72l-61 229l745 566l148 -187l-541 -405l119 -33q101 -30 166 -53.5t126 -54.5
t95.5 -64t62 -80.5t39.5 -106t15 -137.5v-88q77 -47 205 -47z" />
    <glyph glyph-name="uniFEDE" unicode="&#x644;" horiz-adv-x="1849" arabic-form="final" 
d="M1849 307h33v-303q0 -4 -33 -4h-2q-149 0 -286 49v-383q-121 -77 -310 -139q-186 -64 -393 -64q-337 0 -528 180.5t-191 499.5q0 157 43 314l267 -49q-27 -102 -27 -203q0 -218 118.5 -327t346.5 -109q194 0 383 79v1647h291v-483h2v-650q113 -55 286 -55z" />
    <glyph glyph-name="uniFEDF" unicode="&#x644;" horiz-adv-x="757" arabic-form="initial" 
d="M287 1495h291v-1255q-91 -107 -245 -173.5t-331 -66.5h-2q-33 0 -33 4v303h33q171 0 287 55v1133z" />
    <glyph glyph-name="uniFEE0" unicode="&#x644;" horiz-adv-x="864" arabic-form="medial" 
d="M864 307h33v-303q0 -4 -33 -4h-2q-232 0 -430 115q-198 -115 -430 -115h-2q-33 0 -33 4v303h33q174 0 287 55v1133h291v-1133q113 -55 286 -55z" />
    <glyph glyph-name="uniFEE2" unicode="&#x645;" horiz-adv-x="1638" arabic-form="final" 
d="M1638 307h33v-303q0 -4 -33 -4h-2q-185 0 -342 80q-73 -87 -178 -134.5t-229 -47.5q-145 0 -260 65q-92 51 -152 129q-133 0 -133 -129q0 -285 47 -661h-285q-47 385 -47 669q0 170 80.5 249t239.5 79q-15 58 -15 131q0 150 68 272.5t188.5 191.5t268.5 69
q228 0 377 -151t149 -382q0 -40 -6 -84q98 -39 231 -39zM1120 430q0 108 -64 177t-171 69q-103 0 -167.5 -69.5t-64.5 -176.5t64.5 -176.5t167.5 -69.5q107 0 171 69t64 177z" />
    <glyph glyph-name="uniFEE3" unicode="&#x645;" horiz-adv-x="1396" arabic-form="initial" 
d="M1290 430q0 -231 -149 -381.5t-377 -150.5q-124 0 -230 48t-178 136q-158 -82 -354 -82h-2q-33 0 -33 4v303h33q143 0 246 41q-6 40 -6 82q0 150 68 272.5t188 191.5t268 69q228 0 377 -151t149 -382zM997 430q0 108 -64 177t-171 69q-103 0 -167.5 -69.5t-64.5 -176.5
t64.5 -176.5t167.5 -69.5q107 0 171 69t64 177z" />
    <glyph glyph-name="uniFEE4" unicode="&#x645;" horiz-adv-x="1505" arabic-form="medial" 
d="M1505 307h33v-303q0 -4 -33 -4h-2q-193 0 -342 82q-72 -88 -178.5 -136t-230.5 -48t-230 48t-178 136q-149 -82 -342 -82h-2q-33 0 -33 4v303h33q142 0 233 39q-6 40 -6 84q0 150 68 272.5t188.5 191.5t268.5 69q228 0 377 -151t149 -382q0 -44 -6 -84q91 -39 233 -39z
M985 430q0 108 -64 177t-171 69q-103 0 -167.5 -69.5t-64.5 -176.5t64.5 -176.5t167.5 -69.5q107 0 171 69t64 177z" />
    <glyph glyph-name="uniFEE6" unicode="&#x646;" horiz-adv-x="1832" arabic-form="final" 
d="M1843 307h33v-303q0 -4 -33 -4h-2q-162 0 -293 61v-403q-343 -195 -690 -195q-335 0 -527 183t-192 495q0 150 43 312l267 -52q-27 -99 -27 -200q0 -209 122 -320.5t351 -111.5q197 0 383 79v945h278v-379q0 -53 52 -68q95 -39 235 -39zM645 840q0 69 48.5 116.5
t117.5 47.5q68 0 115 -47.5t47 -116.5q0 -68 -47.5 -116t-114.5 -48q-69 0 -117.5 48t-48.5 116z" />
    <glyph glyph-name="uniFEE7" unicode="&#x646;" horiz-adv-x="741" arabic-form="initial" 
d="M578 1040v-864q-89 -77 -245 -126.5t-331 -49.5h-2q-33 0 -33 4v303h33q177 0 287 45v688h291zM262 1374q0 69 48.5 116.5t117.5 47.5q68 0 115 -47.5t47 -116.5q0 -68 -47.5 -116t-114.5 -48q-69 0 -117.5 48t-48.5 116z" />
    <glyph glyph-name="uniFEE8" unicode="&#x646;" horiz-adv-x="864" arabic-form="medial" 
d="M864 307h33v-303q0 -4 -33 -4h-2q-232 0 -430 115q-198 -115 -430 -115h-2q-33 0 -33 4v303h33q174 0 287 55v678h291v-678q113 -55 286 -55zM270 1374q0 69 48.5 116.5t117.5 47.5q68 0 115 -47.5t47 -116.5q0 -68 -47.5 -116t-114.5 -48q-69 0 -117.5 48t-48.5 116z
" />
    <glyph glyph-name="uniFEEA" unicode="&#x647;" horiz-adv-x="1413" arabic-form="final" 
d="M1446 307v-303q0 -4 -33 -4h-698q-278 0 -442 143.5t-164 376.5q0 239 152 381.5t413 142.5q126 0 248.5 -31.5t207.5 -78.5v-627h316zM664 307h176v420q-84 41 -189 41q-114 0 -183 -60.5t-69 -172.5q0 -109 71 -168.5t194 -59.5z" />
    <glyph glyph-name="uniFEEB" unicode="&#x647;" horiz-adv-x="1673" arabic-form="initial" 
d="M1536 512v-512h-1536q-33 0 -33 4v303h320q-97 111 -97 264q0 118 59.5 209t157 138t214.5 47q186 0 309 -108t123 -286q0 -155 -97 -266l287 -2v225q0 311 -168 451q-167 141 -434 141q-140 0 -256 -26v270q120 20 264 20q405 0 647 -213q240 -212 240 -659zM451 524
q0 -89 44 -145.5t128 -69.5q83 13 126.5 69.5t43.5 145.5q0 84 -47 134.5t-123 50.5t-124 -50.5t-48 -134.5z" />
    <glyph glyph-name="uniFEEC" unicode="&#x647;" horiz-adv-x="1771" arabic-form="medial" 
d="M1804 307v-303q0 -4 -32 -4h-1772q-33 0 -33 4v303h320q-97 111 -97 264q0 118 59.5 209t157 138t214.5 47q186 0 309 -108t123 -286q0 -155 -97 -266l287 -2v225q0 311 -168 451q-167 141 -434 141q-140 0 -256 -26v270q120 20 264 20q405 0 647 -213q240 -212 240 -659
v-205h268zM451 524q0 -89 44 -145.5t128 -69.5q83 13 126.5 69.5t43.5 145.5q0 84 -47 134.5t-123 50.5t-124 -50.5t-48 -134.5z" />
    <glyph glyph-name="uniFEEE" unicode="&#x648;" horiz-adv-x="1419" arabic-form="final" 
d="M1452 307v-303q0 -4 -33 -4h-286q-23 -273 -183 -405t-434 -132q-193 0 -373 58l52 278q177 -53 329 -53q162 0 237 62t81 192h-131q-285 0 -443.5 138.5t-158.5 365.5q0 233 152.5 374.5t412.5 141.5q230 0 461 -111v-602h317zM664 307h178v398q-87 40 -185 40
q-115 0 -185.5 -57.5t-70.5 -161.5q0 -103 71.5 -161t191.5 -58z" />
    <glyph glyph-name="uniFEF0" unicode="&#x649;" horiz-adv-x="2387" arabic-form="final" 
d="M2388 307h33v-303q0 -4 -33 -4q-243 0 -355 72.5t-173 275.5l-70 240h-193q-69 0 -108 -30t-39 -85q0 -17 10 -59l211 -715q-143 -88 -362 -160q-219 -76 -439 -76q-339 0 -535 181.5t-196 494.5q0 155 43 312l267 -50q-27 -99 -27 -198q0 -210 123 -322t352 -112
q110 0 236 24q133 25 206 57l-163 535q-25 86 -25 156q0 153 106.5 242t276.5 89h467l110 -389q22 -71 49 -106.5t79.5 -52.5t148.5 -17z" />
    <glyph glyph-name="uniFEF2" unicode="&#x64a;" horiz-adv-x="2387" arabic-form="final" 
d="M2388 307h33v-303q0 -4 -33 -4q-243 0 -355 72.5t-173 275.5l-70 240h-193q-69 0 -108 -30t-39 -85q0 -17 10 -59l211 -715q-143 -88 -362 -160q-219 -76 -439 -76q-339 0 -535 181.5t-196 494.5q0 155 43 312l267 -50q-27 -99 -27 -198q0 -210 123 -322t352 -112
q110 0 236 24q133 25 206 57l-163 535q-25 86 -25 156q0 153 106.5 242t276.5 89h467l110 -389q22 -71 49 -106.5t79.5 -52.5t148.5 -17zM485 -860q0 68 47.5 115t116.5 47q66 0 113 -47.5t47 -114.5q0 -68 -47 -116t-113 -48q-69 0 -116.5 48t-47.5 116zM895 -860
q0 68 47.5 115t116.5 47q67 0 114.5 -47t47.5 -115t-47.5 -116t-114.5 -48q-69 0 -116.5 48t-47.5 116z" />
    <glyph glyph-name="uniFEF3" unicode="&#x64a;" horiz-adv-x="741" arabic-form="initial" 
d="M578 1040v-864q-89 -77 -245 -126.5t-331 -49.5h-2q-33 0 -33 4v303h33q177 0 287 45v688h291zM-8 -295q0 68 47.5 115t116.5 47q66 0 112.5 -47.5t46.5 -114.5q0 -68 -46.5 -116t-112.5 -48q-69 0 -116.5 48t-47.5 116zM401 -295q0 68 47.5 115t116.5 47
q67 0 114.5 -47.5t47.5 -114.5q0 -68 -47.5 -116t-114.5 -48q-69 0 -116.5 48t-47.5 116z" />
    <glyph glyph-name="uniFEF4" unicode="&#x64a;" horiz-adv-x="864" arabic-form="medial" 
d="M864 307h33v-303q0 -4 -33 -4h-2q-232 0 -430 115q-198 -115 -430 -115h-2q-33 0 -33 4v303h33q174 0 287 55v678h291v-678q113 -55 286 -55zM70 -295q0 68 47 115t116 47q66 0 113 -47.5t47 -114.5q0 -68 -47 -116t-113 -48q-69 0 -116 48t-47 116zM479 -295
q0 68 47.5 115t116.5 47q67 0 114.5 -47.5t47.5 -114.5q0 -68 -47.5 -116t-114.5 -48q-69 0 -116.5 48t-47.5 116z" />
    <glyph glyph-name=".notdef" horiz-adv-x="1024" 
d="M102 61v1229h820v-1229h-820zM246 205h532v942h-532v-942z" />
    <glyph glyph-name=".null" 
 />
    <glyph glyph-name="nonmarkingreturn" horiz-adv-x="682" 
 />
    <glyph glyph-name="space" unicode=" " horiz-adv-x="512" 
 />
    <glyph glyph-name="exclam" unicode="!" horiz-adv-x="495" 
d="M412 1434l-29 -1041h-268l-29 1041h326zM414 127q0 -63 -48 -106.5t-116 -43.5q-69 0 -117.5 43.5t-48.5 106.5q0 62 48.5 105.5t117.5 43.5q68 0 116 -44t48 -105z" />
    <glyph glyph-name="quotedbl" unicode="&#x22;" horiz-adv-x="770" 
d="M313 1454l-20 -530h-199l-20 530h239zM698 1454l-20 -530h-199l-20 530h239z" />
    <glyph glyph-name="numbersign" unicode="#" horiz-adv-x="1538" 
d="M1305 1434l-58 -312h232l-41 -233h-230l-59 -324h231l-41 -233h-231l-57 -332h-238l57 332h-342l-57 -332h-238l58 332h-232l41 233h232l59 324h-233l41 233h231l55 312h238l-53 -312h340l57 312h238zM969 889h-340l-58 -324h340z" />
    <glyph glyph-name="dollar" unicode="$" horiz-adv-x="1228" 
d="M748 -18v-224h-250v234q-308 49 -465 164l141 252q102 -69 233.5 -108.5t254.5 -39.5q103 0 157.5 36t54.5 105q-7 78 -55 107t-225 74q-275 71 -382.5 160t-111.5 268q0 177 104.5 291.5t293.5 140.5v233h250v-227q242 -28 426 -150l-127 -254q-99 61 -218 98.5
t-215 37.5q-84 0 -131 -33t-47 -90q6 -68 54.5 -97.5t209.5 -74.5q143 -41 230.5 -78.5t151 -90t90.5 -120t30 -164.5q0 -195 -116.5 -310t-337.5 -140z" />
    <glyph glyph-name="percent" unicode="%" horiz-adv-x="1849" 
d="M1595 1468l-1085 -1503h-258l1085 1503h258zM780 1057q0 -185 -96.5 -292.5t-263.5 -107.5t-264 107.5t-97 292.5q0 181 97 288t264 107q166 0 263 -107t97 -288zM274 1057q0 -96 40 -152.5t106 -56.5t104.5 56t38.5 153q0 94 -38.5 150.5t-104.5 56.5t-106 -56.5
t-40 -150.5zM1792 381q0 -184 -96.5 -290.5t-263.5 -106.5q-168 0 -265.5 106.5t-97.5 290.5q0 183 98 290t265 107t263.5 -107t96.5 -290zM1286 381q0 -96 40 -152.5t106 -56.5t105.5 56.5t39.5 152.5q0 94 -39.5 151.5t-105.5 57.5t-106 -57.5t-40 -151.5z" />
    <glyph glyph-name="ampersand" unicode="&#x26;" horiz-adv-x="1572" 
d="M1284 315l146 -151l-213 -184l-125 137q-186 -137 -441 -137q-248 0 -389 104.5t-141 288.5q0 131 81 229.5t271 196.5l-10 10q-68 75 -96.5 136t-28.5 130q0 160 123.5 269.5t306.5 109.5q169 0 281 -97t112 -243q0 -121 -68.5 -207t-220.5 -168l228 -237
q79 112 133 231l221 -100q-75 -184 -170 -318zM602 1098q0 -74 84 -168l21 -23q125 60 163.5 99.5t38.5 101.5q0 60 -39.5 94.5t-105.5 34.5q-69 0 -115.5 -39.5t-46.5 -99.5zM913 313l-278 308q-115 -60 -159 -108.5t-44 -109.5q0 -82 61 -129t166 -47q133 0 254 86z" />
    <glyph glyph-name="quotesingle" unicode="'" horiz-adv-x="385" 
d="M313 1454l-20 -530h-199l-20 530h239z" />
    <glyph glyph-name="parenleft" unicode="(" horiz-adv-x="618" 
d="M315 1468l260 -135q-69 -166 -122 -399q-50 -233 -50 -445q0 -217 52 -452q50 -226 125 -406l-261 -137q-104 197 -174 469q-71 275 -71 526q0 256 69 517q72 272 172 462z" />
    <glyph glyph-name="parenright" unicode=")" horiz-adv-x="618" 
d="M545 489q0 -247 -72 -526q-70 -272 -174 -469l-260 137q71 170 123 406q53 239 53 452q0 221 -51 445q-48 223 -121 399l260 135q96 -182 170 -462q72 -273 72 -517z" />
    <glyph glyph-name="asterisk" unicode="*" horiz-adv-x="872" 
d="M528 1458l-4 -235l221 77l58 -174l-225 -71l141 -185l-148 -108l-135 194l-133 -194l-149 108l141 185l-225 71l57 174l223 -77l-6 235h184z" />
    <glyph glyph-name="plus" unicode="+" horiz-adv-x="1228" 
d="M1110 692v-235h-377v-379h-233v379h-381v235h381v377h233v-377h377z" />
    <glyph glyph-name="comma" unicode="," horiz-adv-x="473" 
d="M403 127q0 -35 -24 -78l-225 -358l-91 41l101 262q-41 17 -65.5 53.5t-24.5 79.5q0 61 48 105t116 44t116.5 -44t48.5 -105z" />
    <glyph glyph-name="hyphen" unicode="-" horiz-adv-x="854" 
d="M782 659v-253h-708v253h708z" />
    <glyph glyph-name="period" unicode="." horiz-adv-x="473" 
d="M403 127q0 -63 -48 -106.5t-117 -43.5q-68 0 -116 43.5t-48 106.5q0 61 48 105t116 44q69 0 117 -43.5t48 -105.5z" />
    <glyph glyph-name="slash" unicode="/" horiz-adv-x="1091" 
d="M1044 1468l-716 -1503h-279l717 1503h278z" />
    <glyph glyph-name="zero" unicode="0" horiz-adv-x="1486" 
d="M1389 696q0 -329 -175.5 -522.5t-470.5 -193.5t-470 193.5t-175 522.5t175 523t470 194t470.5 -194t175.5 -523zM432 696q0 -195 84 -308.5t227 -113.5q146 0 230 113.5t84 308.5t-84 308.5t-230 113.5t-228.5 -112.5t-82.5 -309.5z" />
    <glyph glyph-name="one" unicode="1" horiz-adv-x="825" 
d="M684 1395v-1395h-328v1106l-254 -57l-57 245l379 101h260z" />
    <glyph glyph-name="two" unicode="2" horiz-adv-x="1239" 
d="M567 274h607v-274h-1104v248l616 489q72 62 101.5 110t29.5 105q0 75 -55.5 122.5t-143.5 47.5q-197 0 -346 -184l-209 178q97 141 246.5 219t325.5 78q226 0 371 -124t145 -316q0 -130 -71.5 -236.5t-266.5 -259.5z" />
    <glyph glyph-name="three" unicode="3" horiz-adv-x="1277" 
d="M1182 434q0 -199 -153.5 -326.5t-397.5 -127.5q-153 0 -288 47t-275 147l194 217q75 -60 167.5 -94.5t178.5 -34.5q110 0 177 53.5t67 141.5q0 82 -60.5 126t-173.5 44q-83 0 -221 -33l-53 182l387 344h-573v273h979v-236l-369 -323q180 -3 297 -116.5t117 -283.5z" />
    <glyph glyph-name="four" unicode="4" horiz-adv-x="1366" 
d="M1108 553h203v-258h-203v-295h-328v295h-686l-43 258l680 840h377v-840zM410 553h372v469z" />
    <glyph glyph-name="five" unicode="5" horiz-adv-x="1261" 
d="M1188 461q0 -216 -155 -348.5t-412 -132.5q-160 0 -304 55.5t-249 159.5l170 211q79 -68 175 -107t189 -39q117 0 187.5 58t70.5 155q0 93 -66 149t-176 56q-153 0 -264 -105l-204 109l32 711h936v-273h-653l-12 -258q119 43 241 43q225 0 359.5 -122t134.5 -322z" />
    <glyph glyph-name="six" unicode="6" horiz-adv-x="1298" 
d="M1231 475q0 -213 -156.5 -354t-398.5 -141q-270 0 -425 186t-155 516q0 348 163 539.5t458 191.5q259 0 465 -141l-138 -219q-139 92 -296 92q-152 0 -229 -90.5t-91 -282.5q138 123 342 123q203 0 332 -118t129 -302zM920 461q0 97 -61 155t-161 58q-174 0 -264 -166
q39 -270 254 -270q108 0 170 60t62 163z" />
    <glyph glyph-name="seven" unicode="7" horiz-adv-x="1177" 
d="M59 1393h1082v-258l-645 -1135h-371l643 1110h-709v283z" />
    <glyph glyph-name="eight" unicode="8" horiz-adv-x="1351" 
d="M1255 385q0 -176 -161.5 -290.5t-415.5 -114.5t-417 115t-163 292q0 118 68.5 207t193.5 139q-103 44 -159 123.5t-56 181.5q0 161 152 268t381 107t379.5 -107t150.5 -268q0 -102 -56 -181.5t-159 -123.5q127 -47 194.5 -138t67.5 -210zM449 995q0 -81 61.5 -125.5
t167.5 -44.5q105 0 166 44.5t61 125.5q0 76 -61.5 124t-165.5 48q-105 0 -167 -47t-62 -125zM930 420q0 90 -69 142t-185 52t-184 -52t-68 -142q0 -86 68 -137.5t188 -51.5q117 0 183.5 51t66.5 138z" />
    <glyph glyph-name="nine" unicode="9" horiz-adv-x="1298" 
d="M1200 711q0 -348 -162.5 -539.5t-457.5 -191.5q-258 0 -463 141l137 221q137 -92 295 -92q152 0 229.5 90.5t91.5 282.5q-140 -125 -342 -125q-204 0 -333 118t-129 304q0 212 157 352.5t400 140.5q269 0 423 -185.5t154 -516.5zM864 887q-23 140 -85 205t-171 65
q-108 0 -169.5 -60t-61.5 -165q0 -97 60.5 -155t160.5 -58q168 0 266 168z" />
    <glyph glyph-name="colon" unicode=":" horiz-adv-x="473" 
d="M403 127q0 -63 -48 -106.5t-117 -43.5q-68 0 -116 43.5t-48 106.5q0 61 48 105t116 44q69 0 117 -43.5t48 -105.5zM403 905q0 -63 -48 -106t-117 -43q-68 0 -116 43t-48 106q0 62 48.5 106t115.5 44q69 0 117 -44t48 -106z" />
    <glyph glyph-name="semicolon" unicode=";" horiz-adv-x="473" 
d="M403 127q0 -35 -24 -78l-225 -358l-91 41l101 262q-41 17 -65.5 53.5t-24.5 79.5q0 61 48 105t116 44t116.5 -44t48.5 -105zM403 905q0 -63 -48 -106t-117 -43q-68 0 -116 43t-48 106q0 62 48.5 106t115.5 44q69 0 117 -44t48 -106z" />
    <glyph glyph-name="less" unicode="&#x3c;" horiz-adv-x="1228" 
d="M1110 1126v-299l-682 -254l682 -254v-299l-991 394v319z" />
    <glyph glyph-name="equal" unicode="=" horiz-adv-x="1228" 
d="M1110 903v-233h-991v233h991zM1110 479v-233h-991v233h991z" />
    <glyph glyph-name="greater" unicode="&#x3e;" horiz-adv-x="1228" 
d="M119 1126l991 -393v-319l-991 -394v299l682 254l-682 254v299z" />
    <glyph glyph-name="question" unicode="?" horiz-adv-x="1175" 
d="M1094 1036q0 -102 -49 -184.5t-171 -185.5l-28 -23q-69 -57 -90 -98q-20 -35 -23 -103l-2 -45h-272l-4 92q-3 97 32 162q36 68 144 162l49 43q49 42 68.5 77.5t19.5 78.5q0 78 -53 123t-144 45q-90 0 -147 -47t-68 -129l-290 28q29 197 172.5 309.5t365.5 112.5
q221 0 355.5 -114.5t134.5 -303.5zM762 127q0 -63 -48.5 -106.5t-117.5 -43.5q-68 0 -116 43.5t-48 106.5q0 61 48 105t116 44q69 0 117.5 -43.5t48.5 -105.5z" />
    <glyph glyph-name="at" unicode="@" horiz-adv-x="2093" 
d="M1997 608q0 -268 -134 -428t-358 -160q-174 0 -315 80v97q-104 -113 -258 -113q-155 0 -254.5 114.5t-99.5 293.5q0 177 99.5 292t254.5 115q151 0 258 -113v103h231v-633q25 -14 72 -14q110 0 178 99.5t68 260.5q0 179 -84.5 319.5t-237 219t-346.5 78.5
q-315 0 -512 -200.5t-197 -522.5q0 -210 86 -373t242.5 -253.5t358.5 -90.5q104 0 206 24l60 -227q-136 -31 -271 -31q-207 -2 -383.5 67t-300 194t-192 303.5t-66.5 388.5q-3 282 118 501t342.5 338.5t508.5 116.5q270 3 482.5 -103.5t329.5 -300.5t114 -442zM805 492
q0 -94 54 -152.5t142 -58.5q57 0 108.5 27t80.5 71v225q-30 45 -80 71.5t-106 26.5q-88 0 -143.5 -59t-55.5 -151z" />
    <glyph glyph-name="A" unicode="A" horiz-adv-x="1718" 
d="M1282 0l-108 283h-627l-109 -283h-379l584 1434h428l590 -1434h-379zM649 549h420l-211 547z" />
    <glyph glyph-name="B" unicode="B" horiz-adv-x="1529" 
d="M1442 391q0 -166 -117 -280q-117 -111 -375 -111h-780v1434h741q225 0 347 -93t122 -270q0 -116 -57 -196.5t-164 -122.5q142 -40 212.5 -135.5t70.5 -225.5zM496 1165v-319h321q106 0 164.5 41.5t58.5 118.5q0 78 -57 118.5t-166 40.5h-321zM1104 440q0 78 -58 125
t-176 47h-374v-342h374q117 0 175.5 47t58.5 123z" />
    <glyph glyph-name="C" unicode="C" horiz-adv-x="1570" 
d="M1485 1153l-277 -166q-62 76 -146.5 119t-180.5 43q-176 0 -296 -125.5t-120 -306.5q0 -180 120 -305t296 -125q194 0 327 162l277 -166q-103 -142 -263 -222.5t-343 -80.5q-149 -3 -289.5 56.5t-243 159.5t-163.5 237.5t-58 283.5q-3 146 58 283.5t163.5 237.5
t243 159.5t289.5 56.5q183 0 342.5 -80t263.5 -221z" />
    <glyph glyph-name="D" unicode="D" horiz-adv-x="1656" 
d="M1532 717q4 -195 -100.5 -362t-282 -262.5t-381.5 -92.5h-598v1434h598q204 3 381.5 -92.5t282 -262.5t100.5 -362zM756 1143h-260v-850h260q183 0 312.5 123.5t129.5 300.5q0 179 -129 302.5t-313 123.5z" />
    <glyph glyph-name="E" unicode="E" horiz-adv-x="1413" 
d="M1315 1434v-289h-819v-281h759v-276h-759v-297h833v-291h-1159v1434h1145z" />
    <glyph glyph-name="F" unicode="F" horiz-adv-x="1351" 
d="M1268 1434v-291h-772v-334h700v-281h-700v-528h-326v1434h1098z" />
    <glyph glyph-name="G" unicode="G" horiz-adv-x="1671" 
d="M1462 1249l-213 -223q-147 129 -340 129q-120 0 -221 -55t-162 -156t-61 -227q0 -181 122 -305.5t304 -124.5q183 0 313 86v190h-295v248h607v-612q-130 -105 -291.5 -162t-333.5 -57q-153 -3 -296 56.5t-246.5 159.5t-165 237.5t-58.5 283.5q-2 130 39 247t115.5 206
t173.5 154t216.5 98t239.5 32q152 0 294.5 -53t258.5 -152z" />
    <glyph glyph-name="H" unicode="H" horiz-adv-x="1667" 
d="M1497 1434v-1434h-326v575h-675v-575h-326v1434h326v-566h675v566h326z" />
    <glyph glyph-name="I" unicode="I" horiz-adv-x="665" 
d="M496 1434v-1434h-326v1434h326z" />
    <glyph glyph-name="J" unicode="J" horiz-adv-x="1261" 
d="M1094 1434v-863q0 -307 -139 -449t-410 -142q-177 0 -299 55t-193 174l262 170q72 -100 213 -100q114 0 177 74t63 218v863h326z" />
    <glyph glyph-name="K" unicode="K" horiz-adv-x="1564" 
d="M1098 0l-353 598l-249 -283v-315h-326v1434h326v-652l557 652h434l-520 -588l540 -846h-409z" />
    <glyph glyph-name="L" unicode="L" horiz-adv-x="1284" 
d="M496 1434v-1141h729v-293h-1055v1434h326z" />
    <glyph glyph-name="M" unicode="M" horiz-adv-x="2068" 
d="M1473 1434h428v-1434h-324v1001l-487 -821h-115l-488 821v-1001h-317v1434h428l436 -727z" />
    <glyph glyph-name="N" unicode="N" horiz-adv-x="1667" 
d="M1178 1434h319v-1434h-338l-667 922v-922h-322v1434h340l668 -920v920z" />
    <glyph glyph-name="O" unicode="O" horiz-adv-x="1777" 
d="M1653 717q3 -146 -58.5 -283.5t-165 -237.5t-245.5 -159.5t-293 -56.5q-153 -3 -296 56.5t-246.5 159.5t-165 237.5t-58.5 283.5q-3 146 58.5 283.5t165 237.5t246.5 159.5t296 56.5q151 3 293 -56.5t245.5 -159.5t165 -237.5t58.5 -283.5zM465 717q0 -181 122 -305.5
t304 -124.5q179 0 301.5 125.5t122.5 304.5q0 181 -122.5 306.5t-301.5 125.5q-182 0 -304 -125.5t-122 -306.5z" />
    <glyph glyph-name="P" unicode="P" horiz-adv-x="1509" 
d="M170 1434h612q320 0 471.5 -122.5t151.5 -381.5q0 -257 -147 -382.5t-447 -125.5h-315v-422h-326v1434zM778 1151h-282v-446h284q152 0 222.5 53t70.5 168q0 117 -70.5 171t-224.5 54z" />
    <glyph glyph-name="Q" unicode="Q" horiz-adv-x="1777" 
d="M1712 45l-194 -180l-226 225q-186 -110 -401 -110q-153 -3 -296 56.5t-246.5 159.5t-165 237.5t-58.5 283.5q-3 146 58.5 283.5t165 237.5t246.5 159.5t296 56.5q151 3 293 -56.5t245.5 -159.5t165 -237.5t58.5 -283.5q0 -124 -42 -241.5t-120 -211.5zM1061 322l-189 188
l193 178l192 -190q58 98 58 219q0 181 -122.5 306.5t-301.5 125.5q-182 0 -304 -125.5t-122 -306.5t122 -305.5t304 -124.5q89 0 170 35z" />
    <glyph glyph-name="R" unicode="R" horiz-adv-x="1540" 
d="M1487 0h-381l-297 455h-313v-455h-326v1434h635q337 0 487 -114t150 -366q0 -352 -291 -452zM496 1151v-424h325q152 0 216.5 49t64.5 162q0 115 -64.5 164t-216.5 49h-325z" />
    <glyph glyph-name="S" unicode="S" horiz-adv-x="1449" 
d="M1329 1298l-139 -256q-118 61 -250 97.5t-233 36.5q-96 0 -151.5 -35t-55.5 -101q0 -46 41.5 -72t185.5 -65l143 -39q108 -30 177 -55t133 -60.5t99.5 -77.5t57.5 -101t25 -138q0 -215 -161 -333.5t-445 -118.5q-183 0 -356 50t-314 144l147 246q127 -74 275 -116
t274 -42q234 0 234 152q0 55 -43.5 83.5t-181.5 61.5l-152 39q-134 33 -218.5 65t-149 80t-93.5 113.5t-31 159.5q0 217 162 327q163 111 424 111q159 0 316 -41t280 -115z" />
    <glyph glyph-name="T" unicode="T" horiz-adv-x="1316" 
d="M1260 1434v-281h-437v-1153h-327v1153h-437v281h1201z" />
    <glyph glyph-name="U" unicode="U" horiz-adv-x="1636" 
d="M1468 1434v-781q0 -327 -167 -500t-482 -173q-314 0 -481.5 174t-167.5 499v781h326v-781q0 -182 83.5 -278t239.5 -96t240 96t84 278v781h325z" />
    <glyph glyph-name="V" unicode="V" horiz-adv-x="1673" 
d="M1237 1434h379l-567 -1434h-428l-562 1434h379l398 -1088z" />
    <glyph glyph-name="W" unicode="W" horiz-adv-x="2330" 
d="M1911 1434h360l-475 -1434h-336l-293 932l-295 -932h-337l-476 1434h361l299 -951l287 951h321l285 -949z" />
    <glyph glyph-name="X" unicode="X" horiz-adv-x="1581" 
d="M1522 0h-400l-336 477l-335 -477h-392l523 731l-502 703h401l314 -447l313 447h393l-500 -703z" />
    <glyph glyph-name="Y" unicode="Y" horiz-adv-x="1607" 
d="M1163 1434h387l-581 -932v-502h-328v498l-582 936h390l356 -596z" />
    <glyph glyph-name="Z" unicode="Z" horiz-adv-x="1411" 
d="M1303 1434v-232l-752 -913h774v-289h-1239v238l733 907h-688v289h1172z" />
    <glyph glyph-name="bracketleft" unicode="[" horiz-adv-x="673" 
d="M629 1434v-211h-264v-1483h264v-211h-555v1905h555z" />
    <glyph glyph-name="backslash" unicode="\" horiz-adv-x="1091" 
d="M47 1468h281l716 -1503h-280z" />
    <glyph glyph-name="bracketright" unicode="]" horiz-adv-x="673" 
d="M602 1434v-1905h-555v211h264v1483h-264v211h555z" />
    <glyph glyph-name="asciicircum" unicode="^" horiz-adv-x="1103" 
d="M743 1454l289 -741h-295l-186 499l-186 -499h-291l288 741h381z" />
    <glyph glyph-name="underscore" unicode="_" horiz-adv-x="1368" 
d="M1296 -137v-176h-1222v176h1222z" />
    <glyph glyph-name="grave" unicode="`" horiz-adv-x="702" 
d="M145 1481l242 -344h-264l-295 344h317z" />
    <glyph glyph-name="a" unicode="a" horiz-adv-x="1216" 
d="M1100 662v-662h-303v115q-153 -135 -346 -135q-166 0 -265.5 88.5t-99.5 232.5q0 147 103 230t284 83h324v19q0 85 -54.5 128.5t-158.5 43.5q-162 0 -316 -98l-92 204q227 133 488 133q210 0 323 -99t113 -283zM797 252v211h-228q-88 0 -135 -36t-47 -103q0 -68 46 -105
t132 -37q119 0 232 70z" />
    <glyph glyph-name="b" unicode="b" horiz-adv-x="1331" 
d="M1241 512q0 -150 -62 -272t-170.5 -191t-240.5 -69q-198 0 -328 139v-119h-305v1434h305v-527q128 137 328 137q132 0 240.5 -69t170.5 -191t62 -272zM940 512q0 117 -73 195.5t-183 78.5q-78 0 -142.5 -33.5t-101.5 -93.5v-292q37 -60 101.5 -93.5t142.5 -33.5
q110 0 183 77.5t73 194.5z" />
    <glyph glyph-name="c" unicode="c" horiz-adv-x="1181" 
d="M1098 823l-232 -129q-83 92 -215 92q-108 0 -185 -79t-77 -195t76.5 -194t185.5 -78q138 0 219 96l234 -129q-79 -105 -200.5 -166t-256.5 -61q-148 -3 -277.5 69.5t-205 196.5t-72.5 266q-3 142 72.5 266t205 196.5t277.5 69.5q135 0 254 -58.5t197 -162.5z" />
    <glyph glyph-name="d" unicode="d" horiz-adv-x="1327" 
d="M891 1434h305v-1434h-305v119q-126 -139 -326 -139q-131 -3 -241 67t-172.5 193.5t-59.5 271.5q-3 148 59.5 271.5t172.5 193.5t241 67q201 0 326 -137v527zM891 365v297q-37 57 -102 90.5t-142 33.5q-109 0 -182 -79q-74 -80 -74 -195q0 -117 73 -194.5t183 -77.5
q77 0 142 33.5t102 91.5z" />
    <glyph glyph-name="e" unicode="e" horiz-adv-x="1263" 
d="M1182 512v-84h-785q19 -105 87 -161t180 -56q165 0 270 94l166 -149q-88 -85 -206 -130.5t-249 -45.5q-116 -1 -220 41t-177.5 114.5t-115.5 171.5t-40 207q-2 108 39.5 206.5t114 170t175 113t216.5 40.5q239 0 392 -151.5t153 -380.5zM395 596h492q0 97 -70 160
t-176 63q-100 0 -164.5 -58.5t-81.5 -164.5z" />
    <glyph glyph-name="f" unicode="f" horiz-adv-x="827" 
d="M496 1094v-70h276v-238h-276v-786h-308v786h-141v238h141v76q0 177 100 265.5t271 88.5q124 0 258 -41l-41 -199q-67 25 -139 25q-64 0 -102.5 -37.5t-38.5 -107.5z" />
    <glyph glyph-name="g" unicode="g" horiz-adv-x="1327" 
d="M891 1024h305v-958q0 -250 -149 -369q-148 -121 -388 -121q-316 0 -542 131l92 205q179 -102 399 -102q132 0 207.5 64.5t75.5 191.5v59q-125 -137 -326 -137q-98 -2 -186.5 38.5t-152 111.5t-100 170t-34.5 208q-3 146 59.5 268.5t172.5 192t241 67.5q201 0 326 -137
v117zM891 369v297q-37 57 -101.5 89.5t-142.5 32.5q-110 0 -183 -77.5t-73 -194.5t73 -194.5t183 -77.5q77 0 142 33.5t102 91.5z" />
    <glyph glyph-name="h" unicode="h" horiz-adv-x="1320" 
d="M1204 694v-694h-303v604q0 91 -50 142t-142 51q-145 0 -269 -105v-692h-305v1434h305v-529q191 139 402 139q168 0 265 -93t97 -257z" />
    <glyph glyph-name="i" unicode="i" horiz-adv-x="602" 
d="M465 1280q0 -60 -48 -102.5t-116 -42.5q-67 0 -114.5 42.5t-47.5 102.5t47.5 102.5t114.5 42.5q68 0 116 -42.5t48 -102.5zM455 1024v-1024h-305v1024h305z" />
    <glyph glyph-name="j" unicode="j" horiz-adv-x="595" 
d="M465 1280q0 -60 -47.5 -102.5t-114.5 -42.5t-114.5 42.5t-47.5 102.5t47.5 102.5t114.5 42.5t114.5 -42.5t47.5 -102.5zM457 1024v-1092q0 -171 -98.5 -261.5t-258.5 -90.5q-112 0 -200 33l30 174q33 -10 54 -10q73 0 120.5 48t47.5 126v1073h305z" />
    <glyph glyph-name="k" unicode="k" horiz-adv-x="1259" 
d="M1229 0h-322l-266 420l-201 -217v-203h-305v1434h305v-861l410 451h352l-358 -385z" />
    <glyph glyph-name="l" unicode="l" horiz-adv-x="575" 
d="M440 1434v-1434h-305v1434h305z" />
    <glyph glyph-name="m" unicode="m" horiz-adv-x="2004" 
d="M1116 889q102 84 199 119.5t213 35.5q164 0 263 -91.5t99 -258.5v-694h-307v604q0 93 -47 144t-129 51q-143 0 -256 -88q10 -65 10 -133v-578h-303v604q0 93 -47.5 144t-130.5 51q-127 0 -244 -90v-709h-305v1024h305v-131q177 151 379 151q102 0 180.5 -39.5
t120.5 -115.5z" />
    <glyph glyph-name="n" unicode="n" horiz-adv-x="1320" 
d="M1204 694v-694h-303v604q0 91 -50 142t-142 51q-145 0 -269 -105v-692h-305v1024h305v-119q191 139 402 139q168 0 265 -93t97 -257z" />
    <glyph glyph-name="o" unicode="o" horiz-adv-x="1335" 
d="M1243 512q0 -148 -75 -270t-207 -192t-293 -70t-293 69.5t-207.5 192t-75.5 270.5t75.5 270.5t207.5 192t293 69.5t293 -70t207 -192t75 -270zM391 512q0 -118 78 -195t197 -77q121 0 198.5 76.5t77.5 195.5q0 118 -78.5 196t-197.5 78t-197 -78t-78 -196z" />
    <glyph glyph-name="p" unicode="p" horiz-adv-x="1351" 
d="M1245 512q0 -150 -62 -272t-170.5 -191t-240.5 -69q-200 0 -326 139v-518h-305v1423h305v-117q125 137 326 137q132 0 240.5 -69t170.5 -191t62 -272zM946 512q0 117 -73 195.5t-183 78.5q-77 0 -142 -33.5t-102 -90.5v-297q37 -58 102 -91.5t142 -33.5q110 0 183 77.5
t73 194.5z" />
    <glyph glyph-name="q" unicode="q" horiz-adv-x="1327" 
d="M891 1024h305v-1423h-305v518q-126 -139 -326 -139q-131 -3 -241 67t-172.5 193.5t-59.5 271.5q-3 148 59.5 271.5t172.5 193.5t241 67q201 0 326 -137v117zM891 365v297q-37 57 -102 90.5t-142 33.5q-110 0 -183 -78.5t-73 -195.5t73 -194.5t183 -77.5q77 0 142 33.5
t102 91.5z" />
    <glyph glyph-name="r" unicode="r" horiz-adv-x="856" 
d="M825 1044v-256q-220 0 -385 -186v-602h-305v1024h305v-190q82 100 182.5 155t202.5 55z" />
    <glyph glyph-name="s" unicode="s" horiz-adv-x="1073" 
d="M961 932l-101 -193q-76 43 -167.5 70t-164.5 27q-135 0 -135 -91q0 -34 29 -52t119 -42l104 -28q184 -49 263 -121t79 -191q0 -158 -115 -244.5t-323 -86.5q-131 0 -258 37t-230 104l107 184q182 -115 391 -115q143 0 143 99q0 36 -26 55t-103 39l-129 35
q-188 55 -263 121t-75 180q0 153 112.5 239t311.5 86q117 0 230.5 -29t200.5 -83z" />
    <glyph glyph-name="t" unicode="t" horiz-adv-x="907" 
d="M803 270l41 -211q-149 -79 -297 -79q-158 0 -254 94.5t-96 263.5v448h-150v238h150v276h303v-276h272v-238h-272v-399q0 -73 43 -114.5t112 -41.5q77 0 148 39z" />
    <glyph glyph-name="u" unicode="u" horiz-adv-x="1320" 
d="M881 1024h305v-1024h-305v119q-191 -139 -402 -139q-168 0 -265 94t-97 258v692h305v-602q0 -93 50 -144t142 -51q137 0 267 105v692z" />
    <glyph glyph-name="v" unicode="v" horiz-adv-x="1243" 
d="M889 1024h323l-399 -1024h-379l-401 1024h323l267 -721z" />
    <glyph glyph-name="w" unicode="w" horiz-adv-x="1701" 
d="M1673 1024l-319 -1024h-328l-174 584l-172 -584h-330l-317 1024h303l194 -696l203 696h238l203 -696l194 696h305z" />
    <glyph glyph-name="x" unicode="x" horiz-adv-x="1183" 
d="M1153 0h-348l-213 319l-217 -319h-342l381 520l-369 504h346l205 -303l203 303h342l-369 -504z" />
    <glyph glyph-name="y" unicode="y" horiz-adv-x="1230" 
d="M1200 1024l-440 -1120q-124 -324 -422 -324q-137 0 -305 64l84 204q96 -38 178 -38q63 0 109.5 32t84.5 101l15 24l-449 1057h322l260 -696l246 696h317z" />
    <glyph glyph-name="z" unicode="z" horiz-adv-x="1105" 
d="M1006 1024v-199l-514 -579h534v-246h-956v199l512 579h-471v246h895z" />
    <glyph glyph-name="braceleft" unicode="{" horiz-adv-x="739" 
d="M692 1434v-199h-65q-55 0 -81 -23t-26 -73v-463q0 -132 -92 -193q92 -61 92 -192v-465q0 -98 107 -98h65v-199h-176q-285 0 -285 260v502q0 37 -24 60.5t-62 23.5h-71v215h71q38 0 62 24.5t24 61.5v498q0 260 285 260h176z" />
    <glyph glyph-name="bar" unicode="|" horiz-adv-x="647" 
d="M479 1536v-1849h-309v1849h309z" />
    <glyph glyph-name="braceright" unicode="}" horiz-adv-x="739" 
d="M47 1434h176q285 0 285 -260v-498q0 -37 24 -61.5t62 -24.5h72v-215h-72q-38 0 -62 -23.5t-24 -60.5v-502q0 -260 -285 -260h-176v199h66q106 0 106 98v465q0 131 92 192q-92 61 -92 193v463q0 50 -25.5 73t-80.5 23h-66v199z" />
    <glyph glyph-name="asciitilde" unicode="~" horiz-adv-x="1228" 
d="M629 696q64 -37 100.5 -51t71.5 -14q47 0 80.5 36t46.5 103l182 -27q-4 -165 -79.5 -265.5t-194.5 -100.5q-99 0 -238 74q-74 39 -107 52t-63 13q-43 0 -78.5 -38t-48.5 -101l-182 20q4 177 78.5 275t203.5 98q93 0 228 -74z" />
    <glyph glyph-name="uni00A0" unicode="&#xa0;" horiz-adv-x="512" 
 />
    <glyph glyph-name="exclamdown" unicode="&#xa1;" horiz-adv-x="495" 
d="M414 895q0 -61 -48 -104t-116 -43q-69 0 -117.5 43t-48.5 104q0 63 48.5 106t117.5 43q68 0 116 -43t48 -106zM385 627l31 -1039h-332l31 1039h270z" />
    <glyph glyph-name="cent" unicode="&#xa2;" horiz-adv-x="1228" 
d="M543 -242v240q-186 40 -307 184t-121 330q0 188 121.5 332.5t306.5 181.5v240h241v-236q102 -20 189 -73.5t149 -133.5l-233 -129q-83 92 -211 92q-107 0 -185.5 -79.5t-78.5 -194.5t78 -193.5t186 -78.5q134 0 215 96l233 -129q-60 -82 -149 -137.5t-193 -75.5v-236
h-241z" />
    <glyph glyph-name="sterling" unicode="&#xa3;" horiz-adv-x="1228" 
d="M1282 1257l-188 -180q-80 103 -228 103q-116 0 -182 -59.5t-72 -166.5l-8 -161h461l-27 -224h-460l-15 -307h647l-32 -262h-1121l33 262h148l14 307h-148l27 226h148l16 213q20 219 157 332.5t377 113.5q306 0 453 -197z" />
    <glyph glyph-name="yen" unicode="&#xa5;" horiz-adv-x="1228" 
d="M1237 1434l-293 -596h180v-226h-290l-56 -110v-70h346v-227h-346v-205h-327v205h-345v227h345v66l-56 114h-289v226h179l-293 596h348l276 -594l275 594h346z" />
    <glyph glyph-name="brokenbar" unicode="&#xa6;" horiz-adv-x="647" 
d="M479 1536v-756h-309v756h309zM479 444v-757h-309v757h309z" />
    <glyph glyph-name="section" unicode="&#xa7;" horiz-adv-x="1284" 
d="M1196 59q0 -184 -137 -291.5t-371 -107.5q-321 0 -602 166l125 227q94 -59 233 -102q137 -41 246 -41q94 0 145.5 33t51.5 96q0 47 -42.5 73.5t-166.5 55.5l-80 18q-242 56 -352.5 145t-110.5 228q0 151 117 268q-113 88 -113 240q0 180 136.5 283.5t371.5 103.5
q134 0 256 -31.5t264 -103.5l-120 -229q-219 116 -406 116q-192 0 -192 -121q0 -44 38.5 -68.5t145.5 -49.5l76 -19q262 -60 374.5 -150t112.5 -239q0 -147 -111 -264q111 -83 111 -236zM674 446l69 -16q41 -7 80 -20q70 50 70 122q0 56 -52.5 89t-197.5 65l-68 14
q-12 3 -33 8.5t-28 6.5q-78 -47 -78 -119q0 -56 49.5 -87t188.5 -63z" />
    <glyph glyph-name="dieresis" unicode="&#xa8;" horiz-adv-x="702" 
d="M111 1327q0 -57 -37 -95t-94 -38t-95.5 38t-38.5 95t38.5 94t95.5 37t94 -37t37 -94zM555 1327q0 -57 -38 -95t-95 -38t-94 38t-37 95t37 94t94 37t95 -37t38 -94z" />
    <glyph glyph-name="copyright" unicode="&#xa9;" horiz-adv-x="1654" 
d="M1567 717q3 -146 -56.5 -283.5t-160 -237.5t-238 -159.5t-283.5 -56.5q-146 -3 -283.5 56.5t-237.5 159.5t-159.5 237.5t-56.5 283.5q-3 146 56.5 283.5t159.5 237.5t237.5 159.5t283.5 56.5q146 3 283.5 -56.5t238 -159.5t160 -237.5t56.5 -283.5zM285 721
q-3 -144 71.5 -272t202 -204t270.5 -73q106 -2 207 42.5t175.5 119.5t118.5 177t42 210q2 106 -42 207t-118.5 175.5t-175.5 118.5t-207 42q-107 2 -209 -42t-175.5 -118.5t-117.5 -175.5t-42 -207zM1153 934l-160 -90q-60 84 -162 84q-88 0 -145 -60t-57 -151t57 -151
t145 -60q103 0 162 86l160 -92q-55 -76 -141 -121t-183 -45q-162 0 -277.5 112.5t-115.5 270.5q0 157 116 271t277 114q96 0 182.5 -45.5t141.5 -122.5z" />
    <glyph glyph-name="ordfeminine" unicode="&#xaa;" horiz-adv-x="821" 
d="M731 1190v-442h-207v79q-107 -94 -243 -94q-100 0 -164 60.5t-64 156.5q0 97 66.5 151t187.5 54h217v19q0 114 -141 114q-108 0 -211 -65l-57 131q158 92 323 92q138 0 215.5 -65.5t77.5 -190.5zM524 918v131h-149q-119 0 -119 -84t119 -84q82 0 149 37z" />
    <glyph glyph-name="guillemotleft" unicode="&#xab;" horiz-adv-x="1376" 
d="M428 1006l225 -119l-270 -344l270 -344l-227 -115l-367 459zM1094 1006l225 -119l-270 -344l270 -344l-227 -115l-367 459z" />
    <glyph glyph-name="uni00AD" unicode="&#xad;" horiz-adv-x="854" 
d="M782 659v-253h-708v253h708z" />
    <glyph glyph-name="registered" unicode="&#xae;" horiz-adv-x="1654" 
d="M1567 717q3 -146 -56.5 -283.5t-160 -237.5t-238 -159.5t-283.5 -56.5q-146 -3 -283.5 56.5t-237.5 159.5t-159.5 237.5t-56.5 283.5q-3 146 56.5 283.5t159.5 237.5t237.5 159.5t283.5 56.5q146 3 283.5 -56.5t238 -159.5t160 -237.5t56.5 -283.5zM285 721
q-3 -144 71.5 -272t202 -204t270.5 -73q106 -2 207 42.5t175.5 119.5t118.5 177t42 210q2 106 -42 207t-118.5 175.5t-175.5 118.5t-207 42q-107 2 -209 -42t-175.5 -118.5t-117.5 -175.5t-42 -207zM1137 836q0 -158 -136 -207l164 -242h-190l-141 219q-6 -2 -35 -2h-101
v-217h-166v680h304q157 0 229 -56t72 -175zM698 918v-183h146q68 0 95.5 20.5t27.5 69.5q0 51 -27 72t-96 21h-146z" />
    <glyph glyph-name="overscore" unicode="&#xaf;" horiz-adv-x="702" 
d="M541 1421v-188h-678v188h678z" />
    <glyph glyph-name="degree" unicode="&#xb0;" horiz-adv-x="890" 
d="M819 1219q0 -150 -110 -257.5t-263 -107.5q-154 0 -263 107t-109 258q0 152 109 259t263 107q153 0 263 -107t110 -259zM248 1219q0 -82 58 -139.5t140 -57.5t140.5 57.5t58.5 139.5t-58.5 140t-140.5 58t-140 -58t-58 -140z" />
    <glyph glyph-name="plusminus" unicode="&#xb1;" horiz-adv-x="1228" 
d="M1110 236v-236h-991v236h991zM1110 930v-236h-377v-379h-233v379h-381v236h381v377h233v-377h377z" />
    <glyph glyph-name="uni00B2" unicode="&#xb2;" horiz-adv-x="759" 
d="M389 897h320v-197h-674v162l346 283q45 37 63.5 63.5t18.5 55.5q0 39 -28 62.5t-75 23.5q-92 0 -194 -111l-139 127q144 182 354 182q143 0 233 -75q93 -78 93 -191q0 -70 -43.5 -134t-151.5 -149z" />
    <glyph glyph-name="uni00B3" unicode="&#xb3;" horiz-adv-x="768" 
d="M715 975q0 -125 -102.5 -206t-260.5 -81q-177 0 -319 109l114 145q88 -61 187 -61q66 0 103.5 26t37.5 70q0 41 -37 65.5t-100 24.5q-53 0 -115 -16l-33 112l203 183h-305v190h604v-158l-186 -168q97 -17 153 -80t56 -155z" />
    <glyph glyph-name="acute" unicode="&#xb4;" horiz-adv-x="702" 
d="M518 1481l-295 -344h-264l242 344h317z" />
    <glyph glyph-name="paragraph" unicode="&#xb6;" horiz-adv-x="1617" 
d="M686 1434h762v-1762h-256v1530h-203v-1530h-256v850h-88q-130 0 -233 34.5t-169.5 96t-101.5 144.5t-35 182q0 213 147 334t433 121z" />
    <glyph glyph-name="middot" unicode="&#xb7;" horiz-adv-x="473" 
d="M403 127q0 -63 -48 -106.5t-117 -43.5q-68 0 -116 43.5t-48 106.5q0 61 48 105t116 44q69 0 117 -43.5t48 -105.5z" />
    <glyph glyph-name="cedilla" unicode="&#xb8;" horiz-adv-x="702" 
d="M442 -268q0 -94 -68.5 -145.5t-180.5 -51.5q-127 0 -222 53l41 105q64 -31 144 -31q49 0 78.5 26t29.5 64q0 35 -21 54.5t-59 19.5q-40 0 -67 -21l-54 54l70 147h137l-43 -92h19q90 0 143 -50t53 -132z" />
    <glyph glyph-name="uni00B9" unicode="&#xb9;" horiz-adv-x="538" 
d="M436 1536v-836h-233v631l-142 -31l-41 175l240 61h176z" />
    <glyph glyph-name="ordmasculine" unicode="&#xba;" horiz-adv-x="935" 
d="M854 1092q0 -147 -114 -253t-271 -106t-271 106t-114 253q0 148 112.5 251t272.5 103q158 0 271.5 -103.5t113.5 -250.5zM285 1092q0 -76 53.5 -129.5t130.5 -53.5q74 0 127 54t53 129t-53 127.5t-127 52.5q-78 0 -131 -52.5t-53 -127.5z" />
    <glyph glyph-name="guillemotright" unicode="&#xbb;" horiz-adv-x="1376" 
d="M287 1006l366 -463l-364 -459l-228 115l269 344l-269 344zM952 1006l367 -463l-365 -459l-227 115l268 344l-268 344z" />
    <glyph glyph-name="onequarter" unicode="&#xbc;" horiz-adv-x="1640" 
d="M436 1393v-836h-233v631l-142 -31l-41 174l240 62h176zM1343 1415l-915 -1450h-244l914 1450h245zM1489 365h115v-191h-115v-174h-232v174h-397l-26 182l391 480h264v-471zM1075 365h182v241z" />
    <glyph glyph-name="onehalf" unicode="&#xbd;" horiz-adv-x="1656" 
d="M436 1393v-836h-233v631l-142 -31l-41 174l240 62h176zM1309 1415l-916 -1450h-243l913 1450h246zM1286 197h320v-197h-674v162l346 282q45 37 63.5 63.5t18.5 55.5q0 39 -28 62.5t-75 23.5q-93 0 -194 -110l-139 127q144 182 354 182q142 0 233 -76q93 -78 93 -190
q0 -70 -43.5 -134t-151.5 -149z" />
    <glyph glyph-name="threequarters" unicode="&#xbe;" horiz-adv-x="1812" 
d="M715 831q0 -125 -102.5 -205.5t-260.5 -80.5q-178 0 -319 108l114 146q89 -62 187 -62q66 0 103.5 26t37.5 71q0 41 -37 65.5t-100 24.5q-49 0 -115 -17l-33 113l203 182h-305v191h604v-158l-186 -168q97 -17 153 -80.5t56 -155.5zM1518 1415l-916 -1450h-244l914 1450
h246zM1661 365h115v-191h-115v-174h-231v174h-398l-26 182l391 480h264v-471zM1247 365h183v241z" />
    <glyph glyph-name="questiondown" unicode="&#xbf;" horiz-adv-x="1175" 
d="M745 907q0 -61 -48.5 -104t-116.5 -43t-116 42.5t-48 104.5q0 63 48 106.5t116 43.5t116.5 -43.5t48.5 -106.5zM82 -2q0 103 49 185.5t170 185.5l29 24q67 56 88.5 95.5t23.5 103.5l2 45h273l4 -90q3 -99 -33 -166q-33 -62 -143 -158l-49 -45q-49 -43 -68.5 -76.5
t-19.5 -76.5q0 -79 52.5 -124.5t143.5 -45.5t149.5 48t65.5 130l291 -31q-29 -197 -172.5 -309.5t-366.5 -112.5q-221 0 -355 114.5t-134 303.5z" />
    <glyph glyph-name="Agrave" unicode="&#xc0;" horiz-adv-x="1718" 
d="M1282 0l-108 283h-627l-109 -283h-379l584 1434h428l590 -1434h-379zM649 549h420l-211 547zM803 1890l241 -344h-264l-295 344h318z" />
    <glyph glyph-name="Aacute" unicode="&#xc1;" horiz-adv-x="1718" 
d="M1282 0l-108 283h-627l-109 -283h-379l584 1434h428l590 -1434h-379zM649 549h420l-211 547zM1231 1890l-295 -344h-264l241 344h318z" />
    <glyph glyph-name="Acircumflex" unicode="&#xc2;" horiz-adv-x="1718" 
d="M1282 0l-108 283h-627l-109 -283h-379l584 1434h428l590 -1434h-379zM649 549h420l-211 547zM1020 1890l250 -344h-254l-158 180l-156 -180h-253l249 344h322z" />
    <glyph glyph-name="Atilde" unicode="&#xc3;" horiz-adv-x="1718" 
d="M1282 0l-108 283h-627l-109 -283h-379l584 1434h428l590 -1434h-379zM649 549h420l-211 547zM682 1884q42 0 80.5 -11.5t103.5 -41.5q106 -49 150 -49q71 0 92 90l133 -19q-5 -125 -56 -201.5t-149 -76.5q-40 0 -76.5 11.5t-123.5 47.5q-90 43 -134 43q-68 0 -92 -88
l-133 17q5 126 56 202t149 76z" />
    <glyph glyph-name="Adieresis" unicode="&#xc4;" horiz-adv-x="1718" 
d="M1282 0l-108 283h-627l-109 -283h-379l584 1434h428l590 -1434h-379zM649 549h420l-211 547zM768 1737q0 -57 -37 -95t-94 -38t-95 38t-38 95t38 94t95 37t94 -37t37 -94zM1212 1737q0 -57 -38 -95t-95 -38t-94 38t-37 95t37 94t94 37t95 -37t38 -94z" />
    <glyph glyph-name="Aring" unicode="&#xc5;" horiz-adv-x="1718" 
d="M1282 0l-108 283h-627l-109 -283h-379l584 1434h428l590 -1434h-379zM649 549h420l-211 547zM1130 1776q0 -109 -81 -188t-191 -79t-191 79t-81 188t81 187.5t191 78.5t191 -78.5t81 -187.5zM737 1776q0 -49 35.5 -84t85.5 -35t85.5 35t35.5 84q0 47 -36 81.5t-85 34.5
t-85 -34.5t-36 -81.5z" />
    <glyph glyph-name="AE" unicode="&#xc6;" horiz-adv-x="2154" 
d="M1288 291h783v-291h-1110v283h-396l-131 -283h-375l686 1434h1311v-291h-768v-281h709v-272h-709v-299zM686 545h275v596z" />
    <glyph glyph-name="Ccedilla" unicode="&#xc7;" horiz-adv-x="1570" 
d="M1208 449l277 -166q-101 -136 -254 -216.5t-330 -86.5l-31 -66h19q90 0 143 -50t53 -132q0 -92 -69 -144.5t-178 -52.5q-127 0 -222 53l41 105q64 -31 144 -31q48 0 78 26t30 64q0 35 -21.5 54.5t-58.5 19.5q-40 0 -67 -21l-53 54l61 129q-133 16 -253 82t-206.5 163.5
t-136.5 224t-49 259.5q-3 146 58 283.5t163.5 237.5t243 159.5t289.5 56.5q183 0 342.5 -80t263.5 -221l-277 -166q-62 76 -146.5 119t-180.5 43q-176 0 -296 -125.5t-120 -306.5q0 -180 120 -305t296 -125q194 0 327 162z" />
    <glyph glyph-name="Egrave" unicode="&#xc8;" horiz-adv-x="1413" 
d="M1315 1434v-289h-819v-281h759v-276h-759v-297h833v-291h-1159v1434h1145zM682 1890l242 -344h-265l-294 344h317z" />
    <glyph glyph-name="Eacute" unicode="&#xc9;" horiz-adv-x="1413" 
d="M1315 1434v-289h-819v-281h759v-276h-759v-297h833v-291h-1159v1434h1145zM1110 1890l-295 -344h-264l242 344h317z" />
    <glyph glyph-name="Ecircumflex" unicode="&#xca;" horiz-adv-x="1413" 
d="M1315 1434v-289h-819v-281h759v-276h-759v-297h833v-291h-1159v1434h1145zM899 1890l250 -344h-254l-158 180l-155 -180h-254l250 344h321z" />
    <glyph glyph-name="Edieresis" unicode="&#xcb;" horiz-adv-x="1413" 
d="M1315 1434v-289h-819v-281h759v-276h-759v-297h833v-291h-1159v1434h1145zM647 1737q0 -57 -37 -95t-94 -38t-95 38t-38 95t38 94t95 37t94 -37t37 -94zM1092 1737q0 -57 -38.5 -95t-95.5 -38t-94 38t-37 95t37 94t94 37t95.5 -37t38.5 -94z" />
    <glyph glyph-name="Igrave" unicode="&#xcc;" horiz-adv-x="665" 
d="M496 1434v-1434h-326v1434h326zM287 1890l241 -344h-264l-295 344h318z" />
    <glyph glyph-name="Iacute" unicode="&#xcd;" horiz-adv-x="665" 
d="M496 1434v-1434h-326v1434h326zM715 1890l-295 -344h-264l241 344h318z" />
    <glyph glyph-name="Icircumflex" unicode="&#xce;" horiz-adv-x="665" 
d="M496 1434v-1434h-326v1434h326zM504 1890l250 -344h-254l-158 180l-156 -180h-254l250 344h322z" />
    <glyph glyph-name="Idieresis" unicode="&#xcf;" horiz-adv-x="665" 
d="M496 1434v-1434h-326v1434h326zM252 1737q0 -57 -37 -95t-94 -38t-95 38t-38 95t38 94t95 37t94 -37t37 -94zM696 1737q0 -57 -38 -95t-95 -38t-94 38t-37 95t37 94t94 37t95 -37t38 -94z" />
    <glyph glyph-name="Eth" unicode="&#xd0;" horiz-adv-x="1656" 
d="M1532 717q4 -195 -100.5 -362t-282 -262.5t-381.5 -92.5h-598v590h-125v256h125v588h598q204 3 381.5 -92.5t282 -262.5t100.5 -362zM1198 717q0 179 -129 302.5t-313 123.5h-260v-297h305v-256h-305v-297h260q183 0 312.5 123.5t129.5 300.5z" />
    <glyph glyph-name="Ntilde" unicode="&#xd1;" horiz-adv-x="1667" 
d="M1178 1434h319v-1434h-338l-667 922v-922h-322v1434h340l668 -920v920zM690 1884q42 0 80.5 -11.5t103.5 -41.5q106 -49 150 -49q71 0 92 90l133 -19q-5 -125 -56 -201.5t-149 -76.5q-40 0 -76.5 11.5t-123.5 47.5q-90 43 -133 43q-69 0 -93 -88l-133 17q5 126 56 202
t149 76z" />
    <glyph glyph-name="Ograve" unicode="&#xd2;" horiz-adv-x="1777" 
d="M1653 717q3 -146 -58.5 -283.5t-165 -237.5t-245.5 -159.5t-293 -56.5q-153 -3 -296 56.5t-246.5 159.5t-165 237.5t-58.5 283.5q-3 146 58.5 283.5t165 237.5t246.5 159.5t296 56.5q151 3 293 -56.5t245.5 -159.5t165 -237.5t58.5 -283.5zM465 717q0 -181 122 -305.5
t304 -124.5q179 0 301.5 125.5t122.5 304.5q0 181 -122.5 306.5t-301.5 125.5q-182 0 -304 -125.5t-122 -306.5zM836 1890l241 -344h-264l-295 344h318z" />
    <glyph glyph-name="Oacute" unicode="&#xd3;" horiz-adv-x="1777" 
d="M1653 717q3 -146 -58.5 -283.5t-165 -237.5t-245.5 -159.5t-293 -56.5q-153 -3 -296 56.5t-246.5 159.5t-165 237.5t-58.5 283.5q-3 146 58.5 283.5t165 237.5t246.5 159.5t296 56.5q151 3 293 -56.5t245.5 -159.5t165 -237.5t58.5 -283.5zM465 717q0 -181 122 -305.5
t304 -124.5q179 0 301.5 125.5t122.5 304.5q0 181 -122.5 306.5t-301.5 125.5q-182 0 -304 -125.5t-122 -306.5zM1264 1890l-295 -344h-264l241 344h318z" />
    <glyph glyph-name="Ocircumflex" unicode="&#xd4;" horiz-adv-x="1777" 
d="M1653 717q3 -146 -58.5 -283.5t-165 -237.5t-245.5 -159.5t-293 -56.5q-153 -3 -296 56.5t-246.5 159.5t-165 237.5t-58.5 283.5q-3 146 58.5 283.5t165 237.5t246.5 159.5t296 56.5q151 3 293 -56.5t245.5 -159.5t165 -237.5t58.5 -283.5zM465 717q0 -181 122 -305.5
t304 -124.5q179 0 301.5 125.5t122.5 304.5q0 181 -122.5 306.5t-301.5 125.5q-182 0 -304 -125.5t-122 -306.5zM1053 1890l250 -344h-254l-158 180l-156 -180h-254l250 344h322z" />
    <glyph glyph-name="Otilde" unicode="&#xd5;" horiz-adv-x="1777" 
d="M1653 717q3 -146 -58.5 -283.5t-165 -237.5t-245.5 -159.5t-293 -56.5q-153 -3 -296 56.5t-246.5 159.5t-165 237.5t-58.5 283.5q-3 146 58.5 283.5t165 237.5t246.5 159.5t296 56.5q151 3 293 -56.5t245.5 -159.5t165 -237.5t58.5 -283.5zM465 717q0 -181 122 -305.5
t304 -124.5q179 0 301.5 125.5t122.5 304.5q0 181 -122.5 306.5t-301.5 125.5q-182 0 -304 -125.5t-122 -306.5zM715 1884q42 0 80.5 -11.5t103.5 -41.5q106 -49 150 -49q71 0 92 90l133 -19q-5 -125 -56 -201.5t-149 -76.5q-40 0 -77 11.5t-124 47.5q-90 43 -133 43
q-68 0 -92 -88l-133 17q5 126 56 202t149 76z" />
    <glyph glyph-name="Odieresis" unicode="&#xd6;" horiz-adv-x="1777" 
d="M1653 717q3 -146 -58.5 -283.5t-165 -237.5t-245.5 -159.5t-293 -56.5q-153 -3 -296 56.5t-246.5 159.5t-165 237.5t-58.5 283.5q-3 146 58.5 283.5t165 237.5t246.5 159.5t296 56.5q151 3 293 -56.5t245.5 -159.5t165 -237.5t58.5 -283.5zM465 717q0 -181 122 -305.5
t304 -124.5q179 0 301.5 125.5t122.5 304.5q0 181 -122.5 306.5t-301.5 125.5q-182 0 -304 -125.5t-122 -306.5zM801 1737q0 -57 -37 -95t-94 -38t-95 38t-38 95t38 94t95 37t94 -37t37 -94zM1245 1737q0 -57 -38 -95t-95 -38t-94 38t-37 95t37 94t94 37t95 -37t38 -94z" />
    <glyph glyph-name="multiply" unicode="&#xd7;" horiz-adv-x="1228" 
d="M1077 870l-295 -297l295 -294l-164 -168l-297 297l-297 -297l-165 165l297 297l-299 299l167 164l297 -297l297 297z" />
    <glyph glyph-name="Oslash" unicode="&#xd8;" horiz-adv-x="1777" 
d="M1653 717q3 -146 -58.5 -283.5t-165 -237.5t-245.5 -159.5t-293 -56.5q-104 0 -213 28l-53 -110h-260l100 206q-157 101 -248.5 263.5t-91.5 349.5q-3 146 58.5 283.5t165 237.5t246.5 159.5t296 56.5q99 0 209 -29l53 111h260l-98 -207q157 -101 247.5 -263t90.5 -349z
M604 395l361 748q-37 6 -74 6q-182 0 -304 -125.5t-122 -306.5q0 -196 139 -322zM1315 717q0 197 -139 323l-361 -747q37 -6 76 -6q179 0 301.5 125.5t122.5 304.5z" />
    <glyph glyph-name="Ugrave" unicode="&#xd9;" horiz-adv-x="1636" 
d="M1468 1434v-781q0 -327 -167 -500t-482 -173q-314 0 -481.5 174t-167.5 499v781h326v-781q0 -182 83.5 -278t239.5 -96t240 96t84 278v781h325zM762 1890l242 -344h-265l-295 344h318z" />
    <glyph glyph-name="Uacute" unicode="&#xda;" horiz-adv-x="1636" 
d="M1468 1434v-781q0 -327 -167 -500t-482 -173q-314 0 -481.5 174t-167.5 499v781h326v-781q0 -182 83.5 -278t239.5 -96t240 96t84 278v781h325zM1190 1890l-295 -344h-264l241 344h318z" />
    <glyph glyph-name="Ucircumflex" unicode="&#xdb;" horiz-adv-x="1636" 
d="M1468 1434v-781q0 -327 -167 -500t-482 -173q-314 0 -481.5 174t-167.5 499v781h326v-781q0 -182 83.5 -278t239.5 -96t240 96t84 278v781h325zM979 1890l250 -344h-254l-158 180l-155 -180h-254l249 344h322z" />
    <glyph glyph-name="Udieresis" unicode="&#xdc;" horiz-adv-x="1636" 
d="M1468 1434v-781q0 -327 -167 -500t-482 -173q-314 0 -481.5 174t-167.5 499v781h326v-781q0 -182 83.5 -278t239.5 -96t240 96t84 278v781h325zM727 1737q0 -57 -37 -95t-94 -38t-95 38t-38 95t38 94t95 37t94 -37t37 -94zM1171 1737q0 -57 -38 -95t-95 -38t-94 38
t-37 95t37 94t94 37t95 -37t38 -94z" />
    <glyph glyph-name="Yacute" unicode="&#xdd;" horiz-adv-x="1607" 
d="M1163 1434h387l-581 -932v-502h-328v498l-582 936h390l356 -596zM1178 1890l-295 -344h-265l242 344h318z" />
    <glyph glyph-name="Thorn" unicode="&#xde;" horiz-adv-x="1509" 
d="M496 1434v-181h286q320 0 471.5 -122.5t151.5 -380.5q0 -260 -150.5 -384t-468.5 -124h-290v-242h-326v1434h326zM778 971h-282v-447h284q152 0 222.5 53.5t70.5 170.5q0 116 -70.5 169.5t-224.5 53.5z" />
    <glyph glyph-name="germandbls" unicode="&#xdf;" horiz-adv-x="1449" 
d="M135 0v987q0 207 155.5 337t403.5 130q214 0 352 -94t138 -242q0 -67 -36 -125t-118 -129q-49 -44 -65.5 -66t-16.5 -42q0 -27 31 -49q56 -34 147 -76q140 -66 194 -131.5t54 -169.5q0 -152 -121.5 -251t-308.5 -99q-180 0 -354 75l76 246q56 -30 127 -49t127 -19
q69 0 109 29.5t40 79.5q0 41 -39 73t-149 79q-131 56 -180.5 101.5t-49.5 111.5q0 55 29.5 104t101.5 115q55 48 77 81t22 68q0 58 -52.5 92.5t-142.5 34.5q-115 0 -180.5 -60t-65.5 -165v-977h-305z" />
    <glyph glyph-name="agrave" unicode="&#xe0;" horiz-adv-x="1216" 
d="M1100 662v-662h-303v115q-153 -135 -346 -135q-166 0 -265.5 88.5t-99.5 232.5q0 147 103 230t284 83h324v19q0 85 -54.5 128.5t-158.5 43.5q-162 0 -316 -98l-92 204q227 133 488 133q210 0 323 -99t113 -283zM797 252v211h-228q-88 0 -135 -36t-47 -103q0 -68 46 -105
t132 -37q119 0 232 70zM598 1481l242 -344h-265l-294 344h317z" />
    <glyph glyph-name="aacute" unicode="&#xe1;" horiz-adv-x="1216" 
d="M1100 662v-662h-303v115q-153 -135 -346 -135q-166 0 -265.5 88.5t-99.5 232.5q0 147 103 230t284 83h324v19q0 85 -54.5 128.5t-158.5 43.5q-162 0 -316 -98l-92 204q227 133 488 133q210 0 323 -99t113 -283zM797 252v211h-228q-88 0 -135 -36t-47 -103q0 -68 46 -105
t132 -37q119 0 232 70zM1026 1481l-295 -344h-264l242 344h317z" />
    <glyph glyph-name="acircumflex" unicode="&#xe2;" horiz-adv-x="1216" 
d="M1100 662v-662h-303v115q-153 -135 -346 -135q-166 0 -265.5 88.5t-99.5 232.5q0 147 103 230t284 83h324v19q0 85 -54.5 128.5t-158.5 43.5q-162 0 -316 -98l-92 204q227 133 488 133q210 0 323 -99t113 -283zM797 252v211h-228q-88 0 -135 -36t-47 -103q0 -68 46 -105
t132 -37q119 0 232 70zM815 1481l250 -344h-254l-158 180l-155 -180h-254l250 344h321z" />
    <glyph glyph-name="atilde" unicode="&#xe3;" horiz-adv-x="1216" 
d="M1100 662v-662h-303v115q-153 -135 -346 -135q-166 0 -265.5 88.5t-99.5 232.5q0 147 103 230t284 83h324v19q0 85 -54.5 128.5t-158.5 43.5q-162 0 -316 -98l-92 204q227 133 488 133q210 0 323 -99t113 -283zM797 252v211h-228q-88 0 -135 -36t-47 -103q0 -68 46 -105
t132 -37q119 0 232 70zM477 1475q41 0 80 -12t105 -42q106 -49 149 -49q71 0 92 90l133 -18q-5 -125 -56 -202t-149 -77q-28 0 -57.5 7.5t-53.5 16.5t-89 36q-90 43 -133 43q-68 0 -92 -88l-134 16q5 126 56 202.5t149 76.5z" />
    <glyph glyph-name="adieresis" unicode="&#xe4;" horiz-adv-x="1216" 
d="M1100 662v-662h-303v115q-153 -135 -346 -135q-166 0 -265.5 88.5t-99.5 232.5q0 147 103 230t284 83h324v19q0 85 -54.5 128.5t-158.5 43.5q-162 0 -316 -98l-92 204q227 133 488 133q210 0 323 -99t113 -283zM797 252v211h-228q-88 0 -135 -36t-47 -103q0 -68 46 -105
t132 -37q119 0 232 70zM563 1327q0 -57 -37 -95t-94 -38t-95 38t-38 95t38 94t95 37t94 -37t37 -94zM1008 1327q0 -57 -38.5 -95t-95.5 -38t-94 38t-37 95t37 94t94 37t95.5 -37t38.5 -94z" />
    <glyph glyph-name="aring" unicode="&#xe5;" horiz-adv-x="1216" 
d="M1100 662v-662h-303v115q-153 -135 -346 -135q-166 0 -265.5 88.5t-99.5 232.5q0 147 103 230t284 83h324v19q0 85 -54.5 128.5t-158.5 43.5q-162 0 -316 -98l-92 204q227 133 488 133q210 0 323 -99t113 -283zM797 252v211h-228q-88 0 -135 -36t-47 -103q0 -68 46 -105
t132 -37q119 0 232 70zM926 1366q0 -108 -81 -187t-192 -79q-110 0 -191 78.5t-81 187.5t81 187.5t191 78.5q111 0 192 -79t81 -187zM532 1366q0 -49 35.5 -84t85.5 -35t85.5 35t35.5 84q0 47 -36 82t-85 35t-85 -35t-36 -82z" />
    <glyph glyph-name="ae" unicode="&#xe6;" horiz-adv-x="1970" 
d="M1888 512v-84h-784q19 -105 86.5 -161t177.5 -56q167 0 272 94l166 -149q-91 -85 -208.5 -130.5t-247.5 -45.5q-128 0 -237.5 48.5t-188.5 137.5q-192 -186 -439 -186q-188 0 -293.5 86.5t-105.5 234.5q0 147 103 230t284 83h324v19q0 85 -54.5 128.5t-158.5 43.5
q-162 0 -316 -98l-92 204q227 133 488 133q227 0 333 -112q147 112 346 112q239 0 392 -151.5t153 -380.5zM1102 594h489q0 97 -69 161t-174 64q-100 0 -164.5 -58.5t-81.5 -166.5zM850 281q-42 83 -51 182h-230q-88 0 -135 -36t-47 -103q0 -68 48.5 -105t144.5 -37
q63 0 135.5 26t134.5 73z" />
    <glyph glyph-name="ccedilla" unicode="&#xe7;" horiz-adv-x="1181" 
d="M672 -20l-31 -66h18q90 0 143.5 -50t53.5 -132q0 -91 -69.5 -144t-178.5 -53q-126 0 -221 53l41 105q64 -31 143 -31q48 0 78.5 26t30.5 64q0 35 -21.5 54.5t-58.5 19.5q-41 0 -68 -21l-53 54l62 131q-193 34 -321 182.5t-128 339.5q-3 142 72.5 266t205 196.5
t277.5 69.5q135 0 254 -58.5t197 -162.5l-232 -129q-83 92 -215 92q-108 0 -185 -79t-77 -195t76.5 -194t185.5 -78q138 0 219 96l234 -129q-74 -100 -188.5 -160.5t-243.5 -66.5z" />
    <glyph glyph-name="egrave" unicode="&#xe8;" horiz-adv-x="1263" 
d="M1182 512v-84h-785q19 -105 87 -161t180 -56q165 0 270 94l166 -149q-88 -85 -206 -130.5t-249 -45.5q-116 -1 -220 41t-177.5 114.5t-115.5 171.5t-40 207q-2 108 39.5 206.5t114 170t175 113t216.5 40.5q239 0 392 -151.5t153 -380.5zM395 596h492q0 97 -70 160
t-176 63q-100 0 -164.5 -58.5t-81.5 -164.5zM594 1481l242 -344h-265l-295 344h318z" />
    <glyph glyph-name="eacute" unicode="&#xe9;" horiz-adv-x="1263" 
d="M1182 512v-84h-785q19 -105 87 -161t180 -56q165 0 270 94l166 -149q-88 -85 -206 -130.5t-249 -45.5q-116 -1 -220 41t-177.5 114.5t-115.5 171.5t-40 207q-2 108 39.5 206.5t114 170t175 113t216.5 40.5q239 0 392 -151.5t153 -380.5zM395 596h492q0 97 -70 160
t-176 63q-100 0 -164.5 -58.5t-81.5 -164.5zM1022 1481l-295 -344h-264l242 344h317z" />
    <glyph glyph-name="ecircumflex" unicode="&#xea;" horiz-adv-x="1263" 
d="M1182 512v-84h-785q19 -105 87 -161t180 -56q165 0 270 94l166 -149q-88 -85 -206 -130.5t-249 -45.5q-116 -1 -220 41t-177.5 114.5t-115.5 171.5t-40 207q-2 108 39.5 206.5t114 170t175 113t216.5 40.5q239 0 392 -151.5t153 -380.5zM395 596h492q0 97 -70 160
t-176 63q-100 0 -164.5 -58.5t-81.5 -164.5zM811 1481l250 -344h-254l-158 180l-155 -180h-254l249 344h322z" />
    <glyph glyph-name="edieresis" unicode="&#xeb;" horiz-adv-x="1263" 
d="M1182 512v-84h-785q19 -105 87 -161t180 -56q165 0 270 94l166 -149q-88 -85 -206 -130.5t-249 -45.5q-116 -1 -220 41t-177.5 114.5t-115.5 171.5t-40 207q-2 108 39.5 206.5t114 170t175 113t216.5 40.5q239 0 392 -151.5t153 -380.5zM395 596h492q0 97 -70 160
t-176 63q-100 0 -164.5 -58.5t-81.5 -164.5zM559 1327q0 -57 -37 -95t-94 -38t-95 38t-38 95t38 94t95 37t94 -37t37 -94zM1004 1327q0 -57 -38.5 -95t-95.5 -38t-94 38t-37 95t37 94t94 37t95.5 -37t38.5 -94z" />
    <glyph glyph-name="igrave" unicode="&#xec;" horiz-adv-x="602" 
d="M455 1024v-1024h-305v1024h305zM252 1481l242 -344h-265l-295 344h318z" />
    <glyph glyph-name="iacute" unicode="&#xed;" horiz-adv-x="602" 
d="M455 1024v-1024h-305v1024h305zM680 1481l-295 -344h-264l241 344h318z" />
    <glyph glyph-name="icircumflex" unicode="&#xee;" horiz-adv-x="602" 
d="M455 1024v-1024h-305v1024h305zM469 1481l250 -344h-254l-158 180l-155 -180h-254l249 344h322z" />
    <glyph glyph-name="idieresis" unicode="&#xef;" horiz-adv-x="602" 
d="M455 1024v-1024h-305v1024h305zM217 1327q0 -57 -37 -95t-94 -38t-95 38t-38 95t38 94t95 37t94 -37t37 -94zM662 1327q0 -57 -38.5 -95t-95.5 -38t-94 38t-37 95t37 94t94 37t95.5 -37t38.5 -94z" />
    <glyph glyph-name="eth" unicode="&#xf0;" horiz-adv-x="1339" 
d="M1227 602q0 -173 -71.5 -314.5t-204.5 -224.5t-302 -83q-255 0 -406 129t-151 342q0 207 140.5 334.5t369.5 127.5q163 0 291 -67q-36 121 -109 203l-100 -95l-119 103l92 88q-85 47 -239 84l49 225q237 -35 385 -127l133 125l119 -104l-123 -115q246 -234 246 -631z
M926 586q-110 110 -283 110q-113 0 -180.5 -65.5t-67.5 -175.5q0 -113 71 -177.5t198 -64.5q123 0 192.5 100.5t69.5 272.5z" />
    <glyph glyph-name="ntilde" unicode="&#xf1;" horiz-adv-x="1320" 
d="M1204 694v-694h-303v604q0 91 -50 142t-142 51q-145 0 -269 -105v-692h-305v1024h305v-119q191 139 402 139q168 0 265 -93t97 -257zM494 1475q41 0 79.5 -11.5t104.5 -42.5q106 -49 149 -49q72 0 93 90l133 -18q-5 -125 -56 -202t-149 -77q-39 0 -75.5 11.5t-125.5 48.5
q-90 43 -133 43q-68 0 -92 -88l-133 16q5 126 56 202.5t149 76.5z" />
    <glyph glyph-name="ograve" unicode="&#xf2;" horiz-adv-x="1335" 
d="M1243 512q0 -148 -75 -270t-207 -192t-293 -70t-293 69.5t-207.5 192t-75.5 270.5t75.5 270.5t207.5 192t293 69.5t293 -70t207 -192t75 -270zM391 512q0 -118 78 -195t197 -77q121 0 198.5 76.5t77.5 195.5q0 118 -78.5 196t-197.5 78t-197 -78t-78 -196zM612 1481
l242 -344h-264l-295 344h317z" />
    <glyph glyph-name="oacute" unicode="&#xf3;" horiz-adv-x="1335" 
d="M1243 512q0 -148 -75 -270t-207 -192t-293 -70t-293 69.5t-207.5 192t-75.5 270.5t75.5 270.5t207.5 192t293 69.5t293 -70t207 -192t75 -270zM391 512q0 -118 78 -195t197 -77q121 0 198.5 76.5t77.5 195.5q0 118 -78.5 196t-197.5 78t-197 -78t-78 -196zM1040 1481
l-295 -344h-264l242 344h317z" />
    <glyph glyph-name="ocircumflex" unicode="&#xf4;" horiz-adv-x="1335" 
d="M1243 512q0 -148 -75 -270t-207 -192t-293 -70t-293 69.5t-207.5 192t-75.5 270.5t75.5 270.5t207.5 192t293 69.5t293 -70t207 -192t75 -270zM391 512q0 -118 78 -195t197 -77q121 0 198.5 76.5t77.5 195.5q0 118 -78.5 196t-197.5 78t-197 -78t-78 -196zM829 1481
l250 -344h-254l-157 180l-156 -180h-254l250 344h321z" />
    <glyph glyph-name="otilde" unicode="&#xf5;" horiz-adv-x="1335" 
d="M1243 512q0 -148 -75 -270t-207 -192t-293 -70t-293 69.5t-207.5 192t-75.5 270.5t75.5 270.5t207.5 192t293 69.5t293 -70t207 -192t75 -270zM391 512q0 -118 78 -195t197 -77q121 0 198.5 76.5t77.5 195.5q0 118 -78.5 196t-197.5 78t-197 -78t-78 -196zM492 1475
q41 0 79.5 -11.5t104.5 -42.5q106 -49 149 -49q72 0 93 90l133 -18q-5 -125 -56 -202t-149 -77q-39 0 -75.5 11.5t-125.5 48.5q-90 43 -133 43q-68 0 -92 -88l-133 16q5 126 56 202.5t149 76.5z" />
    <glyph glyph-name="odieresis" unicode="&#xf6;" horiz-adv-x="1335" 
d="M1243 512q0 -148 -75 -270t-207 -192t-293 -70t-293 69.5t-207.5 192t-75.5 270.5t75.5 270.5t207.5 192t293 69.5t293 -70t207 -192t75 -270zM391 512q0 -118 78 -195t197 -77q121 0 198.5 76.5t77.5 195.5q0 118 -78.5 196t-197.5 78t-197 -78t-78 -196zM578 1327
q0 -57 -37.5 -95t-94.5 -38t-95 38t-38 95t38 94t95 37t94.5 -37t37.5 -94zM1022 1327q0 -57 -38 -95t-95 -38t-94 38t-37 95t37 94t94 37t95 -37t38 -94z" />
    <glyph glyph-name="divide" unicode="&#xf7;" horiz-adv-x="1228" 
d="M778 977q0 -62 -47.5 -105t-116.5 -43q-68 0 -115.5 43.5t-47.5 104.5q0 63 47.5 106t115.5 43q69 0 116.5 -43t47.5 -106zM1110 692v-235h-991v235h991zM778 172q0 -63 -47.5 -106t-116.5 -43q-68 0 -115.5 43t-47.5 106q0 61 47.5 104t115.5 43q69 0 116.5 -42.5
t47.5 -104.5z" />
    <glyph glyph-name="oslash" unicode="&#xf8;" horiz-adv-x="1335" 
d="M1243 512q0 -148 -75 -270t-207 -192t-293 -70q-86 0 -160 18l-53 -100h-197l86 170q-118 69 -185 186.5t-67 257.5q0 148 75.5 270.5t207.5 192t293 69.5q86 0 159 -18l52 100h200l-86 -170q117 -69 183.5 -186.5t66.5 -257.5zM391 512q0 -141 103 -217l231 485
q-27 6 -59 6q-119 0 -197 -78t-78 -196zM942 512q0 67 -27 124.5t-77 94.5l-234 -485q30 -6 62 -6q121 0 198.5 76.5t77.5 195.5z" />
    <glyph glyph-name="ugrave" unicode="&#xf9;" horiz-adv-x="1320" 
d="M881 1024h305v-1024h-305v119q-191 -139 -402 -139q-168 0 -265 94t-97 258v692h305v-602q0 -93 50 -144t142 -51q137 0 267 105v692zM602 1481l242 -344h-264l-295 344h317z" />
    <glyph glyph-name="uacute" unicode="&#xfa;" horiz-adv-x="1320" 
d="M881 1024h305v-1024h-305v119q-191 -139 -402 -139q-168 0 -265 94t-97 258v692h305v-602q0 -93 50 -144t142 -51q137 0 267 105v692zM1030 1481l-295 -344h-264l242 344h317z" />
    <glyph glyph-name="ucircumflex" unicode="&#xfb;" horiz-adv-x="1320" 
d="M881 1024h305v-1024h-305v119q-191 -139 -402 -139q-168 0 -265 94t-97 258v692h305v-602q0 -93 50 -144t142 -51q137 0 267 105v692zM819 1481l250 -344h-254l-158 180l-155 -180h-254l250 344h321z" />
    <glyph glyph-name="udieresis" unicode="&#xfc;" horiz-adv-x="1320" 
d="M881 1024h305v-1024h-305v119q-191 -139 -402 -139q-168 0 -265 94t-97 258v692h305v-602q0 -93 50 -144t142 -51q137 0 267 105v692zM567 1327q0 -57 -37 -95t-94 -38t-95 38t-38 95t38 94t95 37t94 -37t37 -94zM1012 1327q0 -57 -38 -95t-95 -38t-94 38t-37 95t37 94
t94 37t95 -37t38 -94z" />
    <glyph glyph-name="yacute" unicode="&#xfd;" horiz-adv-x="1230" 
d="M1200 1024l-440 -1120q-124 -324 -422 -324q-137 0 -305 64l84 204q96 -38 178 -38q63 0 109.5 32t84.5 101l15 24l-449 1057h322l260 -696l246 696h317zM1008 1481l-295 -344h-264l241 344h318z" />
    <glyph glyph-name="thorn" unicode="&#xfe;" horiz-adv-x="1351" 
d="M1245 512q0 -150 -62 -272t-170.5 -191t-240.5 -69q-200 0 -326 139v-518h-305v1833h305v-527q125 137 326 137q132 0 240.5 -69t170.5 -191t62 -272zM946 512q0 117 -73 195.5t-183 78.5q-77 0 -142 -33.5t-102 -90.5v-297q37 -58 102 -91.5t142 -33.5q110 0 183 77.5
t73 194.5z" />
    <glyph glyph-name="ydieresis" unicode="&#xff;" horiz-adv-x="1230" 
d="M1200 1024l-440 -1120q-124 -324 -422 -324q-137 0 -305 64l84 204q96 -38 178 -38q63 0 109.5 32t84.5 101l15 24l-449 1057h322l260 -696l246 696h317zM545 1327q0 -57 -37 -95t-94 -38t-95 38t-38 95t38 94t95 37t94 -37t37 -94zM989 1327q0 -57 -38 -95t-95 -38
t-94 38t-37 95t37 94t94 37t95 -37t38 -94z" />
    <glyph glyph-name="Amacron" unicode="&#x100;" horiz-adv-x="1718" 
d="M1282 0l-108 283h-627l-109 -283h-379l584 1434h428l590 -1434h-379zM649 549h420l-211 547zM1198 1831v-189h-678v189h678z" />
    <glyph glyph-name="amacron" unicode="&#x101;" horiz-adv-x="1216" 
d="M1100 662v-662h-303v115q-153 -135 -346 -135q-166 0 -265.5 88.5t-99.5 232.5q0 147 103 230t284 83h324v19q0 85 -54.5 128.5t-158.5 43.5q-162 0 -316 -98l-92 204q227 133 488 133q210 0 323 -99t113 -283zM797 252v211h-228q-88 0 -135 -36t-47 -103q0 -68 46 -105
t132 -37q119 0 232 70zM993 1421v-188h-678v188h678z" />
    <glyph glyph-name="Abreve" unicode="&#x102;" horiz-adv-x="1718" 
d="M1282 0l-108 283h-627l-109 -283h-379l584 1434h428l590 -1434h-379zM649 549h420l-211 547zM860 1567q-159 0 -268.5 93t-112.5 236h203q1 -66 50 -103.5t128 -37.5q77 0 126 37.5t50 103.5h203q-3 -144 -111 -236.5t-268 -92.5z" />
    <glyph glyph-name="abreve" unicode="&#x103;" horiz-adv-x="1216" 
d="M1100 662v-662h-303v115q-153 -135 -346 -135q-166 0 -265.5 88.5t-99.5 232.5q0 147 103 230t284 83h324v19q0 85 -54.5 128.5t-158.5 43.5q-162 0 -316 -98l-92 204q227 133 488 133q210 0 323 -99t113 -283zM797 252v211h-228q-88 0 -135 -36t-47 -103q0 -68 46 -105
t132 -37q119 0 232 70zM655 1157q-158 0 -268 93.5t-113 236.5h203q1 -66 50 -103.5t128 -37.5q77 0 126 37.5t50 103.5h203q-3 -144 -111.5 -237t-267.5 -93z" />
    <glyph glyph-name="Aogonek" unicode="&#x104;" horiz-adv-x="1718" 
d="M1679 -240l39 -139q-80 -41 -194 -41q-110 0 -173 50.5t-63 140.5t74 202l18 27h-98l-108 283h-627l-109 -283h-379l584 1434h428l590 -1434h-111l-18 -27q-53 -74 -53 -129q0 -48 31.5 -76t80.5 -28t88 20zM649 549h420l-211 547z" />
    <glyph glyph-name="aogonek" unicode="&#x105;" horiz-adv-x="1216" 
d="M1165 -240l39 -139q-80 -41 -194 -41q-110 0 -174 50.5t-64 140.5t74 202l20 27h-69v115q-153 -135 -346 -135q-166 0 -265.5 88.5t-99.5 232.5q0 147 103 230t284 83h324v19q0 85 -54.5 128.5t-158.5 43.5q-162 0 -316 -98l-92 204q227 133 488 133q210 0 323 -99
t113 -283v-662h-64l-18 -27q-55 -79 -55 -129q0 -48 31.5 -76t82.5 -28q47 0 88 20zM797 252v211h-228q-88 0 -135 -36t-47 -103q0 -68 46 -105t132 -37q119 0 232 70z" />
    <glyph glyph-name="Cacute" unicode="&#x106;" horiz-adv-x="1570" 
d="M1485 1153l-277 -166q-62 76 -146.5 119t-180.5 43q-176 0 -296 -125.5t-120 -306.5q0 -180 120 -305t296 -125q194 0 327 162l277 -166q-103 -142 -263 -222.5t-343 -80.5q-149 -3 -289.5 56.5t-243 159.5t-163.5 237.5t-58 283.5q-3 146 58 283.5t163.5 237.5
t243 159.5t289.5 56.5q183 0 342.5 -80t263.5 -221zM1229 1890l-295 -344h-264l241 344h318z" />
    <glyph glyph-name="cacute" unicode="&#x107;" horiz-adv-x="1181" 
d="M1098 823l-232 -129q-83 92 -215 92q-108 0 -185 -79t-77 -195t76.5 -194t185.5 -78q138 0 219 96l234 -129q-79 -105 -200.5 -166t-256.5 -61q-148 -3 -277.5 69.5t-205 196.5t-72.5 266q-3 142 72.5 266t205 196.5t277.5 69.5q135 0 254 -58.5t197 -162.5zM1001 1481
l-294 -344h-265l242 344h317z" />
    <glyph glyph-name="Ccircumflex" unicode="&#x108;" horiz-adv-x="1570" 
d="M1485 1153l-277 -166q-62 76 -146.5 119t-180.5 43q-176 0 -296 -125.5t-120 -306.5q0 -180 120 -305t296 -125q194 0 327 162l277 -166q-103 -142 -263 -222.5t-343 -80.5q-149 -3 -289.5 56.5t-243 159.5t-163.5 237.5t-58 283.5q-3 146 58 283.5t163.5 237.5
t243 159.5t289.5 56.5q183 0 342.5 -80t263.5 -221zM1016 1890l250 -344h-254l-158 180l-156 -180h-254l250 344h322z" />
    <glyph glyph-name="ccircumflex" unicode="&#x109;" horiz-adv-x="1181" 
d="M1098 823l-232 -129q-83 92 -215 92q-108 0 -185 -79t-77 -195t76.5 -194t185.5 -78q138 0 219 96l234 -129q-79 -105 -200.5 -166t-256.5 -61q-148 -3 -277.5 69.5t-205 196.5t-72.5 266q-3 142 72.5 266t205 196.5t277.5 69.5q135 0 254 -58.5t197 -162.5zM791 1481
l249 -344h-254l-157 180l-156 -180h-254l250 344h322z" />
    <glyph glyph-name="Cdotaccent" unicode="&#x10a;" horiz-adv-x="1570" 
d="M1485 1153l-277 -166q-62 76 -146.5 119t-180.5 43q-176 0 -296 -125.5t-120 -306.5q0 -180 120 -305t296 -125q194 0 327 162l277 -166q-103 -142 -263 -222.5t-343 -80.5q-149 -3 -289.5 56.5t-243 159.5t-163.5 237.5t-58 283.5q-3 146 58 283.5t163.5 237.5
t243 159.5t289.5 56.5q183 0 342.5 -80t263.5 -221zM987 1737q0 -57 -37.5 -94t-93.5 -37q-60 0 -97.5 37t-37.5 94q0 55 39 93t96 38q56 0 93.5 -38t37.5 -93z" />
    <glyph glyph-name="cdotaccent" unicode="&#x10b;" horiz-adv-x="1181" 
d="M1098 823l-232 -129q-83 92 -215 92q-108 0 -185 -79t-77 -195t76.5 -194t185.5 -78q138 0 219 96l234 -129q-79 -105 -200.5 -166t-256.5 -61q-148 -3 -277.5 69.5t-205 196.5t-72.5 266q-3 142 72.5 266t205 196.5t277.5 69.5q135 0 254 -58.5t197 -162.5zM762 1327
q0 -57 -37.5 -94t-93.5 -37q-60 0 -97.5 37t-37.5 94q0 55 39 93t96 38q55 0 93 -38t38 -93z" />
    <glyph glyph-name="Ccaron" unicode="&#x10c;" horiz-adv-x="1570" 
d="M1485 1153l-277 -166q-62 76 -146.5 119t-180.5 43q-176 0 -296 -125.5t-120 -306.5q0 -180 120 -305t296 -125q194 0 327 162l277 -166q-103 -142 -263 -222.5t-343 -80.5q-149 -3 -289.5 56.5t-243 159.5t-163.5 237.5t-58 283.5q-3 146 58 283.5t163.5 237.5
t243 159.5t289.5 56.5q183 0 342.5 -80t263.5 -221zM1266 1890l-250 -344h-322l-250 344h254l156 -182l158 182h254z" />
    <glyph glyph-name="ccaron" unicode="&#x10d;" horiz-adv-x="1181" 
d="M1098 823l-232 -129q-83 92 -215 92q-108 0 -185 -79t-77 -195t76.5 -194t185.5 -78q138 0 219 96l234 -129q-79 -105 -200.5 -166t-256.5 -61q-148 -3 -277.5 69.5t-205 196.5t-72.5 266q-3 142 72.5 266t205 196.5t277.5 69.5q135 0 254 -58.5t197 -162.5zM1040 1481
l-249 -344h-322l-250 344h254l156 -183l157 183h254z" />
    <glyph glyph-name="Dcaron" unicode="&#x10e;" horiz-adv-x="1656" 
d="M1532 717q4 -195 -100.5 -362t-282 -262.5t-381.5 -92.5h-598v1434h598q204 3 381.5 -92.5t282 -262.5t100.5 -362zM756 1143h-260v-850h260q183 0 312.5 123.5t129.5 300.5q0 179 -129 302.5t-313 123.5zM1147 1890l-250 -344h-322l-249 344h254l155 -182l158 182h254z
" />
    <glyph glyph-name="dcaron" unicode="&#x10f;" horiz-adv-x="1673" 
d="M891 1434h305v-1434h-305v119q-126 -139 -326 -139q-131 -3 -241 67t-172.5 193.5t-59.5 271.5q-3 148 59.5 271.5t172.5 193.5t241 67q201 0 326 -137v527zM891 365v297q-37 57 -102 90.5t-142 33.5q-109 0 -182 -79q-74 -80 -74 -195q0 -117 73 -194.5t183 -77.5
q77 0 142 33.5t102 91.5zM1669 1335q0 -35 -24 -78l-226 -358l-90 41l101 262q-41 17 -66 53.5t-25 79.5q0 62 48.5 106t115.5 44q68 0 117 -44.5t49 -105.5z" />
    <glyph glyph-name="Dcroat" unicode="&#x110;" horiz-adv-x="1656" 
d="M1532 717q4 -195 -100.5 -362t-282 -262.5t-381.5 -92.5h-598v590h-125v256h125v588h598q204 3 381.5 -92.5t282 -262.5t100.5 -362zM1198 717q0 179 -129 302.5t-313 123.5h-260v-297h305v-256h-305v-297h260q183 0 312.5 123.5t129.5 300.5z" />
    <glyph glyph-name="dslash" unicode="&#x111;" horiz-adv-x="1327" 
d="M1343 1323v-201h-147v-1122h-305v119q-126 -139 -326 -139q-131 -3 -241 67t-172.5 193.5t-59.5 271.5q-3 148 59.5 271.5t172.5 193.5t241 67q201 0 326 -137v215h-221v201h221v111h305v-111h147zM891 365v297q-37 57 -102 90.5t-142 33.5q-109 0 -182 -79
q-74 -80 -74 -195q0 -117 73 -194.5t183 -77.5q77 0 142 33.5t102 91.5z" />
    <glyph glyph-name="Emacron" unicode="&#x112;" horiz-adv-x="1413" 
d="M1315 1434v-289h-819v-281h759v-276h-759v-297h833v-291h-1159v1434h1145zM1077 1831v-189h-678v189h678z" />
    <glyph glyph-name="Ebreve" unicode="&#x114;" horiz-adv-x="1413" 
d="M1315 1434v-289h-819v-281h759v-276h-759v-297h833v-291h-1159v1434h1145zM739 1567q-159 0 -268.5 93t-112.5 236h203q1 -66 50 -103.5t128 -37.5q77 0 126 37.5t50 103.5h203q-3 -144 -111 -236.5t-268 -92.5z" />
    <glyph glyph-name="ebreve" unicode="&#x115;" horiz-adv-x="1263" 
d="M1182 512v-84h-785q19 -105 87 -161t180 -56q165 0 270 94l166 -149q-88 -85 -206 -130.5t-249 -45.5q-116 -1 -220 41t-177.5 114.5t-115.5 171.5t-40 207q-2 108 39.5 206.5t114 170t175 113t216.5 40.5q239 0 392 -151.5t153 -380.5zM395 596h492q0 97 -70 160
t-176 63q-100 0 -164.5 -58.5t-81.5 -164.5zM651 1157q-158 0 -268 93.5t-113 236.5h203q1 -66 50 -103.5t128 -37.5q77 0 126 37.5t50 103.5h203q-3 -144 -111.5 -237t-267.5 -93z" />
    <glyph glyph-name="Edotaccent" unicode="&#x116;" horiz-adv-x="1413" 
d="M1315 1434v-289h-819v-281h759v-276h-759v-297h833v-291h-1159v1434h1145zM870 1737q0 -57 -37.5 -94t-93.5 -37q-60 0 -97.5 37t-37.5 94q0 55 39 93t96 38q55 0 93 -38t38 -93z" />
    <glyph glyph-name="Eogonek" unicode="&#x118;" horiz-adv-x="1413" 
d="M1362 -240l39 -139q-80 -41 -195 -41q-110 0 -173.5 50.5t-63.5 140.5q0 92 73 202l21 27h-893v1434h1145v-289h-819v-281h759v-276h-759v-297h833v-291h-96l-19 -27q-55 -79 -55 -129q0 -48 32 -76t83 -28q47 0 88 20z" />
    <glyph glyph-name="eogonek" unicode="&#x119;" horiz-adv-x="1263" 
d="M1182 512v-84h-785q19 -105 87 -161t180 -56q165 0 270 94l166 -149q-66 -59 -131 -95l-33 -47q-74 -102 -74 -170q0 -48 32 -76t83 -28q47 0 88 20l39 -139q-80 -41 -195 -41q-110 0 -173.5 50.5t-63.5 140.5q0 92 73 202l11 15q-44 -8 -111 -8q-116 -1 -220 41
t-177.5 114.5t-115.5 171.5t-40 207q-2 108 39.5 206.5t114 170t175 113t216.5 40.5q239 0 392 -151.5t153 -380.5zM395 596h492q0 97 -70 160t-176 63q-100 0 -164.5 -58.5t-81.5 -164.5z" />
    <glyph glyph-name="Ecaron" unicode="&#x11a;" horiz-adv-x="1413" 
d="M1315 1434v-289h-819v-281h759v-276h-759v-297h833v-291h-1159v1434h1145zM1149 1890l-250 -344h-321l-250 344h254l155 -182l158 182h254z" />
    <glyph glyph-name="ecaron" unicode="&#x11b;" horiz-adv-x="1263" 
d="M1182 512v-84h-785q19 -105 87 -161t180 -56q165 0 270 94l166 -149q-88 -85 -206 -130.5t-249 -45.5q-116 -1 -220 41t-177.5 114.5t-115.5 171.5t-40 207q-2 108 39.5 206.5t114 170t175 113t216.5 40.5q239 0 392 -151.5t153 -380.5zM395 596h492q0 97 -70 160
t-176 63q-100 0 -164.5 -58.5t-81.5 -164.5zM1061 1481l-250 -344h-322l-249 344h254l155 -183l158 183h254z" />
    <glyph glyph-name="Gcircumflex" unicode="&#x11c;" horiz-adv-x="1671" 
d="M1462 1249l-213 -223q-147 129 -340 129q-120 0 -221 -55t-162 -156t-61 -227q0 -181 122 -305.5t304 -124.5q183 0 313 86v190h-295v248h607v-612q-130 -105 -291.5 -162t-333.5 -57q-153 -3 -296 56.5t-246.5 159.5t-165 237.5t-58.5 283.5q-2 130 39 247t115.5 206
t173.5 154t216.5 98t239.5 32q152 0 294.5 -53t258.5 -152zM1030 1890l250 -344h-254l-158 180l-155 -180h-254l250 344h321z" />
    <glyph glyph-name="gcircumflex" unicode="&#x11d;" horiz-adv-x="1327" 
d="M891 1024h305v-958q0 -250 -149 -369q-148 -121 -388 -121q-316 0 -542 131l92 205q179 -102 399 -102q132 0 207.5 64.5t75.5 191.5v59q-125 -137 -326 -137q-98 -2 -186.5 38.5t-152 111.5t-100 170t-34.5 208q-3 146 59.5 268.5t172.5 192t241 67.5q201 0 326 -137
v117zM891 369v297q-37 57 -101.5 89.5t-142.5 32.5q-110 0 -183 -77.5t-73 -194.5t73 -194.5t183 -77.5q77 0 142 33.5t102 91.5zM864 1481l250 -344h-254l-158 180l-155 -180h-254l250 344h321z" />
    <glyph glyph-name="Gbreve" unicode="&#x11e;" horiz-adv-x="1671" 
d="M1462 1249l-213 -223q-147 129 -340 129q-120 0 -221 -55t-162 -156t-61 -227q0 -181 122 -305.5t304 -124.5q183 0 313 86v190h-295v248h607v-612q-130 -105 -291.5 -162t-333.5 -57q-153 -3 -296 56.5t-246.5 159.5t-165 237.5t-58.5 283.5q-2 130 39 247t115.5 206
t173.5 154t216.5 98t239.5 32q152 0 294.5 -53t258.5 -152zM870 1567q-159 0 -268.5 93t-112.5 236h203q1 -66 50 -103.5t128 -37.5q77 0 126.5 37.5t50.5 103.5h202q-3 -144 -111 -236.5t-268 -92.5z" />
    <glyph glyph-name="gbreve" unicode="&#x11f;" horiz-adv-x="1327" 
d="M891 1024h305v-958q0 -250 -149 -369q-148 -121 -388 -121q-316 0 -542 131l92 205q179 -102 399 -102q132 0 207.5 64.5t75.5 191.5v59q-125 -137 -326 -137q-98 -2 -186.5 38.5t-152 111.5t-100 170t-34.5 208q-3 146 59.5 268.5t172.5 192t241 67.5q201 0 326 -137
v117zM891 369v297q-37 57 -101.5 89.5t-142.5 32.5q-110 0 -183 -77.5t-73 -194.5t73 -194.5t183 -77.5q77 0 142 33.5t102 91.5zM705 1157q-158 0 -268 93.5t-113 236.5h202q1 -66 50 -103.5t129 -37.5q77 0 126 37.5t50 103.5h202q-3 -144 -111 -237t-267 -93z" />
    <glyph glyph-name="Gdotaccent" unicode="&#x120;" horiz-adv-x="1671" 
d="M1462 1249l-213 -223q-147 129 -340 129q-120 0 -221 -55t-162 -156t-61 -227q0 -181 122 -305.5t304 -124.5q183 0 313 86v190h-295v248h607v-612q-130 -105 -291.5 -162t-333.5 -57q-153 -3 -296 56.5t-246.5 159.5t-165 237.5t-58.5 283.5q-2 130 39 247t115.5 206
t173.5 154t216.5 98t239.5 32q152 0 294.5 -53t258.5 -152zM1001 1737q0 -57 -37.5 -94t-93.5 -37q-60 0 -97.5 37t-37.5 94q0 55 39 93t96 38q56 0 93.5 -38t37.5 -93z" />
    <glyph glyph-name="gdotaccent" unicode="&#x121;" horiz-adv-x="1327" 
d="M891 1024h305v-958q0 -250 -149 -369q-148 -121 -388 -121q-316 0 -542 131l92 205q179 -102 399 -102q132 0 207.5 64.5t75.5 191.5v59q-125 -137 -326 -137q-98 -2 -186.5 38.5t-152 111.5t-100 170t-34.5 208q-3 146 59.5 268.5t172.5 192t241 67.5q201 0 326 -137
v117zM891 369v297q-37 57 -101.5 89.5t-142.5 32.5q-110 0 -183 -77.5t-73 -194.5t73 -194.5t183 -77.5q77 0 142 33.5t102 91.5zM836 1327q0 -57 -37.5 -94t-93.5 -37q-60 0 -98 37t-38 94q0 55 39.5 93t96.5 38q55 0 93 -38t38 -93z" />
    <glyph glyph-name="uni0122" unicode="&#x122;" horiz-adv-x="1671" 
d="M1462 1249l-213 -223q-147 129 -340 129q-120 0 -221 -55t-162 -156t-61 -227q0 -181 122 -305.5t304 -124.5q183 0 313 86v190h-295v248h607v-612q-130 -105 -291.5 -162t-333.5 -57q-153 -3 -296 56.5t-246.5 159.5t-165 237.5t-58.5 283.5q-2 130 39 247t115.5 206
t173.5 154t216.5 98t239.5 32q152 0 294.5 -53t258.5 -152zM1040 -229q0 -34 -20 -60l-193 -274l-75 35l79 192q-37 13 -58 42.5t-21 64.5q0 51 41.5 84.5t103.5 33.5q60 0 101.5 -33.5t41.5 -84.5z" />
    <glyph glyph-name="uni0123" unicode="&#x123;" horiz-adv-x="1327" 
d="M891 1024h305v-958q0 -250 -149 -369q-148 -121 -388 -121q-316 0 -542 131l92 205q179 -102 399 -102q132 0 207.5 64.5t75.5 191.5v59q-125 -137 -326 -137q-98 -2 -186.5 38.5t-152 111.5t-100 170t-34.5 208q-3 146 59.5 268.5t172.5 192t241 67.5q201 0 326 -137
v117zM891 369v297q-37 57 -101.5 89.5t-142.5 32.5q-110 0 -183 -77.5t-73 -194.5t73 -194.5t183 -77.5q77 0 142 33.5t102 91.5zM561 1237q0 32 21 59l192 275l76 -35l-80 -190q80 -38 80 -109q0 -49 -41.5 -83t-101.5 -34q-62 0 -104 34t-42 83z" />
    <glyph glyph-name="Hcircumflex" unicode="&#x124;" horiz-adv-x="1667" 
d="M1497 1434v-1434h-326v575h-675v-575h-326v1434h326v-566h675v566h326zM1018 1890l250 -344h-254l-158 180l-156 -180h-254l250 344h322z" />
    <glyph glyph-name="hcircumflex" unicode="&#x125;" horiz-adv-x="1320" 
d="M1204 694v-694h-303v604q0 91 -50 142t-142 51q-145 0 -269 -105v-692h-305v1434h305v-529q191 139 402 139q168 0 265 -93t97 -257zM465 1890l250 -344h-254l-158 180l-156 -180h-253l249 344h322z" />
    <glyph glyph-name="Hbar" unicode="&#x126;" horiz-adv-x="1667" 
d="M1634 1280v-225h-137v-1055h-326v575h-675v-575h-326v1055h-135v225h135v154h326v-154h675v154h326v-154h137zM1171 868v187h-675v-187h675z" />
    <glyph glyph-name="hbar" unicode="&#x127;" horiz-adv-x="1320" 
d="M1204 694v-694h-303v604q0 91 -50 142t-142 51q-145 0 -269 -105v-692h-305v1122h-133v201h133v111h305v-111h295v-201h-295v-217q191 139 402 139q168 0 265 -93t97 -257z" />
    <glyph glyph-name="Itilde" unicode="&#x128;" horiz-adv-x="665" 
d="M496 1434v-1434h-326v1434h326zM166 1884q42 0 80.5 -11.5t103.5 -41.5q106 -49 150 -49q71 0 92 90l133 -19q-5 -125 -56 -201.5t-149 -76.5q-40 0 -77 11.5t-124 47.5q-90 43 -133 43q-68 0 -92 -88l-133 17q5 126 56 202t149 76z" />
    <glyph glyph-name="itilde" unicode="&#x129;" horiz-adv-x="602" 
d="M455 1024v-1024h-305v1024h305zM131 1475q41 0 79.5 -11.5t104.5 -42.5q106 -49 150 -49q71 0 92 90l133 -18q-5 -125 -56 -202t-149 -77q-28 0 -57.5 7.5t-53.5 16.5t-89 36q-90 43 -133 43q-69 0 -93 -88l-133 16q5 126 56 202.5t149 76.5z" />
    <glyph glyph-name="Imacron" unicode="&#x12a;" horiz-adv-x="665" 
d="M496 1434v-1434h-326v1434h326zM682 1831v-189h-678v189h678z" />
    <glyph glyph-name="imacron" unicode="&#x12b;" horiz-adv-x="602" 
d="M455 1024v-1024h-305v1024h305zM647 1421v-188h-678v188h678z" />
    <glyph glyph-name="Iogonek" unicode="&#x12e;" horiz-adv-x="665" 
d="M563 -240l39 -139q-80 -41 -194 -41q-110 0 -173 50.5t-63 140.5q0 93 74 202l18 27h-94v1434h326v-1434h-62l-18 -27q-54 -85 -54 -129q0 -48 32 -76t81 -28t88 20z" />
    <glyph glyph-name="iogonek" unicode="&#x12f;" horiz-adv-x="602" 
d="M139 1280q0 60 47.5 102.5t114.5 42.5q68 0 116 -42.5t48 -102.5t-48 -102.5t-116 -42.5q-67 0 -114.5 42.5t-47.5 102.5zM522 -240l39 -139q-80 -41 -194 -41q-110 0 -173 50.5t-63 140.5q0 93 74 202l18 27h-73v1024h305v-1024h-62l-18 -27q-53 -83 -53 -129
q0 -48 31.5 -76t80.5 -28t88 20z" />
    <glyph glyph-name="Idot" unicode="&#x130;" horiz-adv-x="665" 
d="M496 1434v-1434h-326v1434h326zM475 1737q0 -57 -37.5 -94t-93.5 -37q-60 0 -97.5 37t-37.5 94q0 55 39 93t96 38q56 0 93.5 -38t37.5 -93z" />
    <glyph glyph-name="dotlessi" unicode="&#x131;" horiz-adv-x="602" 
d="M455 1024v-1024h-305v1024h305z" />
    <glyph glyph-name="IJ" unicode="&#x132;" horiz-adv-x="1927" 
d="M496 1434v-1434h-326v1434h326zM1759 1434v-863q0 -307 -139 -449t-410 -142q-177 0 -298.5 55t-192.5 174l262 170q72 -100 213 -100q114 0 177 74t63 218v863h325z" />
    <glyph glyph-name="ij" unicode="&#x133;" horiz-adv-x="1196" 
d="M465 1280q0 -60 -48 -102.5t-116 -42.5q-67 0 -114.5 42.5t-47.5 102.5t47.5 102.5t114.5 42.5q68 0 116 -42.5t48 -102.5zM455 1024v-1024h-305v1024h305zM1067 1280q0 -60 -47.5 -102.5t-114.5 -42.5t-114.5 42.5t-47.5 102.5t47.5 102.5t114.5 42.5t114.5 -42.5
t47.5 -102.5zM1059 1024v-1092q0 -171 -98.5 -261.5t-258.5 -90.5q-112 0 -200 33l30 174q33 -10 54 -10q73 0 120.5 48t47.5 126v1073h305z" />
    <glyph glyph-name="Jcircumflex" unicode="&#x134;" horiz-adv-x="1261" 
d="M1094 1434v-863q0 -307 -139 -449t-410 -142q-177 0 -299 55t-193 174l262 170q72 -100 213 -100q114 0 177 74t63 218v863h326zM1092 1890l249 -344h-254l-157 180l-156 -180h-254l250 344h322z" />
    <glyph glyph-name="jcircumflex" unicode="&#x135;" horiz-adv-x="595" 
d="M457 1024v-1092q0 -171 -98.5 -261.5t-258.5 -90.5q-112 0 -200 33l30 174q33 -10 54 -10q73 0 120.5 48t47.5 126v1073h305zM457 1481l250 -344h-254l-158 180l-156 -180h-254l250 344h322z" />
    <glyph glyph-name="uni0136" unicode="&#x136;" horiz-adv-x="1564" 
d="M1098 0l-353 598l-249 -283v-315h-326v1434h326v-652l557 652h434l-520 -588l540 -846h-409zM944 -229q0 -34 -20 -60l-193 -274l-76 35l80 192q-37 13 -58.5 42.5t-21.5 64.5q0 51 42 84.5t104 33.5q60 0 101.5 -33.5t41.5 -84.5z" />
    <glyph glyph-name="uni0137" unicode="&#x137;" horiz-adv-x="1259" 
d="M1229 0h-322l-266 420l-201 -217v-203h-305v1434h305v-861l410 451h352l-358 -385zM791 -229q0 -33 -21 -60l-192 -274l-76 35l80 192q-37 13 -58.5 42.5t-21.5 64.5q0 51 41.5 84.5t103.5 33.5q61 0 102.5 -33.5t41.5 -84.5z" />
    <glyph glyph-name="Lacute" unicode="&#x139;" horiz-adv-x="1284" 
d="M496 1434v-1141h729v-293h-1055v1434h326zM723 1890l-295 -344h-264l242 344h317z" />
    <glyph glyph-name="lacute" unicode="&#x13a;" horiz-adv-x="575" 
d="M440 1434v-1434h-305v1434h305zM668 1890l-295 -344h-264l241 344h318z" />
    <glyph glyph-name="uni013B" unicode="&#x13b;" horiz-adv-x="1284" 
d="M496 1434v-1141h729v-293h-1055v1434h326zM856 -229q0 -34 -20 -60l-193 -274l-76 35l80 192q-37 13 -58.5 42.5t-21.5 64.5q0 51 42 84.5t104 33.5q60 0 101.5 -33.5t41.5 -84.5z" />
    <glyph glyph-name="uni013C" unicode="&#x13c;" horiz-adv-x="575" 
d="M440 1434v-1434h-305v1434h305zM446 -229q0 -34 -20 -60l-193 -274l-75 35l80 192q-37 13 -58.5 42.5t-21.5 64.5q0 51 41.5 84.5t103.5 33.5q60 0 101.5 -33.5t41.5 -84.5z" />
    <glyph glyph-name="Lcaron" unicode="&#x13d;" horiz-adv-x="1284" 
d="M496 1434v-1141h729v-293h-1055v1434h326zM1157 1335q0 -35 -24 -78l-226 -358l-90 41l101 262q-41 17 -66 53.5t-25 79.5q0 62 48.5 106t115.5 44q68 0 117 -44.5t49 -105.5z" />
    <glyph glyph-name="lcaron" unicode="&#x13e;" horiz-adv-x="929" 
d="M440 1434v-1434h-305v1434h305zM926 1335q0 -33 -25 -78l-225 -358l-90 41l100 262q-41 17 -65.5 53.5t-24.5 79.5q0 62 48.5 106t115.5 44q68 0 117 -44.5t49 -105.5z" />
    <glyph glyph-name="Ldot" unicode="&#x13f;" horiz-adv-x="1284" 
d="M496 1434v-1141h729v-293h-1055v1434h326zM1118 766q0 -63 -48.5 -106.5t-117.5 -43.5q-68 0 -116 43.5t-48 106.5q0 61 48 105t116 44q69 0 117.5 -43.5t48.5 -105.5z" />
    <glyph glyph-name="ldot" unicode="&#x140;" horiz-adv-x="972" 
d="M440 1434v-1434h-305v1434h305zM932 766q0 -63 -48.5 -106.5t-117.5 -43.5q-68 0 -116 43.5t-48 106.5q0 61 48 105t116 44q69 0 117.5 -43.5t48.5 -105.5z" />
    <glyph glyph-name="Lslash" unicode="&#x141;" horiz-adv-x="1284" 
d="M496 293h729v-293h-1055v524l-125 -67v303l125 67v607h326v-430l280 151v-301l-280 -152v-409z" />
    <glyph glyph-name="lslash" unicode="&#x142;" horiz-adv-x="575" 
d="M582 1059v-299l-142 -80v-680h-305v510l-141 -80v301l141 78v625h305v-453z" />
    <glyph glyph-name="Nacute" unicode="&#x143;" horiz-adv-x="1667" 
d="M1178 1434h319v-1434h-338l-667 922v-922h-322v1434h340l668 -920v920zM1239 1890l-295 -344h-264l242 344h317z" />
    <glyph glyph-name="nacute" unicode="&#x144;" horiz-adv-x="1320" 
d="M1204 694v-694h-303v604q0 91 -50 142t-142 51q-145 0 -269 -105v-692h-305v1024h305v-119q191 139 402 139q168 0 265 -93t97 -257zM1042 1481l-294 -344h-265l242 344h317z" />
    <glyph glyph-name="uni0145" unicode="&#x145;" horiz-adv-x="1667" 
d="M1178 1434h319v-1434h-338l-667 922v-922h-322v1434h340l668 -920v920zM1022 -229q0 -33 -21 -60l-192 -274l-76 35l80 192q-37 13 -58.5 42.5t-21.5 64.5q0 51 42 84.5t104 33.5q60 0 101.5 -33.5t41.5 -84.5z" />
    <glyph glyph-name="uni0146" unicode="&#x146;" horiz-adv-x="1320" 
d="M1204 694v-694h-303v604q0 91 -50 142t-142 51q-145 0 -269 -105v-692h-305v1024h305v-119q191 139 402 139q168 0 265 -93t97 -257zM825 -229q0 -34 -20 -60l-193 -274l-75 35l79 192q-37 13 -58 42.5t-21 64.5q0 51 41.5 84.5t103.5 33.5q60 0 101.5 -33.5t41.5 -84.5z
" />
    <glyph glyph-name="Ncaron" unicode="&#x147;" horiz-adv-x="1667" 
d="M1178 1434h319v-1434h-338l-667 922v-922h-322v1434h340l668 -920v920zM1278 1890l-250 -344h-321l-250 344h254l155 -182l158 182h254z" />
    <glyph glyph-name="ncaron" unicode="&#x148;" horiz-adv-x="1320" 
d="M1204 694v-694h-303v604q0 91 -50 142t-142 51q-145 0 -269 -105v-692h-305v1024h305v-119q191 139 402 139q168 0 265 -93t97 -257zM1081 1481l-250 -344h-321l-250 344h254l156 -183l157 183h254z" />
    <glyph glyph-name="Eng" unicode="&#x14a;" horiz-adv-x="1667" 
d="M1178 1434h319v-1340q0 -306 -133.5 -441.5t-405.5 -135.5q-175 0 -295.5 54.5t-191.5 170.5l256 166q73 -98 213 -98q186 0 227 176l-675 925v-911h-322v1434h340l668 -914v914z" />
    <glyph glyph-name="eng" unicode="&#x14b;" horiz-adv-x="1320" 
d="M1204 694v-762q0 -171 -97 -261.5t-257 -90.5q-114 0 -199 33l29 174q33 -10 53 -10q73 0 120.5 48t47.5 126v653q0 93 -48.5 144t-133.5 51q-154 0 -279 -103v-696h-305v1024h305v-123q88 69 192 106t208 37q166 0 265 -91t99 -259z" />
    <glyph glyph-name="Omacron" unicode="&#x14c;" horiz-adv-x="1777" 
d="M1653 717q3 -146 -58.5 -283.5t-165 -237.5t-245.5 -159.5t-293 -56.5q-153 -3 -296 56.5t-246.5 159.5t-165 237.5t-58.5 283.5q-3 146 58.5 283.5t165 237.5t246.5 159.5t296 56.5q151 3 293 -56.5t245.5 -159.5t165 -237.5t58.5 -283.5zM465 717q0 -181 122 -305.5
t304 -124.5q179 0 301.5 125.5t122.5 304.5q0 181 -122.5 306.5t-301.5 125.5q-182 0 -304 -125.5t-122 -306.5zM1231 1831v-189h-678v189h678z" />
    <glyph glyph-name="omacron" unicode="&#x14d;" horiz-adv-x="1335" 
d="M1243 512q0 -148 -75 -270t-207 -192t-293 -70t-293 69.5t-207.5 192t-75.5 270.5t75.5 270.5t207.5 192t293 69.5t293 -70t207 -192t75 -270zM391 512q0 -118 78 -195t197 -77q121 0 198.5 76.5t77.5 195.5q0 118 -78.5 196t-197.5 78t-197 -78t-78 -196zM1008 1421
v-188h-678v188h678z" />
    <glyph glyph-name="Ohungarumlaut" unicode="&#x150;" horiz-adv-x="1777" 
d="M1653 717q3 -146 -58.5 -283.5t-165 -237.5t-245.5 -159.5t-293 -56.5q-153 -3 -296 56.5t-246.5 159.5t-165 237.5t-58.5 283.5q-3 146 58.5 283.5t165 237.5t246.5 159.5t296 56.5q151 3 293 -56.5t245.5 -159.5t165 -237.5t58.5 -283.5zM465 717q0 -181 122 -305.5
t304 -124.5q179 0 301.5 125.5t122.5 304.5q0 181 -122.5 306.5t-301.5 125.5q-182 0 -304 -125.5t-122 -306.5zM1106 1890l-295 -344h-264l239 344h320zM1583 1890l-295 -344h-262l242 344h315z" />
    <glyph glyph-name="ohungarumlaut" unicode="&#x151;" horiz-adv-x="1335" 
d="M1243 512q0 -148 -75 -270t-207 -192t-293 -70t-293 69.5t-207.5 192t-75.5 270.5t75.5 270.5t207.5 192t293 69.5t293 -70t207 -192t75 -270zM391 512q0 -118 78 -195t197 -77q121 0 198.5 76.5t77.5 195.5q0 118 -78.5 196t-197.5 78t-197 -78t-78 -196zM883 1481
l-295 -344h-264l239 344h320zM1360 1481l-295 -344h-262l241 344h316z" />
    <glyph glyph-name="OE" unicode="&#x152;" horiz-adv-x="2510" 
d="M1645 291h782v-291h-1108v119q-186 -139 -428 -139q-153 -3 -296 56.5t-246.5 159.5t-165 237.5t-58.5 283.5q-3 146 58.5 283.5t165 237.5t246.5 159.5t296 56.5q242 0 428 -139v119h1094v-291h-768v-281h710v-272h-710v-299zM1315 717q0 181 -122.5 306.5t-301.5 125.5
q-183 0 -305.5 -125.5t-122.5 -306.5t122.5 -305.5t305.5 -124.5q179 0 301.5 125.5t122.5 304.5z" />
    <glyph glyph-name="oe" unicode="&#x153;" horiz-adv-x="2115" 
d="M2034 512v-84h-785q19 -105 87 -161t180 -56q165 0 270 94l166 -149q-88 -85 -206 -130.5t-249 -45.5q-122 0 -226.5 43t-180.5 122q-80 -78 -190 -121.5t-232 -43.5q-154 -3 -288 68.5t-212.5 195.5t-75.5 268q-3 144 75.5 268t212.5 195.5t288 68.5q123 0 231 -42.5
t188 -120.5q74 78 177.5 120.5t224.5 42.5q239 0 392 -151.5t153 -380.5zM1247 594h492q0 97 -70 161t-176 64q-100 0 -164.5 -58.5t-81.5 -166.5zM942 512q0 114 -80.5 194t-195.5 80q-114 0 -194.5 -80t-80.5 -194q0 -115 80 -195q80 -77 195 -77q116 0 196 77
q80 80 80 195z" />
    <glyph glyph-name="Racute" unicode="&#x154;" horiz-adv-x="1540" 
d="M1487 0h-381l-297 455h-313v-455h-326v1434h635q337 0 487 -114t150 -366q0 -352 -291 -452zM496 1151v-424h325q152 0 216.5 49t64.5 162q0 115 -64.5 164t-216.5 49h-325zM1161 1890l-295 -344h-264l242 344h317z" />
    <glyph glyph-name="racute" unicode="&#x155;" horiz-adv-x="856" 
d="M825 1044v-256q-220 0 -385 -186v-602h-305v1024h305v-190q82 100 182.5 155t202.5 55zM819 1481l-295 -344h-264l242 344h317z" />
    <glyph glyph-name="uni0156" unicode="&#x156;" horiz-adv-x="1540" 
d="M1487 0h-381l-297 455h-313v-455h-326v1434h635q337 0 487 -114t150 -366q0 -352 -291 -452zM496 1151v-424h325q152 0 216.5 49t64.5 162q0 115 -64.5 164t-216.5 49h-325zM946 -229q0 -34 -20 -60l-193 -274l-76 35l80 192q-37 13 -58.5 42.5t-21.5 64.5q0 51 42 84.5
t104 33.5q60 0 101.5 -33.5t41.5 -84.5z" />
    <glyph glyph-name="uni0157" unicode="&#x157;" horiz-adv-x="856" 
d="M825 1044v-256q-220 0 -385 -186v-602h-305v1024h305v-190q82 100 182.5 155t202.5 55zM446 -229q0 -34 -20 -60l-193 -274l-75 35l80 192q-37 13 -58.5 42.5t-21.5 64.5q0 51 41.5 84.5t103.5 33.5q60 0 101.5 -33.5t41.5 -84.5z" />
    <glyph glyph-name="Rcaron" unicode="&#x158;" horiz-adv-x="1540" 
d="M1487 0h-381l-297 455h-313v-455h-326v1434h635q337 0 487 -114t150 -366q0 -352 -291 -452zM496 1151v-424h325q152 0 216.5 49t64.5 162q0 115 -64.5 164t-216.5 49h-325zM1198 1890l-250 -344h-321l-250 344h254l155 -182l158 182h254z" />
    <glyph glyph-name="rcaron" unicode="&#x159;" horiz-adv-x="856" 
d="M825 1044v-256q-220 0 -385 -186v-602h-305v1024h305v-190q82 100 182.5 155t202.5 55zM858 1481l-250 -344h-321l-250 344h254l155 -183l158 183h254z" />
    <glyph glyph-name="Sacute" unicode="&#x15a;" horiz-adv-x="1449" 
d="M1329 1298l-139 -256q-118 61 -250 97.5t-233 36.5q-96 0 -151.5 -35t-55.5 -101q0 -46 41.5 -72t185.5 -65l143 -39q108 -30 177 -55t133 -60.5t99.5 -77.5t57.5 -101t25 -138q0 -215 -161 -333.5t-445 -118.5q-183 0 -356 50t-314 144l147 246q127 -74 275 -116
t274 -42q234 0 234 152q0 55 -43.5 83.5t-181.5 61.5l-152 39q-134 33 -218.5 65t-149 80t-93.5 113.5t-31 159.5q0 217 162 327q163 111 424 111q159 0 316 -41t280 -115zM1106 1890l-295 -344h-264l241 344h318z" />
    <glyph glyph-name="sacute" unicode="&#x15b;" horiz-adv-x="1073" 
d="M961 932l-101 -193q-76 43 -167.5 70t-164.5 27q-135 0 -135 -91q0 -34 29 -52t119 -42l104 -28q184 -49 263 -121t79 -191q0 -158 -115 -244.5t-323 -86.5q-131 0 -258 37t-230 104l107 184q182 -115 391 -115q143 0 143 99q0 36 -26 55t-103 39l-129 35
q-188 55 -263 121t-75 180q0 153 112.5 239t311.5 86q117 0 230.5 -29t200.5 -83zM909 1481l-295 -344h-264l242 344h317z" />
    <glyph glyph-name="Scircumflex" unicode="&#x15c;" horiz-adv-x="1449" 
d="M1329 1298l-139 -256q-118 61 -250 97.5t-233 36.5q-96 0 -151.5 -35t-55.5 -101q0 -46 41.5 -72t185.5 -65l143 -39q108 -30 177 -55t133 -60.5t99.5 -77.5t57.5 -101t25 -138q0 -215 -161 -333.5t-445 -118.5q-183 0 -356 50t-314 144l147 246q127 -74 275 -116
t274 -42q234 0 234 152q0 55 -43.5 83.5t-181.5 61.5l-152 39q-134 33 -218.5 65t-149 80t-93.5 113.5t-31 159.5q0 217 162 327q163 111 424 111q159 0 316 -41t280 -115zM895 1890l250 -344h-254l-158 180l-155 -180h-254l249 344h322z" />
    <glyph glyph-name="scircumflex" unicode="&#x15d;" horiz-adv-x="1073" 
d="M961 932l-101 -193q-76 43 -167.5 70t-164.5 27q-135 0 -135 -91q0 -34 29 -52t119 -42l104 -28q184 -49 263 -121t79 -191q0 -158 -115 -244.5t-323 -86.5q-131 0 -258 37t-230 104l107 184q182 -115 391 -115q143 0 143 99q0 36 -26 55t-103 39l-129 35
q-188 55 -263 121t-75 180q0 153 112.5 239t311.5 86q117 0 230.5 -29t200.5 -83zM698 1481l250 -344h-254l-157 180l-156 -180h-254l250 344h321z" />
    <glyph glyph-name="Scedilla" unicode="&#x15e;" horiz-adv-x="1449" 
d="M817 -18l-31 -68h19q90 0 143 -50t53 -132q0 -92 -69 -144.5t-178 -52.5q-127 0 -222 53l41 105q64 -31 144 -31q48 0 78 26t30 64q0 35 -21.5 54.5t-58.5 19.5q-40 0 -67 -21l-53 54l57 123q-345 22 -596 192l147 246q127 -74 275 -116t274 -42q234 0 234 152
q0 55 -43.5 83.5t-181.5 61.5l-152 39q-134 33 -218.5 65t-149 80t-93.5 113.5t-31 159.5q0 217 162 327q163 111 424 111q159 0 316 -41t280 -115l-139 -256q-118 61 -250 97.5t-233 36.5q-96 0 -151.5 -35t-55.5 -101q0 -46 41.5 -72t185.5 -65l143 -39q108 -30 177 -55
t133 -60.5t99.5 -77.5t57.5 -101t25 -138q0 -202 -144.5 -320t-400.5 -130z" />
    <glyph glyph-name="scedilla" unicode="&#x15f;" horiz-adv-x="1073" 
d="M598 -18l-31 -68h19q90 0 143 -50t53 -132q0 -92 -69 -144.5t-178 -52.5q-127 0 -222 53l41 105q64 -31 144 -31q48 0 78 26t30 64q0 35 -21.5 54.5t-58.5 19.5q-40 0 -67 -21l-53 54l59 125q-225 20 -404 137l107 184q182 -115 391 -115q143 0 143 99q0 36 -26 55
t-103 39l-129 35q-188 55 -263 121t-75 180q0 153 112.5 239t311.5 86q117 0 230.5 -29t200.5 -83l-101 -193q-76 43 -167.5 70t-164.5 27q-135 0 -135 -91q0 -34 29 -52t119 -42l104 -28q184 -49 263 -121t79 -191q0 -148 -101.5 -233t-287.5 -96z" />
    <glyph glyph-name="Scaron" unicode="&#x160;" horiz-adv-x="1449" 
d="M1329 1298l-139 -256q-118 61 -250 97.5t-233 36.5q-96 0 -151.5 -35t-55.5 -101q0 -46 41.5 -72t185.5 -65l143 -39q108 -30 177 -55t133 -60.5t99.5 -77.5t57.5 -101t25 -138q0 -215 -161 -333.5t-445 -118.5q-183 0 -356 50t-314 144l147 246q127 -74 275 -116
t274 -42q234 0 234 152q0 55 -43.5 83.5t-181.5 61.5l-152 39q-134 33 -218.5 65t-149 80t-93.5 113.5t-31 159.5q0 217 162 327q163 111 424 111q159 0 316 -41t280 -115zM1145 1890l-250 -344h-322l-249 344h254l155 -182l158 182h254z" />
    <glyph glyph-name="scaron" unicode="&#x161;" horiz-adv-x="1073" 
d="M961 932l-101 -193q-76 43 -167.5 70t-164.5 27q-135 0 -135 -91q0 -34 29 -52t119 -42l104 -28q184 -49 263 -121t79 -191q0 -158 -115 -244.5t-323 -86.5q-131 0 -258 37t-230 104l107 184q182 -115 391 -115q143 0 143 99q0 36 -26 55t-103 39l-129 35
q-188 55 -263 121t-75 180q0 153 112.5 239t311.5 86q117 0 230.5 -29t200.5 -83zM948 1481l-250 -344h-321l-250 344h254l156 -183l157 183h254z" />
    <glyph glyph-name="Tcaron" unicode="&#x164;" horiz-adv-x="1316" 
d="M1260 1434v-281h-437v-1153h-327v1153h-437v281h1201zM1059 1890l-250 -344h-322l-249 344h254l155 -182l158 182h254z" />
    <glyph glyph-name="tcaron" unicode="&#x165;" horiz-adv-x="1099" 
d="M1020 1389q0 -33 -21 -60l-190 -274l-78 35l82 190q-80 38 -80 109q0 49 42 82.5t102 33.5t101.5 -33.5t41.5 -82.5zM803 270l41 -211q-149 -79 -297 -79q-158 0 -254 94.5t-96 263.5v448h-150v238h150v276h303v-276h272v-238h-272v-399q0 -73 43 -114.5t112 -41.5
q77 0 148 39z" />
    <glyph glyph-name="Tbar" unicode="&#x166;" horiz-adv-x="1316" 
d="M1260 1153h-437v-365h207v-225h-207v-563h-327v563h-207v225h207v365h-437v281h1201v-281z" />
    <glyph glyph-name="tbar" unicode="&#x167;" horiz-adv-x="907" 
d="M803 270l41 -211q-149 -79 -297 -79q-158 0 -254 94.5t-96 263.5v102h-127v201h127v145h-150v238h150v276h303v-276h272v-238h-272v-145h245v-201h-245v-53q0 -73 43 -114.5t112 -41.5q77 0 148 39z" />
    <glyph glyph-name="Utilde" unicode="&#x168;" horiz-adv-x="1636" 
d="M1468 1434v-781q0 -327 -167 -500t-482 -173q-314 0 -481.5 174t-167.5 499v781h326v-781q0 -182 83.5 -278t239.5 -96t240 96t84 278v781h325zM641 1884q42 0 80.5 -11.5t103.5 -41.5q106 -49 150 -49q71 0 92 90l133 -19q-5 -125 -56 -201.5t-149 -76.5
q-40 0 -76.5 11.5t-123.5 47.5q-90 43 -133 43q-69 0 -93 -88l-133 17q5 126 56 202t149 76z" />
    <glyph glyph-name="utilde" unicode="&#x169;" horiz-adv-x="1320" 
d="M881 1024h305v-1024h-305v119q-191 -139 -402 -139q-168 0 -265 94t-97 258v692h305v-602q0 -93 50 -144t142 -51q137 0 267 105v692zM481 1475q41 0 80 -12t105 -42q106 -49 149 -49q71 0 92 90l133 -18q-5 -125 -55.5 -202t-148.5 -77q-39 0 -75.5 11.5t-125.5 48.5
q-90 43 -133 43q-68 0 -92 -88l-134 16q5 126 56 202.5t149 76.5z" />
    <glyph glyph-name="Umacron" unicode="&#x16a;" horiz-adv-x="1636" 
d="M1468 1434v-781q0 -327 -167 -500t-482 -173q-314 0 -481.5 174t-167.5 499v781h326v-781q0 -182 83.5 -278t239.5 -96t240 96t84 278v781h325zM1157 1831v-189h-678v189h678z" />
    <glyph glyph-name="umacron" unicode="&#x16b;" horiz-adv-x="1320" 
d="M881 1024h305v-1024h-305v119q-191 -139 -402 -139q-168 0 -265 94t-97 258v692h305v-602q0 -93 50 -144t142 -51q137 0 267 105v692zM997 1421v-188h-678v188h678z" />
    <glyph glyph-name="Ubreve" unicode="&#x16c;" horiz-adv-x="1636" 
d="M1468 1434v-781q0 -327 -167 -500t-482 -173q-314 0 -481.5 174t-167.5 499v781h326v-781q0 -182 83.5 -278t239.5 -96t240 96t84 278v781h325zM819 1567q-159 0 -268.5 93t-112.5 236h203q1 -66 50 -103.5t128 -37.5q77 0 126 37.5t50 103.5h203q-3 -144 -111 -236.5
t-268 -92.5z" />
    <glyph glyph-name="ubreve" unicode="&#x16d;" horiz-adv-x="1320" 
d="M881 1024h305v-1024h-305v119q-191 -139 -402 -139q-168 0 -265 94t-97 258v692h305v-602q0 -93 50 -144t142 -51q137 0 267 105v692zM659 1157q-158 0 -267.5 93.5t-112.5 236.5h202q1 -66 50 -103.5t128 -37.5q77 0 126.5 37.5t50.5 103.5h202q-3 -144 -111.5 -237
t-267.5 -93z" />
    <glyph glyph-name="Uring" unicode="&#x16e;" horiz-adv-x="1636" 
d="M1468 1434v-781q0 -327 -167 -500t-482 -173q-314 0 -481.5 174t-167.5 499v781h326v-781q0 -182 83.5 -278t239.5 -96t240 96t84 278v781h325zM1090 1776q0 -109 -81.5 -188t-191.5 -79t-191 79t-81 188t81 187.5t191 78.5q111 0 192 -79t81 -187zM696 1776
q0 -49 35.5 -84t85.5 -35t85.5 35t35.5 84q0 47 -36 81.5t-85 34.5t-85 -34.5t-36 -81.5z" />
    <glyph glyph-name="uring" unicode="&#x16f;" horiz-adv-x="1320" 
d="M881 1024h305v-1024h-305v119q-191 -139 -402 -139q-168 0 -265 94t-97 258v692h305v-602q0 -93 50 -144t142 -51q137 0 267 105v692zM930 1366q0 -108 -81 -187t-192 -79q-110 0 -191 78.5t-81 187.5t81 187.5t191 78.5q111 0 192 -79t81 -187zM537 1366q0 -49 35 -84
t85 -35t85.5 35t35.5 84q0 47 -36 82t-85 35t-84.5 -35t-35.5 -82z" />
    <glyph glyph-name="Uhungarumlaut" unicode="&#x170;" horiz-adv-x="1636" 
d="M1468 1434v-781q0 -327 -167 -500t-482 -173q-314 0 -481.5 174t-167.5 499v781h326v-781q0 -182 83.5 -278t239.5 -96t240 96t84 278v781h325zM1032 1890l-295 -344h-264l240 344h319zM1509 1890l-295 -344h-262l242 344h315z" />
    <glyph glyph-name="uhungarumlaut" unicode="&#x171;" horiz-adv-x="1320" 
d="M881 1024h305v-1024h-305v119q-191 -139 -402 -139q-168 0 -265 94t-97 258v692h305v-602q0 -93 50 -144t142 -51q137 0 267 105v692zM872 1481l-294 -344h-265l240 344h319zM1350 1481l-295 -344h-262l241 344h316z" />
    <glyph glyph-name="Uogonek" unicode="&#x172;" horiz-adv-x="1636" 
d="M1143 1434h325v-781q0 -309 -148.5 -480.5t-430.5 -190.5l-6 -9q-56 -80 -56 -129q0 -48 32 -76t83 -28q47 0 88 20l39 -139q-80 -41 -195 -41q-110 0 -173.5 50.5t-63.5 140.5t74 202l8 11q-266 29 -407.5 201t-141.5 468v781h326v-781q0 -182 83.5 -278t239.5 -96
t240 96t84 278v781z" />
    <glyph glyph-name="uogonek" unicode="&#x173;" horiz-adv-x="1320" 
d="M1247 -240l39 -139q-80 -41 -194 -41q-110 0 -173 50.5t-63 140.5q0 93 74 202l18 27h-67v119q-191 -139 -402 -139q-168 0 -265 94t-97 258v692h305v-602q0 -93 50 -144t142 -51q137 0 267 105v692h305v-1024h-68l-18 -27q-53 -83 -53 -129q0 -48 31.5 -76t80.5 -28
t88 20z" />
    <glyph glyph-name="Wcircumflex" unicode="&#x174;" horiz-adv-x="2330" 
d="M1911 1434h360l-475 -1434h-336l-293 932l-295 -932h-337l-476 1434h361l299 -951l287 951h321l285 -949zM1329 1890l250 -344h-254l-158 180l-155 -180h-254l250 344h321z" />
    <glyph glyph-name="wcircumflex" unicode="&#x175;" horiz-adv-x="1701" 
d="M1673 1024l-319 -1024h-328l-174 584l-172 -584h-330l-317 1024h303l194 -696l203 696h238l203 -696l194 696h305zM1012 1481l250 -344h-254l-158 180l-156 -180h-254l250 344h322z" />
    <glyph glyph-name="Ycircumflex" unicode="&#x176;" horiz-adv-x="1607" 
d="M1163 1434h387l-581 -932v-502h-328v498l-582 936h390l356 -596zM967 1890l250 -344h-254l-158 180l-156 -180h-254l250 344h322z" />
    <glyph glyph-name="ycircumflex" unicode="&#x177;" horiz-adv-x="1230" 
d="M1200 1024l-440 -1120q-124 -324 -422 -324q-137 0 -305 64l84 204q96 -38 178 -38q63 0 109.5 32t84.5 101l15 24l-449 1057h322l260 -696l246 696h317zM797 1481l250 -344h-254l-158 180l-156 -180h-254l250 344h322z" />
    <glyph glyph-name="Ydieresis" unicode="&#x178;" horiz-adv-x="1607" 
d="M1163 1434h387l-581 -932v-502h-328v498l-582 936h390l356 -596zM715 1737q0 -57 -37 -95t-94 -38t-95 38t-38 95t38 94t95 37t94 -37t37 -94zM1159 1737q0 -57 -38 -95t-95 -38t-94 38t-37 95t37 94t94 37t95 -37t38 -94z" />
    <glyph glyph-name="Zacute" unicode="&#x179;" horiz-adv-x="1411" 
d="M1303 1434v-232l-752 -913h774v-289h-1239v238l733 907h-688v289h1172zM1079 1890l-295 -344h-264l242 344h317z" />
    <glyph glyph-name="zacute" unicode="&#x17a;" horiz-adv-x="1105" 
d="M1006 1024v-199l-514 -579h534v-246h-956v199l512 579h-471v246h895zM942 1481l-295 -344h-264l242 344h317z" />
    <glyph glyph-name="Zdotaccent" unicode="&#x17b;" horiz-adv-x="1411" 
d="M1303 1434v-232l-752 -913h774v-289h-1239v238l733 907h-688v289h1172zM838 1737q0 -57 -37.5 -94t-93.5 -37q-60 0 -98 37t-38 94q0 55 39.5 93t96.5 38q55 0 93 -38t38 -93z" />
    <glyph glyph-name="zdotaccent" unicode="&#x17c;" horiz-adv-x="1105" 
d="M1006 1024v-199l-514 -579h534v-246h-956v199l512 579h-471v246h895zM702 1327q0 -57 -37.5 -94t-93.5 -37q-60 0 -97.5 37t-37.5 94q0 55 39 93t96 38q55 0 93 -38t38 -93z" />
    <glyph glyph-name="Zcaron" unicode="&#x17d;" horiz-adv-x="1411" 
d="M1303 1434v-232l-752 -913h774v-289h-1239v238l733 907h-688v289h1172zM1116 1890l-250 -344h-321l-250 344h254l156 -182l157 182h254z" />
    <glyph glyph-name="zcaron" unicode="&#x17e;" horiz-adv-x="1105" 
d="M1006 1024v-199l-514 -579h534v-246h-956v199l512 579h-471v246h895zM981 1481l-250 -344h-321l-250 344h254l155 -183l158 183h254z" />
    <glyph glyph-name="florin" unicode="&#x192;" horiz-adv-x="827" 
d="M817 1413l-39 -188q-74 24 -127 24q-70 0 -112.5 -41.5t-42.5 -115.5v-207h276v-230h-276v-680q0 -171 -119.5 -273.5t-329.5 -113.5v189q66 13 103.5 69.5t37.5 141.5v667h-141v230h141v215q0 177 100 265.5t271 88.5q124 0 258 -41z" />
    <glyph glyph-name="uni0218" unicode="&#x218;" horiz-adv-x="1449" 
d="M1329 1298l-139 -256q-118 61 -250 97.5t-233 36.5q-96 0 -151.5 -35t-55.5 -101q0 -46 41.5 -72t185.5 -65l143 -39q108 -30 177 -55t133 -60.5t99.5 -77.5t57.5 -101t25 -138q0 -215 -161 -333.5t-445 -118.5q-183 0 -356 50t-314 144l147 246q127 -74 275 -116
t274 -42q234 0 234 152q0 55 -43.5 83.5t-181.5 61.5l-152 39q-134 33 -218.5 65t-149 80t-93.5 113.5t-31 159.5q0 217 162 327q163 111 424 111q159 0 316 -41t280 -115zM920 -229q0 -33 -21 -60l-192 -274l-76 35l80 192q-37 13 -58.5 42.5t-21.5 64.5q0 51 41.5 84.5
t103.5 33.5q61 0 102.5 -33.5t41.5 -84.5z" />
    <glyph glyph-name="uni0219" unicode="&#x219;" horiz-adv-x="1073" 
d="M961 932l-101 -193q-76 43 -167.5 70t-164.5 27q-135 0 -135 -91q0 -34 29 -52t119 -42l104 -28q184 -49 263 -121t79 -191q0 -158 -115 -244.5t-323 -86.5q-131 0 -258 37t-230 104l107 184q182 -115 391 -115q143 0 143 99q0 36 -26 55t-103 39l-129 35
q-188 55 -263 121t-75 180q0 153 112.5 239t311.5 86q117 0 230.5 -29t200.5 -83zM700 -229q0 -34 -20 -60l-193 -274l-75 35l80 192q-37 13 -58.5 42.5t-21.5 64.5q0 51 41.5 84.5t103.5 33.5q60 0 101.5 -33.5t41.5 -84.5z" />
    <glyph glyph-name="uni021A" unicode="&#x21a;" horiz-adv-x="1316" 
d="M1260 1434v-281h-437v-1153h-327v1153h-437v281h1201zM803 -229q0 -33 -21 -60l-192 -274l-76 35l80 192q-37 13 -58.5 42.5t-21.5 64.5q0 51 41.5 84.5t103.5 33.5q61 0 102.5 -33.5t41.5 -84.5z" />
    <glyph glyph-name="uni021B" unicode="&#x21b;" horiz-adv-x="907" 
d="M803 270l41 -211q-149 -79 -297 -79q-158 0 -254 94.5t-96 263.5v448h-150v238h150v276h303v-276h272v-238h-272v-399q0 -73 43 -114.5t112 -41.5q77 0 148 39zM674 -229q0 -33 -21 -60l-192 -274l-76 35l80 192q-37 13 -58.5 42.5t-21.5 64.5q0 51 41.5 84.5t103.5 33.5
q61 0 102.5 -33.5t41.5 -84.5z" />
    <glyph glyph-name="uni0237" unicode="&#x237;" horiz-adv-x="595" 
d="M457 1024v-1092q0 -171 -98.5 -261.5t-258.5 -90.5q-112 0 -200 33l30 174q33 -10 54 -10q73 0 120.5 48t47.5 126v1073h305z" />
    <glyph glyph-name="circumflex" unicode="&#x2c6;" horiz-adv-x="702" 
d="M362 1481l250 -344h-254l-157 180l-156 -180h-254l250 344h321z" />
    <glyph glyph-name="caron" unicode="&#x2c7;" horiz-adv-x="702" 
d="M612 1481l-250 -344h-321l-250 344h254l156 -183l157 183h254z" />
    <glyph glyph-name="breve" unicode="&#x2d8;" horiz-adv-x="702" 
d="M203 1157q-158 0 -268 93.5t-113 236.5h203q1 -66 50 -103.5t128 -37.5q77 0 126 37.5t50 103.5h203q-3 -144 -111.5 -237t-267.5 -93z" />
    <glyph glyph-name="dotaccent" unicode="&#x2d9;" horiz-adv-x="702" 
d="M334 1327q0 -57 -37.5 -94t-93.5 -37q-60 0 -97.5 37t-37.5 94q0 55 39 93t96 38q55 0 93 -38t38 -93z" />
    <glyph glyph-name="ring" unicode="&#x2da;" horiz-adv-x="702" 
d="M473 1366q0 -109 -81 -187.5t-191 -78.5q-111 0 -192 79t-81 187t81 187t192 79q110 0 191 -78.5t81 -187.5zM80 1366q0 -49 35.5 -84t85.5 -35t85.5 35t35.5 84q0 47 -36 82t-85 35t-85 -35t-36 -82z" />
    <glyph glyph-name="ogonek" unicode="&#x2db;" horiz-adv-x="702" 
d="M96 6h172l-22 -33q-56 -80 -56 -129q0 -48 32 -76t83 -28q47 0 88 20l39 -139q-80 -41 -194 -41q-111 0 -174.5 50.5t-63.5 140.5q0 93 74 202z" />
    <glyph glyph-name="tilde" unicode="&#x2dc;" horiz-adv-x="702" 
d="M25 1475q41 0 79.5 -11.5t104.5 -42.5q106 -49 149 -49q72 0 93 90l133 -18q-5 -125 -56 -202t-149 -77q-39 0 -75.5 11.5t-125.5 48.5q-90 43 -133 43q-68 0 -92 -88l-133 16q5 126 56 202.5t149 76.5z" />
    <glyph glyph-name="hungarumlaut" unicode="&#x2dd;" horiz-adv-x="702" 
d="M416 1481l-295 -344h-264l239 344h320zM893 1481l-295 -344h-262l242 344h315z" />
    <glyph glyph-name="gravecomb" unicode="&#x300;" 
d="M-55 1481l241 -344h-264l-295 344h318z" />
    <glyph glyph-name="acutecomb" unicode="&#x301;" 
d="M373 1481l-295 -344h-264l241 344h318z" />
    <glyph glyph-name="uni0302" unicode="&#x302;" 
d="M162 1481l250 -344h-254l-158 180l-156 -180h-254l250 344h322z" />
    <glyph glyph-name="tildecomb" unicode="&#x303;" 
d="M-176 1475q41 0 79.5 -11.5t104.5 -42.5q106 -49 150 -49q71 0 92 90l133 -18q-5 -125 -56 -202t-149 -77q-39 0 -75.5 11.5t-125.5 48.5q-90 43 -133 43q-68 0 -92 -88l-133 16q5 126 56 202.5t149 76.5z" />
    <glyph glyph-name="uni0304" unicode="&#x304;" 
d="M340 1421v-188h-678v188h678z" />
    <glyph glyph-name="uni0306" unicode="&#x306;" 
d="M2 1157q-158 0 -268 93.5t-113 236.5h203q1 -66 50 -103.5t128 -37.5q77 0 126 37.5t50 103.5h203q-3 -144 -111.5 -237t-267.5 -93z" />
    <glyph glyph-name="uni0307" unicode="&#x307;" 
d="M133 1327q0 -57 -37.5 -94t-93.5 -37q-60 0 -97.5 37t-37.5 94q0 55 39 93t96 38q56 0 93.5 -38t37.5 -93z" />
    <glyph glyph-name="uni0308" unicode="&#x308;" 
d="M-90 1327q0 -57 -37 -95t-94 -38t-95 38t-38 95t38 94t95 37t94 -37t37 -94zM354 1327q0 -57 -38 -95t-95 -38t-94 38t-37 95t37 94t94 37t95 -37t38 -94z" />
    <glyph glyph-name="uni030A" unicode="&#x30a;" 
d="M272 1366q0 -109 -81 -187.5t-191 -78.5t-191 78.5t-81 187.5t81 187.5t191 78.5t191 -78.5t81 -187.5zM-121 1366q0 -49 35.5 -84t85.5 -35t85.5 35t35.5 84q0 47 -36 82t-85 35t-85 -35t-36 -82z" />
    <glyph glyph-name="uni030B" unicode="&#x30b;" 
d="M215 1481l-295 -344h-264l240 344h319zM692 1481l-295 -344h-262l242 344h315z" />
    <glyph glyph-name="uni030C" unicode="&#x30c;" 
d="M412 1481l-250 -344h-322l-250 344h254l156 -183l158 183h254z" />
    <glyph glyph-name="uni0312" unicode="&#x312;" 
d="M-141 1257q0 34 20 60l193 274l75 -35l-79 -190q79 -37 79 -109q0 -49 -41.5 -82.5t-101.5 -33.5q-62 0 -103.5 33.5t-41.5 82.5z" />
    <glyph glyph-name="uni0326" unicode="&#x326;" 
d="M156 -229q0 -33 -21 -60l-192 -274l-76 35l80 192q-37 13 -58.5 42.5t-21.5 64.5q0 51 41.5 84.5t103.5 33.5q61 0 102.5 -33.5t41.5 -84.5z" />
    <glyph glyph-name="uni0327" unicode="&#x327;" 
d="M240 -268q0 -94 -69 -145.5t-181 -51.5q-126 0 -221 53l41 105q64 -31 143 -31q49 0 78.5 26t29.5 64q0 35 -20.5 54.5t-58.5 19.5q-41 0 -68 -21l-53 54l69 147h138l-43 -92h18q90 0 143.5 -50t53.5 -132z" />
    <glyph glyph-name="uni0328" unicode="&#x328;" 
d="M-104 6h172l-23 -33q-55 -79 -55 -129q0 -48 31.5 -76t82.5 -28q48 0 89 20l38 -139q-80 -41 -194 -41q-111 0 -174.5 50.5t-63.5 140.5q0 93 74 202z" />
    <glyph glyph-name="pi" unicode="&#x3c0;" horiz-adv-x="1589" 
d="M1534 778h-234v-432q0 -66 28.5 -100.5t80.5 -34.5q34 0 53 8l29 -201q-90 -41 -184 -41q-145 0 -229.5 84t-84.5 252v465h-428v-778h-303v778h-213v246h1485v-246z" />
    <glyph glyph-name="uni058F" unicode="&#x58f;" horiz-adv-x="1228" 
d="M1202 571h-137v-147h137v-217h-137v-207h-326v207h-274v217h274v147h-274v217h274v191q0 201 -196 201q-197 0 -197 -201v-74h-326v94q0 220 135 337.5t388 117.5q252 0 387 -117.5t135 -337.5v-211h137v-217z" />
    <glyph glyph-name="uni060C" unicode="&#x60c;" horiz-adv-x="731" 
d="M205 141q0 36 28 103l177 354h114l-73 -322q73 -42 73 -135q0 -66 -46.5 -113.5t-112.5 -47.5q-67 0 -113.5 46.5t-46.5 114.5z" />
    <glyph glyph-name="uni0615" unicode="&#x615;" 
d="M272 1262v-218h-591v160h45v367h147v-193q107 88 215 88q87 0 135.5 -55.5t48.5 -148.5zM-127 1204h246v39q0 84 -74 84q-71 0 -172 -94v-29z" />
    <glyph glyph-name="uni061B" unicode="&#x61b;" horiz-adv-x="655" 
d="M176 745q0 43 27 95l166 342h106l-65 -310q69 -43 69 -127q0 -63 -44 -107t-107 -44t-107.5 44t-44.5 107zM176 131q0 63 44.5 108.5t107.5 45.5t107 -45.5t44 -108.5t-44 -107t-107 -44t-107.5 44t-44.5 107z" />
    <glyph glyph-name="uni061F" unicode="&#x61f;" horiz-adv-x="1249" 
d="M1141 1034l-297 -30q-7 79 -64.5 125.5t-144.5 46.5q-89 0 -142 -44.5t-53 -121.5q0 -42 19.5 -74t66.5 -76q69 -60 103 -94.5t64.5 -78t41.5 -87.5t13 -106v-84h-279v36q0 63 -29 106t-112 114q-120 105 -169.5 183t-49.5 183q0 195 135 309q134 113 360 113
q220 0 364 -112t173 -308zM457 131q0 65 44.5 109.5t108.5 44.5q61 0 105.5 -45.5t44.5 -108.5t-44 -107t-106 -44q-63 0 -108 44t-45 107z" />
    <glyph glyph-name="uni0621" unicode="&#x621;" horiz-adv-x="1146" 
d="M735 307h269v-307h-861v307h197q-86 95 -86 236q0 163 110 272t281 109q193 0 336 -129l-186 -177q-55 52 -131 52q-74 0 -118 -45.5t-44 -124.5q0 -183 233 -193z" />
    <glyph glyph-name="uni0622" unicode="&#x622;" horiz-adv-x="651" 
d="M180 0v1495h291v-1495h-291zM518 1862l94 -19q-5 -108 -45 -156.5t-139 -44.5l-197 7q-47 2 -72 -9.5t-38 -40.5l-92 19q2 108 44 157.5t146 43.5l189 -9q50 -1 74 10.5t36 41.5z" />
    <glyph glyph-name="uni0623" unicode="&#x623;" horiz-adv-x="651" 
d="M180 0v1495h291v-1495h-291zM422 1815h125v-177h-445v177h99q-45 51 -45 120q0 80 54.5 133.5t143.5 53.5q102 0 176 -74l-98 -100q-22 22 -61 22q-32 0 -52 -20t-20 -52q0 -38 31.5 -60.5t91.5 -22.5z" />
    <glyph glyph-name="uni0624" unicode="&#x624;" horiz-adv-x="1298" 
d="M1135 909v-827q0 -325 -168 -471q-168 -148 -451 -148q-193 0 -373 58l52 278q177 -53 329 -53q162 0 237 62t81 192h-131q-285 0 -443.5 138.5t-158.5 365.5q0 233 152.5 374.5t412.5 141.5q230 0 461 -111zM664 307h178v398q-87 40 -185 40q-115 0 -185.5 -57.5
t-70.5 -161.5q0 -103 71.5 -161t191.5 -58zM770 1354h125v-176h-444v176h98q-45 51 -45 121q0 80 54.5 133t143.5 53q103 0 177 -74l-99 -100q-22 22 -61 22q-32 0 -52 -19.5t-20 -51.5q0 -38 31.5 -61t91.5 -23z" />
    <glyph glyph-name="uni0625" unicode="&#x625;" horiz-adv-x="651" 
d="M180 0v1495h291v-1495h-291zM424 -442h125v-174h-445v174h99q-45 51 -45 120q0 81 54.5 135t143.5 54q102 0 176 -74l-98 -102q-24 24 -61 24q-32 0 -52 -20t-20 -51q0 -38 32 -62t91 -24z" />
    <glyph glyph-name="uni0626" unicode="&#x626;" horiz-adv-x="2322" 
d="M1450 473q0 -17 10 -59l211 -715q-142 -89 -358 -162q-216 -74 -436 -74q-341 0 -539.5 182t-198.5 494q0 155 43 312l267 -50q-27 -99 -27 -198q0 -210 123 -322t352 -112q110 0 236 24q133 25 206 57l-163 535q-27 83 -27 156q0 153 107.5 242t277.5 89h461l229 -809
l-266 -71l-174 596h-187q-69 0 -108 -30t-39 -85zM508 809h125v-176h-445v176h99q-45 51 -45 121q0 80 54.5 133t143.5 53q102 0 176 -74l-98 -100q-23 23 -61 23q-32 0 -52 -20t-20 -52q0 -38 31.5 -61t91.5 -23z" />
    <glyph glyph-name="uni0627" unicode="&#x627;" horiz-adv-x="651" 
d="M180 0v1495h291v-1495h-291z" />
    <glyph glyph-name="uni0628" unicode="&#x628;" horiz-adv-x="2412" 
d="M143 510q0 169 64 367l268 -48q-41 -134 -41 -231q0 -291 338 -291h838q109 0 203 16t145 42v675h291v-905q-107 -62 -287.5 -98.5t-398.5 -36.5h-807q-304 0 -458.5 121t-154.5 389zM1059 -297q0 69 47.5 116.5t116.5 47.5q68 0 115.5 -47.5t47.5 -116.5t-47.5 -116.5
t-115.5 -47.5q-69 0 -116.5 47.5t-47.5 116.5z" />
    <glyph glyph-name="uni0629" unicode="&#x629;" horiz-adv-x="1265" 
d="M109 512q0 150 68 272t188 191t268 69q228 0 377 -150.5t149 -381.5t-149 -381.5t-377 -150.5q-148 0 -268 69t-188 191t-68 272zM866 512q0 108 -64 178t-171 70q-103 0 -167.5 -70.5t-64.5 -177.5t64.5 -177.5t167.5 -70.5q107 0 171 70t64 178zM266 1362
q0 68 47.5 115t116.5 47q66 0 113 -47.5t47 -114.5q0 -68 -47 -116t-113 -48q-69 0 -116.5 48t-47.5 116zM676 1362q0 68 47.5 115t116.5 47q67 0 114 -47t47 -115t-47 -116t-114 -48q-69 0 -116.5 48t-47.5 116z" />
    <glyph glyph-name="uni062A" unicode="&#x62a;" horiz-adv-x="2412" 
d="M143 510q0 169 64 367l268 -48q-41 -134 -41 -231q0 -291 338 -291h838q109 0 203 16t145 42v675h291v-905q-107 -62 -287.5 -98.5t-398.5 -36.5h-807q-304 0 -458.5 121t-154.5 389zM825 1157q0 68 47.5 115t116.5 47q66 0 113 -47.5t47 -114.5q0 -68 -47 -116t-113 -48
q-69 0 -116.5 48t-47.5 116zM1235 1157q0 68 47.5 115t116.5 47q67 0 114.5 -47.5t47.5 -114.5q0 -68 -47.5 -116t-114.5 -48q-69 0 -116.5 48t-47.5 116z" />
    <glyph glyph-name="uni062B" unicode="&#x62b;" horiz-adv-x="2412" 
d="M143 510q0 169 64 367l268 -48q-41 -134 -41 -231q0 -291 338 -291h838q109 0 203 16t145 42v675h291v-905q-107 -62 -287.5 -98.5t-398.5 -36.5h-807q-304 0 -458.5 121t-154.5 389zM1049 1436q0 61 41.5 103t101.5 42t100.5 -41.5t40.5 -103.5q0 -60 -40.5 -102
t-100.5 -42t-101.5 42t-41.5 102zM862 1137q0 60 42.5 101.5t103.5 41.5q60 0 100.5 -41.5t40.5 -101.5t-40.5 -102t-100.5 -42q-61 0 -103.5 42t-42.5 102zM1235 1137q0 61 41.5 102t103.5 41q60 0 101 -41t41 -102q0 -60 -41 -102t-101 -42t-102.5 42t-42.5 102z" />
    <glyph glyph-name="uni062C" unicode="&#x62c;" horiz-adv-x="1482" 
d="M1386 264l-79 -264h-701q-104 0 -167.5 -50.5t-63.5 -137.5t64 -138t171 -51h312v-307h-246q-291 0 -453 128t-162 361q0 237 154.5 367.5t433.5 130.5h342q-45 49 -72.5 104.5t-58.5 153.5q-38 123 -59 168q-56 121 -205 121q-115 0 -252 -84l-160 203q201 155 437 155
q146 0 240.5 -47.5t152.5 -140.5t106 -256q53 -184 110 -282t156 -134zM922 -279q0 68 47 115t116 47q66 0 114 -47.5t48 -114.5t-48 -115t-114 -48q-69 0 -116 47.5t-47 115.5z" />
    <glyph glyph-name="uni062D" unicode="&#x62d;" horiz-adv-x="1482" 
d="M1386 264l-79 -264h-701q-104 0 -167.5 -50.5t-63.5 -137.5t64 -138t171 -51h312v-307h-246q-291 0 -453 128t-162 361q0 237 154.5 367.5t433.5 130.5h342q-45 49 -72.5 104.5t-58.5 153.5q-38 123 -59 168q-56 121 -205 121q-115 0 -252 -84l-160 203q201 155 437 155
q146 0 240.5 -47.5t152.5 -140.5t106 -256q53 -184 110 -282t156 -134z" />
    <glyph glyph-name="uni062E" unicode="&#x62e;" horiz-adv-x="1482" 
d="M1386 264l-79 -264h-701q-104 0 -167.5 -50.5t-63.5 -137.5t64 -138t171 -51h312v-307h-246q-291 0 -453 128t-162 361q0 237 154.5 367.5t433.5 130.5h342q-45 49 -72.5 104.5t-58.5 153.5q-38 123 -59 168q-56 121 -205 121q-115 0 -252 -84l-160 203q201 155 437 155
q146 0 240.5 -47.5t152.5 -140.5t106 -256q53 -184 110 -282t156 -134zM483 1423q0 69 48.5 116.5t117.5 47.5q68 0 115 -47.5t47 -116.5q0 -68 -47.5 -115.5t-114.5 -47.5q-69 0 -117.5 47.5t-48.5 115.5z" />
    <glyph glyph-name="uni062F" unicode="&#x62f;" horiz-adv-x="1198" 
d="M1055 575v-575h-963v307h672v254q0 114 -58 159.5t-190 45.5h-244v291h177q233 0 363.5 -46.5t186.5 -149t56 -286.5z" />
    <glyph glyph-name="uni0630" unicode="&#x630;" horiz-adv-x="1198" 
d="M1055 575v-575h-963v307h672v254q0 114 -58 159.5t-190 45.5h-244v291h177q233 0 363.5 -46.5t186.5 -149t56 -286.5zM297 1389q0 69 48.5 116t117.5 47q68 0 115 -47t47 -116q0 -68 -47.5 -116t-114.5 -48q-69 0 -117.5 48t-48.5 116z" />
    <glyph glyph-name="uni0631" unicode="&#x631;" horiz-adv-x="786" 
d="M-113 -526l56 295q18 -2 82 -2q161 0 229 73t68 234v934h290v-930q0 -311 -150.5 -463t-426.5 -152q-43 0 -148 11z" />
    <glyph glyph-name="uni0632" unicode="&#x632;" horiz-adv-x="786" 
d="M-113 -526l56 295q18 -2 82 -2q161 0 229 73t68 234v934h290v-930q0 -311 -150.5 -463t-426.5 -152q-43 0 -148 11zM305 1352q0 69 48.5 116.5t117.5 47.5q68 0 115 -47.5t47 -116.5q0 -68 -47.5 -116t-114.5 -48q-69 0 -117.5 48t-48.5 116z" />
    <glyph glyph-name="uni0633" unicode="&#x633;" horiz-adv-x="3045" 
d="M2589 1018h293v-838q-79 -86 -193 -137t-235 -51q-177 0 -324 108q-138 -108 -318 -108q-144 0 -253 80v-412q-143 -86 -322.5 -141.5t-370.5 -55.5q-338 0 -532.5 183t-194.5 495q0 150 43 312l267 -52q-27 -99 -27 -200q0 -209 122 -320.5t351 -111.5q197 0 383 79v945
h293v-443q80 -51 182 -51q95 0 180 49v445h293v-445q85 -49 182 -49q101 0 181 51v668z" />
    <glyph glyph-name="uni0634" unicode="&#x634;" horiz-adv-x="3045" 
d="M2589 1018h293v-838q-79 -86 -193 -137t-235 -51q-177 0 -324 108q-138 -108 -318 -108q-144 0 -253 80v-412q-143 -86 -322.5 -141.5t-370.5 -55.5q-338 0 -532.5 183t-194.5 495q0 150 43 312l267 -52q-27 -99 -27 -200q0 -209 122 -320.5t351 -111.5q197 0 383 79v945
h293v-443q80 -51 182 -51q95 0 180 49v445h293v-445q85 -49 182 -49q101 0 181 51v668zM1935 1436q0 61 42 103t102 42t100.5 -41.5t40.5 -103.5q0 -60 -40.5 -102t-100.5 -42t-102 42t-42 102zM1749 1137q0 60 42 101.5t103 41.5q60 0 101 -41.5t41 -101.5t-41 -102
t-101 -42q-61 0 -103 42t-42 102zM2122 1137q0 61 41.5 102t103.5 41q60 0 100.5 -41t40.5 -102q0 -60 -40.5 -102t-100.5 -42t-102.5 42t-42.5 102z" />
    <glyph glyph-name="uni0635" unicode="&#x635;" horiz-adv-x="2942" 
d="M2783 549v-549h-1212v-324q-346 -213 -705 -213q-339 0 -533 182.5t-194 497.5q0 148 43 310l267 -52q-27 -99 -27 -200q0 -209 122 -320.5t351 -111.5q197 0 383 79v1125h293v-223q187 193 351 283.5t341 90.5q234 0 377 -149.5t143 -425.5zM1571 307h921v191
q0 139 -61 237q-61 101 -215 101q-142 0 -295.5 -104t-349.5 -331v-94z" />
    <glyph glyph-name="uni0636" unicode="&#x636;" horiz-adv-x="2942" 
d="M2783 549v-549h-1212v-324q-346 -213 -705 -213q-339 0 -533 182.5t-194 497.5q0 148 43 310l267 -52q-27 -99 -27 -200q0 -209 122 -320.5t351 -111.5q197 0 383 79v1125h293v-223q187 193 351 283.5t341 90.5q234 0 377 -149.5t143 -425.5zM1571 307h921v191
q0 139 -61 237q-61 101 -215 101q-142 0 -295.5 -104t-349.5 -331v-94zM1704 1444q0 69 48.5 116.5t117.5 47.5q68 0 115 -47.5t47 -116.5q0 -68 -47.5 -116t-114.5 -48q-69 0 -117.5 48t-48.5 116z" />
    <glyph glyph-name="uni0637" unicode="&#x637;" horiz-adv-x="1953" 
d="M1794 549v-549h-1710v307h205v1172h293v-729q187 193 351 283.5t341 90.5q234 0 377 -149.5t143 -425.5zM582 307h921v191q0 139 -61 237q-61 101 -215 101q-142 0 -295.5 -104t-349.5 -331v-94z" />
    <glyph glyph-name="uni0638" unicode="&#x638;" horiz-adv-x="1953" 
d="M1794 549v-549h-1710v307h205v1172h293v-729q187 193 351 283.5t341 90.5q234 0 377 -149.5t143 -425.5zM582 307h921v191q0 139 -61 237q-61 101 -215 101q-142 0 -295.5 -104t-349.5 -331v-94zM866 1475q0 69 48.5 116t117.5 47q68 0 115 -47t47 -116q0 -68 -47.5 -116
t-114.5 -48q-69 0 -117.5 48t-48.5 116z" />
    <glyph glyph-name="uni0639" unicode="&#x639;" horiz-adv-x="1484" 
d="M1034 307h215v-307h-667q-113 0 -179.5 -49.5t-66.5 -136.5q0 -90 66.5 -140.5t183.5 -50.5h311v-307h-246q-299 0 -465 127t-166 354q0 205 134 325.5t381 147.5q-181 136 -181 371q0 143 76 254t205 170t287 59q270 0 450 -163l-196 -203q-91 88 -236 88
q-128 0 -207.5 -70t-79.5 -186q0 -130 102 -206.5t279 -76.5z" />
    <glyph glyph-name="uni063A" unicode="&#x63a;" horiz-adv-x="1484" 
d="M1034 307h215v-307h-667q-113 0 -179.5 -49.5t-66.5 -136.5q0 -90 66.5 -140.5t183.5 -50.5h311v-307h-246q-299 0 -465 127t-166 354q0 205 134 325.5t381 147.5q-181 136 -181 371q0 143 76 254t205 170t287 59q270 0 450 -163l-196 -203q-91 88 -236 88
q-128 0 -207.5 -70t-79.5 -186q0 -130 102 -206.5t279 -76.5zM756 1444q0 69 48.5 116.5t117.5 47.5q68 0 114.5 -47.5t46.5 -116.5q0 -68 -47 -116t-114 -48q-69 0 -117.5 48t-48.5 116z" />
    <glyph glyph-name="uni0640" unicode="&#x640;" horiz-adv-x="512" 
d="M545 307v-303q0 -4 -33 -4h-512q-33 0 -33 4v303h578z" />
    <glyph glyph-name="uni0641" unicode="&#x641;" horiz-adv-x="2586" 
d="M2423 1008v-873q-107 -61 -289 -98t-399 -37h-979q-304 0 -458.5 121t-154.5 389q0 169 64 367l268 -48q-41 -134 -41 -231q0 -291 338 -291h903q-241 125 -241 385q0 139 70 242.5t190.5 156t273.5 52.5q251 0 455 -135zM1729 651q0 -122 107.5 -194t295.5 -86v450
q-78 37 -172 37q-106 0 -168.5 -55.5t-62.5 -151.5zM1794 1458q0 69 48.5 116.5t117.5 47.5q68 0 115 -47.5t47 -116.5q0 -68 -47.5 -116t-114.5 -48q-69 0 -117.5 48t-48.5 116z" />
    <glyph glyph-name="uni0642" unicode="&#x642;" horiz-adv-x="1845" 
d="M1681 909v-1235q-134 -93 -338 -151q-208 -60 -425 -60q-366 0 -572.5 183.5t-206.5 494.5q0 159 45 310l265 -52q-27 -99 -27 -196q0 -215 135.5 -324.5t394.5 -109.5q215 0 439 75v166h-131q-287 0 -446 132t-159 362q0 233 152.5 374.5t415.5 141.5q233 0 458 -111z
M1210 307h181v398q-87 40 -187 40q-117 0 -186.5 -58.5t-69.5 -162.5q0 -102 71 -159.5t191 -57.5zM858 1335q0 68 47.5 115t116.5 47q66 0 113 -47.5t47 -114.5q0 -68 -47 -116t-113 -48q-69 0 -116.5 48t-47.5 116zM1268 1335q0 68 47.5 115t116.5 47q67 0 114 -47
t47 -115t-47 -116t-114 -48q-69 0 -116.5 48t-47.5 116z" />
    <glyph glyph-name="uni0643" unicode="&#x643;" horiz-adv-x="2285" 
d="M1815 1495h290v-1360q-107 -62 -287.5 -98.5t-398.5 -36.5h-663q-304 0 -458.5 121t-154.5 389q0 169 64 367l268 -48q-41 -134 -41 -231q0 -291 338 -291h694q109 0 203.5 16t145.5 42v1130zM1339 901v-174h-442v174h98q-45 51 -45 121q0 81 55 134.5t142 53.5
q103 0 176 -73l-98 -103q-25 25 -62 25q-32 0 -51.5 -20.5t-19.5 -51.5q0 -38 31.5 -62t90.5 -24h125z" />
    <glyph glyph-name="uni0644" unicode="&#x644;" horiz-adv-x="1740" 
d="M1270 1495h291v-1829q-121 -77 -310 -139q-186 -64 -393 -64q-337 0 -528 180.5t-191 499.5q0 157 43 314l267 -49q-27 -102 -27 -203q0 -218 118.5 -327t346.5 -109q194 0 383 79v1647z" />
    <glyph glyph-name="uni0645" unicode="&#x645;" horiz-adv-x="1519" 
d="M1413 512q0 -231 -149 -381.5t-377 -150.5q-141 0 -260 67l-15 8q-73 37 -137 37q-133 0 -133 -129q0 -285 47 -661h-285q-47 385 -47 669q0 170 80.5 249t241.5 79h24q-41 100 -41 213q0 150 68 272t188.5 191t268.5 69q228 0 377 -150.5t149 -381.5zM1120 512
q0 108 -64 177t-171 69q-103 0 -167.5 -69.5t-64.5 -176.5t64.5 -176.5t167.5 -69.5q107 0 171 69t64 177z" />
    <glyph glyph-name="uni0646" unicode="&#x646;" horiz-adv-x="1734" 
d="M139 143q0 162 43 310l267 -52q-27 -102 -27 -198q0 -212 123 -323t352 -111q189 0 381 79v945h303v-1119q-141 -95 -329.5 -153t-385.5 -58q-340 0 -533.5 183.5t-193.5 496.5zM647 840q0 69 48.5 116.5t117.5 47.5q68 0 115 -47.5t47 -116.5q0 -68 -47.5 -116
t-114.5 -48q-69 0 -117.5 48t-48.5 116z" />
    <glyph glyph-name="uni0647" unicode="&#x647;" horiz-adv-x="1265" 
d="M109 512q0 150 68 272t188 191t268 69q228 0 377 -150.5t149 -381.5t-149 -381.5t-377 -150.5q-148 0 -268 69t-188 191t-68 272zM866 512q0 108 -64 178t-171 70q-103 0 -167.5 -70.5t-64.5 -177.5t64.5 -177.5t167.5 -70.5q107 0 171 70t64 178z" />
    <glyph glyph-name="uni0648" unicode="&#x648;" horiz-adv-x="1298" 
d="M1135 909v-827q0 -325 -168 -471q-168 -148 -451 -148q-193 0 -373 58l52 278q177 -53 329 -53q162 0 237 62t81 192h-131q-285 0 -443.5 138.5t-158.5 365.5q0 233 152.5 374.5t412.5 141.5q230 0 461 -111zM664 307h178v398q-87 40 -185 40q-115 0 -185.5 -57.5
t-70.5 -161.5q0 -103 71.5 -161t191.5 -58z" />
    <glyph glyph-name="uni0649" unicode="&#x649;" horiz-adv-x="2322" 
d="M1450 473q0 -17 10 -59l211 -715q-142 -89 -358 -162q-216 -74 -436 -74q-341 0 -539.5 182t-198.5 494q0 155 43 312l267 -50q-27 -99 -27 -198q0 -210 123 -322t352 -112q110 0 236 24q133 25 206 57l-163 535q-27 83 -27 156q0 153 107.5 242t277.5 89h461l229 -809
l-266 -71l-174 596h-187q-69 0 -108 -30t-39 -85z" />
    <glyph glyph-name="uni064A" unicode="&#x64a;" horiz-adv-x="2322" 
d="M1450 473q0 -17 10 -59l211 -715q-142 -89 -358 -162q-216 -74 -436 -74q-341 0 -539.5 182t-198.5 494q0 155 43 312l267 -50q-27 -99 -27 -198q0 -210 123 -322t352 -112q110 0 236 24q133 25 206 57l-163 535q-27 83 -27 156q0 153 107.5 242t277.5 89h461l229 -809
l-266 -71l-174 596h-187q-69 0 -108 -30t-39 -85zM496 -860q0 68 47 115t116 47q66 0 113 -47.5t47 -114.5q0 -68 -47 -116t-113 -48q-69 0 -116 48t-47 116zM905 -860q0 68 47.5 115t116.5 47q67 0 114.5 -47t47.5 -115t-47.5 -116t-114.5 -48q-69 0 -116.5 48t-47.5 116z
" />
    <glyph glyph-name="uni064B" unicode="&#x64b;" 
d="M-279 1327v133l551 150v-135zM-279 1126v134l551 149v-135z" />
    <glyph glyph-name="uni064C" unicode="&#x64c;" 
d="M301 1475q0 -84 -54.5 -156.5t-158.5 -118.5q-146 -64 -373 -76l-43 84q58 58 58 115q0 34 -17 54.5t-45 25.5v117q86 0 136.5 -37t50.5 -105q0 -76 -45 -133q109 15 188 45q28 8 51 25q-69 20 -107 65t-38 105q0 78 57.5 127t144.5 49t141 -50t54 -136zM162 1464
q0 30 -16.5 48t-43.5 18q-26 0 -41.5 -15.5t-15.5 -41.5q0 -29 25.5 -50.5t68.5 -29.5q23 38 23 71z" />
    <glyph glyph-name="uni064D" unicode="&#x64d;" 
d="M-279 -375v133l551 150v-135zM-279 -571v133l551 149v-135z" />
    <glyph glyph-name="uni064E" unicode="&#x64e;" 
d="M-279 1126v134l551 149v-133z" />
    <glyph glyph-name="uni064F" unicode="&#x64f;" 
d="M258 1448q0 -147 -139 -221t-408 -94l-22 120q156 15 258 45q-113 61 -113 162q0 84 60 136.5t153 52.5q95 0 153 -53t58 -148zM115 1444q0 32 -19.5 52t-50.5 20t-48 -17t-17 -47q0 -31 25 -54.5t69 -35.5q41 35 41 82z" />
    <glyph glyph-name="uni0650" unicode="&#x650;" 
d="M-272 -391v135l544 147v-135z" />
    <glyph glyph-name="uni0651" unicode="&#x651;" 
d="M174 1597h145v-270q0 -75 -52.5 -114t-127.5 -39q-67 0 -114 24q-44 -72 -164 -72q-78 0 -129 39.5t-51 116.5v231h145v-192q0 -22 15 -34.5t36 -12.5q24 0 39.5 12.5t15.5 34.5v227h134v-178q0 -24 16 -37.5t41 -13.5q24 0 37.5 13.5t13.5 37.5v227z" />
    <glyph glyph-name="uni0652" unicode="&#x652;" 
d="M-238 1352q0 98 68 163.5t168 65.5q103 0 171.5 -65.5t68.5 -163.5q0 -97 -69 -163.5t-171 -66.5q-100 0 -168 66.5t-68 163.5zM92 1352q0 38 -26.5 64t-69.5 26q-38 0 -63 -26.5t-25 -63.5t25 -63.5t63 -26.5q43 0 69.5 26t26.5 64z" />
    <glyph glyph-name="uni0653" unicode="&#x653;" 
d="M195 1257l94 -18q-5 -108 -45.5 -156.5t-139.5 -44.5l-196 6q-48 2 -73 -9t-38 -40l-92 19q2 108 44 157t147 43l188 -8q50 -1 74.5 10t36.5 41z" />
    <glyph glyph-name="uni0654" unicode="&#x654;" 
d="M96 1210h125v-176h-444v176h98q-45 51 -45 121q0 80 55 133.5t144 53.5q102 0 176 -74l-99 -101q-23 23 -61 23q-32 0 -52 -20t-20 -52q0 -38 31.5 -61t91.5 -23z" />
    <glyph glyph-name="uni0655" unicode="&#x655;" 
d="M96 -309h125v-174h-444v174h98q-45 51 -45 121q0 81 55 134.5t144 53.5q102 0 176 -74l-99 -102q-24 24 -61 24q-32 0 -52 -20t-20 -51q0 -38 32 -62t91 -24z" />
    <glyph glyph-name="uni0656" unicode="&#x656;" 
d="M-76 -598v465h152v-465h-152z" />
    <glyph glyph-name="uni0658" unicode="&#x658;" 
d="M127 1538h145v-350q-52 -33 -128 -53.5t-154 -20.5q-129 0 -205 68.5t-76 179.5q0 48 19 113l133 -27q-8 -19 -8 -53q0 -127 159 -127q52 0 115 14v256z" />
    <glyph glyph-name="uni0660" unicode="&#x660;" horiz-adv-x="759" 
d="M381 506l-227 225l227 227l225 -227z" />
    <glyph glyph-name="uni0661" unicode="&#x661;" horiz-adv-x="743" 
d="M276 0l-102 1434h293l102 -1434h-293z" />
    <glyph glyph-name="uni0662" unicode="&#x662;" horiz-adv-x="1157" 
d="M1034 1434v-301h-545l80 -1133h-293l-102 1434h860z" />
    <glyph glyph-name="uni0663" unicode="&#x663;" horiz-adv-x="1478" 
d="M1128 1434h228v-482q-43 -49 -124 -81.5t-171 -32.5q-124 0 -225 67q-94 -67 -215 -67q-66 0 -113 20l67 -858h-286l-115 1434h289l24 -314q38 -14 95 -14q70 0 123 24v304h196v-304q53 -24 121 -24q60 0 106 24v304z" />
    <glyph glyph-name="uni0664" unicode="&#x664;" horiz-adv-x="1124" 
d="M971 295l92 -234q-159 -81 -391 -81q-254 0 -396.5 104.5t-142.5 294.5q0 125 63.5 213t178.5 133q-228 99 -228 328q0 188 133 294.5t365 106.5q199 0 373 -80l-117 -225q-125 41 -239 41q-108 0 -168 -42t-60 -112q0 -92 100.5 -147t278.5 -55h45v-207h-47
q-193 0 -292 -56.5t-99 -160.5q0 -164 270 -164q165 0 281 49z" />
    <glyph glyph-name="uni0665" unicode="&#x665;" horiz-adv-x="1359" 
d="M129 461q-1 105 22.5 216.5t71.5 215t113 184.5t155 128t189 44q98 3 188 -44t155.5 -128.5t114 -184.5t72.5 -215.5t23 -217.5q0 -232 -139 -354.5t-414 -122.5t-413 123.5t-138 355.5zM952 522q1 101 -34.5 204.5t-100 173.5t-137.5 67q-73 3 -137.5 -67t-100 -173.5
t-34.5 -204.5q0 -133 67 -194.5t205 -61.5t205 61.5t67 194.5z" />
    <glyph glyph-name="uni0666" unicode="&#x666;" horiz-adv-x="1142" 
d="M969 0h-291l-47 1126h-570v308h848z" />
    <glyph glyph-name="uni0667" unicode="&#x667;" horiz-adv-x="1366" 
d="M993 1434h322q-245 -624 -443 -1434h-376q-201 822 -445 1434h322q85 -232 153 -469q79 -275 158 -639q83 379 158 643q64 224 151 465z" />
    <glyph glyph-name="uni0668" unicode="&#x668;" horiz-adv-x="1366" 
d="M1315 0h-322q-87 241 -151 465q-76 266 -158 645q-78 -358 -158 -641q-68 -237 -153 -469h-322q244 615 445 1434h376q198 -816 443 -1434z" />
    <glyph glyph-name="uni0669" unicode="&#x669;" horiz-adv-x="1284" 
d="M1110 0h-287l-30 453h-140q-262 0 -411.5 135t-149.5 370q0 155 69 268.5t186.5 170.5t268.5 57q212 0 402 -100zM627 729h147l-29 420q-64 25 -133 25q-109 0 -172 -56t-63 -166q0 -112 65.5 -167.5t184.5 -55.5z" />
    <glyph glyph-name="uni066A" unicode="&#x66a;" horiz-adv-x="1849" 
d="M1595 1468l-1085 -1503h-258l1085 1503h258zM780 1057q0 -185 -96.5 -292.5t-263.5 -107.5t-264 107.5t-97 292.5q0 181 97 288t264 107q166 0 263 -107t97 -288zM274 1057q0 -96 40 -152.5t106 -56.5t104.5 56t38.5 153q0 94 -38.5 150.5t-104.5 56.5t-106 -56.5
t-40 -150.5zM1792 381q0 -184 -96.5 -290.5t-263.5 -106.5q-168 0 -265.5 106.5t-97.5 290.5q0 183 98 290t265 107t263.5 -107t96.5 -290zM1286 381q0 -96 40 -152.5t106 -56.5t105.5 56.5t39.5 152.5q0 94 -39.5 151.5t-105.5 57.5t-106 -57.5t-40 -151.5z" />
    <glyph glyph-name="uni066B" unicode="&#x66b;" horiz-adv-x="636" 
d="M473 133q0 -33 -29 -96l-170 -344h-106l72 311q-70 44 -70 127q0 63 43.5 107.5t105.5 44.5q66 0 110 -43.5t44 -106.5z" />
    <glyph glyph-name="uni066C" unicode="&#x66c;" horiz-adv-x="714" 
d="M551 244l-279 -551h-108l129 551h258z" />
    <glyph glyph-name="uni066D" unicode="&#x66d;" horiz-adv-x="940" 
d="M336 635l-150 108l144 187l-228 69l58 175l223 -76l-4 233h182l-4 -233l223 76l58 -175l-226 -69l142 -187l-150 -108l-133 194z" />
    <glyph glyph-name="uni066E" unicode="&#x66e;" horiz-adv-x="2412" 
d="M143 510q0 169 64 367l268 -48q-41 -134 -41 -231q0 -291 338 -291h838q109 0 203 16t145 42v675h291v-905q-107 -62 -287.5 -98.5t-398.5 -36.5h-807q-304 0 -458.5 121t-154.5 389z" />
    <glyph glyph-name="uni066F" unicode="&#x66f;" horiz-adv-x="1845" 
d="M1681 909v-1235q-134 -93 -338 -151q-208 -60 -425 -60q-366 0 -572.5 183.5t-206.5 494.5q0 159 45 310l265 -52q-27 -99 -27 -196q0 -215 135.5 -324.5t394.5 -109.5q215 0 439 75v166h-131q-287 0 -446 132t-159 362q0 233 152.5 374.5t415.5 141.5q233 0 458 -111z
M1210 307h181v398q-87 40 -187 40q-117 0 -186.5 -58.5t-69.5 -162.5q0 -102 71 -159.5t191 -57.5z" />
    <glyph glyph-name="uni0670" unicode="&#x670;" 
d="M-76 1133v430h152v-430h-152z" />
    <glyph glyph-name="uni0671" unicode="&#x671;" horiz-adv-x="651" 
d="M180 0v1495h291v-1495h-291zM612 1847v-209h-614v160h98q53 121 135 182.5t181 61.5q94 0 147 -51.5t53 -143.5zM242 1798h217v33q0 33 -19.5 52.5t-56.5 19.5q-85 0 -141 -105z" />
    <glyph glyph-name="uni0679" unicode="&#x679;" horiz-adv-x="2412" 
d="M143 510q0 169 64 367l268 -48q-41 -134 -41 -231q0 -291 338 -291h838q109 0 203 16t145 42v675h291v-905q-107 -62 -287.5 -98.5t-398.5 -36.5h-807q-304 0 -458.5 121t-154.5 389zM1462 1231v-217h-592v160h45v366h148v-192q107 88 215 88q87 0 135.5 -55.5
t48.5 -149.5zM1063 1174h246v38q0 84 -74 84q-71 0 -172 -94v-28z" />
    <glyph glyph-name="uni067E" unicode="&#x67e;" horiz-adv-x="2412" 
d="M143 510q0 169 64 367l268 -48q-41 -134 -41 -231q0 -291 338 -291h838q109 0 203 16t145 42v675h291v-905q-107 -62 -287.5 -98.5t-398.5 -36.5h-807q-304 0 -458.5 121t-154.5 389zM893 -276q0 60 42 101.5t103 41.5q60 0 101 -41.5t41 -101.5t-41 -102t-101 -42
q-61 0 -103 42t-42 102zM1266 -279q0 61 42.5 103.5t102.5 42.5t100.5 -42t40.5 -104q0 -60 -40.5 -101.5t-100.5 -41.5t-102.5 41.5t-42.5 101.5zM1079 -578q0 61 42 103.5t102 42.5t100.5 -42t40.5 -104q0 -60 -40.5 -101.5t-100.5 -41.5t-102 41.5t-42 101.5z" />
    <glyph glyph-name="uni0686" unicode="&#x686;" horiz-adv-x="1468" 
d="M598 -383h127v-307h-57q-285 0 -446 130.5t-161 364.5q0 233 162.5 365.5t442.5 132.5h299q-41 49 -69 107t-54 149q-17 60 -28.5 95t-27.5 71.5t-31 55t-37.5 35.5t-49.5 24t-64 10q-109 0 -192 -68l-199 189q194 153 426 153q188 0 293.5 -104.5t169.5 -341.5
q47 -183 101.5 -281t146.5 -133l-80 -264h-676q-99 0 -159 -49.5t-60 -136.5q0 -92 60 -144.5t163 -52.5zM893 -408q-61 0 -103 42t-42 102t42 101.5t103 41.5q60 0 100.5 -41.5t40.5 -101.5t-40.5 -102t-100.5 -42zM1407 -266q0 -60 -40.5 -102t-100.5 -42t-103 42t-43 102
q0 61 43 103t103 42t100.5 -41.5t40.5 -103.5zM1219 -565q0 -60 -41 -102t-101 -42t-101.5 42t-41.5 102q0 61 41.5 103t101.5 42t101 -42t41 -103z" />
    <glyph glyph-name="uni0688" unicode="&#x688;" horiz-adv-x="1193" 
d="M1055 575v-575h-963v307h672v254q0 114 -58 159.5t-190 45.5h-244v291h177q233 0 363.5 -46.5t186.5 -149t56 -286.5zM733 1462v-217h-592v160h45v367h148v-193q107 88 215 88q87 0 135.5 -55.5t48.5 -149.5zM334 1405h246v39q0 84 -74 84q-71 0 -172 -94v-29z" />
    <glyph glyph-name="uni0691" unicode="&#x691;" horiz-adv-x="786" 
d="M-113 -526l56 295q18 -2 82 -2q161 0 229 73t68 234v934h290v-930q0 -311 -150.5 -463t-426.5 -152q-43 0 -148 11zM741 1425v-217h-591v160h45v367h147v-193q107 88 215 88q87 0 135.5 -55.5t48.5 -149.5zM342 1368h246v39q0 84 -74 84q-71 0 -172 -94v-29z" />
    <glyph glyph-name="uni0698" unicode="&#x698;" horiz-adv-x="786" 
d="M-113 -526l56 295q18 -2 82 -2q161 0 229 73t68 234v934h290v-930q0 -311 -150.5 -463t-426.5 -152q-43 0 -148 11zM328 1630q0 61 41.5 103.5t101.5 42.5t100.5 -42t40.5 -104q0 -60 -40.5 -101.5t-100.5 -41.5t-101.5 41.5t-41.5 101.5zM141 1331q0 60 42.5 102
t103.5 42q60 0 100.5 -42t40.5 -102t-40.5 -101.5t-100.5 -41.5q-61 0 -103.5 41.5t-42.5 101.5zM514 1331q0 61 41.5 102.5t103.5 41.5q60 0 101 -41.5t41 -102.5q0 -60 -41 -101.5t-101 -41.5t-102.5 41.5t-42.5 101.5z" />
    <glyph glyph-name="uni06A1" unicode="&#x6a1;" horiz-adv-x="2586" 
d="M2423 1008v-873q-107 -61 -289 -98t-399 -37h-979q-304 0 -458.5 121t-154.5 389q0 169 64 367l268 -48q-41 -134 -41 -231q0 -291 338 -291h903q-241 125 -241 385q0 139 70 242.5t190.5 156t273.5 52.5q251 0 455 -135zM1729 651q0 -122 107.5 -194t295.5 -86v450
q-78 37 -172 37q-106 0 -168.5 -55.5t-62.5 -151.5z" />
    <glyph glyph-name="uni06A4" unicode="&#x6a4;" horiz-adv-x="2586" 
d="M2423 1008v-873q-107 -61 -289 -98t-399 -37h-979q-304 0 -458.5 121t-154.5 389q0 169 64 367l268 -48q-41 -134 -41 -231q0 -291 338 -291h903q-241 125 -241 385q0 139 70 242.5t190.5 156t273.5 52.5q251 0 455 -135zM1729 651q0 -122 107.5 -194t295.5 -86v450
q-78 37 -172 37q-106 0 -168.5 -55.5t-62.5 -151.5zM1817 1737q0 61 41.5 103t101.5 42t100.5 -41.5t40.5 -103.5q0 -60 -40.5 -102t-100.5 -42t-101.5 42t-41.5 102zM1630 1438q0 60 42.5 101.5t103.5 41.5q60 0 100.5 -41.5t40.5 -101.5t-40.5 -102t-100.5 -42
q-61 0 -103.5 42t-42.5 102zM2003 1438q0 61 41.5 102t103.5 41q60 0 101 -41t41 -102q0 -60 -41 -102t-101 -42t-102.5 42t-42.5 102z" />
    <glyph glyph-name="uni06A9" unicode="&#x6a9;" horiz-adv-x="2297" 
d="M2150 434v-295q-120 -66 -305 -104q-184 -35 -360 -35h-729q-304 0 -458.5 121t-154.5 389q0 169 64 367l268 -48q-41 -134 -41 -231q0 -291 338 -291h744q215 0 342 60v63q-6 106 -65 150t-263 104l-293 80l-61 229l745 566l147 -187l-540 -405l149 -43
q113 -33 186.5 -63t131.5 -68.5t89 -88.5t47.5 -114.5t18.5 -155.5z" />
    <glyph glyph-name="uni06AF" unicode="&#x6af;" horiz-adv-x="2297" 
d="M1778 1581l-633 -475l-35 131l590 444zM2150 434v-295q-120 -66 -305 -104q-184 -35 -360 -35h-729q-304 0 -458.5 121t-154.5 389q0 169 64 367l268 -48q-41 -134 -41 -231q0 -291 338 -291h744q215 0 342 60v63q-6 106 -65 150t-263 104l-293 80l-61 229l745 566
l147 -187l-540 -405l149 -43q113 -33 186.5 -63t131.5 -68.5t89 -88.5t47.5 -114.5t18.5 -155.5z" />
    <glyph glyph-name="uni06BA" unicode="&#x6ba;" horiz-adv-x="1744" 
d="M139 143q0 162 43 310l267 -52q-27 -102 -27 -198q0 -212 123 -323t352 -111q189 0 381 79v945h303v-1119q-141 -95 -329.5 -153t-385.5 -58q-340 0 -533.5 183.5t-193.5 496.5z" />
    <glyph glyph-name="uni06BE" unicode="&#x6be;" horiz-adv-x="1798" 
d="M1661 512v-512h-1536q-33 0 -33 4v303h320q-97 111 -97 264q0 118 59 209t156.5 138t214.5 47q186 0 309.5 -108t123.5 -286q0 -155 -97 -266l287 -2v225q0 311 -168 451q-166 141 -434 141q-140 0 -256 -26v270q120 20 264 20q405 0 647 -213q240 -212 240 -659z
M575 524q0 -89 44.5 -145.5t128.5 -69.5q83 13 126.5 69.5t43.5 145.5q0 84 -47 134.5t-123 50.5t-124.5 -50.5t-48.5 -134.5z" />
    <glyph glyph-name="uni06C1" unicode="&#x6c1;" horiz-adv-x="1265" 
d="M109 512q0 150 68 272t188 191t268 69q228 0 377 -150.5t149 -381.5t-149 -381.5t-377 -150.5q-148 0 -268 69t-188 191t-68 272zM866 512q0 108 -64 178t-171 70q-103 0 -167.5 -70.5t-64.5 -177.5t64.5 -177.5t167.5 -70.5q107 0 171 70t64 178z" />
    <glyph glyph-name="uni06C2" unicode="&#x6c2;" horiz-adv-x="1265" 
d="M109 512q0 150 68 272t188 191t268 69q228 0 377 -150.5t149 -381.5t-149 -381.5t-377 -150.5q-148 0 -268 69t-188 191t-68 272zM866 512q0 108 -64 178t-171 70q-103 0 -167.5 -70.5t-64.5 -177.5t64.5 -177.5t167.5 -70.5q107 0 171 70t64 178zM729 1384h125v-176
h-444v176h98q-45 51 -45 121q0 80 55 133.5t144 53.5q102 0 176 -74l-99 -100q-22 22 -61 22q-32 0 -52 -20t-20 -52q0 -38 31.5 -61t91.5 -23z" />
    <glyph glyph-name="uni06C3" unicode="&#x6c3;" horiz-adv-x="1265" 
d="M109 512q0 150 68 272t188 191t268 69q228 0 377 -150.5t149 -381.5t-149 -381.5t-377 -150.5q-148 0 -268 69t-188 191t-68 272zM866 512q0 108 -64 178t-171 70q-103 0 -167.5 -70.5t-64.5 -177.5t64.5 -177.5t167.5 -70.5q107 0 171 70t64 178zM266 1362
q0 68 47.5 115t116.5 47q66 0 113 -47.5t47 -114.5q0 -68 -47 -116t-113 -48q-69 0 -116.5 48t-47.5 116zM676 1362q0 68 47.5 115t116.5 47q67 0 114 -47t47 -115t-47 -116t-114 -48q-69 0 -116.5 48t-47.5 116z" />
    <glyph glyph-name="uni06CC" unicode="&#x6cc;" horiz-adv-x="2332" 
d="M1450 473q0 -17 10 -59l211 -715q-142 -89 -358 -162q-216 -74 -436 -74q-341 0 -539.5 182t-198.5 494q0 155 43 312l267 -50q-27 -99 -27 -198q0 -210 123 -322t352 -112q110 0 236 24q133 25 206 57l-163 535q-27 83 -27 156q0 153 107.5 242t277.5 89h461l229 -809
l-266 -71l-174 596h-187q-69 0 -108 -30t-39 -85z" />
    <glyph glyph-name="uni06D2" unicode="&#x6d2;" horiz-adv-x="1736" 
d="M143 233q0 182 103 271q101 88 254 129l209 53q68 17 93 53t25 115v154h293v-240q0 -139 -56.5 -218t-207.5 -118l-319 -82q-103 -27 -103 -98q0 -42 31.5 -62t103.5 -20h1086v-309h-993q-263 0 -391 91t-128 281z" />
    <glyph glyph-name="uni06D3" unicode="&#x6d3;" horiz-adv-x="1736" 
d="M143 233q0 182 103 271q101 88 254 129l209 53q68 17 93 53t25 115v154h293v-240q0 -139 -56.5 -218t-207.5 -118l-319 -82q-103 -27 -103 -98q0 -42 31.5 -62t103.5 -20h1086v-309h-993q-263 0 -391 91t-128 281zM420 985h125v-176h-445v176h99q-45 51 -45 121
q0 80 54.5 133t143.5 53q103 0 176 -73l-98 -101q-23 23 -61 23q-32 0 -52 -20t-20 -52q0 -38 31.5 -61t91.5 -23z" />
    <glyph glyph-name="uni06D4" unicode="&#x6d4;" horiz-adv-x="722" 
d="M205 137q0 66 45.5 112t111.5 46t111 -46t45 -112t-45 -111.5t-111 -45.5t-111.5 45.5t-45.5 111.5z" />
    <glyph glyph-name="uni06F0" unicode="&#x6f0;" horiz-adv-x="759" 
d="M381 506l-227 225l227 227l225 -227z" />
    <glyph glyph-name="uni06F1" unicode="&#x6f1;" horiz-adv-x="743" 
d="M276 0l-102 1434h293l102 -1434h-293z" />
    <glyph glyph-name="uni06F2" unicode="&#x6f2;" horiz-adv-x="1157" 
d="M1034 1434v-301h-545l80 -1133h-293l-102 1434h860z" />
    <glyph glyph-name="uni06F3" unicode="&#x6f3;" horiz-adv-x="1478" 
d="M1128 1434h228v-482q-43 -49 -124 -81.5t-171 -32.5q-124 0 -225 67q-94 -67 -215 -67q-66 0 -113 20l67 -858h-286l-115 1434h289l24 -314q38 -14 95 -14q70 0 123 24v304h196v-304q53 -24 121 -24q60 0 106 24v304z" />
    <glyph glyph-name="uni06F4" unicode="&#x6f4;" horiz-adv-x="1290" 
d="M1008 997h172v-254h-664l51 -743h-291l-102 1434h293l31 -437h180q-51 66 -51 162q0 131 84 214t223 83q163 0 264 -98l-147 -148q-39 33 -101 33q-56 0 -86 -31t-30 -86q0 -61 44.5 -95t129.5 -34z" />
    <glyph glyph-name="uni06F5" unicode="&#x6f5;" horiz-adv-x="1359" 
d="M1231 459q0 -227 -95 -352t-249 -125q-69 0 -125 32t-82 88q-26 -56 -82 -88t-125 -32q-154 0 -249 125t-95 352q-1 106 22.5 217.5t71.5 215t113 185t155 128.5t189 44q99 3 189 -44t155 -128.5t113 -185t71.5 -215t22.5 -217.5zM952 508q1 105 -34.5 212.5t-100 179
t-137.5 67.5q-73 4 -137.5 -67.5t-100 -179t-34.5 -212.5q0 -130 34.5 -187t100.5 -57q84 0 114 80h45q30 -80 113 -80q69 0 103 56.5t34 187.5z" />
    <glyph glyph-name="uni06F6" unicode="&#x6f6;" horiz-adv-x="1101" 
d="M965 864l34 -246l-256 -36q-56 -10 -91.5 -20.5t-67 -31.5t-49 -44.5t-35.5 -70.5t-30.5 -98.5t-29.5 -138.5l-32 -178l-289 4l33 178q44 235 98 357q59 130 172 200q-176 108 -176 316q0 176 114 287.5t287 111.5q209 0 344 -129l-176 -164q-65 56 -145 56
q-81 0 -127.5 -49t-46.5 -134q0 -89 62.5 -141t182.5 -59z" />
    <glyph glyph-name="uni06F7" unicode="&#x6f7;" horiz-adv-x="1366" 
d="M993 1434h322q-245 -624 -443 -1434h-376q-201 822 -445 1434h322q85 -232 153 -469q79 -275 158 -639q83 379 158 643q64 224 151 465z" />
    <glyph glyph-name="uni06F8" unicode="&#x6f8;" horiz-adv-x="1366" 
d="M1315 0h-322q-87 241 -151 465q-76 266 -158 645q-78 -358 -158 -641q-68 -237 -153 -469h-322q244 615 445 1434h376q198 -816 443 -1434z" />
    <glyph glyph-name="uni06F9" unicode="&#x6f9;" horiz-adv-x="1284" 
d="M1110 0h-287l-30 453h-140q-262 0 -411.5 135t-149.5 370q0 155 69 268.5t186.5 170.5t268.5 57q212 0 402 -100zM627 729h147l-29 420q-64 25 -133 25q-109 0 -172 -56t-63 -166q0 -112 65.5 -167.5t184.5 -55.5z" />
    <glyph glyph-name="Wgrave" unicode="&#x1e80;" horiz-adv-x="2330" 
d="M1911 1434h360l-475 -1434h-336l-293 932l-295 -932h-337l-476 1434h361l299 -951l287 951h321l285 -949zM1112 1890l242 -344h-264l-295 344h317z" />
    <glyph glyph-name="wgrave" unicode="&#x1e81;" horiz-adv-x="1701" 
d="M1673 1024l-319 -1024h-328l-174 584l-172 -584h-330l-317 1024h303l194 -696l203 696h238l203 -696l194 696h305zM795 1481l241 -344h-264l-295 344h318z" />
    <glyph glyph-name="Wacute" unicode="&#x1e82;" horiz-adv-x="2330" 
d="M1911 1434h360l-475 -1434h-336l-293 932l-295 -932h-337l-476 1434h361l299 -951l287 951h321l285 -949zM1542 1890l-295 -344h-264l242 344h317z" />
    <glyph glyph-name="wacute" unicode="&#x1e83;" horiz-adv-x="1701" 
d="M1673 1024l-319 -1024h-328l-174 584l-172 -584h-330l-317 1024h303l194 -696l203 696h238l203 -696l194 696h305zM1223 1481l-295 -344h-264l241 344h318z" />
    <glyph glyph-name="Wdieresis" unicode="&#x1e84;" horiz-adv-x="2330" 
d="M1911 1434h360l-475 -1434h-336l-293 932l-295 -932h-337l-476 1434h361l299 -951l287 951h321l285 -949zM1077 1737q0 -57 -37 -95t-94 -38t-95 38t-38 95t38 94t95 37t94 -37t37 -94zM1522 1737q0 -57 -38 -95t-95 -38t-94.5 38t-37.5 95t37.5 94t94.5 37t95 -37
t38 -94z" />
    <glyph glyph-name="wdieresis" unicode="&#x1e85;" horiz-adv-x="1701" 
d="M1673 1024l-319 -1024h-328l-174 584l-172 -584h-330l-317 1024h303l194 -696l203 696h238l203 -696l194 696h305zM760 1327q0 -57 -37 -95t-94 -38t-95 38t-38 95t38 94t95 37t94 -37t37 -94zM1204 1327q0 -57 -38 -95t-95 -38t-94 38t-37 95t37 94t94 37t95 -37t38 -94
z" />
    <glyph glyph-name="uni1E9E" unicode="&#x1e9e;" horiz-adv-x="1624" 
d="M1536 422q0 -211 -132.5 -326.5t-373.5 -115.5q-189 0 -375 86l113 249q109 -65 229 -65q100 0 155.5 44.5t55.5 123.5q0 63 -42 99t-158 71l-93 26v174l166 299q-105 78 -260 78q-149 0 -237 -74.5t-88 -201.5v-889h-326v903q0 263 174 407t492 144q392 0 632 -252
l-231 -414q164 -60 231.5 -142.5t67.5 -223.5z" />
    <glyph glyph-name="Ygrave" unicode="&#x1ef2;" horiz-adv-x="1607" 
d="M1163 1434h387l-581 -932v-502h-328v498l-582 936h390l356 -596zM750 1890l241 -344h-264l-295 344h318z" />
    <glyph glyph-name="ygrave" unicode="&#x1ef3;" horiz-adv-x="1230" 
d="M1200 1024l-440 -1120q-124 -324 -422 -324q-137 0 -305 64l84 204q96 -38 178 -38q63 0 109.5 32t84.5 101l15 24l-449 1057h322l260 -696l246 696h317zM580 1481l241 -344h-264l-295 344h318z" />
    <glyph glyph-name="uni2009" unicode="&#x2009;" horiz-adv-x="204" 
 />
    <glyph glyph-name="endash" unicode="&#x2013;" horiz-adv-x="1073" 
d="M1001 659v-253h-927v253h927z" />
    <glyph glyph-name="emdash" unicode="&#x2014;" horiz-adv-x="1419" 
d="M74 406v253h1272v-253h-1272z" />
    <glyph glyph-name="quoteleft" unicode="&#x2018;" horiz-adv-x="473" 
d="M63 1032q0 40 23 78l227 358l88 -41l-100 -262q43 -17 67.5 -53t24.5 -80q0 -61 -48 -104t-116 -43q-69 0 -117.5 43t-48.5 104z" />
    <glyph glyph-name="quoteright" unicode="&#x2019;" horiz-adv-x="473" 
d="M403 1335q0 -35 -24 -78l-225 -358l-91 41l101 262q-41 17 -65.5 53.5t-24.5 79.5q0 62 48.5 106t115.5 44q68 0 116.5 -44.5t48.5 -105.5z" />
    <glyph glyph-name="quotesinglbase" unicode="&#x201a;" horiz-adv-x="473" 
d="M403 127q0 -35 -24 -78l-225 -358l-91 41l101 262q-41 17 -65.5 53.5t-24.5 79.5q0 61 48 105t116 44t116.5 -44t48.5 -105z" />
    <glyph glyph-name="quotedblleft" unicode="&#x201c;" horiz-adv-x="946" 
d="M63 1032q0 40 23 78l227 358l88 -41l-100 -262q43 -17 67.5 -53t24.5 -80q0 -61 -48 -104t-116 -43q-69 0 -117.5 43t-48.5 104zM537 1032q0 42 22 78l227 358l88 -41l-100 -262q43 -17 67.5 -53t24.5 -80q0 -61 -48 -104t-116 -43q-69 0 -117 43t-48 104z" />
    <glyph glyph-name="quotedblright" unicode="&#x201d;" horiz-adv-x="946" 
d="M403 1335q0 -35 -24 -78l-225 -358l-91 41l101 262q-41 17 -65.5 53.5t-24.5 79.5q0 62 48.5 106t115.5 44q68 0 116.5 -44.5t48.5 -105.5zM877 1335q0 -33 -25 -78l-225 -358l-90 41l100 262q-41 17 -65.5 53.5t-24.5 79.5q0 62 48.5 106t115.5 44q68 0 117 -44.5
t49 -105.5z" />
    <glyph glyph-name="quotedblbase" unicode="&#x201e;" horiz-adv-x="946" 
d="M403 127q0 -35 -24 -78l-225 -358l-91 41l101 262q-41 17 -65.5 53.5t-24.5 79.5q0 61 48 105t116 44t116.5 -44t48.5 -105zM877 127q0 -33 -25 -78l-225 -358l-90 41l100 262q-41 17 -65.5 53.5t-24.5 79.5q0 61 48 105t116 44t117 -44t49 -105z" />
    <glyph glyph-name="dagger" unicode="&#x2020;" horiz-adv-x="1128" 
d="M692 1454v-410h352v-231h-352v-1126h-256v1126h-350v231h350v410h256z" />
    <glyph glyph-name="daggerdbl" unicode="&#x2021;" horiz-adv-x="1128" 
d="M692 1454v-410h352v-231h-352v-483h352v-232h-352v-411h-256v411h-350v232h350v483h-350v231h350v410h256z" />
    <glyph glyph-name="bullet" unicode="&#x2022;" horiz-adv-x="835" 
d="M768 635q0 -143 -103 -246.5t-245 -103.5q-146 0 -249 103.5t-103 246.5q0 146 103 249t249 103q143 0 245.5 -103t102.5 -249z" />
    <glyph glyph-name="ellipsis" unicode="&#x2026;" horiz-adv-x="1507" 
d="M418 127q0 -63 -48.5 -106.5t-117.5 -43.5q-68 0 -116 43.5t-48 106.5q0 61 48 105t116 44q69 0 117.5 -43.5t48.5 -105.5zM920 127q0 -63 -48.5 -106.5t-117.5 -43.5q-68 0 -116 43.5t-48 106.5q0 61 48 105t116 44q69 0 117.5 -43.5t48.5 -105.5zM1421 127
q0 -63 -48.5 -106.5t-117.5 -43.5q-68 0 -115.5 43.5t-47.5 106.5q0 62 48 105.5t115 43.5q69 0 117.5 -43.5t48.5 -105.5z" />
    <glyph glyph-name="perthousand" unicode="&#x2030;" horiz-adv-x="2678" 
d="M1599 1468l-1089 -1503h-262l1089 1503h262zM780 1057q0 -185 -96.5 -292.5t-263.5 -107.5t-264 107.5t-97 292.5q0 181 97 288t264 107q166 0 263 -107t97 -288zM274 1057q0 -96 40 -152.5t106 -56.5t104.5 56t38.5 153q0 94 -38.5 150.5t-104.5 56.5t-106 -56.5
t-40 -150.5zM1792 381q0 -184 -96.5 -290.5t-263.5 -106.5q-168 0 -265.5 106.5t-97.5 290.5q0 183 98 290t265 107t263.5 -107t96.5 -290zM2621 381q0 -184 -96.5 -290.5t-263.5 -106.5t-263.5 106.5t-96.5 290.5q0 183 96.5 290t263.5 107t263.5 -107t96.5 -290zM1286 381
q0 -96 40 -152.5t106 -56.5t105.5 56.5t39.5 152.5q0 94 -39.5 151.5t-105.5 57.5t-106 -57.5t-40 -151.5zM2116 381q0 -96 39.5 -152.5t105.5 -56.5t105.5 56.5t39.5 152.5q0 94 -39.5 151.5t-105.5 57.5t-105.5 -57.5t-39.5 -151.5z" />
    <glyph glyph-name="guilsinglleft" unicode="&#x2039;" horiz-adv-x="712" 
d="M428 1006l225 -119l-270 -344l270 -344l-227 -115l-367 459z" />
    <glyph glyph-name="guilsinglright" unicode="&#x203a;" horiz-adv-x="712" 
d="M287 1006l366 -463l-364 -459l-228 115l269 344l-269 344z" />
    <glyph glyph-name="fraction" unicode="&#x2044;" horiz-adv-x="339" 
d="M750 1415l-916 -1450h-244l914 1450h246z" />
    <glyph glyph-name="uni2070" unicode="&#x2070;" horiz-adv-x="878" 
d="M831 1118q0 -193 -106 -311q-107 -119 -285 -119q-179 0 -286 118.5t-107 311.5t107 311.5t286 118.5t285 -118t106 -312zM283 1118q0 -108 42 -167.5t115 -59.5t114.5 59.5t41.5 167.5t-41.5 168t-114.5 60t-115 -60t-42 -168z" />
    <glyph glyph-name="uni2074" unicode="&#x2074;" horiz-adv-x="825" 
d="M674 1065h114v-191h-114v-174h-232v174h-397l-27 183l392 479h264v-471zM260 1065h182v242z" />
    <glyph glyph-name="uni2075" unicode="&#x2075;" horiz-adv-x="765" 
d="M723 979q0 -127 -101 -209t-251 -82q-205 0 -351 107l115 147q95 -59 193 -59q73 0 112 26.5t39 77.5q0 47 -32.5 73.5t-88.5 26.5q-75 0 -129 -51l-149 78l18 422h578v-182h-373l-4 -131q56 16 109 16q141 0 228 -72t87 -188z" />
    <glyph glyph-name="uni2076" unicode="&#x2076;" horiz-adv-x="770" 
d="M731 983q0 -125 -96.5 -210t-237.5 -85q-164 0 -257 111.5t-93 304.5q0 203 104.5 323.5t282.5 120.5q152 0 279 -94l-90 -147q-86 57 -170 57q-72 0 -118 -47t-56 -133q71 51 180 51q121 0 196.5 -69.5t75.5 -182.5zM514 979q0 56 -28.5 86.5t-82.5 30.5
q-43 0 -76.5 -22t-50.5 -60q12 -158 125 -158q51 0 82 33t31 90z" />
    <glyph glyph-name="uni2077" unicode="&#x2077;" horiz-adv-x="718" 
d="M29 1536h661v-172l-371 -664h-262l363 635h-391v201z" />
    <glyph glyph-name="uni2078" unicode="&#x2078;" horiz-adv-x="800" 
d="M756 940q0 -107 -102.5 -179.5t-254.5 -72.5t-253 72t-101 180q0 64 36 117.5t101 85.5q-110 60 -110 172q0 101 92 166q94 67 235 67q142 0 236 -67q94 -64 94 -166q0 -114 -111 -174q65 -30 101.5 -83.5t36.5 -117.5zM293 1288q0 -42 27.5 -65t78.5 -23t80 23.5
t29 64.5q0 42 -29.5 67t-79.5 25q-49 0 -77.5 -25t-28.5 -67zM522 961q0 47 -32 72.5t-89 25.5q-56 0 -90.5 -28t-34.5 -73q0 -44 34 -72t89 -28q57 0 90 28t33 75z" />
    <glyph glyph-name="uni2079" unicode="&#x2079;" horiz-adv-x="770" 
d="M723 1135q0 -203 -104.5 -325t-282.5 -122q-152 0 -279 94l90 148q92 -56 170 -56q72 0 117.5 46.5t57.5 132.5q-72 -52 -181 -52q-121 0 -196.5 70.5t-75.5 183.5q0 124 96.5 208.5t237.5 84.5q162 0 256 -110.5t94 -302.5zM494 1223q-12 159 -125 159q-51 0 -82 -32.5
t-31 -89.5q0 -55 30 -87t81 -32q43 0 76.5 22t50.5 60z" />
    <glyph glyph-name="uni2080" unicode="&#x2080;" horiz-adv-x="878" 
d="M831 418q0 -194 -106 -312t-285 -118t-286 118.5t-107 311.5t107 311.5t286 118.5q178 0 285 -119q106 -118 106 -311zM283 418q0 -108 42 -168t115 -60t114.5 60t41.5 168t-41.5 167.5t-114.5 59.5t-115 -59.5t-42 -167.5z" />
    <glyph glyph-name="uni2081" unicode="&#x2081;" horiz-adv-x="538" 
d="M436 836v-836h-233v631l-142 -31l-41 174l240 62h176z" />
    </font>
</defs>
</svg>
