<svg width="24" height="24" viewBox="0 0 24 24" fill="none" xmlns="http://www.w3.org/2000/svg">
<path d="M3.59961 4.1999C3.59961 3.72251 3.78925 3.26468 4.12682 2.92711C4.46438 2.58954 4.92222 2.3999 5.39961 2.3999H13.7996C14.277 2.3999 14.7348 2.58954 15.0724 2.92711C15.41 3.26468 15.5996 3.72251 15.5996 4.1999V6.3515L19.5212 10.2731C20.0835 10.8355 20.3994 11.5982 20.3996 12.3935V20.9999C20.3996 21.159 20.3364 21.3116 20.2239 21.4242C20.1114 21.5367 19.9587 21.5999 19.7996 21.5999C19.6405 21.5999 19.4879 21.5367 19.3753 21.4242C19.2628 21.3116 19.1996 21.159 19.1996 20.9999V12.3935C19.1992 11.9163 19.0093 11.4587 18.6716 11.1215L15.5996 8.0495V11.7515L16.6244 12.7751C16.7369 12.8878 16.8001 13.0405 16.7999 13.1997C16.7998 13.3589 16.7365 13.5116 16.6238 13.6241C16.568 13.6798 16.5018 13.724 16.429 13.7541C16.3561 13.7842 16.278 13.7997 16.1992 13.7996C16.04 13.7995 15.8873 13.7362 15.7748 13.6235L12.1748 10.0235C11.6684 9.5171 11.3864 9.5387 11.2628 9.5699C11.0552 9.6203 10.8716 9.7859 10.6148 10.0331C10.4948 10.1483 10.4444 10.2611 10.4684 10.4291C10.4996 10.6391 10.664 11.0147 11.2244 11.5751L12.68 13.0307L13.0232 13.3751C13.0791 13.4308 13.1235 13.497 13.1537 13.5699C13.184 13.6428 13.1996 13.721 13.1996 13.7999C13.1996 14.7287 13.2068 15.6635 13.4636 16.3691C13.586 16.7063 13.7528 16.9523 13.9724 17.1167C14.1872 17.2775 14.504 17.3999 14.9996 17.3999C15.1587 17.3999 15.3114 17.4631 15.4239 17.5756C15.5364 17.6882 15.5996 17.8408 15.5996 17.9999V19.7999C15.5996 20.2773 15.41 20.7351 15.0724 21.0727C14.7348 21.4103 14.277 21.5999 13.7996 21.5999H5.39961C4.92222 21.5999 4.46438 21.4103 4.12682 21.0727C3.78925 20.7351 3.59961 20.2773 3.59961 19.7999V4.1999ZM9.59961 8.9999C9.09569 8.99983 8.59988 9.1267 8.15793 9.36879C7.71598 9.61088 7.34213 9.9604 7.07088 10.3851C6.79964 10.8098 6.63974 11.2959 6.60595 11.7987C6.57216 12.3015 6.66556 12.8047 6.87753 13.2619C7.0895 13.719 7.41322 14.1154 7.8188 14.4145C8.22438 14.7135 8.69876 14.9056 9.19815 14.973C9.69754 15.0403 10.2059 14.9808 10.6762 14.7999C11.1465 14.619 11.5637 14.3226 11.8892 13.9379L11.8292 13.8779L10.3748 12.4235C9.73521 11.7839 9.36681 11.1827 9.28161 10.6043C9.24024 10.3415 9.26462 10.0726 9.35257 9.82149C9.44052 9.57041 9.58929 9.34504 9.78561 9.1655L9.82641 9.1259L9.93921 9.0179C9.82643 9.00556 9.71306 8.99955 9.59961 8.9999ZM11.9996 19.7999V20.3999H13.1996V19.7999C13.1996 19.6408 13.2628 19.4882 13.3753 19.3756C13.4879 19.2631 13.6405 19.1999 13.7996 19.1999H14.3996V18.5519C13.9875 18.4893 13.5964 18.3283 13.2596 18.0827C12.8942 18.1976 12.575 18.4261 12.3484 18.7349C12.1218 19.0438 11.9996 19.4168 11.9996 19.7999ZM4.79961 5.9999H5.39961C5.877 5.9999 6.33484 5.81026 6.6724 5.47269C7.00997 5.13513 7.19961 4.67729 7.19961 4.1999V3.5999H5.99961V4.1999C5.99961 4.35903 5.93639 4.51164 5.82387 4.62417C5.71135 4.73669 5.55874 4.7999 5.39961 4.7999H4.79961V5.9999ZM11.9996 4.1999C11.9996 4.67729 12.1893 5.13513 12.5268 5.47269C12.8644 5.81026 13.3222 5.9999 13.7996 5.9999H14.3996V4.7999H13.7996C13.6405 4.7999 13.4879 4.73669 13.3753 4.62417C13.2628 4.51164 13.1996 4.35903 13.1996 4.1999V3.5999H11.9996V4.1999ZM7.19961 19.7999C7.19961 19.3225 7.00997 18.8647 6.6724 18.5271C6.33484 18.1895 5.877 17.9999 5.39961 17.9999H4.79961V19.1999H5.39961C5.55874 19.1999 5.71135 19.2631 5.82387 19.3756C5.93639 19.4882 5.99961 19.6408 5.99961 19.7999V20.3999H7.19961V19.7999Z" fill="#33B6BF"/>
</svg>
