<svg width="24" height="24" viewBox="0 0 24 24" fill="none" xmlns="http://www.w3.org/2000/svg">
<path d="M18.0003 2.25012C18.0005 2.10159 17.9567 1.95633 17.8743 1.83274C17.7919 1.70916 17.6747 1.61282 17.5375 1.55595C17.4002 1.49907 17.2492 1.48421 17.1036 1.51326C16.9579 1.54231 16.8242 1.61396 16.7193 1.71912L13.7193 4.71912C13.6497 4.7889 13.5945 4.87171 13.5569 4.96283C13.5193 5.05394 13.5001 5.15156 13.5003 5.25012V9.43962L12.3888 10.5496C12.1664 10.4906 11.9335 10.4834 11.7079 10.5286C11.4824 10.5739 11.2702 10.6702 11.0877 10.8104C10.9053 10.9505 10.7574 11.1306 10.6556 11.3369C10.5537 11.5432 10.5006 11.7701 10.5003 12.0001C10.5004 12.2136 10.546 12.4246 10.6342 12.619C10.7224 12.8134 10.851 12.9868 11.0115 13.1275C11.1721 13.2682 11.3608 13.373 11.5651 13.4349C11.7694 13.4969 11.9845 13.5145 12.1962 13.4866C12.4078 13.4587 12.6111 13.386 12.7923 13.2732C12.9736 13.1605 13.1288 13.0104 13.2474 12.8329C13.366 12.6554 13.4454 12.4547 13.4802 12.2441C13.515 12.0335 13.5044 11.8178 13.4493 11.6116L14.5608 10.5001H18.7503C18.8488 10.5003 18.9464 10.481 19.0376 10.4435C19.1287 10.4059 19.2115 10.3507 19.2813 10.2811L22.2813 7.28112C22.3864 7.17623 22.4581 7.04247 22.4871 6.89681C22.5162 6.75114 22.5013 6.60014 22.4444 6.46293C22.3876 6.32572 22.2912 6.20848 22.1676 6.12609C22.0441 6.0437 21.8988 5.99986 21.7503 6.00012H18.0003V2.25012ZM20.9163 10.7671C21.1744 12.6349 20.8394 14.5365 19.9585 16.2036C19.0777 17.8707 17.6955 19.2191 16.0071 20.0584C14.3187 20.8977 12.4093 21.1855 10.5485 20.8812C8.68775 20.5769 6.96952 19.6959 5.6364 18.3625C4.30328 17.0291 3.4226 15.3107 3.11868 13.4499C2.81475 11.589 3.10293 9.67971 3.94254 7.99147C4.78216 6.30322 6.13079 4.92131 7.79807 4.0408C9.46534 3.16028 11.3671 2.82565 13.2348 3.08412L12.6603 3.65862C12.4511 3.86753 12.2851 4.11562 12.1719 4.3887C12.0586 4.66177 12.0003 4.95449 12.0003 5.25012C10.6652 5.25012 9.36019 5.646 8.25016 6.3877C7.14013 7.1294 6.27496 8.18361 5.76407 9.41701C5.25318 10.6504 5.11951 12.0076 5.37996 13.317C5.64041 14.6264 6.28328 15.8291 7.22729 16.7731C8.17129 17.7171 9.37403 18.36 10.6834 18.6204C11.9928 18.8809 13.35 18.7472 14.5834 18.2363C15.8168 17.7254 16.871 16.8603 17.6127 15.7502C18.3544 14.6402 18.7503 13.3351 18.7503 12.0001C19.3468 11.9996 19.9187 11.7622 20.3403 11.3401L20.9163 10.7671ZM12.0003 6.75012C10.9619 6.75012 9.94687 7.05803 9.08352 7.63491C8.22016 8.21178 7.54725 9.03172 7.14989 9.99103C6.75253 10.9503 6.64856 12.0059 6.85114 13.0243C7.05371 14.0427 7.55372 14.9782 8.28795 15.7124C9.02217 16.4467 9.95763 16.9467 10.976 17.1492C11.9944 17.3518 13.05 17.2478 14.0093 16.8505C14.9687 16.4531 15.7886 15.7802 16.3655 14.9169C16.9424 14.0535 17.2503 13.0385 17.2503 12.0001H15.1818L14.9943 12.1876C14.9582 12.7639 14.7566 13.3175 14.4137 13.782C14.0708 14.2465 13.6011 14.6022 13.061 14.8064C12.5209 15.0106 11.9334 15.0546 11.3689 14.9331C10.8045 14.8116 10.2871 14.5299 9.87879 14.1216C9.47052 13.7133 9.18874 13.1959 9.06726 12.6314C8.94579 12.067 8.98978 11.4794 9.19396 10.9394C9.39815 10.3993 9.75384 9.9296 10.2184 9.58668C10.6829 9.24377 11.2365 9.04218 11.8128 9.00612L12.0003 8.81862V6.75012Z" fill="#33B6BF"/>
</svg>
