<svg width="251" height="75" viewBox="0 0 251 75" xmlns="http://www.w3.org/2000/svg">
    <path d="M71.8301 30.16C72.5993 28.6682 73.6134 27.3161 74.8301 26.16C77.7616 23.2386 81.7315 21.5983 85.8701 21.5983C90.0088 21.5983 93.9786 23.2386 96.9101 26.16L97.1101 26.36L109.11 8.23001C105 5.08001 96.3101 1.45556e-05 85.8401 1.45556e-05C80.9636 -0.0698775 76.1242 0.857363 71.6188 2.72485C67.1135 4.59233 63.0372 7.36067 59.6401 10.86C54.2835 16.0588 50.6976 22.8107 49.3901 30.16H71.8301Z"/>
    <path d="M73.59 30.1499H40.77C38.9613 30.1499 37.2266 30.8684 35.9476 32.1474C34.6686 33.4264 33.95 35.1611 33.95 36.9699C33.95 38.7787 34.6686 40.5134 35.9476 41.7924C37.2266 43.0714 38.9613 43.7899 40.77 43.7899H71.34L49.61 46.7899C47.7109 49.27 45.1196 51.1319 42.1633 52.1407C39.2069 53.1495 36.018 53.2599 32.9989 52.4579C29.9799 51.656 27.266 49.9778 25.1999 47.6349C23.1338 45.2921 21.808 42.3897 21.3899 39.2941C20.9718 36.1985 21.48 33.0484 22.8505 30.2413C24.221 27.4343 26.3923 25.0962 29.0904 23.522C31.7885 21.9479 34.8925 21.2083 38.0105 21.3965C41.1286 21.5848 44.121 22.6925 46.61 24.5799C48.5128 17.5487 52.4428 11.233 57.91 6.41989C50.7914 1.61393 42.2267 -0.575424 33.675 0.224778C25.1233 1.02498 17.1134 4.76524 11.01 10.8084C4.9065 16.8516 1.08692 24.8239 0.201862 33.3673C-0.683193 41.9106 1.42103 50.4966 6.15609 57.6626C10.8912 64.8286 17.9641 70.1314 26.1702 72.6676C34.3763 75.2039 43.2079 74.8167 51.1606 71.572C59.1132 68.3274 65.695 62.426 69.7848 54.8731C73.8746 47.3202 75.2193 38.583 73.59 30.1499Z"/>
    <path d="M135.77 42.0001C135.77 40.3301 136.83 39.8301 138.13 40.8701L145.8 47.0001C146.101 47.2146 146.347 47.4981 146.517 47.8268C146.686 48.1556 146.775 48.5202 146.775 48.8901C146.775 49.26 146.686 49.6245 146.517 49.9533C146.347 50.2821 146.101 50.5655 145.8 50.7801L138.13 57.0001C136.83 58.0001 135.77 57.5301 135.77 55.8701V42.0001Z"/>
    <path d="M234 -4.93779e-05C232.501 -0.0216424 231.013 0.255504 229.622 0.815219C228.231 1.37493 226.966 2.20601 225.9 3.25995L216.6 12.6C216.314 12.8938 215.973 13.1283 215.597 13.2899C215.22 13.4516 214.815 13.5372 214.405 13.5418C213.995 13.5465 213.589 13.4701 213.209 13.317C212.828 13.164 212.482 12.9373 212.19 12.65V12.6L202.8 3.25995C201.738 2.21128 200.479 1.38328 199.096 0.823749C197.713 0.264214 196.232 -0.0157726 194.74 -4.93779e-05H178.13V41.68C177.07 40.06 163.78 19.77 159.13 12.88C155.91 8.05995 150.43 0.299951 139.56 0.299951C128.69 0.299951 123.23 8.04995 120 12.88C114.47 21.15 98.3699 46.2799 98.3699 46.2799C98.3699 46.2799 94.6199 52.2 85.8599 52.2099C81.5799 52.2099 77.1999 51.02 74.2099 47.93C73.8468 47.5843 73.5124 47.2097 73.2099 46.81C72.458 45.9075 71.8477 44.8959 71.3999 43.81L49.6699 46.81C51.2599 52.99 54.8299 58.49 59.6699 63.36C60.3299 64.0099 60.9999 64.64 61.6699 65.23C68.3221 71.1594 76.9599 74.3718 85.8699 74.23C91.8946 74.2755 97.8445 72.8938 103.233 70.198C108.621 67.5022 113.294 63.5689 116.87 58.72L131.7 36C134.44 32.24 135.58 29.8899 139.56 29.76C143.56 29.8899 144.68 32.24 147.42 36C147.42 36 161.21 57.49 166.16 64.4C169.27 68.75 173.73 74.17 185.16 74.17H199.52V37.0999L210.58 48.0999C211.601 49.0634 212.951 49.6 214.355 49.6C215.759 49.6 217.109 49.0634 218.13 48.0999L229.19 37.0999V74.16H250.61V-4.93779e-05H234Z"/>
</svg>
