<svg width="62" height="62" viewBox="0 0 62 62" fill="none" xmlns="http://www.w3.org/2000/svg">
<g filter="url(#filter0_d_45_1910)">
<rect x="60" y="60" width="60" height="60" transform="rotate(180 60 60)" fill="white" fill-opacity="0.2"/>
<path fill-rule="evenodd" clip-rule="evenodd" d="M21.892 30.2955C21.4527 29.8562 21.4527 29.1438 21.892 28.7045L28.642 21.9545C29.0813 21.5152 29.7937 21.5152 30.233 21.9545C30.6723 22.3938 30.6723 23.1062 30.233 23.5455L25.4035 28.375L37.3125 28.375C37.9338 28.375 38.4375 28.8787 38.4375 29.5C38.4375 30.1213 37.9338 30.625 37.3125 30.625L25.4035 30.625L30.233 35.4545C30.6723 35.8938 30.6723 36.6062 30.233 37.0455C29.7937 37.4848 29.0813 37.4848 28.642 37.0455L21.892 30.2955Z" fill="#1A1F58"/>
</g>
<defs>
<filter id="filter0_d_45_1910" x="0" y="0" width="62" height="62" filterUnits="userSpaceOnUse" color-interpolation-filters="sRGB">
<feFlood flood-opacity="0" result="BackgroundImageFix"/>
<feColorMatrix in="SourceAlpha" type="matrix" values="0 0 0 0 0 0 0 0 0 0 0 0 0 0 0 0 0 0 127 0" result="hardAlpha"/>
<feOffset dx="2" dy="2"/>
<feComposite in2="hardAlpha" operator="out"/>
<feColorMatrix type="matrix" values="0 0 0 0 0.101961 0 0 0 0 0.121569 0 0 0 0 0.345098 0 0 0 1 0"/>
<feBlend mode="normal" in2="BackgroundImageFix" result="effect1_dropShadow_45_1910"/>
<feBlend mode="normal" in="SourceGraphic" in2="effect1_dropShadow_45_1910" result="shape"/>
</filter>
</defs>
</svg>
