<svg width="62" height="62" viewBox="0 0 62 62" fill="none" xmlns="http://www.w3.org/2000/svg">
<g filter="url(#filter0_d_45_1906)">
<rect width="60" height="60" fill="white" fill-opacity="0.2"/>
<path fill-rule="evenodd" clip-rule="evenodd" d="M38.108 29.7045C38.5473 30.1438 38.5473 30.8562 38.108 31.2955L31.358 38.0455C30.9187 38.4848 30.2063 38.4848 29.767 38.0455C29.3277 37.6062 29.3277 36.8938 29.767 36.4545L34.5965 31.625L22.6875 31.625C22.0662 31.625 21.5625 31.1213 21.5625 30.5C21.5625 29.8787 22.0662 29.375 22.6875 29.375L34.5965 29.375L29.767 24.5455C29.3277 24.1062 29.3277 23.3938 29.767 22.9545C30.2063 22.5152 30.9187 22.5152 31.358 22.9545L38.108 29.7045Z" fill="#1A1F58"/>
</g>
<defs>
<filter id="filter0_d_45_1906" x="0" y="0" width="62" height="62" filterUnits="userSpaceOnUse" color-interpolation-filters="sRGB">
<feFlood flood-opacity="0" result="BackgroundImageFix"/>
<feColorMatrix in="SourceAlpha" type="matrix" values="0 0 0 0 0 0 0 0 0 0 0 0 0 0 0 0 0 0 127 0" result="hardAlpha"/>
<feOffset dx="2" dy="2"/>
<feComposite in2="hardAlpha" operator="out"/>
<feColorMatrix type="matrix" values="0 0 0 0 0.101961 0 0 0 0 0.121569 0 0 0 0 0.345098 0 0 0 1 0"/>
<feBlend mode="normal" in2="BackgroundImageFix" result="effect1_dropShadow_45_1906"/>
<feBlend mode="normal" in="SourceGraphic" in2="effect1_dropShadow_45_1906" result="shape"/>
</filter>
</defs>
</svg>
